<svg xmlns="http://www.w3.org/2000/svg" xmlns:xlink="http://www.w3.org/1999/xlink" version="1.1" id="Layer_1" x="0" y="0" viewBox="144 542.2 2287.5 916.8" xml:space="preserve" enable-background="new 144 542.2 2287.5 916.8">
  <style type="text/css">
    
	.st0{fill:#819F34;}
	.st1{fill:none;}
	.st2{fill:#578D18;}

  </style>
  <path class="st0" d="M1235.8 1061.6c0-20.6 0-41.1 0-61.7 0-14.7 0-29.3 0-44 0-5 0-10 0-15.1 0-1.8-0.9-6.6 0-8.2 1.4-2.6 139.9-1.1 143.3-1.1 15.2 0 30.5 0 45.7 0 10.3 0 20.7-0.2 76-0.4v132.1L1235.8 1061.6zM1388.2 944.5c-1.1-1.9 0.1-1-3.3-1.3 -0.8-0.1-6.9-0.7-7.6 0 -1.4 1.4-0.5 13.7 0 15.7 0.8 3.2-0.7 1.4 2.6 2.3 2.4 0.6 5.7 0 8.3 0C1388.2 957.4 1390 947.7 1388.2 944.5zM1388.2 972.9c-1.1-1.9 0.1-1-3.3-1.3 -0.8-0.1-6.9-0.7-7.6 0 -1.4 1.4-0.5 13.7 0 15.7 0.8 3.2-0.7 1.4 2.6 2.3 2.4 0.6 5.7 0 8.3 0C1388.2 985.7 1390 976.1 1388.2 972.9zM1366.3 944.5c-1.1-1.9 0.1-1-3.3-1.3 -0.8-0.1-6.9-0.7-7.6 0 -1.4 1.4-0.5 13.7 0 15.7 0.8 3.2-0.7 1.4 2.6 2.3 2.4 0.6 5.7 0 8.3 0C1366.3 957.4 1368.1 947.7 1366.3 944.5zM1366.3 972.9c-1.1-1.9 0.1-1-3.3-1.3 -0.8-0.1-6.9-0.7-7.6 0 -1.4 1.4-0.5 13.7 0 15.7 0.8 3.2-0.7 1.4 2.6 2.3 2.4 0.6 5.7 0 8.3 0C1366.3 985.7 1368.1 976.1 1366.3 972.9zM1344.3 944.5c-1.1-1.9 0.1-1-3.3-1.3 -0.8-0.1-6.9-0.7-7.6 0 -1.4 1.4-0.5 13.7 0 15.7 0.8 3.2-0.7 1.4 2.6 2.3 2.4 0.6 5.7 0 8.3 0C1344.3 957.4 1346.1 947.7 1344.3 944.5zM1344.3 972.9c-1.1-1.9 0.1-1-3.3-1.3 -0.8-0.1-6.9-0.7-7.6 0 -1.4 1.4-0.5 13.7 0 15.7 0.8 3.2-0.7 1.4 2.6 2.3 2.4 0.6 5.7 0 8.3 0C1344.3 985.7 1346.1 976.1 1344.3 972.9zM1388.2 1002.7c-1.1-1.9 0.1-1-3.3-1.3 -0.8-0.1-6.9-0.7-7.6 0 -1.4 1.4-0.5 13.7 0 15.7 0.8 3.2-0.7 1.4 2.6 2.3 2.4 0.6 5.7 0 8.3 0C1388.2 1015.5 1390 1005.9 1388.2 1002.7zM1366.3 1002.7c-1.1-1.9 0.1-1-3.3-1.3 -0.8-0.1-6.9-0.7-7.6 0 -1.4 1.4-0.5 13.7 0 15.7 0.8 3.2-0.7 1.4 2.6 2.3 2.4 0.6 5.7 0 8.3 0C1366.3 1015.5 1368.1 1005.9 1366.3 1002.7zM1344.3 1002.7c-1.1-1.9 0.1-1-3.3-1.3 -0.8-0.1-6.9-0.7-7.6 0 -1.4 1.4-0.5 13.7 0 15.7 0.8 3.2-0.7 1.4 2.6 2.3 2.4 0.6 5.7 0 8.3 0C1344.3 1015.5 1346.1 1005.9 1344.3 1002.7zM1482.9 944.5c-1.1-1.9 0.1-1-3.3-1.3 -0.8-0.1-6.9-0.7-7.6 0 -1.4 1.4-0.5 13.7 0 15.7 0.8 3.2-0.7 1.4 2.6 2.3 2.4 0.6 5.7 0 8.3 0C1482.9 957.4 1484.7 947.7 1482.9 944.5zM1482.9 972.9c-1.1-1.9 0.1-1-3.3-1.3 -0.8-0.1-6.9-0.7-7.6 0 -1.4 1.4-0.5 13.7 0 15.7 0.8 3.2-0.7 1.4 2.6 2.3 2.4 0.6 5.7 0 8.3 0C1482.9 985.7 1484.7 976.1 1482.9 972.9zM1460.9 944.5c-1.1-1.9 0.1-1-3.3-1.3 -0.8-0.1-6.9-0.7-7.6 0 -1.4 1.4-0.5 13.7 0 15.7 0.8 3.2-0.7 1.4 2.6 2.3 2.4 0.6 5.7 0 8.3 0C1460.9 957.4 1462.7 947.7 1460.9 944.5zM1460.9 972.9c-1.1-1.9 0.1-1-3.3-1.3 -0.8-0.1-6.9-0.7-7.6 0 -1.4 1.4-0.5 13.7 0 15.7 0.8 3.2-0.7 1.4 2.6 2.3 2.4 0.6 5.7 0 8.3 0C1460.9 985.7 1462.7 976.1 1460.9 972.9zM1482.9 1002.7c-1.1-1.9 0.1-1-3.3-1.3 -0.8-0.1-6.9-0.7-7.6 0 -1.4 1.4-0.5 13.7 0 15.7 0.8 3.2-0.7 1.4 2.6 2.3 2.4 0.6 5.7 0 8.3 0C1482.9 1015.5 1484.7 1005.9 1482.9 1002.7zM1460.9 1002.7c-1.1-1.9 0.1-1-3.3-1.3 -0.8-0.1-6.9-0.7-7.6 0 -1.4 1.4-0.5 13.7 0 15.7 0.8 3.2-0.7 1.4 2.6 2.3 2.4 0.6 5.7 0 8.3 0C1460.9 1015.5 1462.7 1005.9 1460.9 1002.7z"/>
  <path class="st0" d="M1852.2 1065.5v-92.7 -4.5V840.7c-10.4 0.2-20.8 0.4-31 0.4 -15.2 0-30.5 0-45.7 0 -3.4 0-11.9-1.5-13.3 1.1 -0.9 1.6 0 6.4 0 8.2 0 5 0 10 0 15.1 0 14.7 0 29.3 0 44 0 19.6 0 39.2 0 58.9 0 0.8 0 1.8 0 2.8 0 4.4 0 10.9 0 17.7 -5.1 0-10.3 0-15.4 0 -1.4 0-5.4-0.7-6.6 0 -1.5 0.9-0.7 0.4-1 3 -1.9 15.9 0 33.2 0 49.2 0 3.9-2.3 23.2 0.6 25.2 1 0.7 5 0 6.2 0 4 0 8.1 0 12.1 0 1.5 0 3 0 4.5 0 2.4 0 4.8 0 7.2 0 0.6-0.1 1.1-0.1 1.4-0.1 2.1 0 37.2 0 82 0C1852.8 1066 1852.4 1065.8 1852.2 1065.5zM1823.7 852.8c0.7-0.7 6.8-0.1 7.6 0 3.4 0.3 2.2-0.6 3.3 1.3 1.8 3.2 0 12.8 0 16.6 -2.5 0-5.8 0.6-8.3 0 -3.4-0.8-1.8 0.9-2.6-2.3C1823.2 866.5 1822.3 854.2 1823.7 852.8zM1823.7 881.2c0.7-0.7 6.8-0.1 7.6 0 3.4 0.3 2.2-0.6 3.3 1.3 1.8 3.2 0 12.8 0 16.6 -2.5 0-5.8 0.6-8.3 0 -3.4-0.8-1.8 0.9-2.6-2.3C1823.2 894.9 1822.3 882.6 1823.7 881.2zM1801.7 852.8c0.7-0.7 6.8-0.1 7.6 0 3.4 0.3 2.2-0.6 3.3 1.3 1.8 3.2 0 12.8 0 16.6 -2.5 0-5.8 0.6-8.3 0 -3.4-0.8-1.8 0.9-2.6-2.3C1801.2 866.5 1800.4 854.2 1801.7 852.8zM1801.7 881.2c0.7-0.7 6.8-0.1 7.6 0 3.4 0.3 2.2-0.6 3.3 1.3 1.8 3.2 0 12.8 0 16.6 -2.5 0-5.8 0.6-8.3 0 -3.4-0.8-1.8 0.9-2.6-2.3C1801.2 894.9 1800.4 882.6 1801.7 881.2zM1779.8 852.8c0.7-0.7 6.8-0.1 7.6 0 3.4 0.3 2.2-0.6 3.3 1.3 1.8 3.2 0 12.8 0 16.6 -2.5 0-5.8 0.6-8.3 0 -3.4-0.8-1.8 0.9-2.6-2.3C1779.3 866.5 1778.4 854.2 1779.8 852.8zM1779.8 881.2c0.7-0.7 6.8-0.1 7.6 0 3.4 0.3 2.2-0.6 3.3 1.3 1.8 3.2 0 12.8 0 16.6 -2.5 0-5.8 0.6-8.3 0 -3.4-0.8-1.8 0.9-2.6-2.3C1779.3 894.9 1778.4 882.6 1779.8 881.2z"/>
  <path class="st0" d="M1819.4 812.6c-7.4-5.7-14.8-11.4-22.3-17.1 -7.4 5.7-14.8 11.4-22.3 17.1 2.2 0 4.3 0 6.5 0 -1.2 6.2 1 20.9 1 25.1 4.9 0 26.4 3.4 29.6 0 0.8-0.9 1-18.5 0.4-25.1C1814.7 812.6 1817.1 812.6 1819.4 812.6z"/>
  <path class="st0" d="M2115.2 793.7c-6.4-4.7-16.3-11.9-24.2-9.4 -6.6 2.1-13-3.7-18.3 3.6 -1.9 2.7-2.5 5.8-6.6 5.8 -1 0-12.4-3.8-6.8-0.4 -3-0.4-6.9-1.9-9.8-0.3 -2.1 1.2-4 4.5-1.5 6.4 -0.9 0.5-2.7 2.1-3.7 2.2 -0.8 0.1-2.6-1.4-3.8-1.4 -2.4 0.1-3.5 2.2-5.6 2.9 -2.8 1-5.3-0.6-8.1-0.2 -3.4 0.4-2.9 1.7-4.6 3.8 -1.2 1.6-3.6 2.2-4.9 3.9 -1.9 2.5-0.3 5.3-3.2 7.4 -4.1 2.8-13.2 1.4-11.2 9.6 -2.9-1.7-5.4 1.7-5.6 4.2 -0.3 2.9 1.8 5.2 2.1 8 0.1 1.4-0.3 2.2-0.5 3.6 -0.4 0.4-0.9 0.8-1.3 1.2 0.3 0.4 0.5 0.8 0.8 1.1 -1.2 3.2-2.6 3.1-4.9 5.4 2.1 2.1-1 5.9 2.1 7.6 0.9 0.5 4-0.4 5-0.6 2.1-3.2-1.7-5.3 0-7.7 1.8-2.6 6.7-0.8 8.3-4.2 0.8-1.8-0.6-2.3-0.6-3.7 0-1.2 1.1-1.6 0.8-2.8 -0.8-2.5-4.5-3.6-2.9-6.9 1.3-2.6 4.3-1.9 6.5-3.1 1.1-0.7 0.9-1.9 2.4-2.4 1.7-0.6 3 1 4.5 0.8 3.6-0.5 1.7-2.9 3.3-5.5 2.3-3.7 7.4-2.7 10.7-1.2 -0.4-10.5 11.3-2.9 15.3-4 3.3-0.9 4.4-4.2 8-4.4 2-0.1 3.7 1.2 5.6 1.3 2.3 0.1 4.6-0.9 6.8-1.7 3.9-1.5 7.1-3.9 10.8-5.7 4.5-2.3 6.1-1.3 10.4 0.4 4.6 1.8 6.4-0.1 10.7-1.6 3.5-1.2 7.3-0.4 10.7-1.9 1.5-0.7 2.3-1.8 4-2.3 1.6-0.5 2 2.2 3.6-0.3C2121 798.2 2116.9 794.9 2115.2 793.7z"/>
  <path class="st0" d="M2032.1 998.8c0-2.7 0-5.4 0-8.1 0-2.3 1.2-8.5 0-10.5 -1.1-1.9-7-0.9-9.6-0.9 -13.4 0-26.7 0-40.1 0 -0.5 0-3.1-0.4-3.6 0 -1.2 1 1.1 5.8 0 7 -0.2 0.3-2.8 0.5-3.2 0.2 -0.6-0.6 0.4-3.1 0-3.8 -0.8-1.6 0.3-0.3-1.4-0.9 -1.5-0.6-4.5 0-6 0 -3 0-5.9 0-8.9 0 -0.5 0-1 0-1.6 0 0-2.2 0-4.5 0-6.7 0-31.4 0-62.7 0-94.1 0-28.7 0-57.3 0-86 0-1.9 1.4-11.7 0-13.1 -1.1-1.1-8.8 0-10.3 0 -7.6 0-15.1 0-22.7 0 -18.2 0-36.3 0-54.5 0 -3.5 0-17.4-1.8-19 0.9 -0.8 1.4 0 5.7 0 7.2 0 4.2 0 8.5 0 12.7 0 13.6 0 24.3 0 37.9v0.2c19.4-0.4 39-0.8 58.2 0.4 4.9 0.3 3.3 1.8 3.3 6.9 0 11 0 22 0 33 0 32.6 0 67.6 0 93.1 0 4.7 0 9.1 0 13.1 -3.9-0.2-11.1-0.4-11.7 0.1 -0.3 0.3 0 3.2 0 3.2 0 5.8 0.7 75.6 1.7 75.8 4.2 1 124.1 0 129 0l0 0 17.8 0.2v-55.4h-17.2C2032.3 1003.7 2032.3 998.6 2032.1 998.8zM1936.9 796.1c0.7-0.7 6.8-0.1 7.6 0 3.4 0.3 2.2-0.6 3.3 1.3 1.8 3.2 0 12.8 0 16.6 -2.5 0-5.8 0.6-8.3 0 -3.4-0.8-1.8 0.9-2.6-2.3C1936.4 809.8 1935.5 797.5 1936.9 796.1zM1936.9 824.5c0.7-0.7 6.8-0.1 7.6 0 3.4 0.3 2.2-0.6 3.3 1.3 1.8 3.2 0 12.8 0 16.6 -2.5 0-5.8 0.6-8.3 0 -3.4-0.8-1.8 0.9-2.6-2.3C1936.4 838.2 1935.5 825.9 1936.9 824.5zM1936.9 852.8c0.7-0.7 6.8-0.1 7.6 0 3.4 0.3 2.2-0.6 3.3 1.3 1.8 3.2 0 12.8 0 16.6 -2.5 0-5.8 0.6-8.3 0 -3.4-0.8-1.8 0.9-2.6-2.3C1936.4 866.5 1935.5 854.2 1936.9 852.8zM1936.9 881.2c0.7-0.7 6.8-0.1 7.6 0 3.4 0.3 2.2-0.6 3.3 1.3 1.8 3.2 0 12.8 0 16.6 -2.5 0-5.8 0.6-8.3 0 -3.4-0.8-1.8 0.9-2.6-2.3C1936.4 894.9 1935.5 882.6 1936.9 881.2zM1936.9 909.5c0.7-0.7 6.8-0.1 7.6 0 3.4 0.3 2.2-0.6 3.3 1.3 1.8 3.2 0 12.8 0 16.6 -2.5 0-5.8 0.6-8.3 0 -3.4-0.8-1.8 0.9-2.6-2.3C1936.4 923.2 1935.5 910.9 1936.9 909.5z"/>
  <polygon class="st0" points="2020.9 877.8 2014.7 877.8 2010.2 977.8 2026.2 977.8 "/>
  <polygon class="st0" points="2000.6 862.8 1993 862.8 1987 977.8 2006.5 977.8 "/>
  <polygon class="st0" points="784.4 971.5 784.2 954.9 775 955 775.2 970.3 775.3 970.3 776.7 970.3 779.5 970.2 785.1 970.2 785.1 972.9 772.6 972.9 772.6 952.6 786.4 952.6 786.4 971.5 "/>
  <polygon class="st0" points="805.7 971.5 805.5 954.9 796.3 955 796.5 970.3 796.6 970.3 798 970.3 800.8 970.2 806.4 970.2 806.4 972.9 793.9 972.9 793.9 952.6 807.8 952.6 807.8 971.5 "/>
  <polygon class="st0" points="1562.9 891.3 1562.7 871.5 1550.2 871.6 1550.4 890.1 1563.6 890 1563.6 892.7 1547.8 892.7 1547.8 869.2 1565 869.2 1565 891.3 "/>
  <polygon class="st0" points="1532.9 891.3 1532.7 871.5 1520.2 871.6 1520.4 890.1 1533.6 890 1533.6 892.7 1517.8 892.7 1517.8 869.2 1535 869.2 1535 891.3 "/>
  <polygon class="st0" points="1620.3 891.3 1620.1 871.5 1607.6 871.6 1607.8 890.1 1621 890 1621 892.7 1605.2 892.7 1605.2 869.2 1622.4 869.2 1622.4 891.3 "/>
  <polygon class="st0" points="1620.3 923.3 1620.1 903.5 1607.6 903.6 1607.8 922.1 1621 922 1621 924.7 1605.2 924.7 1605.2 901.2 1622.4 901.2 1622.4 923.3 "/>
  <polygon class="st0" points="1645.1 891.3 1644.9 871.5 1632.4 871.6 1632.6 890.1 1645.8 890 1645.8 892.7 1629.9 892.7 1629.9 869.2 1647.1 869.2 1647.1 891.3 "/>
  <polygon class="st0" points="1645.1 923.3 1644.9 903.5 1632.4 903.6 1632.6 922.1 1645.8 922 1645.8 924.7 1629.9 924.7 1629.9 901.2 1647.1 901.2 1647.1 923.3 "/>
  <polygon class="st0" points="1620.3 956 1620.1 936.1 1607.6 936.3 1607.8 954.8 1621 954.6 1621 957.4 1605.2 957.4 1605.2 933.9 1622.4 933.9 1622.4 956 "/>
  <polygon class="st0" points="1620.3 988 1620.1 968.1 1607.6 968.2 1607.8 986.7 1621 986.6 1621 989.3 1605.2 989.3 1605.2 965.8 1622.4 965.8 1622.4 988 "/>
  <polygon class="st0" points="1645.1 956 1644.9 936.1 1632.4 936.3 1632.6 954.8 1645.8 954.6 1645.8 957.4 1629.9 957.4 1629.9 933.9 1647.1 933.9 1647.1 956 "/>
  <polygon class="st0" points="1645.1 988 1644.9 968.1 1632.4 968.2 1632.6 986.7 1645.8 986.6 1645.8 989.3 1629.9 989.3 1629.9 965.8 1647.1 965.8 1647.1 988 "/>
  <polygon class="st0" points="1113.4 948.5 1113.2 931.9 1104 932 1104.2 947.3 1104.3 947.3 1105.7 947.3 1108.5 947.2 1114.1 947.2 1114.1 949.9 1101.6 949.9 1101.6 929.6 1115.4 929.6 1115.4 948.5 "/>
  <polygon class="st0" points="1113.4 976 1113.2 959.4 1104 959.5 1104.2 974.8 1104.3 974.8 1105.7 974.8 1108.5 974.7 1114.1 974.7 1114.1 977.4 1101.6 977.4 1101.6 957.1 1115.4 957.1 1115.4 976 "/>
  <polygon class="st0" points="1113.4 1003.6 1113.2 986.9 1104 987.1 1104.2 1002.3 1104.3 1002.3 1105.7 1002.3 1108.5 1002.3 1114.1 1002.2 1114.1 1004.9 1101.6 1004.9 1101.6 984.7 1115.4 984.7 1115.4 1003.6 "/>
  <path class="st1" d="M756.5 1007.2v-66.3h104v16.8H886v-16.8h65.2v26.8h132.6v-50.2h15.7v-8.6h30v8.6h12.3v-41.3h3.3v41.3h58.6v62.1h234.6V852.2h31.6c-0.2-4.1-1.8-15.6-0.5-19.6 -1.7 0-3.5 0-5.2 0 5.8-4.4 11.5-8.8 17.3-13.3 5.8 4.4 11.5 8.8 17.3 13.3 -1.8 0-3.7 0-5.5 0 0.5 3.8 0.5 16.5-0.1 19.6h192.7V901h162v159l74.2 0.7v-35.9h93.4v-82.4h123.3V974"/>
  <path class="st0" d="M2137.7 974.1v-30.4l-120.9 0.1v82.4h-93.4v35.9l-76.9-0.7 -0.1-158.9 -162.1 0.1v-48.8l-193 0.1 0.3-2.1c0.1-0.8 0.1-1.3 0.2-2l0.1-1.3v-1.2c0-1.6 0.1-3.2 0.1-4.8 0-1.6 0-3.2-0.1-4.8 0-0.8 0-1.6-0.1-2.4 -0.1-1.4-0.2-2.8-0.4-4.2h7.4l-1 3 -16.3-12.5 -16.2 12.5 -1-3.1h2.8c1.5 0 3.1 0 4.6 0 -0.2 0.9-0.5 1.9-0.7 2.9 -0.1 0.5-0.2 0.9-0.2 1.4 0 0.3 0 0.5 0 0.8 0 1 0 2 0 3.1 0.1 2.1 0.2 4.2 0.4 6.3l0.3 3.2 0.2 2 0.2 2.8c0 0.2 0.1 0.5 0 0.7h-0.7 -1.4 -2.6 -3.2 -23.8l0.1 127.6 -238.4 0.1v-62.1h-58.6v-41.3h0.8 0.1c0 0 0.2 0-0.2 0h-0.8c-0.2 0-0.1 0-0.1 0l0 0c0.1 0.1 0.3 0.2 0.4 0.2 0.2 0 0.3-0.1 0.4-0.2l0 0c0 0 0.1 0-0.1 0h-0.8c-0.4 0-0.2 0-0.2 0h0.1 0.8v41.3h-16.4v-8.6h-25.9v8.6h-15.7V970L949 969.9v-26.8h-60.8V960h-30v-16.8l-99.4 0.1v64h-4.7v-68.6h108.5v16.9h21v-16.8h69.6v26.8l128.3 0.1v-50.2h15.7v-8.6h34.2v8.6h8.2v-41.3h2.5 0.3c0.1 0 0.3 0 0 0h-0.6c-0.2 0 0 0 0 0h0.1c0.4-0.1 0.8-0.2 1.3-0.2s0.9 0.1 1.3 0.2h0.1c0 0 0.2 0 0 0h-0.6c-0.3 0-0.1 0 0 0h0.3 2.5v41.3h58.6v62.1l230.8 0.1 0.1-127.4h27.4 3.2 0.6 0.2 0.1v-0.1l-0.1-1.5 -0.3-3.2c-0.2-2.1-0.4-4.3-0.4-6.5 0-1.1 0-2.2 0-3.3 0-0.3 0-0.6 0.1-0.8v-0.2c0-0.1 0-0.2 0.1-0.4 -0.1-0.1-0.4 0-0.6 0h-2.5 -5.3l4.2-3.2 18.4-14.1 18.4 14.1 4.1 3.2h-5.2 -2.8 -0.5c-0.1 0-0.2 0-0.3 0 0 0.2 0 0.4 0 0.6 0 0.8 0.1 1.7 0.1 2.5 0 1.6 0.1 3.3 0.1 4.9s0 3.3-0.1 4.9l-0.1 2.4c0 0.3 0 0.5-0.1 0.7l192.5 0.1v48.8l161.9 0.1 -0.1 159.1 71.2 0.7v-35.8h93.4V941l126.1 0.1V974L2137.7 974.1 2137.7 974.1z"/>
  <path class="st0" d="M629.9 1066.2c-22.3 0-50.6 0-72.9 0 -66 0-131.9 0-197.9 0 -2.3 0-13 1.4-14.8-0.2 -3.2-2.8-0.2-25.3-0.2-29.6 0-18.2 0-36.5 0-54.7 0-2.5-0.7-6.3 0.5-8.2 2.5-3.8 12.5-6.9 16.4-9.1 12.8-7.1 25.5-14.1 38.2-21.2 0 8.8-1.1 18.3 0 27 0.9 6.8 2.2 4.1 7.9 0.6 15.3-9.2 30.9-18.4 45.9-27.6 0 11.1 0 22.3 0 33.4 18-11.1 36-22.3 54-33.4 0 7.4 0 14.9 0 22.3 0 9.3-1.7 9.2 7.7 9.2 3.7 0 12.7 1.6 14.6-0.9 1.6-2.1 0.8-9.8 1-12.3 3-36 6-72.1 9-108.1 0.4-4.7-0.6-22.5 2.9-25 1.9-1.3 13.9-0.5 14.8 0.7 1.4 1.9 0.4 8.9 0.6 11.2 1.8 36.2 3.6 72.4 5.4 108.6 0.2 4.4-1.4 23.1 1.7 25.9 2 1.7 12 0.2 13-1.2 1.3-1.8 0.5-8.6 0.6-10.8 2-36 4-72.1 6.1-108.1 0.9-15.3 1.7-30.6 2.6-45.9 0.1-1.8-0.6-7.9 0.5-9.3 0.7-0.9 14.4-1.5 15.8-0.3 2.7 2.3 1.4 18.9 1.6 22.5 1 18 2 36 3 54 1.1 19.6 2.2 39.3 3.3 58.9 0.6 11-1.3 26.3 2.1 36.9 1.4 4.3-1.2 2.3 4 3.3 1.4 0.3 9.4 0.8 13.4 0.8L629.9 1066.2zM418 1003.2h-13v8h13V1003.2zM418 1015.2h-13v8h13V1015.2zM435 1003.2h-13v8h13V1003.2zM435 1015.2h-13v8h13V1015.2zM451 1003.2h-13v8h13V1003.2zM451 1015.2h-13v8h13V1015.2zM468 1003.2h-13v8h13V1003.2zM468 1015.2h-13v8h13V1015.2zM484 1003.2h-13v8h13V1003.2zM484 1015.2h-13v8h13V1015.2z"/>
  <path class="st2" d="M2391.1 1038.4c0-7.5 0-14.9 0-22.4 0-9.2 0-18.3 0-27.5 0-0.6 0.1-2 0.3-3.6h4.3v-2.7h2.7v-2.6h2.8v-2.1h-9.9c-0.1-0.2-0.2-0.4-0.3-0.5 -1.1-1.1-8.9 0-10.4 0 -7.4 0-14.7 0-22.1 0 -18.2 0-36.4 0-54.7 0 -4 0-22-2.1-24 0.7 -1.8 2.5 0 12.4 0 15.3 0 8.5 0 17 0 25.5 0 6.6 0 13.2 0 19.8h-4.5c0-8.2 0-16.3 0-24.5 0-10.8 0-21.7 0-32.5 0-6 2-15.8 0-21.5 -1.2-3.2-2.1-2.5-6.6-3.5 -9.6-2.2-19.2-4.4-28.8-6.6 -6.1-1.4-13.7-4.5-20-4.5 -4.5 0-9.8 2.1-14.1 3.1 -9.7 2.2-19.4 4.4-29.1 6.7 -2.5 0.6-10.9 1.2-12.4 3.2 -1.6 2.1 0 11.2 0 13.8 0 8.9 0 17.8 0 26.8 0 13.2 0 26.4 0 39.6h-4.1c0-7.5 0-14.9 0-22.4 0-9.2 0-18.3 0-27.5 0-1.7 1.2-10.2-0.1-11.5 -1.1-1.1-8.9 0-10.4 0 -7.4 0-14.7 0-22.1 0 -18.2 0-36.4 0-54.7 0 -3.9 0-21.8-2.1-24 0.7h-9.5v2.1h2.8v2.6h2.7v2.7h3.3c0.2 3.2 0.7 6.4 0.7 7.9 0 8.5 0 17 0 25.5 0 6.6 0 13.2 0 19.8h-91.3c0-11.1 0-22.2 0-33.3h-45c0-0.5 0-8.6 0-21.4 0-24.4 0-65.9 0-104.1 0-10.6 0-21.2 0-31.9 0-4.9 1.6-6.3-3.3-6.6 -19.2-1.2-38.7-0.8-58.2-0.4v143 54.7H1746c0-6.2 0-12 0-19.5 0-5.3 0-10.6 0-15.9 0-0.5 0.2-2 0.3-3.5 5.1 0 10.3 0.3 15.9 0.9 7.3 0.9 7.1-3.7 3.7-7.6 -9.7-10.9-21.9-18.4-32.6-28.4 -3.8-3.5-10.3-4.8-12.8-4.8 -6.9 0-13.7 0-20.6 0 -5.8 0-11.6 0-17.4 0 -2.1 0-4.5 0.4-6.3-0.5 -1.7-0.9-3.3-3.2-4.7-4.5 -2.4-2.3-4.8-4.7-7.3-7 -3.3-3.1-5.2-3.9-5.1-8.3 0.1-2.8-0.2-5.9 0.3-8.6 0.4-2.3-0.4-1.3 1.8-1.8 2.7-0.6 12.3 1.6 13.7-0.4 0.8-1.1 0.4-7.7 0-9.1 -0.5-2-0.5-1.4-3.1-1.4 -5.1 0-10.3 0-15.3 0 0.1 5.7 0.3 11.4 0.4 17.1 0.1 2 0.9 5.6 0.2 7.5 -0.4 1.2-1.9 2.3-2.9 3.2 -2.6 2.5-5.1 4.9-7.7 7.4 -1.7 1.7-4.1 5.1-6.3 6.1 -2.5 1.1-7.2 0.3-10 0.3 -7.7 0-15.4 0-23.1 0 -5.4 0-9.2-0.6-14.6 0.2 -2.4 0.4-5.6 1.4-7.5 3.1 -4.8 4.4-9.7 7.7-14.5 12.1 -7.1 6.4-13.8 13.4-21.4 19.3 -4.5 3.4 2 6.3 7.6 6 4.3-0.2 8.6-0.3 12.9-0.3 0 13.7 0 25.6 0 38.3H965.3V930.7c-8.5 0.2-17.1 0.3-25.5 0.4v-49.4c0 0-2.4-3.2-1.8 0.8 0.8 5.5 0.6 31.7 0.4 34.9 -0.1 2.8-0.4 11.4-0.5 13.7 -1.2 0-2.4 0-3.7 0 -0.4 0-0.8 0-1.2 0v-33c0 0-2.8-2.1-2.1 0.5 1 3.7 0.7 21.3 0.5 23.4 -0.1 1.8-0.5 7.3-0.6 9 -14.1 0-28.2 0-42.3 0 -3.4 0-11.9-1.4-13.3 1.1 -0.9 1.6 0 6.2 0 7.9 0 4.8 0 9.7 0 14.5 0 14.1 0 28.3 0 42.4 0 13.8 0 27.5 0 41.3h-236v-28.5c1.2-0.8 2.2-1.8 3.1-2.9 2.1 1.1 4.6 1.7 7.2 1.7 6.8 0 12.6-4.3 14.5-10.3 4-1.7 6.8-5.5 6.8-10 0-4.3-2.6-8-6.3-9.8 0.3-0.9 0.4-1.9 0.4-2.8 0-4.5-2.9-8.3-7.1-9.8 -1.3-5.7-6.5-9.9-12.7-10.2 -1.8-3.7-5.7-6.3-10.2-6.3 -3.1 0-5.8 1.2-7.9 3.1 -1.5-0.6-3-0.9-4.7-0.9 -7.1 0-12.8 5.5-12.8 12.4 0 0.3 0 0.6 0 0.9 -4.7 2.1-8 6.6-8 12 0 2.1 0.5 4 1.4 5.8 -3.2 2.7-5.2 6.6-5.2 11 0 8.1 6.8 14.6 15.1 14.6 2.5 0 4.8-0.6 6.9-1.6 2 2.6 5 4.5 8.4 5.2v26.2H356.5l-0.4-41.8 -40.1 0.3v-45h-4.3v-53.1c0-4.9-7.3-9-11.1-9.3 0-1.7 0-4.4 0-4.4h-8.1v4.3c-4 0.5-9.8 3.8-10.9 8.9v8.1h-6.2v15.6h-6.1v-42.9c0-2.9-2.2-5.9-6.3-5.9h-28.8c-4.1 0-6.3 3.4-6.3 5.8v4.1h-2.3v4.6c-4.1 0.5-9.9 3.8-10.9 9v17.9h-12.3c-2.9 0-6.1 2.5-6.1 5.9v56.6h4v-56.6c0-1.1 1.3-2 2-2h12.3v58.6h-35.5 -1.5l-1.2 61.7H144V1459h2287.5v-420.6H2391.1zM275.4 952.3h-7.9v22.9l-17.7 0.3v-18.7h-4.9v-28.9h12.3v15.6h18.2V952.3zM275.4 941.5h-16.2v-15.6h-14.3v-1.5l0 0v-27.3c0-4.9-7.3-9-11.1-9.3 0-1.2 0-2.3 0-4.7H232V879c0-0.2 0.4-1.9 2.2-1.9H263c1.8 0 2.3 1.3 2.3 2v46.8h10.1L275.4 941.5 275.4 941.5zM281.6 952.3h-2.1v-8.8h2.1V952.3zM281.6 941.5h-2.1v-15.6h2.1V941.5zM281.6 922h-2.1v-11.7h2.1V922zM914.8 942.4c0.7-0.7 6.8-0.1 7.6 0 3.4 0.3 2.2-0.6 3.3 1.3 1.8 3.1 0 12.4 0 16 -2.5 0-5.8 0.6-8.3 0 -3.4-0.8-1.8 0.9-2.6-2.2C914.3 955.7 913.4 943.8 914.8 942.4zM914.8 969.8c0.7-0.7 6.8-0.1 7.6 0 3.4 0.3 2.2-0.6 3.3 1.3 1.8 3.1 0 12.4 0 16 -2.5 0-5.8 0.6-8.3 0 -3.4-0.8-1.8 0.9-2.6-2.2C914.3 983 913.4 971.1 914.8 969.8zM892.9 942.4c0.7-0.7 6.8-0.1 7.6 0 3.4 0.3 2.2-0.6 3.3 1.3 1.8 3.1 0 12.4 0 16 -2.5 0-5.8 0.6-8.3 0 -3.4-0.8-1.8 0.9-2.6-2.2C892.3 955.7 891.5 943.8 892.9 942.4zM892.9 969.8c0.7-0.7 6.8-0.1 7.6 0 3.4 0.3 2.2-0.6 3.3 1.3 1.8 3.1 0 12.4 0 16 -2.5 0-5.8 0.6-8.3 0 -3.4-0.8-1.8 0.9-2.6-2.2C892.3 983 891.5 971.1 892.9 969.8zM892.9 998.6c0.7-0.7 6.8-0.1 7.6 0 3.4 0.3 2.2-0.6 3.3 1.3 1.8 3.1 0 12.4 0 16 -2.5 0-5.8 0.6-8.3 0 -3.4-0.8-1.8 0.9-2.6-2.2C892.3 1011.8 891.5 999.9 892.9 998.6zM904.1 1038.4h-11.7c-0.4-4.2-0.7-11.4 0.4-12.5 0.7-0.7 6.8-0.1 7.6 0 3.4 0.3 2.2-0.6 3.3 1.3C905 1029.3 904.6 1034.3 904.1 1038.4zM914.8 998.6c0.7-0.7 6.8-0.1 7.6 0 3.4 0.3 2.2-0.6 3.3 1.3 1.8 3.1 0 12.4 0 16 -2.5 0-5.8 0.6-8.3 0 -3.4-0.8-1.8 0.9-2.6-2.2C914.3 1011.8 913.4 999.9 914.8 998.6zM926.1 1038.4h-11.7c-0.4-4.2-0.7-11.4 0.4-12.5 0.7-0.7 6.8-0.1 7.6 0 3.4 0.3 2.2-0.6 3.3 1.3C927 1029.3 926.5 1034.3 926.1 1038.4zM936.8 942.4c0.7-0.7 6.8-0.1 7.6 0 3.4 0.3 2.2-0.6 3.3 1.3 1.8 3.1 0 12.4 0 16 -2.5 0-5.8 0.6-8.3 0 -3.4-0.8-1.8 0.9-2.6-2.2C936.3 955.7 935.4 943.8 936.8 942.4zM936.8 969.8c0.7-0.7 6.8-0.1 7.6 0 3.4 0.3 2.2-0.6 3.3 1.3 1.8 3.1 0 12.4 0 16 -2.5 0-5.8 0.6-8.3 0 -3.4-0.8-1.8 0.9-2.6-2.2C936.3 983 935.4 971.1 936.8 969.8zM936.8 998.6c0.7-0.7 6.8-0.1 7.6 0 3.4 0.3 2.2-0.6 3.3 1.3 1.8 3.1 0 12.4 0 16 -2.5 0-5.8 0.6-8.3 0 -3.4-0.8-1.8 0.9-2.6-2.2C936.3 1011.8 935.4 999.9 936.8 998.6zM948.1 1038.4h-11.7c-0.4-4.2-0.7-11.4 0.4-12.5 0.7-0.7 6.8-0.1 7.6 0 3.4 0.3 2.2-0.6 3.3 1.3C948.9 1029.3 948.5 1034.3 948.1 1038.4zM1594.9 1027.3c-2.7 0-5.3 0-8 0s-2.1 0.4-2.4-1.8c-0.5-2.8 0-6 0-8.8 0-0.8-0.6-5.5 0-6 0.9-0.8 6.3 0 7.6 0 2.8 0 2.4-0.5 2.9 1.5C1596 1016.7 1594.9 1022.7 1594.9 1027.3zM1619.2 1027.3c-2.7 0-5.3 0-8 0s-2.1 0.4-2.4-1.8c-0.5-2.8 0-6 0-8.8 0-0.8-0.6-5.5 0-6 0.9-0.8 6.3 0 7.6 0 2.8 0 2.4-0.5 2.9 1.5C1620.3 1016.7 1619.2 1022.7 1619.2 1027.3zM1668.4 1038.4h-21c-0.2-2.7-0.5-6.4 0.4-7.3 0.6-0.6 5.2 0 5.9 0 3.3 0 6.6 0 9.9 0 4.8 0 4.8-0.8 4.8 3.7C1668.4 1036.2 1668.4 1037.4 1668.4 1038.4zM1658.1 1015c-6.9 0-12.4-5.4-12.4-12s5.6-12 12.4-12c6.9 0 12.4 5.4 12.4 12C1670.6 1009.7 1665 1015 1658.1 1015zM1708.7 1027.3c-2.7 0-5.3 0-8 0s-2.1 0.4-2.4-1.8c-0.5-2.8 0-6 0-8.8 0-0.8-0.6-5.5 0-6 0.9-0.8 6.3 0 7.6 0 2.8 0 2.4-0.5 2.9 1.5C1709.8 1016.7 1708.7 1022.7 1708.7 1027.3zM1732.9 1027.3c-2.7 0-5.3 0-8 0s-2.1 0.4-2.4-1.8c-0.5-2.8 0-6 0-8.8 0-0.8-0.6-5.5 0-6 0.9-0.8 6.3 0 7.6 0 2.8 0 2.4-0.5 2.9 1.5C1734 1016.7 1732.9 1022.7 1732.9 1027.3zM1901 1038.4h-19.1c-0.2-2.6-1-8.8 0-9.8 1.4-1.3 10.9 0 12.9 0 4.5 0 4.9-1.1 5.7 2.3C1901.2 1033.1 1901.2 1035.7 1901 1038.4zM2073.6 1002c-0.5 0.6-11.5 1-12.3 0.2 -0.8-0.8-0.7-13.5 0-14.4 1.2-1.4 10.1-0.2 12.3-0.2C2073.6 990.2 2075.3 1000.3 2073.6 1002zM2099.2 1002c-0.5 0.6-11.5 1-12.3 0.2s-0.7-13.5 0-14.4c1.2-1.4 10.1-0.2 12.3-0.2C2099.2 990.2 2100.9 1000.3 2099.2 1002zM2124.8 1002c-0.5 0.6-11.5 1-12.3 0.2s-0.7-13.5 0-14.4c1.2-1.4 10.1-0.2 12.3-0.2C2124.8 990.2 2126.5 1000.3 2124.8 1002zM2150.4 1002c-0.5 0.6-11.5 1-12.3 0.2 -0.8-0.8-0.7-13.5 0-14.4 1.2-1.4 10.1-0.2 12.3-0.2C2150.4 990.2 2152.1 1000.3 2150.4 1002zM2250.9 988.7c1.5-2.4 8.8-1.1 12.3-1.1 0 12.3 0 24.6 0 36.9 0 2.8 1.3 9.9 0.7 13.9h-13.6c0-3.4 0.6-8.2 0.6-9.3 0-7.6 0-15.2 0-22.8C2250.9 1002.7 2248.9 992 2250.9 988.7zM2226.8 988.7c1.5-2.4 8.8-1.1 12.3-1.1 0 12.3 0 24.6 0 36.9 0 2.8 1.3 9.9 0.7 13.9h-13.6c0-3.4 0.6-8.2 0.6-9.3 0-7.6 0-15.2 0-22.8C2226.8 1002.7 2224.7 992 2226.8 988.7zM2202.6 988.7c1.5-2.4 8.8-1.1 12.3-1.1 0 12.3 0 24.6 0 36.9 0 2.8 1.3 9.9 0.7 13.9H2202c0-3.4 0.6-8.2 0.6-9.3 0-7.6 0-15.2 0-22.8C2202.6 1002.7 2200.5 992 2202.6 988.7zM2178.4 988.7c1.5-2.4 8.8-1.1 12.3-1.1 0 12.3 0 24.6 0 36.9 0 2.8 1.3 9.9 0.7 13.9h-13.6c0-3.4 0.6-8.2 0.6-9.3 0-7.6 0-15.2 0-22.8C2178.4 1002.7 2176.3 992 2178.4 988.7zM2300.2 1002c-0.5 0.6-11.5 1-12.3 0.2s-0.7-13.5 0-14.4c1.2-1.4 10.1-0.2 12.3-0.2C2300.2 990.2 2301.9 1000.3 2300.2 1002zM2325.8 1002c-0.5 0.6-11.5 1-12.3 0.2s-0.7-13.5 0-14.4c1.2-1.4 10.1-0.2 12.3-0.2C2325.8 990.2 2327.5 1000.3 2325.8 1002zM2351.4 1002c-0.5 0.6-11.5 1-12.3 0.2s-0.7-13.5 0-14.4c1.2-1.4 10.1-0.2 12.3-0.2C2351.4 990.2 2353.1 1000.3 2351.4 1002zM2377 1002c-0.5 0.6-11.5 1-12.3 0.2s-0.7-13.5 0-14.4c1.2-1.4 10.1-0.2 12.3-0.2C2377 990.2 2378.7 1000.3 2377 1002z"/>
  <polygon class="st2" points="1658.1 994.1 1655.8 994.1 1656.1 1003.6 1663.4 1010.3 1664.3 1009.5 1657.9 1002.9 "/>
  <path class="st0" d="M876.4 884.7c0 15 0 30.1 0 45.1 0 54 0 116.9 0 151.5 -4.9 0-9.7 0-14.6 0 0.2-6.5 2.3-26.9 0-31 -1.5-2.6 0.1-1.4-4.5-1.8 -1.1-0.1-9.5-0.9-10.4 0 -1.9 1.9-0.7 27.9 0 30.7 0.3 1.1 0.4 1.8 0.4 2.2 -18.3 0-36.6 0-54.9 0V874.7c14.6-0.3 29.3-0.6 43.8-0.5v-9.3h28.7v10c2.3 0.1 4.7 0.2 7 0.4C878.5 875.7 876.4 877.7 876.4 884.7zM816.9 890.5c-0.2-1-1.2-1.6-3.1-1.8 -1.1-0.1-6.1-0.9-7 0 -1.9 1.9-0.7 18.7 0 21.4 1.1 4.3-1 2 3.6 3.1 3.3 0.8 3.1 0 6.5 0C816.9 908.1 819.4 894.9 816.9 890.5zM816.9 928c-0.2-1-1.2-1.6-3.1-1.8 -1.1-0.1-6.1-0.9-7 0 -1.9 1.9-0.7 18.7 0 21.4 1.1 4.3-1 2 3.6 3.1 3.3 0.8 3.1 0 6.5 0C816.9 945.5 819.4 932.4 816.9 928zM816.9 965.6c-0.2-1-1.2-1.6-3.1-1.8 -1.1-0.1-6.1-0.9-7 0 -1.9 1.9-0.7 18.7 0 21.4 1.1 4.3-1 2 3.6 3.1 3.3 0.8 3.1 0 6.5 0C816.9 983.1 819.4 969.9 816.9 965.6z"/>
  <path class="st0" d="M777.6 1026c0 6.7 0 13.3 0 20 0 5 0 9.9 0 14.9 0 1.8 1 7.5 0 9 -1.5 2.3-15.9 0.6-19.1 0.6 -1.2 0-7.5 0.8-8.3 0 -1.2-1.3 0-9.5 0-11.3 0-1.5 0.6-4.3 0-5.7 -0.8-1.9 0.6-0.5-1.3-1.3 -1.1-0.5-10.9-0.8-11.8 0 -1.1 1.1-0.1 8.1-0.1 9.7 0 1.5 0.8 7.7-0.2 8.6 -1.1 1-7.5 0-8.9 0 -5 0-10.1 0-15.1 0 -2.7 0-8.6 1.1-11.1 0 -1.7-0.8-1.1-2-1.1-4.5 0-4.8 0-9.7 0-14.5 0-2.9 0.8-3.8-1.4-4.5 -3.3-1.1-8.9 0-12.3 0 -3.2 0-9.7-1.3-12.6 0 -1.9 0.8-1.1 2.3-1.1 5 0 4.8 0 9.6 0 14.5 0 4 0.7 4.1-3.4 4.1 -2.1 0-6.9 0.9-7.8-0.7 -0.9-1.6 0-6.5 0-8.3 0-4.8 0-9.6 0-14.4 0-4.9 0-9.8 0-14.6 0-2-1-7.3 0-9.1 1.3-2.3 12.8-0.8 15.9-0.8 4.9 0 9.8 0 14.7 0 2.3 0 5.4 0.6 7.6 0 5.2-1.3 10.9-6 15.5-8.5 7.8-4.3 15.7-8.7 23.5-13 1.4-0.8 1.8-1.2 3-0.9 2.2 0.5 5.3 3.9 7.1 5.3 7.7 5.7 15.4 11.4 23.1 17.1C774.3 1023.6 775.9 1024.8 777.6 1026zM726.6 1031.2c-2.1 0-10.6-1.3-12 0 -0.6 0.6-0.7 9.4-0.1 10.1 0.5 0.5 10.8 0.5 11.6 0C727.6 1040.3 726.6 1033.4 726.6 1031.2zM769.4 1031.2c-2.1 0-10.6-1.3-12 0 -0.6 0.6-0.7 9.4-0.1 10.1 0.5 0.5 10.8 0.5 11.6 0C770.3 1040.3 769.4 1033.4 769.4 1031.2z"/>
  <path class="st0" d="M782.1 1021c-11-7.7-21.9-15.8-32.8-23.7 -2.5-1.8-6.1-5.8-9-5.2 -3.2 0.6-7.1 4-9.9 5.5 -2.4 1.3-4.7 2.6-7.1 4 0-1.2 0.7-5.7 0-6.5 -0.5-0.5-3.6-0.3-4.5-0.2 -2.9 0.3-1.9-0.6-2.4 1.9 -0.5 2.2 0.4 4.7 0 6.9 -0.5 2.7-1.6 3.1-4.3 3.4 -4 0.5-8.6 0-12.7 0 -5.3 0-10.6 0-15.9 0 -2 0-5.2-0.6-7.2 0 -3.3 1.1-6.8 4.6-9.7 6.6s-5.9 4-8.8 6c10.3 0 20.6 0 30.9 0 3.1 0 7.5 0.8 10.6 0 2.2-0.6 4.8-2.7 6.8-3.8 10.6-5.9 21.2-11.9 31.8-17.8 2.6-1.4 2.4-1.9 4.6-0.9 4.4 1.9 8.8 6.4 12.7 9.2 6 4.3 12 8.7 18 13 1.8 1.3 3.5 2.8 5.4 3.8C780.6 1024.1 785.3 1023.2 782.1 1021 781 1020.1 784.2 1022.5 782.1 1021z"/>
  <path class="st0" d="M435.8 792.7c-0.1-0.4-0.1-0.9-0.1-1.3 0-5.5 4.2-10.1 9.5-10.7 0.7-5.8 5.7-10.4 11.7-10.4 5.6 0 10.3 3.9 11.5 9.1 1.3-0.6 2.8-0.9 4.3-0.9 5 0 9.1 3.4 10.3 8 0.4 0 0.9-0.1 1.3-0.1 7.5 0 13.5 6.4 13.5 13.9s-6.1 13.9-13.5 13.9h-42.4c-6.2 0-11.3-5.4-11.3-11.6C430.5 798.6 432.6 794.7 435.8 792.7z"/>
  <path class="st0" d="M601.8 791.4c3-4.6-2.4-7.8 0-11.2 2.6-3.8 9.8-1.1 12-6.2 1.1-2.6-0.9-3.3-0.9-5.4 0-1.7 1.6-2.4 1.1-4.1 -1.1-3.6-6.6-5.2-4.2-10 1.8-3.7 6.3-2.7 9.4-4.6 1.6-1 1.3-2.7 3.5-3.4 2.4-0.8 4.3 1.5 6.5 1.2 5.2-0.8 2.5-4.3 4.8-8 3.4-5.3 10.7-3.9 15.5-1.8 -0.5-15.2 16.4-4.2 22.2-5.7 4.7-1.3 6.3-6.1 11.7-6.4 2.8-0.2 5.3 1.7 8.1 1.8 3.4 0.1 6.7-1.3 9.8-2.5 5.6-2.2 10.4-5.6 15.7-8.3 6.6-3.3 8.8-1.9 15.2 0.6 6.7 2.6 9.3-0.1 15.5-2.3 5.1-1.8 10.6-0.6 15.5-2.8 2.2-1 3.4-2.6 5.8-3.4 2.3-0.8 2.9 3.2 5.2-0.5 2.5-3.9-3.5-8.6-6-10.4 -9.2-6.8-23.7-17.3-35.1-13.7 -9.6 3-18.9-5.4-26.5 5.2 -2.8 3.9-3.6 8.4-9.6 8.4 -1.4 0-17.9-5.5-9.8-0.6 -4.3-0.5-10-2.8-14.2-0.5 -3 1.7-5.8 6.5-2.2 9.3 -1.3 0.8-3.9 3-5.4 3.1 -1.1 0.1-3.7-2.1-5.6-2 -3.5 0.2-5 3.2-8.1 4.3 -4.1 1.4-7.7-0.8-11.8-0.4 -4.9 0.6-4.2 2.4-6.7 5.6 -1.8 2.3-5.2 3.3-7.1 5.7 -2.8 3.6-0.4 7.7-4.7 10.7 -5.9 4.1-19.1 2.1-16.2 13.9 -4.3-2.5-7.8 2.4-8.2 6.1 -0.5 4.3 2.7 7.5 3 11.6 0.2 2-0.5 3.3-0.8 5.2 -0.6 0.6-1.2 1.1-1.9 1.7 0.4 0.5 0.8 1.1 1.1 1.6 -1.8 4.6-3.8 4.5-7 7.9 3.1 3-1.4 8.5 3 11C595.9 793 600.3 791.5 601.8 791.4z"/>
  <path class="st2" d="M2280 978.5c41.5 0 83 0 124.6 0 -3.6-3.2-8.5-9.7-13-11.4 -1.9-0.7-5.5 0-7.5 0 -14.6 0-29.3 0-43.9 0 -15.8 0-31.6 0-47.4 0 -2.5 0-9.8-1.4-11.9 0C2278.8 968.5 2280 975.4 2280 978.5z"/>
  <path class="st2" d="M2160.6 967.1c-23.2 0-46.4 0-69.6 0 -12.7 0-25.3 0-38 0 -1.7 0-4.1-0.4-5.7 0.1 -3.9 1.5-8.7 8.4-11.7 11.3 23.8 0 47.5 0 71.3 0 14.3 0 28.6 0 42.8 0 2 0 8.4 1.2 10.2 0C2161.8 977.2 2160.6 970 2160.6 967.1z"/>
  <path class="st2" d="M2241.3 931.9c-1.8-12-9.5-21.2-18.9-22.6l0.5-16.5h15.4v-11.2h-16.2v0.3h-2.2l0.7 27.3c-0.2 0-0.4 0-0.7 0 -10.6 0-19.5 9.8-21.5 22.8h-6.8v20.1l28.1-6.7 28.8 6.8V932L2241.3 931.9 2241.3 931.9z"/>
  <path class="st0" d="M2279.4 1069.5c-36.7 0-73.5 0-110.2 0 -5.6 0-9.8 1.5-8-4.7 1-3.2-0.9-1.3 1.9-2.2 2.2-0.7 6.8 0 9.1 0 22.1 0 44.2 0 66.3 0 11 0 22 0 33 0C2280.2 1062.6 2279.4 1061.8 2279.4 1069.5z"/>
  <path class="st0" d="M2295.5 1080.9c-46.2 0-92.4 0-138.6 0 -2.5 0-7.5 0.8-9.9 0 -2.6-0.8-2.4-0.5-1.9-4.1 0.5-3.7-0.7-2.1 2.6-2.8 3-0.6 7.1 0 10.2 0 27.8 0 55.5 0 83.3 0 14.2 0 28.3 0 42.5 0 2.6 0 8-0.9 10.3 0C2296.8 1075.1 2295.5 1077.9 2295.5 1080.9z"/>
  <path class="st0" d="M2313.8 1092.3c-56.9 0-113.9 0-170.8 0 -4.1 0-8.9 0.6-13 0 -3.9-0.6-3.3 0.8-3.3-3.5 0-4.2-0.7-2.9 3-3.5 3.9-0.6 8.7 0 12.7 0 34 0 68.1 0 102.1 0 17.7 0 35.3 0 53 0 3.9 0 9.9-0.9 13.7 0 0.5 0.1 2.1-0.3 2.5 0C2314.7 1086.2 2313.8 1091.1 2313.8 1092.3z"/>
  <path class="st0" d="M1900.6 1053.3c0 3.9 0 7.9 0 11.8 -4.3 0-8.6 0-12.9 0 -4.7 0-4.7 1.1-5.7-2.3 -1.4-4.5 0-11.6 0-16.3 0-1.7-1.2-9.8 0-11 1.4-1.4 10.9 0 12.9 0 4.5 0 4.9-1.2 5.7 2.3C1901.8 1042.3 1900.6 1048.7 1900.6 1053.3z"/>
</svg>
