<svg xmlns="http://www.w3.org/2000/svg" xmlns:xlink="http://www.w3.org/1999/xlink" version="1.1" id="Layer_1" x="0" y="0" viewBox="0 0 2211.9 389.3" xml:space="preserve" enable-background="new 0 0 2211.9 389.3">
  <style type="text/css">
    
	.st0{fill:#6B9625;}
	.st1{fill:none;}
	.st2{fill:#819F34;}
	.st3{fill:#72A02B;}
	.st4{fill:#85AD48;}
	.st5{fill:#578D18;}
	.st6{fill:#5E921E;}

  </style>
  <polygon class="st0" points="568.5 266.7 568.3 250 559.1 250.2 559.3 265.4 559.5 265.4 560.9 265.4 563.6 265.3 569.2 265.3 569.2 268 556.7 268 556.7 247.7 570.6 247.7 570.6 266.7 "/>
  <polygon class="st0" points="589.8 266.7 589.6 250 580.4 250.2 580.6 265.4 580.8 265.4 582.2 265.4 585 265.3 590.5 265.3 590.5 268 578 268 578 247.7 591.9 247.7 591.9 266.7 "/>
  <polygon class="st0" points="1353 186.5 1352.8 166.6 1340.3 166.7 1340.5 185.2 1353.7 185.1 1353.7 187.8 1337.9 187.8 1337.9 164.3 1355.1 164.3 1355.1 186.5 "/>
  <polygon class="st0" points="1323 186.5 1322.8 166.6 1310.3 166.7 1310.5 185.2 1323.7 185.1 1323.7 187.8 1307.9 187.8 1307.9 164.3 1325.1 164.3 1325.1 186.5 "/>
  <polygon class="st0" points="1421.5 186.5 1421.3 166.6 1408.7 166.7 1408.9 185.2 1422.2 185.1 1422.2 187.8 1406.3 187.8 1406.3 164.3 1423.5 164.3 1423.5 186.5 "/>
  <polygon class="st0" points="1421.5 218.4 1421.3 198.6 1408.7 198.7 1408.9 217.2 1422.2 217.1 1422.2 219.8 1406.3 219.8 1406.3 196.3 1423.5 196.3 1423.5 218.4 "/>
  <polygon class="st0" points="1446.2 186.5 1446 166.6 1433.5 166.7 1433.7 185.2 1446.9 185.1 1446.9 187.8 1431.1 187.8 1431.1 164.3 1448.3 164.3 1448.3 186.5 "/>
  <polygon class="st0" points="1446.2 218.4 1446 198.6 1433.5 198.7 1433.7 217.2 1446.9 217.1 1446.9 219.8 1431.1 219.8 1431.1 196.3 1448.3 196.3 1448.3 218.4 "/>
  <polygon class="st0" points="1421.5 251.1 1421.3 231.2 1408.7 231.4 1408.9 249.9 1422.2 249.7 1422.2 252.5 1406.3 252.5 1406.3 229 1423.5 229 1423.5 251.1 "/>
  <polygon class="st0" points="1421.5 283.1 1421.3 263.2 1408.7 263.4 1408.9 281.9 1422.2 281.7 1422.2 284.5 1406.3 284.5 1406.3 260.9 1423.5 260.9 1423.5 283.1 "/>
  <polygon class="st0" points="1446.2 251.1 1446 231.2 1433.5 231.4 1433.7 249.9 1446.9 249.7 1446.9 252.5 1431.1 252.5 1431.1 229 1448.3 229 1448.3 251.1 "/>
  <polygon class="st0" points="1446.2 283.1 1446 263.2 1433.5 263.4 1433.7 281.9 1446.9 281.7 1446.9 284.5 1431.1 284.5 1431.1 260.9 1448.3 260.9 1448.3 283.1 "/>
  <polygon class="st0" points="897.5 243.7 897.3 227 888.1 227.2 888.3 242.4 888.5 242.4 889.9 242.4 892.6 242.3 898.2 242.3 898.2 245 885.7 245 885.7 224.7 899.6 224.7 899.6 243.7 "/>
  <polygon class="st0" points="897.5 271.2 897.3 254.5 888.1 254.7 888.3 269.9 888.5 269.9 889.9 269.9 892.6 269.9 898.2 269.8 898.2 272.5 885.7 272.5 885.7 252.3 899.6 252.3 899.6 271.2 "/>
  <polygon class="st0" points="897.5 298.7 897.3 282 888.1 282.2 888.3 297.4 888.5 297.4 889.9 297.4 892.6 297.4 898.2 297.3 898.2 300 885.7 300 885.7 279.8 899.6 279.8 899.6 298.7 "/>
  <path class="st1" d="M540.7 307.5V236h104l0 16.8h25.5l0-10.8h65.2v20.8H868v-50.2h15.7V204h30v8.6H926v-41.3h3.3v41.3H988v62.1h168l3.9 17h62.8V147.3h31.6c-0.2-4.1-1.8-15.6-0.5-19.6 -1.7 0-3.5 0-5.2 0 5.8-4.4 11.5-8.8 17.3-13.3 5.8 4.4 11.5 8.8 17.3 13.3 -1.8 0-3.7 0-5.5 0 0.5 3.8 0.5 16.5-0.1 19.6h192.7v48.8h162v159l74.2 0.7V320h93.4v-82.4H1923v37.6"/>
  <path class="st0" d="M1921.8 275.2l0-36.4 -120.9 0.1 0 82.4 -93.4 0 0 35.9 -76.9-0.7 -0.1-158.9 -162.1 0.1 0-48.8 -193 0.1 0.3-2.1c0.1-0.8 0.1-1.3 0.2-2l0.1-1.3 0-1.2c0-1.6 0.1-3.2 0.1-4.8 0-1.6 0-3.2-0.1-4.8 0-0.8 0-1.6-0.1-2.4 -0.1-1.4-0.2-2.8-0.4-4.2l7.4 0 -1 3 -16.3-12.5 -16.2 12.5 -1-3.1 2.8 0c1.5 0 3.1 0 4.6 0 -0.2 0.9-0.5 1.9-0.7 2.9 -0.1 0.5-0.2 0.9-0.2 1.4 0 0.3 0 0.5 0 0.8 0 1 0 2 0 3.1 0.1 2.1 0.2 4.2 0.4 6.3l0.3 3.2 0.2 2 0.2 2.8c0 0.2 0.1 0.5 0 0.7l-0.7 0 -1.4 0 -2.6 0 -3.2 0 -23.8 0 0.1 144.6 -66.1 0 -3.9-17L986 276.7l0-62.1 -58.6 0 0-41.3 0.8 0h0.1c0 0 0.2 0-0.2 0l-0.8 0c-0.2 0-0.1 0-0.1 0l0 0c0.1 0.1 0.3 0.2 0.4 0.2 0.2 0 0.3-0.1 0.4-0.2l0 0c0 0 0.1 0-0.1 0l-0.8 0c-0.4 0-0.2 0-0.2 0l0.1 0 0.8 0 0 41.3 -16.4 0 0-8.6 -25.9 0 0 8.6 -15.7 0 0 50.2L733.2 265l0-20.8 -60.8 0 0 10.9 -30 0 0-16.8 -99.4 0.1 0 69.1h-4.7l0-73.7 108.5 0 0 16.9 21 0 0-10.8 69.6 0 0 20.8 128.3 0.1 0-50.2 15.7 0 0-8.6 34.2 0 0 8.6 8.2 0 0-41.3 2.5 0 0.3 0c0.1 0 0.3 0 0 0l-0.6 0c-0.2 0 0 0 0 0l0.1 0c0.4-0.1 0.8-0.2 1.3-0.2 0.5 0 0.9 0.1 1.3 0.2l0.1 0c0 0 0.2 0 0 0h-0.6c-0.3 0-0.1 0 0 0l0.3 0 2.5 0 0 41.3 58.6 0 0 62.1 167.5 0.1 3.9 17 59.4 0 0.1-144.4 27.4 0 3.2 0 0.6 0 0.2 0 0.1 0c0 0 0-0.1 0-0.1l-0.1-1.5 -0.3-3.2c-0.2-2.1-0.4-4.3-0.4-6.5 0-1.1 0-2.2 0-3.3 0-0.3 0-0.6 0.1-0.8l0-0.2c0-0.1 0-0.2 0.1-0.4 -0.1-0.1-0.4 0-0.6 0l-2.5 0 -5.3 0 4.2-3.2 18.4-14.1 18.4 14.1 4.1 3.2 -5.2 0 -2.8 0 -0.5 0c-0.1 0-0.2 0-0.3 0 0 0.2 0 0.4 0 0.6 0 0.8 0.1 1.7 0.1 2.5 0 1.6 0.1 3.3 0.1 4.9 0 1.6 0 3.3-0.1 4.9l-0.1 2.4c0 0.3 0 0.5-0.1 0.7l192.5 0.1 0 48.8 161.9 0.1 -0.1 159.1 71.2 0.7 0-35.8 93.4 0 0-82.3 126.1 0.1 0 39H1921.8z"/>
  <path class="st2" d="M1747.8 348.4c0 3.9 0 7.9 0 11.8 -4.3 0-8.6 0-12.9 0 -4.7 0-4.7 1.1-5.7-2.3 -1.4-4.5 0-11.6 0-16.3 0-1.7-1.2-9.8 0-11 1.4-1.4 10.9 0 12.9 0 4.5 0 4.9-1.2 5.7 2.3C1748.9 337.4 1747.8 343.8 1747.8 348.4z"/>
  <path class="st0" d="M1747 345.1c0.2-3.4 0.5-6.7 0.2-9.9 -0.1-0.8-0.2-1.6-0.4-2.3 -0.1-0.4-0.2-0.8-0.3-1.1 -0.1-0.3-0.2-0.4-0.3-0.4 0 0-0.1 0-0.2 0 -0.1 0-0.3 0-0.5 0l-1.2 0.1c-0.9 0.1-1.7 0.1-2.6 0.1 -1.7-0.1-3.4-0.3-5-0.4 -1.6-0.1-3.3-0.2-4.9-0.1 -0.4 0-0.8 0-1.1 0.1 -0.2 0-0.3 0.1-0.4 0.1 -0.1 0-0.1 0-0.1 0.1 -0.1-0.1-0.2 0.9-0.2 1.6 0 1.6 0.1 3.2 0.2 4.9l0.2 2.5c0 0.4 0.1 0.9 0.1 1.4 0 0.4 0 0.9 0 1.3 -0.1 1.7-0.2 3.4-0.3 5.1 -0.2 3.3-0.4 6.7 0.4 9.5 0.1 0.4 0.3 0.8 0.4 1.1 0.1 0.2 0.1 0.3 0.2 0.4 0 0 0 0 0 0 0 0 0 0 0.1 0l0.2 0c0.1 0 0.2 0 0.2 0l1.2-0.1c0.9-0.1 1.8-0.1 2.6-0.1l2.5 0 8.7-0.1 0-6.5c0-3.1 0.6-3.9 1.4-3.9 0.8 0 1.4 1.2 1.4 3.9l0 9.2 -11.4-0.1 -2.5 0c-0.8 0-1.6 0-2.4 0.1 -0.4 0-0.8 0.1-1.3 0.1 -0.1 0-0.2 0-0.4 0 -0.1 0-0.2 0-0.5 0 -0.4-0.1-0.8-0.2-1.1-0.4 -0.3-0.2-0.6-0.5-0.8-0.9 -0.2-0.3-0.3-0.5-0.4-0.8 -0.2-0.5-0.3-0.9-0.4-1.3 -0.5-1.8-0.7-3.6-0.7-5.3 0-1.7 0.1-3.4 0.3-5.1 0.1-1.7 0.3-3.3 0.4-5 0-0.4 0-0.8 0-1.2 0-0.4 0-0.7-0.1-1.2l-0.2-2.5c-0.1-1.7-0.3-3.4-0.2-5.2 0-0.4 0-0.9 0.1-1.4 0-0.3 0.1-0.5 0.2-0.8 0.1-0.2 0.1-0.4 0.3-0.5 0.1-0.1 0.2-0.3 0.3-0.4 0.3-0.2 0.6-0.4 1-0.5 0.3-0.1 0.5-0.1 0.8-0.2 0.5-0.1 0.9-0.1 1.4-0.1 3.5-0.1 6.9 0.4 10.1 0.6 0.7 0 1.6 0 2.4-0.1l1.3-0.1c0.2 0 0.5 0 0.7 0 0.3 0 0.7 0.1 1 0.3 0.7 0.3 1.1 1 1.2 1.5 0.2 0.5 0.3 0.9 0.4 1.3 0.2 0.9 0.4 1.8 0.4 2.6 0.3 3.5-0.1 6.9-0.3 10.2 -0.1 2.2-0.4 3.2-1.1 3.2C1747.1 348.4 1746.8 347 1747 345.1z"/>
  <path class="st3" d="M1827.7 160c2.1-3.2-1.7-5.3 0-7.7 1.8-2.6 6.7-0.8 8.3-4.2 0.8-1.8-0.6-2.3-0.6-3.7 0-1.2 1.1-1.6 0.8-2.8 -0.8-2.5-4.5-3.6-2.9-6.9 1.3-2.6 4.3-1.9 6.5-3.1 1.1-0.7 0.9-1.9 2.4-2.4 1.7-0.6 3 1 4.5 0.8 3.6-0.5 1.7-2.9 3.3-5.5 2.3-3.7 7.4-2.7 10.7-1.2 -0.4-10.5 11.3-2.9 15.3-4 3.3-0.9 4.4-4.2 8-4.4 2-0.1 3.7 1.2 5.6 1.3 2.3 0.1 4.6-0.9 6.8-1.7 3.9-1.5 7.1-3.9 10.8-5.7 4.5-2.3 6.1-1.3 10.4 0.4 4.6 1.8 6.4-0.1 10.7-1.6 3.5-1.2 7.3-0.4 10.7-1.9 1.5-0.7 2.3-1.8 4-2.3 1.6-0.5 2 2.2 3.6-0.3 1.7-2.7-2.4-5.9-4.1-7.2 -6.4-4.7-16.3-11.9-24.2-9.4 -6.6 2.1-13-3.7-18.3 3.6 -1.9 2.7-2.5 5.8-6.6 5.8 -1 0-12.4-3.8-6.8-0.4 -3-0.4-6.9-1.9-9.8-0.3 -2.1 1.2-4 4.5-1.5 6.4 -0.9 0.5-2.7 2.1-3.7 2.2 -0.8 0.1-2.6-1.4-3.8-1.4 -2.4 0.1-3.5 2.2-5.6 2.9 -2.8 1-5.3-0.6-8.1-0.2 -3.4 0.4-2.9 1.7-4.6 3.8 -1.2 1.6-3.6 2.2-4.9 3.9 -1.9 2.5-0.3 5.3-3.2 7.4 -4.1 2.8-13.2 1.4-11.2 9.6 -2.9-1.7-5.4 1.7-5.6 4.2 -0.3 2.9 1.8 5.2 2.1 8 0.1 1.4-0.3 2.2-0.5 3.6 -0.4 0.4-0.9 0.8-1.3 1.2 0.3 0.4 0.5 0.8 0.8 1.1 -1.2 3.2-2.6 3.1-4.9 5.4 2.1 2.1-1 5.9 2.1 7.6C1823.6 161.1 1826.7 160.1 1827.7 160z"/>
  <path class="st3" d="M1858.8 368.3c-4.9 0-124.8 1-129 0 -1-0.3-1.7-70-1.7-75.8 0 0-0.3-2.9 0-3.2 0.8-0.7 12.9-0.2 14.1-0.2 0-5.4-0.9-5.7 4.1-5.7 5.8 0 11.6 0 17.4 0 7.5 0 15.1 0 22.6 0 3 0 5.9 0 8.9 0 1.6 0 4.6-0.4 6 0.2 1.7 0.7 0.6-0.5 1.4 1 0.4 0.8-0.6 3.3 0 3.9 0.3 0.3 2.9 0.1 3.2-0.2 1.1-1.2-1.2-6 0-6.9 0.5-0.4 3.1 0 3.6 0 13.4 0 26.7 0 40.1 0 2.7 0 8.4-1 9.6 0.9 1.2 2-0.1 8.1-0.1 10.5 0 2.7 0 5.4 0 8.1C1860.1 300.1 1858.8 368.3 1858.8 368.3z"/>
  <polygon class="st3" points="1837.3 280.3 1841.8 180.3 1848 180.3 1853.3 280.3 "/>
  <polygon class="st3" points="1814.2 280.3 1820.1 165.3 1827.7 165.3 1833.6 280.3 "/>
  <path class="st3" d="M1853.6 313.1c0-3 0-6 0-9 0-1.8 1.4-12 0-13.2 -0.4-0.4-2.5 0-3.1 0 -21.5-2-24.1 0-45.6 0 -9.3 0-9.7 0-19 0 0-4.6 0-9.3 0-13.9 0-31.4 0-62.7 0-94.1 0-28.7 0-57.3 0-86 0-1.9 1.4-11.7 0-13.1 -1.1-1.1-8.8 0-10.3 0 -7.6 0-15.1 0-22.7 0 -18.2 0-36.3 0-54.5 0 -3.5 0-17.4-1.8-19 0.9 -0.8 1.4 0 5.7 0 7.2 0 4.2 0 8.5 0 12.7 0 13.6 0 24.3 0 37.9v0.2c19.4-0.4 39-0.8 58.2 0.4 4.9 0.3 3.3 1.8 3.3 6.9 0 11 0 22 0 33 0 32.6 0 67.6 0 93.1 0 5.4 0 10.4 0 14.8 0 13.3 0 21.7 0 22.2h45c0 17.2 0 34.3 0 51.5 0 1.2 0 2.4 0 3.6 51.2 0 64.4 0 66.7 0l0.9 0 24.1 0.3v-55.4H1853.6zM1765.1 98.1c0.7-0.7 6.8-0.1 7.6 0 3.4 0.3 2.2-0.6 3.3 1.3 1.8 3.2 0 12.8 0 16.6 -2.5 0-5.8 0.6-8.3 0 -3.4-0.8-1.8 0.9-2.6-2.3C1764.6 111.8 1763.7 99.5 1765.1 98.1zM1765.1 126.4c0.7-0.7 7.6-0.8 7.6 0 0 428.3 2.2-0.6 3.3 1.3 1.8 3.2 0 12.8 0 16.6 -2.5 0-5.8 0.6-8.3 0 -3.4-0.8-1.8 0.9-2.6-2.3C1764.6 140.1 1763.7 127.8 1765.1 126.4zM1765.1 154.8c0.7-0.7 6.8-0.1 7.6 0 3.4 0.3 2.2-0.6 3.3 1.3 1.8 3.2 0 12.8 0 16.6 -2.5 0-5.8 0.6-8.3 0 -3.4-0.8-1.8 0.9-2.6-2.3C1764.6 168.5 1763.7 156.2 1765.1 154.8zM1765.1 183.1c0.7-0.7 6.8-0.1 7.6 0 3.4 0.3 2.2-0.6 3.3 1.3 1.8 3.2 0 12.8 0 16.6 -2.5 0-5.8 0.6-8.3 0 -3.4-0.8-1.8 0.9-2.6-2.3C1764.6 196.8 1763.7 184.5 1765.1 183.1zM1765.1 211.5c0.7-0.7 6.8-0.1 7.6 0 3.4 0.3 2.2-0.6 3.3 1.3 1.8 3.2 0 12.8 0 16.6 -2.5 0-5.8 0.6-8.3 0 -3.4-0.8-1.8 0.9-2.6-2.3C1764.6 225.2 1763.7 212.9 1765.1 211.5z"/>
  <path class="st4" d="M1740.7 313.1c0-0.5 0-8.9 0-22.2 0-25.3 0-68.3 0-107.9 0-11 0-22 0-33 0-5.1 1.6-6.6-3.3-6.9 -19.2-1.2-38.7-0.8-58.2-0.4v148.2 76.6c0.2 0.3 0.6 0.5 1 0.7 6.2 0 12.6 0 19.2 0 28.1 0 58.5 0 86.3 0 0-1.2 0-2.4 0-3.6 0-17.2 0-34.3 0-51.5H1740.7z"/>
  <path class="st3" d="M1679.8 367.5v-92.7 -4.5V142.7c-10.4 0.2-20.8 0.4-31 0.4 -15.2 0-30.5 0-45.7 0 -3.4 0-11.9-1.5-13.3 1.1 -0.9 1.6 0 6.4 0 8.2 0 5 0 10 0 15.1 0 14.7 0 29.3 0 44 0 19.6 0 39.2 0 58.9 0 0.8 0 1.8 0 2.8 0 4.4 0 10.9 0 17.7 -5.1 0-10.3 0-15.4 0 -1.4 0-5.4-0.7-6.6 0 -1.5 0.9-0.7 0.4-1 3 -1.9 15.9 0 33.2 0 49.2 0 3.9-2.3 23.2 0.6 25.2 1 0.7 5 0 6.2 0 4 0 8.1 0 12.1 0 1.5 0 3 0 4.5 0 2.4 0 4.8 0 7.2 0 0.6-0.1 1.1-0.1 1.4-0.1 2.1 0 37.2 0 82 0C1680.4 368 1680 367.8 1679.8 367.5zM1651.3 154.8c0.7-0.7 6.8-0.1 7.6 0 3.4 0.3 2.2-0.6 3.3 1.3 1.8 3.2 0 12.8 0 16.6 -2.5 0-5.8 0.6-8.3 0 -3.4-0.8-1.8 0.9-2.6-2.3C1650.8 168.5 1649.9 156.2 1651.3 154.8zM1629.4 154.8c0.7-0.7 6.8-0.1 7.6 0 3.4 0.3 2.2-0.6 3.3 1.3 1.8 3.2 0 12.8 0 16.6 -2.5 0-5.8 0.6-8.3 0 -3.4-0.8-1.8 0.9-2.6-2.3C1628.8 168.5 1628 156.2 1629.4 154.8zM1607.4 154.8c0.7-0.7 6.8-0.1 7.6 0 3.4 0.3 2.2-0.6 3.3 1.3 1.8 3.2 0 12.8 0 16.6 -2.5 0-5.8 0.6-8.3 0 -3.4-0.8-1.8 0.9-2.6-2.3C1606.9 168.5 1606 156.2 1607.4 154.8z"/>
  <path class="st3" d="M1608.5 139.7c4.9 0 26.4 3.4 29.6 0 1-1.1 1-26.4 0-27.5 -1.7-1.8-29-0.7-29.6 0C1605.4 115.4 1608.5 134.7 1608.5 139.7z"/>
  <path class="st3" d="M1623.3 97.2c7.4 5.7 14.8 12.1 22.3 17.1 -14.8 0-29.7 0-44.5 0C1608.4 109.3 1615.9 102.9 1623.3 97.2z"/>
  <path class="st4" d="M767.6 238.5v-51.8c0 0-2.4-3.3-1.8 0.8 0.8 5.7 0.6 32.8 0.4 36.2 -0.1 3.3-0.5 14.8-0.5 14.8H767.6z"/>
  <path class="st4" d="M761 238.5v-34.8c0 0-2.8-2.2-2.1 0.5 1 3.9 0.7 22 0.5 24.3 -0.2 2.2-0.6 9.9-0.6 9.9H761z"/>
  <path class="st4" d="M703.1 368c0-20.6 0-41.1 0-61.7 0-14.7 0-29.3 0-44 0-5 0-10 0-15.1 0-1.8-0.9-6.6 0-8.2 1.4-2.6 9.9-1.1 13.3-1.1 15.2 0 30.5 0 45.7 0 10.3 0 20.7-0.2 31-0.4v132.1L703.1 368zM775.6 250.9c-1.1-1.9 0.1-1-3.3-1.3 -0.8-0.1-6.9-0.7-7.6 0 -1.4 1.4-0.5 13.7 0 15.7 0.8 3.2-0.7 1.4 2.6 2.3 2.4 0.6 5.7 0 8.3 0C775.6 263.8 777.4 254.1 775.6 250.9zM775.6 279.3c-1.1-1.9 0.1-1-3.3-1.3 -0.8-0.1-6.9-0.7-7.6 0 -1.4 1.4-0.5 13.7 0 15.7 0.8 3.2-0.7 1.4 2.6 2.3 2.4 0.6 5.7 0 8.3 0C775.6 292.1 777.4 282.5 775.6 279.3zM753.6 250.9c-1.1-1.9 0.1-1-3.3-1.3 -0.8-0.1-6.9-0.7-7.6 0 -1.4 1.4-0.5 13.7 0 15.7 0.8 3.2-0.7 1.4 2.6 2.3 2.4 0.6 5.7 0 8.3 0C753.6 263.8 755.4 254.1 753.6 250.9zM753.6 279.3c-1.1-1.9 0.1-1-3.3-1.3 -0.8-0.1-6.9-0.7-7.6 0 -1.4 1.4-0.5 13.7 0 15.7 0.8 3.2-0.7 1.4 2.6 2.3 2.4 0.6 5.7 0 8.3 0C753.6 292.1 755.4 282.5 753.6 279.3zM731.7 250.9c-1.1-1.9 0.1-1-3.3-1.3 -0.8-0.1-6.9-0.7-7.6 0 -1.4 1.4-0.5 13.7 0 15.7 0.8 3.2-0.7 1.4 2.6 2.3 2.4 0.6 5.7 0 8.3 0C731.7 263.8 733.4 254.1 731.7 250.9zM731.7 279.3c-1.1-1.9 0.1-1-3.3-1.3 -0.8-0.1-6.9-0.7-7.6 0 -1.4 1.4-0.5 13.7 0 15.7 0.8 3.2-0.7 1.4 2.6 2.3 2.4 0.6 5.7 0 8.3 0C731.7 292.1 733.4 282.5 731.7 279.3zM775.6 309.1c-1.1-1.9 0.1-1-3.3-1.3 -0.8-0.1-6.9-0.7-7.6 0 -1.4 1.4-0.5 13.7 0 15.7 0.8 3.2-0.7 1.4 2.6 2.3 2.4 0.6 5.7 0 8.3 0C775.6 321.9 777.4 312.3 775.6 309.1zM775.6 354.1c0-3.8 1.8-13.4 0-16.6 -1.1-1.9 0.1-1-3.3-1.3 -0.8-0.1-6.9-0.7-7.6 0 -1.4 1.4-0.5 13.7 0 15.7 0.8 3.2-0.7 1.4 2.6 2.3M753.6 309.1c-1.1-1.9 0.1-1-3.3-1.3 -0.8-0.1-6.9-0.7-7.6 0 -1.4 1.4-0.5 13.7 0 15.7 0.8 3.2-0.7 1.4 2.6 2.3 2.4 0.6 5.7 0 8.3 0C753.6 321.9 755.4 312.3 753.6 309.1zM753.6 337.5c-1.1-1.9 0.1-1-3.3-1.3 -0.8-0.1-6.9-0.7-7.6 0 -1.4 1.4-0.5 13.7 0 15.7 0.8 3.2-0.7 1.4 2.6 2.3 2.4 0.6 5.7 0 8.3 0C753.6 350.3 755.4 340.6 753.6 337.5zM731.7 309.1c-1.1-1.9 0.1-1-3.3-1.3 -0.8-0.1-6.9-0.7-7.6 0 -1.4 1.4-0.5 13.7 0 15.7 0.8 3.2-0.7 1.4 2.6 2.3 2.4 0.6 5.7 0 8.3 0C731.7 321.9 733.4 312.3 731.7 309.1zM731.7 337.5c-1.1-1.9 0.1-1-3.3-1.3 -0.8-0.1-6.9-0.7-7.6 0 -1.4 1.4-0.5 13.7 0 15.7 0.8 3.2-0.7 1.4 2.6 2.3 2.4 0.6 5.7 0 8.3 0C731.7 350.3 733.4 340.6 731.7 337.5z"/>
  <path class="st4" d="M170.9 307.6l-38.1 0.3v-44.3h-4v-52.2c0-4.8-6.9-8.8-10.6-9.2 0-1.7 0-4.3 0-4.3h-7.7v4.2c-3.8 0.5-9.3 3.7-10.4 8.8v7.9h-5.9v15.4h-5.8V192c0-2.8-2.1-5.8-6-5.8H55.3c-3.9 0-5.9 3.3-5.9 5.7v4h-2.2v4.6c-3.9 0.5-9.4 3.8-10.4 8.9v17.2H25.1c-2.7 0-5.8 2.5-5.8 5.8v55.6h3.8v-55.6c0-1.1 1.3-1.9 1.9-1.9h11.7v57.6H3l-1.4 0L0 367.7l171.5 0.2L170.9 307.6zM98.2 222.6h2v11.5h-2V222.6zM98.2 238h2v15.4h-2V238zM53.2 191.8c0-0.2 0.4-1.8 2.1-1.8h27.3c1.7 0 2.2 1.3 2.2 2v46h9.6v15.4H79V238H65.4v-1.4h0v-26.9c0-4.8-6.9-8.8-10.6-9.2 0-1.2 0-2.3 0-4.6h-1.7V191.8zM86.8 286.5l-16.8 0.3v-18.4h-4.7v-28.5H77v15.4h17.3v8.7h-7.5V286.5zM98.2 264v-8.7h2v8.7H98.2z"/>
  <path class="st3" d="M220.9 140.7c-0.1-0.4-0.1-0.9-0.1-1.3 0-5.5 4.2-10.1 9.5-10.7 0.7-5.8 5.7-10.4 11.7-10.4 5.6 0 10.3 3.9 11.5 9.1 1.3-0.6 2.8-0.9 4.3-0.9 5 0 9.1 3.4 10.3 8 0.4 0 0.9-0.1 1.3-0.1 7.5 0 13.5 6 13.5 13.4 0 7.5-6.1 13.4-13.5 13.4H227c-6.2 0-11.3-5-11.3-11.2C215.7 146.1 217.8 142.7 220.9 140.7z"/>
  <polygon class="st4" points="1495.8 300.6 1493.5 300.6 1493.8 310.4 1501.1 317.4 1502 316.5 1495.6 309.7 "/>
  <path class="st4" d="M1603.7 299.2c-9.7-11.3-21.9-19.1-32.6-29.5 -3.8-3.7-10.3-4.9-12.8-4.9 -6.9 0-13.7 0-20.6 0 -5.8 0-11.6 0-17.4 0 -2.1 0-4.5 0.4-6.3-0.5 -1.7-1-3.3-3.3-4.7-4.7 -2.4-2.4-4.8-4.8-7.3-7.3 -3.3-3.3-5.2-4.1-5.1-8.6 0.1-2.9-0.2-6.1 0.3-8.9 0.4-2.4-0.4-1.4 1.8-1.9 2.7-0.6 12.3 1.6 13.7-0.4 0.8-1.2 0.4-8 0-9.4 -0.5-2-0.5-1.4-3.1-1.4 -5.1 0-10.3 0-15.3 0 0.1 5.9 0.3 11.8 0.4 17.7 0.1 2.1 0.9 5.8 0.2 7.8 -0.4 1.3-1.9 2.3-2.9 3.4 -2.6 2.6-5.1 5.1-7.7 7.7 -1.7 1.7-4.1 5.2-6.3 6.3 -2.5 1.2-7.2 0.3-10 0.3 -7.7 0-15.4 0-23.1 0 -5.4 0-9.2-0.6-14.6 0.2 -2.4 0.4-5.6 1.4-7.5 3.2 -4.8 4.5-9.7 8-14.5 12.5 -7.1 6.7-13.8 13.9-21.4 20 -4.5 3.6 2 6.5 7.6 6.3 4.3-0.2 8.6-0.3 12.9-0.3 0 20.9 0 37.7 0 58.8 0 2.2-0.4 1.8 1 2.4 2.6 1.1 7.8 0 10.6 0 12.5 0 25 0 37.4 0 5.8 0 11.6 0 17.4 0 2.7 0 7.7 1 10.2 0 1.8-0.7 1-2.5 1-4.9 0-6.1 0-7.9 0-14.1 0-1.9-1-8.9 0.2-10.1 0.6-0.6 5.2 0 5.9 0 3.3 0 6.6 0 9.9 0 4.8 0 4.8-0.8 4.8 3.9 0 5.9 0 7.4 0 13.3 0 2.7 0 5.4 0 8.1 0 0.6-0.4 3.4 0 3.9 0.6 0.6 5.1 0 5.8 0 11.5 0 23 0 34.5 0 11.1 0 22.2 0 33.3 0 1 0 3.5 0.4 4.1-0.3 1-1.2 0-7.4 0-8.9 0-12.3 0-20.2 0-32.5 0-5.5 0-11 0-16.5 0-0.6 0.2-2.1 0.3-3.6 5.1 0 10.3 0.3 15.9 1C1607.3 308 1607.1 303.2 1603.7 299.2zM1432.6 335c-2.7 0-5.3 0-8 0 -2.7 0-2.1 0.4-2.4-1.9 -0.5-2.9 0-6.2 0-9.1 0-0.8-0.6-5.7 0-6.2 0.9-0.8 6.3 0 7.6 0 2.8 0 2.4-0.6 2.9 1.6C1433.7 324 1432.6 330.2 1432.6 335zM1456.9 335c-2.7 0-5.3 0-8 0 -2.7 0-2.1 0.4-2.4-1.9 -0.5-2.9 0-6.2 0-9.1 0-0.8-0.6-5.7 0-6.2 0.9-0.8 6.3 0 7.6 0 2.8 0 2.4-0.6 2.9 1.6C1458 324 1456.9 330.2 1456.9 335zM1495.8 322.2c-6.9 0-12.4-5.6-12.4-12.4 0-6.9 5.6-12.4 12.4-12.4s12.4 5.6 12.4 12.4C1508.3 316.7 1502.7 322.2 1495.8 322.2zM1546.4 335c-2.7 0-5.3 0-8 0 -2.7 0-2.1 0.4-2.4-1.9 -0.5-2.9 0-6.2 0-9.1 0-0.8-0.6-5.7 0-6.2 0.9-0.8 6.3 0 7.6 0 2.8 0 2.4-0.6 2.9 1.6C1547.5 324 1546.4 330.2 1546.4 335zM1570.6 335c-2.7 0-5.3 0-8 0 -2.7 0-2.1 0.4-2.4-1.9 -0.5-2.9 0-6.2 0-9.1 0-0.8-0.6-5.7 0-6.2 0.9-0.8 6.3 0 7.6 0 2.8 0 2.4-0.6 2.9 1.6C1571.7 324 1570.6 330.2 1570.6 335z"/>
  <path class="st4" d="M2100.7 287.4c37.1 0 74.1 0 111.2 0 -3.3-2.9-7.6-8.7-11.6-10.2 -1.7-0.6-4.9 0-6.7 0 -13.1 0-26.1 0-39.2 0 -14.1 0-28.2 0-42.3 0 -2.2 0-8.8-1.2-10.6 0C2099.6 278.5 2100.7 284.6 2100.7 287.4z"/>
  <path class="st4" d="M1994.1 277.2c-20.7 0-41.4 0-62.2 0 -11.3 0-22.6 0-34 0 -1.5 0-3.7-0.4-5.1 0.1 -3.5 1.3-7.8 7.5-10.5 10.1 21.2 0 42.4 0 63.7 0 12.8 0 25.5 0 38.3 0 1.8 0 7.5 1 9.1 0C1995.2 286.2 1994.1 279.8 1994.1 277.2z"/>
  <polygon class="st4" points="2046.9 257.7 2072.6 263.8 2072.6 245.7 2021.7 245.7 2021.7 263.7 "/>
  <path class="st4" d="M2066.2 245.7c-1.8-11.6-9.7-20.4-19.2-20.4 -9.5 0-17.4 8.8-19.2 20.4H2066.2z"/>
  <rect x="2049" y="200.8" class="st4" width="14.5" height="10"/>
  <polygon class="st4" points="2047.6 226.3 2047 201.3 2050 201.3 2049.3 226.3 "/>
  <path class="st4" d="M2200 365.8c-25.3 0-50.6 0-75.9 0 -3.5 0-21.4 2.2-23.5-0.4 -1.4-1.7 0-10.5 0-12.6 0-8 0-15.9 0-23.9 0-7.9 0-15.7 0-23.6 0-2.7-1.6-11.8 0-14.2 1.8-2.6 17.9-0.7 21.5-0.7 16.3 0 32.5 0 48.8 0 6.6 0 13.1 0 19.7 0 1.3 0 8.3-1 9.3 0 1.2 1.2 0.1 9 0.1 10.6 0 8.5 0 17 0 25.5C2200 339.7 2200 352.8 2200 365.8zM2118.8 300.4c-2 0-10-1.1-11 0.2 -0.6 0.8-0.7 12.6 0 13.3 0.7 0.7 10.5 0.3 11-0.2C2120.3 312 2118.8 302.7 2118.8 300.4zM2141.7 300.4c-2 0-10-1.1-11 0.2 -0.6 0.8-0.7 12.6 0 13.3 0.7 0.7 10.5 0.3 11-0.2C2143.1 312 2141.7 302.7 2141.7 300.4zM2164.5 300.4c-2 0-10-1.1-11 0.2 -0.6 0.8-0.7 12.6 0 13.3 0.7 0.7 10.5 0.3 11-0.2C2166 312 2164.5 302.7 2164.5 300.4zM2187.4 300.4c-2 0-10-1.1-11 0.2 -0.6 0.8-0.7 12.6 0 13.3 0.7 0.7 10.5 0.3 11-0.2C2188.8 312 2187.4 302.7 2187.4 300.4z"/>
  <path class="st4" d="M1993.8 365.8c-25.3 0-50.6 0-75.9 0 -3.5 0-21.4 2.2-23.5-0.4 -1.4-1.7 0-10.5 0-12.6 0-8 0-15.9 0-23.9 0-7.9 0-15.7 0-23.6 0-2.7-1.6-11.8 0-14.2 1.8-2.6 17.9-0.7 21.5-0.7 16.3 0 32.5 0 48.8 0 6.6 0 13.1 0 19.7 0 1.3 0 8.3-1 9.3 0 1.2 1.2 0.1 9 0.1 10.6 0 8.5 0 17 0 25.5C1993.8 339.7 1993.8 352.8 1993.8 365.8zM1916.4 300.4c-2 0-10-1.1-11 0.2 -0.6 0.8-0.7 12.6 0 13.3 0.7 0.7 10.5 0.3 11-0.2C1917.9 312 1916.4 302.7 1916.4 300.4zM1939.3 300.4c-2 0-10-1.1-11 0.2 -0.7 0.8-0.7 12.6 0 13.3 0.7 0.7 10.5 0.3 11-0.2C1940.8 312 1939.3 302.7 1939.3 300.4zM1962.2 300.4c-2 0-10-1.1-11 0.2 -0.6 0.8-0.7 12.6 0 13.3 0.7 0.7 10.5 0.3 11-0.2C1963.6 312 1962.2 302.7 1962.2 300.4zM1985 300.4c-2 0-10-1.1-11 0.2 -0.6 0.8-0.7 12.6 0 13.3 0.7 0.7 10.5 0.3 11-0.2C1986.5 312 1985 302.7 1985 300.4z"/>
  <path class="st4" d="M2096.6 365.6c-28.4 0-56.7 0-85.1 0 -2.4 0-11.5 1.5-13.4 0 -1.2-1-0.7-4.1-0.7-6.2 0-16.3 0-32.5 0-48.8 0-8.3 0-16.5 0-24.8 0-2.4-1.4-10.8 0-12.7 1.3-1.8 8.8-2.4 11.1-2.9 8.7-2.1 17.3-4.1 26-6.2 3.9-0.9 8.6-2.9 12.6-2.9 5.6 0 12.4 2.9 17.8 4.2 8.6 2 17.2 4.1 25.7 6.1 4 0.9 4.8 0.3 5.9 3.3 1.8 5.2 0 14.4 0 19.9 0 10 0 20 0 30.1C2096.6 338.3 2096.6 351.9 2096.6 365.6zM2085.8 300.4c-3.1 0-9.7-1.2-11 1 -1.8 3 0 12.9 0 16.3 0 7 0 14.1 0 21.1 0 1.5-1.2 10.5 0 11.6 1.6 1.5 10.4-0.1 11-1 1.7-2.6 0-11.6 0-14.8C2085.8 323.1 2085.8 311.7 2085.8 300.4zM2064.2 300.4c-3.1 0-9.7-1.2-11 1 -1.8 3 0 12.9 0 16.3 0 7 0 14.1 0 21.1 0 1.5-1.2 10.5 0 11.6 1.6 1.5 10.4-0.1 11-1 1.7-2.6 0-11.6 0-14.8C2064.2 323.1 2064.2 311.7 2064.2 300.4zM2042.6 300.4c-3.1 0-9.7-1.2-11 1 -1.8 3 0 12.9 0 16.3 0 7 0 14.1 0 21.1 0 1.5-1.2 10.5 0 11.6 1.6 1.5 10.4-0.1 11-1 1.7-2.6 0-11.6 0-14.8C2042.6 323.1 2042.6 311.7 2042.6 300.4zM2021 300.4c-3.1 0-9.7-1.2-11 1 -1.8 3 0 12.9 0 16.3 0 7 0 14.1 0 21.1 0 1.5-1.2 10.5 0 11.6 1.6 1.5 10.4-0.1 11-1 1.7-2.6 0-11.6 0-14.8C2021 323.1 2021 311.7 2021 300.4z"/>
  <path class="st4" d="M2100.2 368.7c-32.8 0-65.6 0-98.4 0 -5 0-8.8 1.3-7.1-4.2 0.9-2.9-0.8-1.2 1.7-2 1.9-0.6 6.1 0 8.1 0 19.7 0 39.5 0 59.2 0 9.8 0 19.6 0 29.4 0C2100.9 362.5 2100.2 361.8 2100.2 368.7z"/>
  <path class="st4" d="M2114.6 378.9c-41.3 0-82.5 0-123.8 0 -2.3 0-6.7 0.7-8.8 0 -2.3-0.8-2.1-0.5-1.7-3.7 0.4-3.3-0.7-1.9 2.3-2.5 2.7-0.5 6.4 0 9.1 0 24.8 0 49.6 0 74.4 0 12.7 0 25.3 0 38 0 2.3 0 7.1-0.8 9.2 0C2115.8 373.6 2114.6 376.1 2114.6 378.9z"/>
  <path class="st4" d="M2130.9 389c-50.8 0-101.7 0-152.5 0 -3.6 0-8 0.5-11.6 0 -3.5-0.5-2.9 0.7-2.9-3.1 0-3.7-0.6-2.6 2.7-3.1 3.5-0.5 7.8 0 11.3 0 30.4 0 60.8 0 91.2 0 15.8 0 31.6 0 47.3 0 3.5 0 8.9-0.8 12.2 0 0.4 0.1 1.9-0.2 2.2 0C2131.7 383.6 2130.9 387.9 2130.9 389z"/>
  <polygon class="st4" points="2208.9 291 2208.9 293 2206.5 293 2206.5 295.4 2204.1 295.4 2204.1 297.9 2198.9 297.9 2198.9 291 "/>
  <polygon class="st4" points="1886 291.2 1886 293.2 1888.5 293.2 1888.5 295.6 1890.9 295.6 1890.9 298.1 1894.9 298.1 1894.9 291.2 "/>
  <path class="st4" d="M1058.8 329.1c-2.5 4-26.1-13.1-29.1-15 -3.8-2.3-9.3-7.3-13.6-8.3 -2.3-0.5-3.6 0.9-5.9 2.3 -11.5 6.7-23 13.3-34.5 20 -0.9 0.5-2.1 1.6-3.1 1.8 -3.9 0.9-4.2-2.4-1.7-4.4 2.2-1.9 5.5-3.2 8.1-4.7 1.3-0.8 5.1-2.1 5.9-3.4 0.9-1.4 0.2-7.7-0.1-9.3 -0.2-1-0.6-2-0.6-2.2 0 0-1.5-2.5-0.6-3.3 0.9-0.9 7.4-0.1 8.6 0 1.1 0.1 2.1-0.3 2.6 0.3 0.8 1 0.2 3.2-1.2 3 0 2.1 0.1 4.3 0.1 6.4 6.2-3.6 12.2-7.4 18.5-10.7 4.6-2.4 7.4 0.8 11.5 3.3 7.6 4.6 15.2 9.2 22.8 13.9C1048.3 319.9 1061 325.5 1058.8 329.1 1058.1 330.2 1059.5 327.9 1058.8 329.1zM1015.1 307.4c-8.6 5-17.3 10-25.9 15 -2.6 1.5-9 3.7-10.7 6.2 -1.1 1.7-0.3 6.5-0.3 8.6 0 6.6 0 13.2 0 19.7 0 1.4-1 8.9 0.1 9.8 0.6 0.5 3.7 0 4.4 0 3.1 0 6.3 0 9.4 0 3 0 6.1 0 9.1 0 1.6 0 5.8 0.8 7.3 0 1.8-1 0.8-7.4 0.8-9.8 0-2.5-1.3-11.6 0.3-13.1 0.9-0.8 6.7 0 7.9 0 3 0 2.2-0.5 2.9 1.6 0.6 2.1 0 5.4 0 7.7 0 3.3 0 6.6 0 9.9 0 4.7 0.2 3.8 4.9 3.8 6.3 0 12.7 0 19 0 1.1 0 4.6 0.6 5.6 0 1-0.6 0.2 0 0.6-1.5 1.4-4.5 0-11.7 0-16.4 0-5.7 1.3-13.1 0-18.7 -0.6-2.8-3.3-3.4-5.9-5C1034.8 319.3 1025 313.4 1015.1 307.4zM1039.7 335.9c-1.8 0-9.3 1.2-10.5 0 -0.4-0.4-0.5-10 0-10.5 0.6-0.6 10.1-0.4 10.5 0C1040.9 326.6 1039.7 334.1 1039.7 335.9zM1019.6 335.9c-1.8 0-9.3 1.2-10.5 0 -0.4-0.4-0.5-10 0-10.5 0.6-0.6 10.1-0.4 10.5 0C1020.8 326.6 1019.6 334.1 1019.6 335.9zM999.4 335.9c-1.8 0-9.3 1.2-10.5 0 -0.4-0.4-0.5-10 0-10.5 0.6-0.6 10.1-0.4 10.5 0C1000.6 326.6 999.4 334.1 999.4 335.9zM1039.7 354.3c-1.8 0-9.3 1.2-10.5 0 -0.4-0.4-0.5-10 0-10.5 0.6-0.6 10.1-0.4 10.5 0C1040.9 345 1039.7 352.5 1039.7 354.3zM999.4 354.3c-1.8 0-9.3 1.2-10.5 0 -0.4-0.4-0.5-10 0-10.5 0.6-0.6 10.1-0.4 10.5 0C1000.6 345 999.4 352.5 999.4 354.3z"/>
  <path class="st3" d="M889 347.1c0-0.4-0.1-0.7-0.1-1.1 0-4.6 3.5-8.4 8-9 0.6-4.9 4.7-8.7 9.8-8.7 4.7 0 8.6 3.3 9.6 7.7 1.1-0.5 2.3-0.8 3.6-0.8 4.2 0 7.6 2.9 8.6 6.7 0.4 0 0.7-0.1 1.1-0.1 6.3 0 11.3 4.9 11.3 11.2s-5.1 11.2-11.3 11.2h-35.4c-5.2 0-9.5-4.1-9.5-9.3C884.7 351.6 886.4 348.8 889 347.1z"/>
  <path class="st3" d="M427.6 93.5c2.6-4-2.1-6.7 0-9.8 2.2-3.3 8.5-1 10.4-5.3 1-2.2-0.8-2.9-0.7-4.7 0-1.5 1.4-2.1 1-3.5 -1-3.1-5.7-4.5-3.7-8.7 1.6-3.2 5.4-2.3 8.1-4 1.4-0.8 1.1-2.4 3-3 2.1-0.7 3.7 1.3 5.6 1 4.5-0.7 2.1-3.7 4.2-6.9 2.9-4.6 9.3-3.4 13.5-1.5 -0.4-13.2 14.2-3.6 19.3-5 4.1-1.1 5.5-5.3 10.1-5.5 2.5-0.1 4.6 1.5 7 1.6 3 0.1 5.8-1.1 8.5-2.2 4.9-1.9 9-4.9 13.6-7.2 5.7-2.9 7.7-1.6 13.2 0.5 5.8 2.2 8-0.1 13.5-2 4.4-1.6 9.2-0.5 13.5-2.4 1.9-0.9 2.9-2.2 5-2.9 2-0.7 2.5 2.8 4.5-0.4 2.2-3.4-3.1-7.5-5.2-9.1 -8-5.9-20.6-15-30.5-11.9 -8.3 2.6-16.4-4.7-23 4.5 -2.4 3.4-3.2 7.3-8.3 7.3 -1.2 0-15.6-4.8-8.5-0.5 -3.7-0.5-8.7-2.4-12.3-0.4 -2.6 1.5-5.1 5.7-1.9 8 -1.2 0.7-3.4 2.6-4.7 2.7 -1 0.1-3.2-1.8-4.8-1.7 -3 0.2-4.4 2.8-7 3.7 -3.5 1.2-6.7-0.7-10.2-0.3 -4.3 0.5-3.6 2.1-5.8 4.8 -1.6 2-4.5 2.8-6.1 4.9 -2.4 3.1-0.4 6.7-4.1 9.3 -5.1 3.5-16.6 1.8-14.1 12.1 -3.7-2.1-6.7 2.1-7.1 5.3 -0.4 3.7 2.3 6.5 2.6 10 0.2 1.8-0.4 2.8-0.7 4.5 -0.5 0.5-1.1 1-1.6 1.5 0.3 0.5 0.7 1 1 1.4 -1.5 4-3.3 3.9-6.1 6.8 2.7 2.6-1.2 7.4 2.6 9.5C422.4 94.9 426.3 93.6 427.6 93.5z"/>
  <path class="st3" d="M1062.9 363.6c0-20.6 0-41.1 0-61.7 0-14.7 0-29.3 0-44 0-5 0-10 0-15.1 0-1.8-0.9-6.6 0-8.2 1.4-2.6 139.9-1.1 143.3-1.1 15.2 0 30.5 0 45.7 0 10.3 0 20.7-0.2 76-0.4v132.1L1062.9 363.6zM1215.4 246.5c-1.1-1.9 0.1-1-3.3-1.3 -0.8-0.1-6.9-0.7-7.6 0 -1.4 1.4-0.5 13.7 0 15.7 0.8 3.2-0.7 1.4 2.6 2.3 2.4 0.6 5.7 0 8.3 0C1215.4 259.3 1217.2 249.7 1215.4 246.5zM1215.4 274.9c-1.1-1.9 0.1-1-3.3-1.3 -0.8-0.1-6.9-0.7-7.6 0 -1.4 1.4-0.5 13.7 0 15.7 0.8 3.2-0.7 1.4 2.6 2.3 2.4 0.6 5.7 0 8.3 0C1215.4 287.7 1217.2 278 1215.4 274.9zM1193.4 246.5c-1.1-1.9 0.1-1-3.3-1.3 -0.8-0.1-6.9-0.7-7.6 0 -1.4 1.4-0.5 13.7 0 15.7 0.8 3.2-0.7 1.4 2.6 2.3 2.4 0.6 5.7 0 8.3 0C1193.4 259.3 1195.2 249.7 1193.4 246.5zM1193.4 274.9c-1.1-1.9 0.1-1-3.3-1.3 -0.8-0.1-6.9-0.7-7.6 0 -1.4 1.4-0.5 13.7 0 15.7 0.8 3.2-0.7 1.4 2.6 2.3 2.4 0.6 5.7 0 8.3 0C1193.4 287.7 1195.2 278 1193.4 274.9zM1171.5 246.5c-1.1-1.9 0.1-1-3.3-1.3 -0.8-0.1-6.9-0.7-7.6 0 -1.4 1.4-0.5 13.7 0 15.7 0.8 3.2-0.7 1.4 2.6 2.3 2.4 0.6 5.7 0 8.3 0C1171.5 259.3 1173.2 249.7 1171.5 246.5zM1171.5 274.9c-1.1-1.9 0.1-1-3.3-1.3 -0.8-0.1-6.9-0.7-7.6 0 -1.4 1.4-0.5 13.7 0 15.7 0.8 3.2-0.7 1.4 2.6 2.3 2.4 0.6 5.7 0 8.3 0C1171.5 287.7 1173.2 278 1171.5 274.9zM1215.4 304.7c-1.1-1.9 0.1-1-3.3-1.3 -0.8-0.1-6.9-0.7-7.6 0 -1.4 1.4-0.5 13.7 0 15.7 0.8 3.2-0.7 1.4 2.6 2.3 2.4 0.6 5.7 0 8.3 0C1215.4 317.5 1217.2 307.9 1215.4 304.7zM1193.4 304.7c-1.1-1.9 0.1-1-3.3-1.3 -0.8-0.1-6.9-0.7-7.6 0 -1.4 1.4-0.5 13.7 0 15.7 0.8 3.2-0.7 1.4 2.6 2.3 2.4 0.6 5.7 0 8.3 0C1193.4 317.5 1195.2 307.9 1193.4 304.7zM1171.5 304.7c-1.1-1.9 0.1-1-3.3-1.3 -0.8-0.1-6.9-0.7-7.6 0 -1.4 1.4-0.5 13.7 0 15.7 0.8 3.2-0.7 1.4 2.6 2.3 2.4 0.6 5.7 0 8.3 0C1171.5 317.5 1173.2 307.9 1171.5 304.7zM1310 246.5c-1.1-1.9 0.1-1-3.3-1.3 -0.8-0.1-6.9-0.7-7.6 0 -1.4 1.4-0.5 13.7 0 15.7 0.8 3.2-0.7 1.4 2.6 2.3 2.4 0.6 5.7 0 8.3 0C1310 259.3 1311.8 249.7 1310 246.5zM1310 274.9c-1.1-1.9 0.1-1-3.3-1.3 -0.8-0.1-6.9-0.7-7.6 0 -1.4 1.4-0.5 13.7 0 15.7 0.8 3.2-0.7 1.4 2.6 2.3 2.4 0.6 5.7 0 8.3 0C1310 287.7 1311.8 278 1310 274.9zM1288.1 246.5c-1.1-1.9 0.1-1-3.3-1.3 -0.8-0.1-6.9-0.7-7.6 0 -1.4 1.4-0.5 13.7 0 15.7 0.8 3.2-0.7 1.4 2.6 2.3 2.4 0.6 5.7 0 8.3 0C1288.1 259.3 1289.9 249.7 1288.1 246.5zM1288.1 274.9c-1.1-1.9 0.1-1-3.3-1.3 -0.8-0.1-6.9-0.7-7.6 0 -1.4 1.4-0.5 13.7 0 15.7 0.8 3.2-0.7 1.4 2.6 2.3 2.4 0.6 5.7 0 8.3 0C1288.1 287.7 1289.9 278 1288.1 274.9zM1310 304.7c-1.1-1.9 0.1-1-3.3-1.3 -0.8-0.1-6.9-0.7-7.6 0 -1.4 1.4-0.5 13.7 0 15.7 0.8 3.2-0.7 1.4 2.6 2.3 2.4 0.6 5.7 0 8.3 0C1310 317.5 1311.8 307.9 1310 304.7zM1288.1 304.7c-1.1-1.9 0.1-1-3.3-1.3 -0.8-0.1-6.9-0.7-7.6 0 -1.4 1.4-0.5 13.7 0 15.7 0.8 3.2-0.7 1.4 2.6 2.3 2.4 0.6 5.7 0 8.3 0C1288.1 317.5 1289.9 307.9 1288.1 304.7z"/>
  <path class="st3" d="M457 367.3c-22.3 0-50.6 0-72.9 0 -66 0-131.9 0-197.9 0 -2.3 0-13 1.8-14.8 0.2 -3.2-2.8-0.2-24.8-0.2-29.2 0-18.2 0-36.5 0-54.7 0-2.5-0.7-6.3 0.5-8.2 2.5-3.8 12.5-6.9 16.4-9.1 12.8-7.1 25.5-14.1 38.2-21.2 0 8.8-1.1 18.3 0 27 0.9 6.8 2.2 4.1 7.9 0.6 15.3-9.2 30.9-18.4 45.9-27.6 0 11.1 0 22.3 0 33.4 18-11.1 36-22.3 54-33.4 0 7.4 0 14.9 0 22.3 0 9.3-1.7 9.2 7.7 9.2 3.7 0 12.7 1.6 14.6-0.9 1.6-2.1 0.8-9.8 1-12.3 3-36 6-72.1 9-108.1 0.4-4.7-0.6-22.5 2.9-25 1.9-1.3 13.9-0.5 14.8 0.7 1.4 1.9 0.4 8.9 0.6 11.2 1.8 36.2 3.6 72.4 5.4 108.6 0.2 4.4-1.4 23.1 1.7 25.9 2 1.7 12 0.2 13-1.2 1.3-1.8 0.5-8.6 0.6-10.8 2-36 4-72.1 6.1-108.1 0.9-15.3 1.7-30.6 2.6-45.9 0.1-1.8-0.6-7.9 0.5-9.3 0.7-0.9 14.4-1.5 15.8-0.3 2.7 2.3 1.4 18.9 1.6 22.5 1 18 2 36 3 54 1.1 19.6 2.2 39.3 3.3 58.9 0.6 11-1.3 26.3 2.1 36.9 1.4 4.3-1.2 2.3 4 3.3 1.4 0.3 9.4 0.4 13.4 0.4L457 367.3zM245.1 305.3h-13v8h13V305.3zM245.1 317.3h-13v8h13V317.3zM262.1 305.3h-13v8h13V305.3zM262.1 317.3h-13v8h13V317.3zM278.1 305.3h-13v8h13V305.3zM278.1 317.3h-13v8h13V317.3zM295.1 305.3h-13v8h13V305.3zM295.1 317.3h-13v8h13V317.3zM311.1 305.3h-13v8h13V305.3zM311.1 317.3h-13v8h13V317.3z"/>
  <path class="st3" d="M703.5 186.7c0 15 0 30.1 0 45.1 0 54 0 116.9 0 151.5 -4.9 0-9.7 0-14.6 0 0.2-6.5 2.3-26.9 0-31 -1.5-2.6 0.1-1.4-4.5-1.8 -1.1-0.1-9.5-0.9-10.4 0 -1.9 1.9-0.7 27.9 0 30.7 0.3 1.1 0.4 1.8 0.4 2.2 -18.3 0-36.6 0-54.9 0V176.7c14.6-0.3 29.3-0.6 43.8-0.5v-9.3H692v10c2.3 0.1 4.7 0.2 7 0.4C705.7 177.7 703.5 179.7 703.5 186.7zM644.1 192.5c-0.2-1-1.2-1.6-3.1-1.8 -1.1-0.1-6.1-0.9-7 0 -1.9 1.9-0.7 18.7 0 21.4 1.1 4.3-1 2 3.6 3.1 3.3 0.8 3.1 0 6.5 0C644.1 210 646.5 196.9 644.1 192.5zM644.1 230c-0.2-1-1.2-1.6-3.1-1.8 -1.1-0.1-6.1-0.9-7 0 -1.9 1.9-0.7 18.7 0 21.4 1.1 4.3-1 2 3.6 3.1 3.3 0.8 3.1 0 6.5 0C644.1 247.5 646.5 234.3 644.1 230zM644.1 267.6c-0.2-1-1.2-1.6-3.1-1.8 -1.1-0.1-6.1-0.9-7 0 -1.9 1.9-0.7 18.7 0 21.4 1.1 4.3-1 2 3.6 3.1 3.3 0.8 3.1 0 6.5 0C644.1 285.1 646.5 271.9 644.1 267.6z"/>
  <path class="st3" d="M611 324.7c0 6.7 0 13.3 0 20 0 5 0 9.9 0 14.9 0 1.8 1 7.5 0 9 -1.5 2.3-15.9 0.6-19.1 0.6 -1.2 0-7.5 0.8-8.3 0 -1.2-1.3 0-9.5 0-11.3 0-1.5 0.6-4.3 0-5.7 -0.8-1.9 0.6-0.5-1.3-1.3 -1.1-0.5-10.9-0.8-11.8 0 -1.1 1.1-0.1 8.1-0.1 9.7 0 1.5 0.8 7.7-0.2 8.6 -1.1 1-7.5 0-8.9 0 -5 0-10.1 0-15.1 0 -2.7 0-8.6 1.1-11.1 0 -1.7-0.8-1.1-2-1.1-4.5 0-4.8 0-9.7 0-14.5 0-2.9 0.8-3.8-1.4-4.5 -3.3-1.1-8.9 0-12.3 0 -3.2 0-9.7-1.3-12.6 0 -1.9 0.8-1.1 2.3-1.1 5 0 4.8 0 9.6 0 14.5 0 4 0.7 4.1-3.4 4.1 -2.1 0-6.9 0.9-7.8-0.7 -0.9-1.6 0-6.5 0-8.3 0-4.8 0-9.6 0-14.4 0-4.9 0-9.8 0-14.6 0-2-1-7.3 0-9.1 1.3-2.3 12.8-0.8 15.9-0.8 4.9 0 9.8 0 14.7 0 2.3 0 5.4 0.6 7.6 0 5.2-1.3 10.9-6 15.5-8.5 7.8-4.3 15.7-8.7 23.5-13 1.4-0.8 1.8-1.2 3-0.9 2.2 0.5 5.3 3.9 7.1 5.3 7.7 5.7 15.4 11.4 23.1 17.1C607.8 322.3 609.4 323.5 611 324.7zM560.1 329.9c-2.1 0-10.6-1.3-12 0 -0.6 0.6-0.7 9.4-0.1 10.1 0.5 0.5 10.8 0.5 11.6 0C561.1 339 560.1 332.1 560.1 329.9zM602.8 329.9c-2.1 0-10.6-1.3-12 0 -0.6 0.6-0.7 9.4-0.1 10.1 0.5 0.5 10.8 0.5 11.6 0C603.8 339 602.8 332.1 602.8 329.9z"/>
  <path class="st3" d="M615.6 319.7c-11-7.7-21.9-15.8-32.8-23.7 -2.5-1.8-6.1-5.8-9-5.2 -3.2 0.6-7.1 4-9.9 5.5 -2.4 1.3-4.7 2.6-7.1 4 0-1.2 0.7-5.7 0-6.5 -0.5-0.5-3.6-0.3-4.5-0.2 -2.9 0.3-1.9-0.6-2.4 1.9 -0.5 2.2 0.4 4.7 0 6.9 -0.5 2.7-1.6 3.1-4.3 3.4 -4 0.5-8.6 0-12.7 0 -5.3 0-10.6 0-15.9 0 -2 0-5.2-0.6-7.2 0 -3.3 1.1-6.8 4.6-9.7 6.6 -2.9 2-5.9 4-8.8 6 10.3 0 20.6 0 30.9 0 3.1 0 7.5 0.8 10.6 0 2.2-0.6 4.8-2.7 6.8-3.8 10.6-5.9 21.2-11.9 31.8-17.8 2.6-1.4 2.4-1.9 4.6-0.9 4.4 1.9 8.8 6.4 12.7 9.2 6 4.3 12 8.7 18 13 1.8 1.3 3.5 2.8 5.4 3.8C614.1 322.8 618.7 321.9 615.6 319.7 614.4 318.9 617.7 321.2 615.6 319.7z"/>
  <path class="st4" d="M491.1 304.7c0.3-0.9 0.4-1.9 0.4-3 0-4.6-2.9-8.6-7.1-10.1 -1.3-5.9-6.5-10.3-12.7-10.6 -1.8-3.9-5.7-6.5-10.2-6.5 -3.1 0-5.8 1.2-7.9 3.2 -1.5-0.6-3-0.9-4.7-0.9 -7.1 0-12.8 5.7-12.8 12.8 0 0.3 0 0.6 0 1 -4.7 2.1-8 6.9-8 12.4 0 2.2 0.5 4.2 1.4 6 -3.2 2.8-5.2 6.9-5.2 11.5 0 8.4 6.8 15.1 15.1 15.1 2.5 0 4.8-0.6 6.9-1.6 2 2.7 5 4.7 8.4 5.4v33.3h11.2v-35.7c1.2-0.8 2.2-1.8 3.1-3 2.1 1.2 4.6 1.8 7.2 1.8 6.8 0 12.6-4.5 14.5-10.7 4-1.7 6.8-5.7 6.8-10.4C497.4 310.4 494.8 306.5 491.1 304.7z"/>
  <path class="st5" d="M1570.6 335c-2.7 0-5.3 0-8 0 -2.7 0-2.1 0.4-2.4-1.9 -0.5-2.9 0-6.2 0-9.1 0-0.8-0.6-5.7 0-6.2 0.9-0.8 6.3 0 7.6 0 2.8 0 2.4-0.6 2.9 1.6C1571.7 324 1570.6 330.2 1570.6 335z"/>
  <path class="st5" d="M775.6 250.9c-1.1-1.9 0.1-1-3.3-1.3 -0.8-0.1-6.9-0.7-7.6 0 -1.4 1.4-0.5 13.7 0 15.7 0.8 3.2-0.7 1.4 2.6 2.3 2.4 0.6 5.7 0 8.3 0C775.6 263.8 777.4 254.1 775.6 250.9z"/>
  <path class="st5" d="M753.6 250.9c-1.1-1.9 0.1-1-3.3-1.3 -0.8-0.1-6.9-0.7-7.6 0 -1.4 1.4-0.5 13.7 0 15.7 0.8 3.2-0.7 1.4 2.6 2.3 2.4 0.6 5.7 0 8.3 0C753.6 263.8 755.4 254.1 753.6 250.9z"/>
  <path class="st5" d="M731.7 250.9c-1.1-1.9 0.1-1-3.3-1.3 -0.8-0.1-6.9-0.7-7.6 0 -1.4 1.4-0.5 13.7 0 15.7 0.8 3.2-0.7 1.4 2.6 2.3 2.4 0.6 5.7 0 8.3 0C731.7 263.8 733.4 254.1 731.7 250.9z"/>
  <path class="st6" d="M644.1 230c-0.2-1-1.2-1.6-3.1-1.8 -1.1-0.1-6.1-0.9-7 0 -1.9 1.9-0.7 18.7 0 21.4 1.1 4.3-1 2 3.6 3.1 3.3 0.8 3.1 0 6.5 0C644.1 247.5 646.5 234.3 644.1 230z"/>
  <path class="st5" d="M1728.7 355.3c0 3.9 0 7.9 0 11.8 -4.3 0-8.6 0-12.9 0 -4.7 0-4.7 1.1-5.7-2.3 -1.4-4.5 0-11.6 0-16.3 0-1.7-1.2-9.8 0-11 1.4-1.4 10.9 0 12.9 0 4.5 0 4.9-1.2 5.7 2.3C1729.8 344.3 1728.7 350.6 1728.7 355.3z"/>
  <path class="st5" d="M1650.9 183.1c0.7-0.7 6.8-0.1 7.6 0 3.4 0.3 2.2-0.6 3.3 1.3 1.8 3.2 0 12.8 0 16.6 -2.5 0-5.8 0.6-8.3 0 -3.4-0.8-1.8 0.9-2.6-2.3C1650.3 196.8 1649.5 184.5 1650.9 183.1z"/>
  <path class="st5" d="M1628.9 183.1c0.7-0.7 6.8-0.1 7.6 0 3.4 0.3 2.2-0.6 3.3 1.3 1.8 3.2 0 12.8 0 16.6 -2.5 0-5.8 0.6-8.3 0 -3.4-0.8-1.8 0.9-2.6-2.3C1628.4 196.8 1627.5 184.5 1628.9 183.1z"/>
  <path class="st5" d="M1606.9 183.1c0.7-0.7 6.8-0.1 7.6 0 3.4 0.3 2.2-0.6 3.3 1.3 1.8 3.2 0 12.8 0 16.6 -2.5 0-5.8 0.6-8.3 0 -3.4-0.8-1.8 0.9-2.6-2.3C1606.4 196.8 1605.5 184.5 1606.9 183.1z"/>
</svg>
