<svg xmlns="http://www.w3.org/2000/svg" xmlns:xlink="http://www.w3.org/1999/xlink" version="1.1" id="Layer_1" x="0" y="0" viewBox="106 806.7 2211.9 389.3" xml:space="preserve" enable-background="new 106 806.7 2211.9 389.3">
  <style type="text/css">
    
	.st0{fill:#6B9625;}
	.st1{fill:#72A02B;}
	.st2{fill:#85AD48;}
	.st3{fill:#578D18;}
	.st4{fill:#5E921E;}

  </style>
  <polygon class="st0" points="674.5 1073.4 674.3 1056.7 665.1 1056.9 665.3 1072.1 665.5 1072.1 666.9 1072.1 669.6 1072 675.2 1072 675.2 1074.7 662.7 1074.7 662.7 1054.4 676.6 1054.4 676.6 1073.4 "/>
  <polygon class="st0" points="695.8 1073.4 695.6 1056.7 686.4 1056.9 686.6 1072.1 686.8 1072.1 688.2 1072.1 691 1072 696.5 1072 696.5 1074.7 684 1074.7 684 1054.4 697.9 1054.4 697.9 1073.4 "/>
  <polygon class="st0" points="1459 993.2 1458.8 973.3 1446.3 973.4 1446.5 991.9 1459.7 991.8 1459.7 994.5 1443.9 994.5 1443.9 971 1461.1 971 1461.1 993.2 "/>
  <polygon class="st0" points="1429 993.2 1428.8 973.3 1416.3 973.4 1416.5 991.9 1429.7 991.8 1429.7 994.5 1413.9 994.5 1413.9 971 1431.1 971 1431.1 993.2 "/>
  <polygon class="st0" points="1527.5 993.2 1527.3 973.3 1514.7 973.4 1514.9 991.9 1528.2 991.8 1528.2 994.5 1512.3 994.5 1512.3 971 1529.5 971 1529.5 993.2 "/>
  <polygon class="st0" points="1527.5 1025.1 1527.3 1005.3 1514.7 1005.4 1514.9 1023.9 1528.2 1023.8 1528.2 1026.5 1512.3 1026.5 1512.3 1003 1529.5 1003 1529.5 1025.1 "/>
  <polygon class="st0" points="1552.2 993.2 1552 973.3 1539.5 973.4 1539.7 991.9 1552.9 991.8 1552.9 994.5 1537.1 994.5 1537.1 971 1554.3 971 1554.3 993.2 "/>
  <polygon class="st0" points="1552.2 1025.1 1552 1005.3 1539.5 1005.4 1539.7 1023.9 1552.9 1023.8 1552.9 1026.5 1537.1 1026.5 1537.1 1003 1554.3 1003 1554.3 1025.1 "/>
  <polygon class="st0" points="1527.5 1057.8 1527.3 1037.9 1514.7 1038.1 1514.9 1056.6 1528.2 1056.4 1528.2 1059.2 1512.3 1059.2 1512.3 1035.7 1529.5 1035.7 1529.5 1057.8 "/>
  <polygon class="st0" points="1527.5 1089.8 1527.3 1069.9 1514.7 1070.1 1514.9 1088.6 1528.2 1088.4 1528.2 1091.2 1512.3 1091.2 1512.3 1067.6 1529.5 1067.6 1529.5 1089.8 "/>
  <polygon class="st0" points="1552.2 1057.8 1552 1037.9 1539.5 1038.1 1539.7 1056.6 1552.9 1056.4 1552.9 1059.2 1537.1 1059.2 1537.1 1035.7 1554.3 1035.7 1554.3 1057.8 "/>
  <polygon class="st0" points="1552.2 1089.8 1552 1069.9 1539.5 1070.1 1539.7 1088.6 1552.9 1088.4 1552.9 1091.2 1537.1 1091.2 1537.1 1067.6 1554.3 1067.6 1554.3 1089.8 "/>
  <polygon class="st0" points="1003.5 1050.4 1003.3 1033.7 994.1 1033.9 994.3 1049.1 994.5 1049.1 995.9 1049.1 998.6 1049 1004.2 1049 1004.2 1051.7 991.7 1051.7 991.7 1031.4 1005.6 1031.4 1005.6 1050.4 "/>
  <polygon class="st0" points="1003.5 1077.9 1003.3 1061.2 994.1 1061.4 994.3 1076.6 994.5 1076.6 995.9 1076.6 998.6 1076.6 1004.2 1076.5 1004.2 1079.2 991.7 1079.2 991.7 1059 1005.6 1059 1005.6 1077.9 "/>
  <polygon class="st0" points="1003.5 1105.4 1003.3 1088.7 994.1 1088.9 994.3 1104.1 994.5 1104.1 995.9 1104.1 998.6 1104.1 1004.2 1104 1004.2 1106.7 991.7 1106.7 991.7 1086.5 1005.6 1086.5 1005.6 1105.4 "/>
  <path class="st0" d="M2027.8 1081.9v-36.4l-145.9 0.1v82.4h-68.4v35.9l-76.9-0.7 -0.1-158.9 -162.1 0.1v-48.8l-193 0.1 0.3-2.1c0.1-0.8 0.1-1.3 0.2-2l0.1-1.3v-1.2c0-1.6 0.1-3.2 0.1-4.8 0-1.6 0-3.2-0.1-4.8 0-0.8 0-1.6-0.1-2.4 -0.1-1.4-0.2-2.8-0.4-4.2h7.4l-1 3 -16.3-12.5 -16.2 12.5 -1-3.1h2.8c1.5 0 3.1 0 4.6 0 -0.2 0.9-0.5 1.9-0.7 2.9 -0.1 0.5-0.2 0.9-0.2 1.4 0 0.3 0 0.5 0 0.8 0 1 0 2 0 3.1 0.1 2.1 0.2 4.2 0.4 6.3l0.3 3.2 0.2 2 0.2 2.8c0 0.2 0.1 0.5 0 0.7h-0.7 -1.4 -2.6 -3.2 -23.8l0.1 144.6h-66.1l-3.9-17 -168.4-0.2v-62.1h-58.6V980h0.8 0.1c0 0 0.2 0-0.2 0h-0.8c-0.2 0-0.1 0-0.1 0l0 0c0.1 0.1 0.3 0.2 0.4 0.2 0.2 0 0.3-0.1 0.4-0.2l0 0c0 0 0.1 0-0.1 0h-0.8c-0.4 0-0.2 0-0.2 0h0.1 0.8v41.3h-16.4v-8.6h-25.9v8.6h-15.7v50.2l-136.6 0.2v-20.8h-60.8v10.9h-30V1045l-99.4 0.1v69.1h-4.7v-73.7h108.5v16.9h21v-10.8h69.6v20.8l128.3 0.1v-50.2h15.7v-8.6h34.2v8.6h8.2V976h2.5 0.3c0.1 0 0.3 0 0 0h-0.6c-0.2 0 0 0 0 0h0.1c0.4-0.1 0.8-0.2 1.3-0.2s0.9 0.1 1.3 0.2h0.1c0 0 0.2 0 0 0h-0.6c-0.3 0-0.1 0 0 0h0.3 2.5v41.3h58.6v62.1l167.5 0.1 3.9 17h59.4l0.1-144.4h27.4 3.2 0.6 0.2 0.1V952l-0.1-1.5 -0.3-3.2c-0.2-2.1-0.4-4.3-0.4-6.5 0-1.1 0-2.2 0-3.3 0-0.3 0-0.6 0.1-0.8v-0.2c0-0.1 0-0.2 0.1-0.4 -0.1-0.1-0.4 0-0.6 0h-2.5 -5.3l4.2-3.2 18.4-14.1 18.4 14.1 4.1 3.2h-5.2 -2.8 -0.5c-0.1 0-0.2 0-0.3 0 0 0.2 0 0.4 0 0.6 0 0.8 0.1 1.7 0.1 2.5 0 1.6 0.1 3.3 0.1 4.9 0 1.6 0 3.3-0.1 4.9l-0.1 2.4c0 0.3 0 0.5-0.1 0.7l192.5 0.1v48.8l161.9 0.1 -0.1 159.1 71.2 0.7v-35.8h68.4v-82.3l151.1 0.1v39H2027.8z"/>
  <path class="st1" d="M1933.7 966.7c2.1-3.2-1.7-5.3 0-7.7 1.8-2.6 6.7-0.8 8.3-4.2 0.8-1.8-0.6-2.3-0.6-3.7 0-1.2 1.1-1.6 0.8-2.8 -0.8-2.5-4.5-3.6-2.9-6.9 1.3-2.6 4.3-1.9 6.5-3.1 1.1-0.7 0.9-1.9 2.4-2.4 1.7-0.6 3 1 4.5 0.8 3.6-0.5 1.7-2.9 3.3-5.5 2.3-3.7 7.4-2.7 10.7-1.2 -0.4-10.5 11.3-2.9 15.3-4 3.3-0.9 4.4-4.2 8-4.4 2-0.1 3.7 1.2 5.6 1.3 2.3 0.1 4.6-0.9 6.8-1.7 3.9-1.5 7.1-3.9 10.8-5.7 4.5-2.3 6.1-1.3 10.4 0.4 4.6 1.8 6.4-0.1 10.7-1.6 3.5-1.2 7.3-0.4 10.7-1.9 1.5-0.7 2.3-1.8 4-2.3 1.6-0.5 2 2.2 3.6-0.3 1.7-2.7-2.4-5.9-4.1-7.2 -6.4-4.7-16.3-11.9-24.2-9.4 -6.6 2.1-13-3.7-18.3 3.6 -1.9 2.7-2.5 5.8-6.6 5.8 -1 0-12.4-3.8-6.8-0.4 -3-0.4-6.9-1.9-9.8-0.3 -2.1 1.2-4 4.5-1.5 6.4 -0.9 0.5-2.7 2.1-3.7 2.2 -0.8 0.1-2.6-1.4-3.8-1.4 -2.4 0.1-3.5 2.2-5.6 2.9 -2.8 1-5.3-0.6-8.1-0.2 -3.4 0.4-2.9 1.7-4.6 3.8 -1.2 1.6-3.6 2.2-4.9 3.9 -1.9 2.5-0.3 5.3-3.2 7.4 -4.1 2.8-13.2 1.4-11.2 9.6 -2.9-1.7-5.4 1.7-5.6 4.2 -0.3 2.9 1.8 5.2 2.1 8 0.1 1.4-0.3 2.2-0.5 3.6 -0.4 0.4-0.9 0.8-1.3 1.2 0.3 0.4 0.5 0.8 0.8 1.1 -1.2 3.2-2.6 3.1-4.9 5.4 2.1 2.1-1 5.9 2.1 7.6C1929.6 967.8 1932.7 966.8 1933.7 966.7z"/>
  <path class="st1" d="M1964.8 1175c-4.9 0-124.8 1-129 0 -1-0.3-1.7-70-1.7-75.8 0 0-0.3-2.9 0-3.2 0.8-0.7 12.9-0.2 14.1-0.2 0-5.4-0.9-5.7 4.1-5.7 5.8 0 11.6 0 17.4 0 7.5 0 15.1 0 22.6 0 3 0 5.9 0 8.9 0 1.6 0 4.6-0.4 6 0.2 1.7 0.7 0.6-0.5 1.4 1 0.4 0.8-0.6 3.3 0 3.9 0.3 0.3 2.9 0.1 3.2-0.2 1.1-1.2-1.2-6 0-6.9 0.5-0.4 3.1 0 3.6 0 13.4 0 26.7 0 40.1 0 2.7 0 8.4-1 9.6 0.9 1.2 2-0.1 8.1-0.1 10.5 0 2.7 0 5.4 0 8.1C1966.1 1106.8 1964.8 1175 1964.8 1175z"/>
  <polygon class="st1" points="1943.3 1087 1947.8 987 1954 987 1959.3 1087 "/>
  <polygon class="st1" points="1920.2 1087 1926.1 972 1933.7 972 1939.6 1087 "/>
  <path class="st1" d="M1959.6 1119.8c0-3 0-6 0-9 0-1.8 1.4-12 0-13.2 -0.4-0.4-2.5 0-3.1 0 -21.5-2-24.1 0-45.6 0 -9.3 0-9.7 0-19 0 0-4.6 0-9.3 0-13.9 0-31.4 0-62.7 0-94.1 0-28.7 0-57.3 0-86 0-1.9 1.4-11.7 0-13.1 -1.1-1.1-8.8 0-10.3 0 -7.6 0-15.1 0-22.7 0 -18.2 0-36.3 0-54.5 0 -3.5 0-17.4-1.8-19 0.9 -0.8 1.4 0 5.7 0 7.2 0 4.2 0 8.5 0 12.7 0 13.6 0 24.3 0 37.9v0.2c19.4-0.4 39-0.8 58.2 0.4 4.9 0.3 3.3 1.8 3.3 6.9 0 11 0 22 0 33 0 32.6 0 67.6 0 93.1 0 5.4 0 10.4 0 14.8 0 13.3 0 21.7 0 22.2h45c0 17.2 0 34.3 0 51.5 0 1.2 0 2.4 0 3.6 51.2 0 64.4 0 66.7 0h0.9l24.1 0.3v-55.4H1959.6L1959.6 1119.8zM1871.1 904.8c0.7-0.7 6.8-0.1 7.6 0 3.4 0.3 2.2-0.6 3.3 1.3 1.8 3.2 0 12.8 0 16.6 -2.5 0-5.8 0.6-8.3 0 -3.4-0.8-1.8 0.9-2.6-2.3C1870.6 918.5 1869.7 906.2 1871.1 904.8zM1871.1 933.1c0.7-0.7 6.8-0.1 7.6 0 0.1 0 2.2-0.6 3.3 1.3 1.8 3.2 0 12.8 0 16.6 -2.5 0-5.8 0.6-8.3 0 -3.4-0.8-1.8 0.9-2.6-2.3C1870.6 946.8 1869.7 934.5 1871.1 933.1zM1871.1 961.5c0.7-0.7 6.8-0.1 7.6 0 3.4 0.3 2.2-0.6 3.3 1.3 1.8 3.2 0 12.8 0 16.6 -2.5 0-5.8 0.6-8.3 0 -3.4-0.8-1.8 0.9-2.6-2.3C1870.6 975.2 1869.7 962.9 1871.1 961.5zM1871.1 989.8c0.7-0.7 6.8-0.1 7.6 0 3.4 0.3 2.2-0.6 3.3 1.3 1.8 3.2 0 12.8 0 16.6 -2.5 0-5.8 0.6-8.3 0 -3.4-0.8-1.8 0.9-2.6-2.3C1870.6 1003.5 1869.7 991.2 1871.1 989.8zM1871.1 1018.2c0.7-0.7 6.8-0.1 7.6 0 3.4 0.3 2.2-0.6 3.3 1.3 1.8 3.2 0 12.8 0 16.6 -2.5 0-5.8 0.6-8.3 0 -3.4-0.8-1.8 0.9-2.6-2.3C1870.6 1031.9 1869.7 1019.6 1871.1 1018.2z"/>
  <path class="st2" d="M1847.1 1119.8c0-0.5 0-8.9 0-22.2 0-25.3 0-68.3 0-107.9 0-11 0-22 0-33 0-5.1 1.6-6.6-3.3-6.9 -19.2-1.2-38.7-0.8-58.2-0.4v148.2 76.6c0.2 0.3 0.6 0.5 1 0.7 6.2 0 12.6 0 19.2 0 28.1 0 58.5 0 86.3 0 0-1.2 0-2.4 0-3.6 0-17.2 0-34.3 0-51.5H1847.1L1847.1 1119.8z"/>
  <path class="st1" d="M1785.8 1174.2v-92.7 -4.5V949.4c-10.4 0.2-20.8 0.4-31 0.4 -15.2 0-30.5 0-45.7 0 -3.4 0-11.9-1.5-13.3 1.1 -0.9 1.6 0 6.4 0 8.2 0 5 0 10 0 15.1 0 14.7 0 29.3 0 44 0 19.6 0 39.2 0 58.9 0 0.8 0 1.8 0 2.8 0 4.4 0 10.9 0 17.7 -5.1 0-4.3 0-9.4 0 -1.4 0-5.4-0.7-6.6 0 -1.5 0.9-0.7 0.4-1 3 -1.9 15.9 0 33.2 0 49.2 0 3.9-2.3 22.2 0.6 24.2 1 0.7 5 0 6.2 0 4 0 2.1 1 6.1 1 1.5 0 3 0 4.5 0 2.4 0 4.8 0 7.2 0 0.6-0.1 1.1-0.1 1.4-0.1 2.1 0 37.2 0 82 0C1786.4 1174.7 1786 1174.5 1785.8 1174.2zM1757.3 961.5c0.7-0.7 6.8-0.1 7.6 0 3.4 0.3 2.2-0.6 3.3 1.3 1.8 3.2 0 12.8 0 16.6 -2.5 0-5.8 0.6-8.3 0 -3.4-0.8-1.8 0.9-2.6-2.3C1756.8 975.2 1755.9 962.9 1757.3 961.5zM1735.4 961.5c0.7-0.7 6.8-0.1 7.6 0 3.4 0.3 2.2-0.6 3.3 1.3 1.8 3.2 0 12.8 0 16.6 -2.5 0-5.8 0.6-8.3 0 -3.4-0.8-1.8 0.9-2.6-2.3C1734.8 975.2 1734 962.9 1735.4 961.5zM1713.4 961.5c0.7-0.7 6.8-0.1 7.6 0 3.4 0.3 2.2-0.6 3.3 1.3 1.8 3.2 0 12.8 0 16.6 -2.5 0-5.8 0.6-8.3 0 -3.4-0.8-1.8 0.9-2.6-2.3C1712.9 975.2 1712 962.9 1713.4 961.5z"/>
  <path class="st1" d="M1714.5 946.4c4.9 0 26.4 3.4 29.6 0 1-1.1 1-26.4 0-27.5 -1.7-1.8-29-0.7-29.6 0C1711.4 922.1 1714.5 941.4 1714.5 946.4z"/>
  <path class="st1" d="M1729.3 903.9c7.4 5.7 14.8 12.1 22.3 17.1 -14.8 0-29.7 0-44.5 0C1714.4 916 1721.9 909.6 1729.3 903.9z"/>
  <path class="st2" d="M873.6 1045.2v-51.8c0 0-2.4-3.3-1.8 0.8 0.8 5.7 0.6 32.8 0.4 36.2 -0.1 3.3-0.5 14.8-0.5 14.8H873.6z"/>
  <path class="st2" d="M867 1045.2v-34.8c0 0-2.8-2.2-2.1 0.5 1 3.9 0.7 22 0.5 24.3 -0.2 2.2-0.6 9.9-0.6 9.9L867 1045.2 867 1045.2z"/>
  <path class="st2" d="M809.1 1174.7c0-20.6 0-41.1 0-61.7 0-14.7 0-29.3 0-44 0-5 0-10 0-15.1 0-1.8-0.9-6.6 0-8.2 1.4-2.6 9.9-1.1 13.3-1.1 15.2 0 30.5 0 45.7 0 10.3 0 20.7-0.2 31-0.4v132.1L809.1 1174.7zM881.6 1057.6c-1.1-1.9 0.1-1-3.3-1.3 -0.8-0.1-6.9-0.7-7.6 0 -1.4 1.4-0.5 13.7 0 15.7 0.8 3.2-0.7 1.4 2.6 2.3 2.4 0.6 5.7 0 8.3 0C881.6 1070.5 883.4 1060.8 881.6 1057.6zM881.6 1086c-1.1-1.9 0.1-1-3.3-1.3 -0.8-0.1-6.9-0.7-7.6 0 -1.4 1.4-0.5 13.7 0 15.7 0.8 3.2-0.7 1.4 2.6 2.3 2.4 0.6 5.7 0 8.3 0C881.6 1098.8 883.4 1089.2 881.6 1086zM859.6 1057.6c-1.1-1.9 0.1-1-3.3-1.3 -0.8-0.1-6.9-0.7-7.6 0 -1.4 1.4-0.5 13.7 0 15.7 0.8 3.2-0.7 1.4 2.6 2.3 2.4 0.6 5.7 0 8.3 0C859.6 1070.5 861.4 1060.8 859.6 1057.6zM859.6 1086c-1.1-1.9 0.1-1-3.3-1.3 -0.8-0.1-6.9-0.7-7.6 0 -1.4 1.4-0.5 13.7 0 15.7 0.8 3.2-0.7 1.4 2.6 2.3 2.4 0.6 5.7 0 8.3 0C859.6 1098.8 861.4 1089.2 859.6 1086zM837.7 1057.6c-1.1-1.9 0.1-1-3.3-1.3 -0.8-0.1-6.9-0.7-7.6 0 -1.4 1.4-0.5 13.7 0 15.7 0.8 3.2-0.7 1.4 2.6 2.3 2.4 0.6 5.7 0 8.3 0C837.7 1070.5 839.4 1060.8 837.7 1057.6zM837.7 1086c-1.1-1.9 0.1-1-3.3-1.3 -0.8-0.1-6.9-0.7-7.6 0 -1.4 1.4-0.5 13.7 0 15.7 0.8 3.2-0.7 1.4 2.6 2.3 2.4 0.6 5.7 0 8.3 0C837.7 1098.8 839.4 1089.2 837.7 1086zM881.6 1115.8c-1.1-1.9 0.1-1-3.3-1.3 -0.8-0.1-6.9-0.7-7.6 0 -1.4 1.4-0.5 13.7 0 15.7 0.8 3.2-0.7 1.4 2.6 2.3 2.4 0.6 5.7 0 8.3 0C881.6 1128.6 883.4 1119 881.6 1115.8zM881.6 1160.8c0-3.8 1.8-13.4 0-16.6 -1.1-1.9 0.1-1-3.3-1.3 -0.8-0.1-6.9-0.7-7.6 0 -1.4 1.4-0.5 13.7 0 15.7 0.8 3.2-0.7 1.4 2.6 2.3M859.6 1115.8c-1.1-1.9 0.1-1-3.3-1.3 -0.8-0.1-6.9-0.7-7.6 0 -1.4 1.4-0.5 13.7 0 15.7 0.8 3.2-0.7 1.4 2.6 2.3 2.4 0.6 5.7 0 8.3 0C859.6 1128.6 861.4 1119 859.6 1115.8zM859.6 1144.2c-1.1-1.9 0.1-1-3.3-1.3 -0.8-0.1-6.9-0.7-7.6 0 -1.4 1.4-0.5 13.7 0 15.7 0.8 3.2-0.7 1.4 2.6 2.3 2.4 0.6 5.7 0 8.3 0C859.6 1157 861.4 1147.3 859.6 1144.2zM837.7 1115.8c-1.1-1.9 0.1-1-3.3-1.3 -0.8-0.1-6.9-0.7-7.6 0 -1.4 1.4-0.5 13.7 0 15.7 0.8 3.2-0.7 1.4 2.6 2.3 2.4 0.6 5.7 0 8.3 0C837.7 1128.6 839.4 1119 837.7 1115.8zM837.7 1144.2c-1.1-1.9 0.1-1-3.3-1.3 -0.8-0.1-6.9-0.7-7.6 0 -1.4 1.4-0.5 13.7 0 15.7 0.8 3.2-0.7 1.4 2.6 2.3 2.4 0.6 5.7 0 8.3 0C837.7 1157 839.4 1147.3 837.7 1144.2z"/>
  <path class="st2" d="M276.9 1114.3l-38.1 0.3v-44.3h-4v-52.2c0-4.8-6.9-8.8-10.6-9.2 0-1.7 0-4.3 0-4.3h-7.7v4.2c-3.8 0.5-9.3 3.7-10.4 8.8v7.9h-5.9v15.4h-5.8v-42.2c0-2.8-2.1-5.8-6-5.8h-27.1c-3.9 0-5.9 3.3-5.9 5.7v4h-2.2v4.6c-3.9 0.5-9.4 3.8-10.4 8.9v17.2h-11.7c-2.7 0-5.8 2.5-5.8 5.8v55.6h3.8v-55.6c0-1.1 1.3-1.9 1.9-1.9h11.7v57.6H109h-1.4l-1.6 79.6 171.5 0.2L276.9 1114.3zM204.2 1029.3h2v11.5h-2V1029.3zM204.2 1044.7h2v15.4h-2V1044.7zM159.2 998.5c0-0.2 0.4-1.8 2.1-1.8h27.3c1.7 0 2.2 1.3 2.2 2v46h9.6v15.4H185v-15.4h-13.6v-1.4l0 0v-26.9c0-4.8-6.9-8.8-10.6-9.2 0-1.2 0-2.3 0-4.6h-1.7L159.2 998.5 159.2 998.5zM192.8 1093.2l-16.8 0.3v-18.4h-4.7v-28.5H183v15.4h17.3v8.7h-7.5V1093.2zM204.2 1070.7v-8.7h2v8.7H204.2z"/>
  <path class="st1" d="M326.9 947.4c-0.1-0.4-0.1-0.9-0.1-1.3 0-5.5 4.2-10.1 9.5-10.7C337 929.6 342 925 348 925c5.6 0 10.3 3.9 11.5 9.1 1.3-0.6 2.8-0.9 4.3-0.9 5 0 9.1 3.4 10.3 8 0.4 0 0.9-0.1 1.3-0.1 7.5 0 13.5 6 13.5 13.4 0 7.5-6.1 13.4-13.5 13.4H333c-6.2 0-11.3-5-11.3-11.2C321.7 952.8 323.8 949.4 326.9 947.4z"/>
  <polygon class="st2" points="1601.8 1107.3 1599.5 1107.3 1599.8 1117.1 1607.1 1124.1 1608 1123.2 1601.6 1116.4 "/>
  <path class="st2" d="M1709.7 1105.9c-9.7-11.3-21.9-19.1-32.6-29.5 -3.8-3.7-10.3-4.9-12.8-4.9 -6.9 0-13.7 0-20.6 0 -5.8 0-11.6 0-17.4 0 -2.1 0-4.5 0.4-6.3-0.5 -1.7-1-3.3-3.3-4.7-4.7 -2.4-2.4-4.8-4.8-7.3-7.3 -3.3-3.3-5.2-4.1-5.1-8.6 0.1-2.9-0.2-6.1 0.3-8.9 0.4-2.4-0.4-1.4 1.8-1.9 2.7-0.6 12.3 1.6 13.7-0.4 0.8-1.2 0.4-8 0-9.4 -0.5-2-0.5-1.4-3.1-1.4 -5.1 0-10.3 0-15.3 0 0.1 5.9 0.3 11.8 0.4 17.7 0.1 2.1 0.9 5.8 0.2 7.8 -0.4 1.3-1.9 2.3-2.9 3.4 -2.6 2.6-5.1 5.1-7.7 7.7 -1.7 1.7-4.1 5.2-6.3 6.3 -2.5 1.2-7.2 0.3-10 0.3 -7.7 0-15.4 0-23.1 0 -5.4 0-9.2-0.6-14.6 0.2 -2.4 0.4-5.6 1.4-7.5 3.2 -4.8 4.5-9.7 8-14.5 12.5 -7.1 6.7-13.8 13.9-21.4 20 -4.5 3.6 2 6.5 7.6 6.3 4.3-0.2 8.6-0.3 12.9-0.3 0 20.9 0 37.7 0 58.8 0 2.2-0.4 1.8 1 2.4 2.6 1.1 7.8 0 10.6 0 12.5 0 25 0 37.4 0 5.8 0 11.6 0 17.4 0 2.7 0 7.7 1 10.2 0 1.8-0.7 1-2.5 1-4.9 0-6.1 0-7.9 0-14.1 0-1.9-1-8.9 0.2-10.1 0.6-0.6 5.2 0 5.9 0 3.3 0 6.6 0 9.9 0 4.8 0 4.8-0.8 4.8 3.9 0 5.9 0 7.4 0 13.3 0 2.7 0 5.4 0 8.1 0 0.6-0.4 3.4 0 3.9 0.6 0.6 5.1 0 5.8 0 11.5 0 23 0 34.5 0 11.1 0 22.2 0 33.3 0 1 0 3.5 0.4 4.1-0.3 1-1.2 0-7.4 0-8.9 0-12.3 0-20.2 0-32.5 0-5.5 0-11 0-16.5 0-0.6 0.2-2.1 0.3-3.6 5.1 0 10.3 0.3 15.9 1C1713.3 1114.7 1713.1 1109.9 1709.7 1105.9zM1538.6 1141.7c-2.7 0-5.3 0-8 0s-2.1 0.4-2.4-1.9c-0.5-2.9 0-6.2 0-9.1 0-0.8-0.6-5.7 0-6.2 0.9-0.8 6.3 0 7.6 0 2.8 0 2.4-0.6 2.9 1.6C1539.7 1130.7 1538.6 1136.9 1538.6 1141.7zM1562.9 1141.7c-2.7 0-5.3 0-8 0s-2.1 0.4-2.4-1.9c-0.5-2.9 0-6.2 0-9.1 0-0.8-0.6-5.7 0-6.2 0.9-0.8 6.3 0 7.6 0 2.8 0 2.4-0.6 2.9 1.6C1564 1130.7 1562.9 1136.9 1562.9 1141.7zM1601.8 1128.9c-6.9 0-12.4-5.6-12.4-12.4 0-6.9 5.6-12.4 12.4-12.4s12.4 5.6 12.4 12.4C1614.3 1123.4 1608.7 1128.9 1601.8 1128.9zM1652.4 1141.7c-2.7 0-5.3 0-8 0s-2.1 0.4-2.4-1.9c-0.5-2.9 0-6.2 0-9.1 0-0.8-0.6-5.7 0-6.2 0.9-0.8 6.3 0 7.6 0 2.8 0 2.4-0.6 2.9 1.6C1653.5 1130.7 1652.4 1136.9 1652.4 1141.7zM1676.6 1141.7c-2.7 0-5.3 0-8 0s-2.1 0.4-2.4-1.9c-0.5-2.9 0-6.2 0-9.1 0-0.8-0.6-5.7 0-6.2 0.9-0.8 6.3 0 7.6 0 2.8 0 2.4-0.6 2.9 1.6C1677.7 1130.7 1676.6 1136.9 1676.6 1141.7z"/>
  <path class="st2" d="M2206.7 1094.1c37.1 0 74.1 0 111.2 0 -3.3-2.9-7.6-8.7-11.6-10.2 -1.7-0.6-4.9 0-6.7 0 -13.1 0-26.1 0-39.2 0 -14.1 0-28.2 0-42.3 0 -2.2 0-8.8-1.2-10.6 0C2205.6 1085.2 2206.7 1091.3 2206.7 1094.1z"/>
  <path class="st2" d="M2100.1 1083.9c-20.7 0-41.4 0-62.2 0 -11.3 0-22.6 0-34 0 -1.5 0-3.7-0.4-5.1 0.1 -3.5 1.3-7.8 7.5-10.5 10.1 21.2 0 42.4 0 63.7 0 12.8 0 25.5 0 38.3 0 1.8 0 7.5 1 9.1 0C2101.2 1092.9 2100.1 1086.5 2100.1 1083.9z"/>
  <path class="st2" d="M2172.2 1052.4c-1.7-10.6-8.4-18.9-16.9-20.2l0.4-14.7h13.8v-10H2155v0.5h-2l0.6 24c-0.2 0-0.4 0-0.6 0 -9.5 0-17.4 8.8-19.2 20.4h-6.1v18l25.2-6 25.7 6.1v-18.1H2172.2z"/>
  <path class="st2" d="M2202.6 1169.2c0-12.6 0-25.2-0.1-37.8 0-10.1 0-20.1 0-30.1 0-5.5 1.8-14.7 0-19.9 -1.1-3-1.9-2.4-5.9-3.3 -8.5-2-17.1-4.1-25.7-6.1 -5.4-1.3-12.2-4.2-17.8-4.2 -4 0-8.7 2-12.6 2.9 -8.7 2.1-17.3 4.1-26 6.2 -2.3 0.5-9.8 1.1-11.1 2.9 -1.4 1.9 0 10.3 0 12.7 0 8.3 0 16.5 0 24.8 0 16.3 0 32.5 0 48.8 0 0.9-0.1 1.9-0.1 2.9 -0.3 0-0.6 0.1-0.9 0.2 -2.5 0.8-0.8-0.9-1.7 2 -1.7 5.5 2.1 4.2 7.1 4.2 32.8 0 65.6 0 98.4 0C2206.2 1169.8 2206.7 1169.2 2202.6 1169.2zM2180.8 1108.1c1.3-2.2 7.9-1 11-1 0 11.3 0 22.7 0 34.2 0 3.2 1.7 12.2 0 14.8 -0.6 0.9-9.4 2.5-11 1 -1.2-1.1 0-10.1 0-11.6 0-7 0-14.1 0-21.1C2180.8 1121 2179 1111.1 2180.8 1108.1zM2159.2 1108.1c1.3-2.2 7.9-1 11-1 0 11.3 0 22.7 0 34.2 0 3.2 1.7 12.2 0 14.8 -0.6 0.9-9.4 2.5-11 1 -1.2-1.1 0-10.1 0-11.6 0-7 0-14.1 0-21.1C2159.2 1121 2157.4 1111.1 2159.2 1108.1zM2137.6 1108.1c1.3-2.2 7.9-1 11-1 0 11.3 0 22.7 0 34.2 0 3.2 1.7 12.2 0 14.8 -0.6 0.9-9.4 2.5-11 1 -1.2-1.1 0-10.1 0-11.6 0-7 0-14.1 0-21.1C2137.6 1121 2135.8 1111.1 2137.6 1108.1zM2116 1108.1c1.3-2.2 7.9-1 11-1 0 11.3 0 22.7 0 34.2 0 3.2 1.7 12.2 0 14.8 -0.6 0.9-9.4 2.5-11 1 -1.2-1.1 0-10.1 0-11.6 0-7 0-14.1 0-21.1C2116 1121 2114.2 1111.1 2116 1108.1z"/>
  <path class="st2" d="M2220.6 1185.6c-41.3 0-82.5 0-123.8 0 -2.3 0-6.7 0.7-8.8 0 -2.3-0.8-2.1-0.5-1.7-3.7 0.4-3.3-0.7-1.9 2.3-2.5 2.7-0.5 6.4 0 9.1 0 24.8 0 49.6 0 74.4 0 12.7 0 25.3 0 38 0 2.3 0 7.1-0.8 9.2 0C2221.8 1180.3 2220.6 1182.8 2220.6 1185.6z"/>
  <path class="st2" d="M2236.9 1195.7c-50.8 0-101.7 0-152.5 0 -3.6 0-8 0.5-11.6 0 -3.5-0.5-2.9 0.7-2.9-3.1 0-3.7-0.6-2.6 2.7-3.1 3.5-0.5 7.8 0 11.3 0 30.4 0 60.8 0 91.2 0 15.8 0 31.6 0 47.3 0 3.5 0 8.9-0.8 12.2 0 0.4 0.1 1.9-0.2 2.2 0C2237.7 1190.3 2236.9 1194.6 2236.9 1195.7z"/>
  <path class="st2" d="M2306.2 1097.7c-0.1-0.3-0.2-0.5-0.3-0.6 -1-1-8 0-9.3 0 -6.6 0-13.1 0-19.7 0 -16.3 0-32.5 0-48.8 0 -3.6 0-19.7-1.9-21.5 0.7 -1.6 2.4 0 11.5 0 14.2 0 7.9 0 15.7 0 23.6 0 8 0 15.9 0 23.9 0 2.1-1.4 10.9 0 12.6 2.1 2.6 20 0.4 23.5 0.4 25.3 0 50.6 0 75.9 0 0-13 0-26.1 0-39.3 0-8.5 0-17 0-25.5 0-0.5 0.1-1.7 0.2-3.1h3.9v-2.5h2.4v-2.4h2.4v-2H2306.2zM2224.8 1120.4c-0.5 0.5-10.3 0.9-11 0.2 -0.7-0.7-0.6-12.5 0-13.3 1-1.3 9-0.2 11-0.2C2224.8 1109.4 2226.3 1118.7 2224.8 1120.4zM2247.7 1120.4c-0.5 0.5-10.3 0.9-11 0.2 -0.7-0.7-0.6-12.5 0-13.3 1-1.3 9-0.2 11-0.2C2247.7 1109.4 2249.1 1118.7 2247.7 1120.4zM2270.5 1120.4c-0.5 0.5-10.3 0.9-11 0.2 -0.7-0.7-0.6-12.5 0-13.3 1-1.3 9-0.2 11-0.2C2270.5 1109.4 2272 1118.7 2270.5 1120.4zM2293.4 1120.4c-0.5 0.5-10.3 0.9-11 0.2 -0.7-0.7-0.6-12.5 0-13.3 1-1.3 9-0.2 11-0.2C2293.4 1109.4 2294.8 1118.7 2293.4 1120.4z"/>
  <path class="st2" d="M2099.7 1097.1c-1-1-8 0-9.3 0 -6.6 0-13.1 0-19.7 0 -16.3 0-32.5 0-48.8 0 -3.6 0-19.7-1.9-21.5 0.7 0 0 0 0.1-0.1 0.1h-8.3v2h2.5v2.4h2.4v2.5h2.9c0.2 2.9 0.6 5.9 0.6 7.2 0 7.9 0 15.7 0 23.6 0 8 0 15.9 0 23.9 0 2.1-1.4 10.9 0 12.6 2.1 2.6 20 0.4 23.5 0.4 25.3 0 50.6 0 75.9 0 0-13 0-26.1 0-39.3 0-8.5 0-17 0-25.5C2099.8 1106.1 2100.9 1098.3 2099.7 1097.1zM2022.4 1120.4c-0.5 0.5-10.3 0.9-11 0.2 -0.7-0.7-0.6-12.5 0-13.3 1-1.3 9-0.2 11-0.2C2022.4 1109.4 2023.9 1118.7 2022.4 1120.4zM2045.3 1120.4c-0.5 0.5-10.3 0.9-11 0.2 -0.7-0.7-0.7-12.5 0-13.3 1-1.3 9-0.2 11-0.2C2045.3 1109.4 2046.8 1118.7 2045.3 1120.4zM2068.2 1120.4c-0.5 0.5-10.3 0.9-11 0.2 -0.7-0.7-0.6-12.5 0-13.3 1-1.3 9-0.2 11-0.2C2068.2 1109.4 2069.6 1118.7 2068.2 1120.4zM2091 1120.4c-0.5 0.5-10.3 0.9-11 0.2 -0.7-0.7-0.6-12.5 0-13.3 1-1.3 9-0.2 11-0.2C2091 1109.4 2092.5 1118.7 2091 1120.4z"/>
  <path class="st2" d="M1164.8 1135.8c-2.5 4-26.1-13.1-29.1-15 -3.8-2.3-9.3-7.3-13.6-8.3 -2.3-0.5-3.6 0.9-5.9 2.3 -11.5 6.7-23 13.3-34.5 20 -0.9 0.5-2.1 1.6-3.1 1.8 -3.9 0.9-4.2-2.4-1.7-4.4 2.2-1.9 5.5-3.2 8.1-4.7 1.3-0.8 5.1-2.1 5.9-3.4 0.9-1.4 0.2-7.7-0.1-9.3 -0.2-1-0.6-2-0.6-2.2 0 0-1.5-2.5-0.6-3.3 0.9-0.9 7.4-0.1 8.6 0 1.1 0.1 2.1-0.3 2.6 0.3 0.8 1 0.2 3.2-1.2 3 0 2.1 0.1 4.3 0.1 6.4 6.2-3.6 12.2-7.4 18.5-10.7 4.6-2.4 7.4 0.8 11.5 3.3 7.6 4.6 15.2 9.2 22.8 13.9C1154.3 1126.6 1167 1132.2 1164.8 1135.8 1164.1 1136.9 1165.5 1134.6 1164.8 1135.8zM1121.1 1114.1c-8.6 5-17.3 10-25.9 15 -2.6 1.5-9 3.7-10.7 6.2 -1.1 1.7-0.3 6.5-0.3 8.6 0 6.6 0 13.2 0 19.7 0 1.4-1 8.9 0.1 9.8 0.6 0.5 3.7 0 4.4 0 3.1 0 6.3 0 9.4 0 3 0 6.1 0 9.1 0 1.6 0 5.8 0.8 7.3 0 1.8-1 0.8-7.4 0.8-9.8 0-2.5-1.3-11.6 0.3-13.1 0.9-0.8 6.7 0 7.9 0 3 0 2.2-0.5 2.9 1.6 0.6 2.1 0 5.4 0 7.7 0 3.3 0 6.6 0 9.9 0 4.7 0.2 3.8 4.9 3.8 6.3 0 12.7 0 19 0 1.1 0 4.6 0.6 5.6 0 1-0.6 0.2 0 0.6-1.5 1.4-4.5 0-11.7 0-16.4 0-5.7 1.3-13.1 0-18.7 -0.6-2.8-3.3-3.4-5.9-5C1140.8 1126 1131 1120.1 1121.1 1114.1zM1145.7 1142.6c-1.8 0-9.3 1.2-10.5 0 -0.4-0.4-0.5-10 0-10.5 0.6-0.6 10.1-0.4 10.5 0C1146.9 1133.3 1145.7 1140.8 1145.7 1142.6zM1125.6 1142.6c-1.8 0-9.3 1.2-10.5 0 -0.4-0.4-0.5-10 0-10.5 0.6-0.6 10.1-0.4 10.5 0C1126.8 1133.3 1125.6 1140.8 1125.6 1142.6zM1105.4 1142.6c-1.8 0-9.3 1.2-10.5 0 -0.4-0.4-0.5-10 0-10.5 0.6-0.6 10.1-0.4 10.5 0C1106.6 1133.3 1105.4 1140.8 1105.4 1142.6zM1145.7 1161c-1.8 0-9.3 1.2-10.5 0 -0.4-0.4-0.5-10 0-10.5 0.6-0.6 10.1-0.4 10.5 0C1146.9 1151.7 1145.7 1159.2 1145.7 1161zM1105.4 1161c-1.8 0-9.3 1.2-10.5 0 -0.4-0.4-0.5-10 0-10.5 0.6-0.6 10.1-0.4 10.5 0C1106.6 1151.7 1105.4 1159.2 1105.4 1161z"/>
  <path class="st1" d="M995 1153.8c0-0.4-0.1-0.7-0.1-1.1 0-4.6 3.5-8.4 8-9 0.6-4.9 4.7-8.7 9.8-8.7 4.7 0 8.6 3.3 9.6 7.7 1.1-0.5 2.3-0.8 3.6-0.8 4.2 0 7.6 2.9 8.6 6.7 0.4 0 0.7-0.1 1.1-0.1 6.3 0 11.3 4.9 11.3 11.2 0 6.3-5.1 11.2-11.3 11.2h-35.4c-5.2 0-9.5-4.1-9.5-9.3C990.7 1158.3 992.4 1155.5 995 1153.8z"/>
  <path class="st1" d="M533.6 900.2c2.6-4-2.1-6.7 0-9.8 2.2-3.3 8.5-1 10.4-5.3 1-2.2-0.8-2.9-0.7-4.7 0-1.5 1.4-2.1 1-3.5 -1-3.1-5.7-4.5-3.7-8.7 1.6-3.2 5.4-2.3 8.1-4 1.4-0.8 1.1-2.4 3-3 2.1-0.7 3.7 1.3 5.6 1 4.5-0.7 2.1-3.7 4.2-6.9 2.9-4.6 9.3-3.4 13.5-1.5 -0.4-13.2 14.2-3.6 19.3-5 4.1-1.1 5.5-5.3 10.1-5.5 2.5-0.1 4.6 1.5 7 1.6 3 0.1 5.8-1.1 8.5-2.2 4.9-1.9 9-4.9 13.6-7.2 5.7-2.9 7.7-1.6 13.2 0.5 5.8 2.2 8-0.1 13.5-2 4.4-1.6 9.2-0.5 13.5-2.4 1.9-0.9 2.9-2.2 5-2.9 2-0.7 2.5 2.8 4.5-0.4 2.2-3.4-3.1-7.5-5.2-9.1 -8-5.9-20.6-15-30.5-11.9 -8.3 2.6-16.4-4.7-23 4.5 -2.4 3.4-3.2 7.3-8.3 7.3 -1.2 0-15.6-4.8-8.5-0.5 -3.7-0.5-8.7-2.4-12.3-0.4 -2.6 1.5-5.1 5.7-1.9 8 -1.2 0.7-3.4 2.6-4.7 2.7 -1 0.1-3.2-1.8-4.8-1.7 -3 0.2-4.4 2.8-7 3.7 -3.5 1.2-6.7-0.7-10.2-0.3 -4.3 0.5-3.6 2.1-5.8 4.8 -1.6 2-4.5 2.8-6.1 4.9 -2.4 3.1-0.4 6.7-4.1 9.3 -5.1 3.5-16.6 1.8-14.1 12.1 -3.7-2.1-6.7 2.1-7.1 5.3 -0.4 3.7 2.3 6.5 2.6 10 0.2 1.8-0.4 2.8-0.7 4.5 -0.5 0.5-1.1 1-1.6 1.5 0.3 0.5 0.7 1 1 1.4 -1.5 4-3.3 3.9-6.1 6.8 2.7 2.6-1.2 7.4 2.6 9.5C528.4 901.6 532.3 900.3 533.6 900.2z"/>
  <path class="st1" d="M1168.9 1170.3c0-20.6 0-41.1 0-61.7 0-14.7 0-29.3 0-44 0-5 0-10 0-15.1 0-1.8-0.9-6.6 0-8.2 1.4-2.6 139.9-1.1 143.3-1.1 15.2 0 30.5 0 45.7 0 10.3 0 20.7-0.2 76-0.4v132.1L1168.9 1170.3zM1321.4 1053.2c-1.1-1.9 0.1-1-3.3-1.3 -0.8-0.1-6.9-0.7-7.6 0 -1.4 1.4-0.5 13.7 0 15.7 0.8 3.2-0.7 1.4 2.6 2.3 2.4 0.6 5.7 0 8.3 0C1321.4 1066 1323.2 1056.4 1321.4 1053.2zM1321.4 1081.6c-1.1-1.9 0.1-1-3.3-1.3 -0.8-0.1-6.9-0.7-7.6 0 -1.4 1.4-0.5 13.7 0 15.7 0.8 3.2-0.7 1.4 2.6 2.3 2.4 0.6 5.7 0 8.3 0C1321.4 1094.4 1323.2 1084.7 1321.4 1081.6zM1299.4 1053.2c-1.1-1.9 0.1-1-3.3-1.3 -0.8-0.1-6.9-0.7-7.6 0 -1.4 1.4-0.5 13.7 0 15.7 0.8 3.2-0.7 1.4 2.6 2.3 2.4 0.6 5.7 0 8.3 0C1299.4 1066 1301.2 1056.4 1299.4 1053.2zM1299.4 1081.6c-1.1-1.9 0.1-1-3.3-1.3 -0.8-0.1-6.9-0.7-7.6 0 -1.4 1.4-0.5 13.7 0 15.7 0.8 3.2-0.7 1.4 2.6 2.3 2.4 0.6 5.7 0 8.3 0C1299.4 1094.4 1301.2 1084.7 1299.4 1081.6zM1277.5 1053.2c-1.1-1.9 0.1-1-3.3-1.3 -0.8-0.1-6.9-0.7-7.6 0 -1.4 1.4-0.5 13.7 0 15.7 0.8 3.2-0.7 1.4 2.6 2.3 2.4 0.6 5.7 0 8.3 0C1277.5 1066 1279.2 1056.4 1277.5 1053.2zM1277.5 1081.6c-1.1-1.9 0.1-1-3.3-1.3 -0.8-0.1-6.9-0.7-7.6 0 -1.4 1.4-0.5 13.7 0 15.7 0.8 3.2-0.7 1.4 2.6 2.3 2.4 0.6 5.7 0 8.3 0C1277.5 1094.4 1279.2 1084.7 1277.5 1081.6zM1321.4 1111.4c-1.1-1.9 0.1-1-3.3-1.3 -0.8-0.1-6.9-0.7-7.6 0 -1.4 1.4-0.5 13.7 0 15.7 0.8 3.2-0.7 1.4 2.6 2.3 2.4 0.6 5.7 0 8.3 0C1321.4 1124.2 1323.2 1114.6 1321.4 1111.4zM1299.4 1111.4c-1.1-1.9 0.1-1-3.3-1.3 -0.8-0.1-6.9-0.7-7.6 0 -1.4 1.4-0.5 13.7 0 15.7 0.8 3.2-0.7 1.4 2.6 2.3 2.4 0.6 5.7 0 8.3 0C1299.4 1124.2 1301.2 1114.6 1299.4 1111.4zM1277.5 1111.4c-1.1-1.9 0.1-1-3.3-1.3 -0.8-0.1-6.9-0.7-7.6 0 -1.4 1.4-0.5 13.7 0 15.7 0.8 3.2-0.7 1.4 2.6 2.3 2.4 0.6 5.7 0 8.3 0C1277.5 1124.2 1279.2 1114.6 1277.5 1111.4zM1416 1053.2c-1.1-1.9 0.1-1-3.3-1.3 -0.8-0.1-6.9-0.7-7.6 0 -1.4 1.4-0.5 13.7 0 15.7 0.8 3.2-0.7 1.4 2.6 2.3 2.4 0.6 5.7 0 8.3 0C1416 1066 1417.8 1056.4 1416 1053.2zM1416 1081.6c-1.1-1.9 0.1-1-3.3-1.3 -0.8-0.1-6.9-0.7-7.6 0 -1.4 1.4-0.5 13.7 0 15.7 0.8 3.2-0.7 1.4 2.6 2.3 2.4 0.6 5.7 0 8.3 0C1416 1094.4 1417.8 1084.7 1416 1081.6zM1394.1 1053.2c-1.1-1.9 0.1-1-3.3-1.3 -0.8-0.1-6.9-0.7-7.6 0 -1.4 1.4-0.5 13.7 0 15.7 0.8 3.2-0.7 1.4 2.6 2.3 2.4 0.6 5.7 0 8.3 0C1394.1 1066 1395.9 1056.4 1394.1 1053.2zM1394.1 1081.6c-1.1-1.9 0.1-1-3.3-1.3 -0.8-0.1-6.9-0.7-7.6 0 -1.4 1.4-0.5 13.7 0 15.7 0.8 3.2-0.7 1.4 2.6 2.3 2.4 0.6 5.7 0 8.3 0C1394.1 1094.4 1395.9 1084.7 1394.1 1081.6zM1416 1111.4c-1.1-1.9 0.1-1-3.3-1.3 -0.8-0.1-6.9-0.7-7.6 0 -1.4 1.4-0.5 13.7 0 15.7 0.8 3.2-0.7 1.4 2.6 2.3 2.4 0.6 5.7 0 8.3 0C1416 1124.2 1417.8 1114.6 1416 1111.4zM1394.1 1111.4c-1.1-1.9 0.1-1-3.3-1.3 -0.8-0.1-6.9-0.7-7.6 0 -1.4 1.4-0.5 13.7 0 15.7 0.8 3.2-0.7 1.4 2.6 2.3 2.4 0.6 5.7 0 8.3 0C1394.1 1124.2 1395.9 1114.6 1394.1 1111.4z"/>
  <path class="st1" d="M563 1174c-22.3 0-50.6 0-72.9 0 -66 0-131.9 0-197.9 0 -2.3 0-13 1.8-14.8 0.2 -3.2-2.8-0.2-24.8-0.2-29.2 0-18.2 0-36.5 0-54.7 0-2.5-0.7-6.3 0.5-8.2 2.5-3.8 12.5-6.9 16.4-9.1 12.8-7.1 25.5-14.1 38.2-21.2 0 8.8-1.1 18.3 0 27 0.9 6.8 2.2 4.1 7.9 0.6 15.3-9.2 30.9-18.4 45.9-27.6 0 11.1 0 22.3 0 33.4 18-11.1 36-22.3 54-33.4 0 7.4 0 14.9 0 22.3 0 9.3-1.7 9.2 7.7 9.2 3.7 0 12.7 1.6 14.6-0.9 1.6-2.1 0.8-9.8 1-12.3 3-36 6-72.1 9-108.1 0.4-4.7-0.6-22.5 2.9-25 1.9-1.3 13.9-0.5 14.8 0.7 1.4 1.9 0.4 8.9 0.6 11.2 1.8 36.2 3.6 72.4 5.4 108.6 0.2 4.4-1.4 23.1 1.7 25.9 2 1.7 12 0.2 13-1.2 1.3-1.8 0.5-8.6 0.6-10.8 2-36 4-72.1 6.1-108.1 0.9-15.3 1.7-30.6 2.6-45.9 0.1-1.8-0.6-7.9 0.5-9.3 0.7-0.9 14.4-1.5 15.8-0.3 2.7 2.3 1.4 18.9 1.6 22.5 1 18 2 36 3 54 1.1 19.6 2.2 39.3 3.3 58.9 0.6 11-1.3 26.3 2.1 36.9 1.4 4.3-1.2 2.3 4 3.3 1.4 0.3 9.4 0.4 13.4 0.4L563 1174zM351.1 1112h-13v8h13V1112zM351.1 1124h-13v8h13V1124zM368.1 1112h-13v8h13V1112zM368.1 1124h-13v8h13V1124zM384.1 1112h-13v8h13V1112zM384.1 1124h-13v8h13V1124zM401.1 1112h-13v8h13V1112zM401.1 1124h-13v8h13V1124zM417.1 1112h-13v8h13V1112zM417.1 1124h-13v8h13V1124z"/>
  <path class="st1" d="M809.5 993.4c0 15 0 30.1 0 45.1 0 54 0 116.9 0 151.5 -4.9 0-9.7 0-14.6 0 0.2-6.5 2.3-26.9 0-31 -1.5-2.6 0.1-1.4-4.5-1.8 -1.1-0.1-9.5-0.9-10.4 0 -1.9 1.9-0.7 27.9 0 30.7 0.3 1.1 0.4 1.8 0.4 2.2 -18.3 0-36.6 0-54.9 0V983.4c14.6-0.3 29.3-0.6 43.8-0.5v-9.3H798v10c2.3 0.1 4.7 0.2 7 0.4C811.7 984.4 809.5 986.4 809.5 993.4zM750.1 999.2c-0.2-1-1.2-1.6-3.1-1.8 -1.1-0.1-6.1-0.9-7 0 -1.9 1.9-0.7 18.7 0 21.4 1.1 4.3-1 2 3.6 3.1 3.3 0.8 3.1 0 6.5 0C750.1 1016.7 752.5 1003.6 750.1 999.2zM750.1 1036.7c-0.2-1-1.2-1.6-3.1-1.8 -1.1-0.1-6.1-0.9-7 0 -1.9 1.9-0.7 18.7 0 21.4 1.1 4.3-1 2 3.6 3.1 3.3 0.8 3.1 0 6.5 0C750.1 1054.2 752.5 1041 750.1 1036.7zM750.1 1074.3c-0.2-1-1.2-1.6-3.1-1.8 -1.1-0.1-6.1-0.9-7 0 -1.9 1.9-0.7 18.7 0 21.4 1.1 4.3-1 2 3.6 3.1 3.3 0.8 3.1 0 6.5 0C750.1 1091.8 752.5 1078.6 750.1 1074.3z"/>
  <path class="st1" d="M717 1131.4c0 6.7 0 13.3 0 20 0 5 0 9.9 0 14.9 0 1.8 1 7.5 0 9 -1.5 2.3-15.9 0.6-19.1 0.6 -1.2 0-7.5 0.8-8.3 0 -1.2-1.3 0-9.5 0-11.3 0-1.5 0.6-4.3 0-5.7 -0.8-1.9 0.6-0.5-1.3-1.3 -1.1-0.5-10.9-0.8-11.8 0 -1.1 1.1-0.1 8.1-0.1 9.7 0 1.5 0.8 7.7-0.2 8.6 -1.1 1-7.5 0-8.9 0 -5 0-10.1 0-15.1 0 -2.7 0-8.6 1.1-11.1 0 -1.7-0.8-1.1-2-1.1-4.5 0-4.8 0-9.7 0-14.5 0-2.9 0.8-3.8-1.4-4.5 -3.3-1.1-8.9 0-12.3 0 -3.2 0-9.7-1.3-12.6 0 -1.9 0.8-1.1 2.3-1.1 5 0 4.8 0 9.6 0 14.5 0 4 0.7 4.1-3.4 4.1 -2.1 0-6.9 0.9-7.8-0.7 -0.9-1.6 0-6.5 0-8.3 0-4.8 0-9.6 0-14.4 0-4.9 0-9.8 0-14.6 0-2-1-7.3 0-9.1 1.3-2.3 12.8-0.8 15.9-0.8 4.9 0 9.8 0 14.7 0 2.3 0 5.4 0.6 7.6 0 5.2-1.3 10.9-6 15.5-8.5 7.8-4.3 15.7-8.7 23.5-13 1.4-0.8 1.8-1.2 3-0.9 2.2 0.5 5.3 3.9 7.1 5.3 7.7 5.7 15.4 11.4 23.1 17.1C713.8 1129 715.4 1130.2 717 1131.4zM666.1 1136.6c-2.1 0-10.6-1.3-12 0 -0.6 0.6-0.7 9.4-0.1 10.1 0.5 0.5 10.8 0.5 11.6 0C667.1 1145.7 666.1 1138.8 666.1 1136.6zM708.8 1136.6c-2.1 0-10.6-1.3-12 0 -0.6 0.6-0.7 9.4-0.1 10.1 0.5 0.5 10.8 0.5 11.6 0C709.8 1145.7 708.8 1138.8 708.8 1136.6z"/>
  <path class="st1" d="M721.6 1126.4c-11-7.7-21.9-15.8-32.8-23.7 -2.5-1.8-6.1-5.8-9-5.2 -3.2 0.6-7.1 4-9.9 5.5 -2.4 1.3-4.7 2.6-7.1 4 0-1.2 0.7-5.7 0-6.5 -0.5-0.5-3.6-0.3-4.5-0.2 -2.9 0.3-1.9-0.6-2.4 1.9 -0.5 2.2 0.4 4.7 0 6.9 -0.5 2.7-1.6 3.1-4.3 3.4 -4 0.5-8.6 0-12.7 0 -5.3 0-10.6 0-15.9 0 -2 0-5.2-0.6-7.2 0 -3.3 1.1-6.8 4.6-9.7 6.6 -2.9 2-5.9 4-8.8 6 10.3 0 20.6 0 30.9 0 3.1 0 7.5 0.8 10.6 0 2.2-0.6 4.8-2.7 6.8-3.8 10.6-5.9 21.2-11.9 31.8-17.8 2.6-1.4 2.4-1.9 4.6-0.9 4.4 1.9 8.8 6.4 12.7 9.2 6 4.3 12 8.7 18 13 1.8 1.3 3.5 2.8 5.4 3.8C720.1 1129.5 724.7 1128.6 721.6 1126.4 720.4 1125.6 723.7 1127.9 721.6 1126.4z"/>
  <path class="st2" d="M597.1 1111.4c0.3-0.9 0.4-1.9 0.4-3 0-4.6-2.9-8.6-7.1-10.1 -1.3-5.9-6.5-10.3-12.7-10.6 -1.8-3.9-5.7-6.5-10.2-6.5 -3.1 0-5.8 1.2-7.9 3.2 -1.5-0.6-3-0.9-4.7-0.9 -7.1 0-12.8 5.7-12.8 12.8 0 0.3 0 0.6 0 1 -4.7 2.1-8 6.9-8 12.4 0 2.2 0.5 4.2 1.4 6 -3.2 2.8-5.2 6.9-5.2 11.5 0 8.4 6.8 15.1 15.1 15.1 2.5 0 4.8-0.6 6.9-1.6 2 2.7 5 4.7 8.4 5.4v33.3h11.2v-35.7c1.2-0.8 2.2-1.8 3.1-3 2.1 1.2 4.6 1.8 7.2 1.8 6.8 0 12.6-4.5 14.5-10.7 4-1.7 6.8-5.7 6.8-10.4C603.4 1117.1 600.8 1113.2 597.1 1111.4z"/>
  <path class="st3" d="M881.6 1057.6c-1.1-1.9 0.1-1-3.3-1.3 -0.8-0.1-6.9-0.7-7.6 0 -1.4 1.4-0.5 13.7 0 15.7 0.8 3.2-0.7 1.4 2.6 2.3 2.4 0.6 5.7 0 8.3 0C881.6 1070.5 883.4 1060.8 881.6 1057.6z"/>
  <path class="st3" d="M859.6 1057.6c-1.1-1.9 0.1-1-3.3-1.3 -0.8-0.1-6.9-0.7-7.6 0 -1.4 1.4-0.5 13.7 0 15.7 0.8 3.2-0.7 1.4 2.6 2.3 2.4 0.6 5.7 0 8.3 0C859.6 1070.5 861.4 1060.8 859.6 1057.6z"/>
  <path class="st3" d="M837.7 1057.6c-1.1-1.9 0.1-1-3.3-1.3 -0.8-0.1-6.9-0.7-7.6 0 -1.4 1.4-0.5 13.7 0 15.7 0.8 3.2-0.7 1.4 2.6 2.3 2.4 0.6 5.7 0 8.3 0C837.7 1070.5 839.4 1060.8 837.7 1057.6z"/>
  <path class="st4" d="M750.1 1036.7c-0.2-1-1.2-1.6-3.1-1.8 -1.1-0.1-6.1-0.9-7 0 -1.9 1.9-0.7 18.7 0 21.4 1.1 4.3-1 2 3.6 3.1 3.3 0.8 3.1 0 6.5 0C750.1 1054.2 752.5 1041 750.1 1036.7z"/>
  <path class="st3" d="M1834.7 1162c0 3.9 0 7.9 0 11.8 -4.3 0-8.6 0-12.9 0 -4.7 0-4.7 1.1-5.7-2.3 -1.4-4.5 0-11.6 0-16.3 0-1.7-1.2-9.8 0-11 1.4-1.4 10.9 0 12.9 0 4.5 0 4.9-1.2 5.7 2.3C1835.8 1151 1834.7 1157.3 1834.7 1162z"/>
  <path class="st3" d="M1756.9 989.8c0.7-0.7 6.8-0.1 7.6 0 3.4 0.3 2.2-0.6 3.3 1.3 1.8 3.2 0 12.8 0 16.6 -2.5 0-5.8 0.6-8.3 0 -3.4-0.8-1.8 0.9-2.6-2.3C1756.3 1003.5 1755.5 991.2 1756.9 989.8z"/>
  <path class="st3" d="M1734.9 989.8c0.7-0.7 6.8-0.1 7.6 0 3.4 0.3 2.2-0.6 3.3 1.3 1.8 3.2 0 12.8 0 16.6 -2.5 0-5.8 0.6-8.3 0 -3.4-0.8-1.8 0.9-2.6-2.3C1734.4 1003.5 1733.5 991.2 1734.9 989.8z"/>
  <path class="st3" d="M1712.9 989.8c0.7-0.7 6.8-0.1 7.6 0 3.4 0.3 2.2-0.6 3.3 1.3 1.8 3.2 0 12.8 0 16.6 -2.5 0-5.8 0.6-8.3 0 -3.4-0.8-1.8 0.9-2.6-2.3C1712.4 1003.5 1711.5 991.2 1712.9 989.8z"/>
</svg>
