<svg xmlns="http://www.w3.org/2000/svg" xmlns:xlink="http://www.w3.org/1999/xlink" version="1.1" id="Layer_1" x="0" y="0" viewBox="0 0 367.2 375.4" xml:space="preserve" enable-background="new 0 0 367.2 375.4">
  <style type="text/css">
    
	.st0{fill:#3B2D00;}
	.st1{fill:#D5AC5C;}
	.st2{fill:#FAB940;}
	.st3{fill:#DACE98;}

  </style>
  <path class="st0" d="M367.1 188.5c-1.7-53.3-22.8-97.3-58.6-127.4 -2-5.1-6.4-8.8-12.1-10.2 -0.6-0.1-1.2-0.3-1.8-0.4 -1.4-1-2.8-1.9-4.3-2.8 0.8-5.6-0.5-10.8-3.7-15.6 -6.6-9.9-14.6-18.7-23.5-26.6 -5-4.5-11.1-6.4-18-5.3 -6.7 1.1-13.5 2-20.2 3.3 -9.3 1.8-18.5 4.4-27.2 8.2 -3.3 1.5-6.2 3.3-8.6 5.6 -0.5 0-1-0.1-1.6-0.1C121.5 13.9 70.8 46.7 40.4 95.1c-3.6-9.3-7.1-18.6-10.6-27.9 -0.2-0.6-0.2-1.6 0.1-2 2.5-3.5 4.3-7.3 5.3-11.5 1.7-7.1-0.6-11.4-7.5-13.8 -6.3-2.2-12.8-3.2-19.3-3.7C2.9 35.8-0.3 39 0 44.3 0.3 50.1 2.6 55 6.6 59.2c1 1 1.7 2.2 2.4 3.5 1.3 2.5 2.6 5.1 3.8 7.6 0.2 0.5 0.4 1 0.5 1.5 1.7 6.5 3.5 13.1 5.1 19.6 2.5 10.4 5.1 20.8 7.6 31.1 -9.9 22.9-15.8 48.1-17.4 73.8 -5.5 88.4 76.7 181.4 179 179 46.9-1.1 82-15.5 116-41.2C350.2 298.9 368.9 242.5 367.1 188.5z"/>
  <path class="st1" d="M284 147.5c0.2 1.5 0.3 3 0.5 4.5 0.2 12.1-5.5 21.4-14.1 29.2 -6.3 5.7-13.3 10.5-21.5 13.1 -3.4 1.1-6.8 1.6-10.4 0.7 -2.7-0.7-4.7-2.2-5.5-4.8 -1.4-4.9-2.6-9.9-3.8-14.9 -0.7-3.2-1.1-6.4-1.8-9.6 -0.3-1.3 0.1-1.8 1.3-2.4 16.9-7.9 34.3-14.4 52.8-17.6C283.1 145.5 283.8 146 284 147.5z"/>
  <path class="st1" d="M283.4 138.7c0 0.8 0 1.7 0 2.7 -19.5 4.7-38.3 11.5-57.1 19.6 -0.7-4.2-1.2-8.2-2-12.1 -0.8-3.6-1.6-7.2-3.1-10.6 -2.3-5.6-5.8-7.8-12.8-8.9 0.8-0.3 1.2-0.5 1.6-0.6 16.8-5 33.3-10.8 48.6-19.5 8.8-5 13.6-9 19.8-16.7 1.9 0.1 2.5 1 2.6 3C281.9 109.9 282.7 124.3 283.4 138.7z"/>
  <path class="st1" d="M281 70c0.1 1.9-0.5 3.4-2.3 4.4 -5.1 2.9-6.3 5.6-5.2 11.3 0.6 2.9 0 5.3-1.6 7.8 -5.1 7.6-12.1 12.8-20.1 16.9 -5.6 2.9-11.4 5.3-17.1 7.9 -0.1-0.2-0.2-0.3-0.3-0.5 8.9-7.5 14.4-17.2 18.1-28 2.2-6.5 5.2-12.6 9.5-18 3.1-4 7.1-6.4 12.2-7C278.1 64.3 280.8 66.4 281 70z"/>
  <path class="st1" d="M179.2 53.9c2.3-8 8.3-13.5 15.2-17.7 5.7-3.4 12-6.1 17.8-9.4 2.5-1.4 3.9-1.1 5.9 0.8 7.7 6.8 16.9 10.4 26.9 12 4.9 0.8 9.9 1.8 14.7 3.2 7.4 2.2 13.6 6.3 17.7 13.1 0.4 0.7 0.9 1.5 1.3 2.2 0.2 0.3 0.3 0.7 0.5 1.3 -0.9 0.3-1.7 0.7-2.6 0.9 -9.5 2-15.7 8-19.8 16.3 -2.8 5.8-5.1 11.8-7.5 17.8 -4.1 10-10.5 18.1-19.5 24.1 -7.6 5.1-16 8.2-24.9 9.9 -3.1 0.6-6.2 0.4-9.2-1 -3.7-1.7-4.3-4.5-2.4-8 1.3-2.4 3.2-3.2 5.3-4.4 1.9-1.1 3.9-2.5 5.3-4.2 2-2.3 1.4-4.3-1.3-5.6 -4.5-2.2-9.4-3-14.4-3.3 -0.6 0-1.3-0.1-1.9-0.2 1-4.1 1-4.1-1.1-8.7 2.7 0.3 5.1 0.5 7.5 0.8 2.1 0.2 4.1 0.6 6.2 0.6 3.4-0.1 5.5-2.6 5.1-6 -0.3-2.7-3.2-4.3-6.5-3.6 -3.4 0.7-4.9 3.1-4 6.3 0.1 0.4 0.2 0.7 0.4 1.3 -5-1.4-9.8-0.9-14.6 0 -3.5 0.6-5.3-1-5.2-4.5C174.7 76.3 176.1 64.9 179.2 53.9z"/>
  <path class="st1" d="M195.6 90.9c-0.6-1.6-0.4-2.8 0.9-3.8 1.4-1.1 3.7-1.2 5.1-0.3 1.3 0.8 1.7 1.9 1.2 3.7C200.4 89.1 198 88.6 195.6 90.9z"/>
  <path class="st1" d="M201.3 91.8c-0.6 0.6-1.3 1.1-2.1 1.9 -0.9-0.8-1.5-1.3-2.2-1.8 0.7-0.5 1.4-1.2 2.1-1.3C199.9 90.7 200.6 91.4 201.3 91.8z"/>
  <path class="st1" d="M129.8 144.7c-1.5 5-8 7.4-11.5 4.2C121.8 146 125.5 145.4 129.8 144.7z"/>
  <path class="st1" d="M116.2 138c5.2-1.4 11.4 0.6 13.6 4.4C124.2 142.9 120.1 142.2 116.2 138z"/>
  <path class="st1" d="M130.2 129.4c-0.5 0.5-1 1.1-1.8 1.8 -0.8-0.7-1.4-1.2-1.9-1.7 0.6-0.5 1.2-1.3 1.9-1.3C128.9 128.1 129.6 129 130.2 129.4z"/>
  <path class="st1" d="M191 186.7c-4.3 9.7-11 17.1-20.4 22.1 -5.8 3.1-8.3 2.3-10.3-3.9 -1.7-5.2-2.7-10.6-4-15.9 -0.1-0.5 0.3-1.4 0.8-1.7 11.5-5.9 23.4-11.1 35.8-14.9 0.1 0 0.3 0 0.6 0C193.8 177.5 193 182.2 191 186.7z"/>
  <path class="st1" d="M193.1 169.2c-12.8 5-28.1 11.4-41.5 16.4 -2-9.1-6.7-15.9-15.9-19.3 5-1.7 12-4.6 16.4-6.3 9.8-3.8 19.7-7.4 28.2-13.7 3.7-2.8 7.2-5.9 10.7-9.1 1.3-1.1 2.3-1.9 3.7-1 0 5.2 0.1 10.4 0 15.6 -0.1 5.1-0.2 10.3-0.4 15.4C194.2 168 193.6 169 193.1 169.2z"/>
  <path class="st1" d="M193.6 117.6c-3.1 2.1-3.1 5.6-2.8 7.4 0.3 1.8 1.7 3.7 3.6 4.5 -1.7 3.1-9.7 10.1-11.9 11.9 -7 5.7-15.1 9.7-23.4 13.2 -0.1 0-0.2 0-0.4-0.1 0.1-0.2 0.1-0.4 0.2-0.5 4.4-4.9 6.1-10.9 8-17 1.6-5 3.6-9.9 5.9-14.6 1.2-2.4 3.3-4.4 5.2-6.3 1.8-1.8 4.2-2.8 6.9-2.8C186.2 117.8 189.8 117.1 193.6 117.6z"/>
  <path class="st1" d="M112.9 107.8c3.3-8.1 8-15.4 15.1-20.8 2.5-1.9 5.3-3.3 8-4.8 0.6-0.3 1.8-0.2 2.4 0.2 9.7 6.7 20.5 10.7 32.2 12.1 4.1 0.5 8.2 0.4 12.3 0.5 2.4 0.1 2.8 0.3 2.9 2.5 0.1 2.2-0.9 3.7-2.9 3.9 -0.6 0-1.1 0-2 0 2.6 4.9 7.2 6.2 11.7 8 -0.4 0-0.9 0.2-1.3 0.1 -7.6-0.8-13.6 2.3-18.3 8.1 -4.5 5.5-6.8 11.9-8.6 18.7 -0.4 1.5-0.8 3-1.2 4.5 -1.9 9.6-7.8 16-16.9 19.1 -4.8 1.7-9.9 2.6-15 3.5 -3.3 0.6-6.6-0.1-9-2.7 -1.1-1.2-2-2.9-2.4-4.5 -0.6-2.1 0.8-3.9 2.9-4.5 2.8-0.8 5.4-1.9 7.3-4.3 2.4-3.1 2.2-5.9-1.1-8 -2.2-1.4-4.9-2-7.4-2.9 -1-0.3-2-0.3-3.1-0.5 -0.1-1.7-0.2-3.3-0.4-5.4 1.8 0.2 3.7 0.3 5.5 0.5 1.5 0.2 3 0.6 4.4 0.6 2.6 0 4.1-1.7 4-3.8 -0.1-2.8-2.3-5-5-4.9 -2.4 0-3.9 1.6-4 4.1 0 0.6 0 1.3 0 1.7 -2.7 0.3-5.3 0.7-7.9 1 -4.1 0.5-6-1.2-6.1-5.3C109.2 118.7 110.7 113.2 112.9 107.8z"/>
  <path class="st1" d="M96.9 228c-4.1 2.3-6.5 0.7-7.1-3.9 -0.3-2.3-0.6-4.6-0.8-7 0-0.6 0.5-1.5 1-1.8 9.2-4 18.4-7.9 27.6-11.8 0.2-0.1 0.5-0.1 1.4-0.3 -0.4 0.9-0.5 1.6-0.9 2 -3 3.5-4.8 7.5-6.3 11.8 -0.3 0.8-0.7 1.6-1.3 2.1C105.9 222.2 101.6 225.4 96.9 228zM65.9 159.3c0.7-0.5 1.3-1.2 2.1-1.2 0.5 0 1.4 1 1.4 1.5 0 0.5-0.9 1.1-1.7 2C66.9 160.6 66.4 160 65.9 159.3zM86.3 212.7c-2.2-5.7-4.4-11.4-6.7-17.4 3.4 0.8 4.8 3 5.6 5.9C86.4 204.9 86.8 208.7 86.3 212.7zM87.4 202.6c-0.7-3.9-2.4-7.2-6.9-8.8 2.2-1.1 4.1-2 6-2.9 4.5-2.2 9.1-4.3 13.5-6.6 5.9-3.1 11.2-7 15.7-12.8 0 3.1-0.1 5.6 0 8.2 0.2 3.2 0.8 6.3 3 8.9 0.3 0.3 0.4 0.8 0.4 1.2 -0.1 2.9-0.2 5.9-0.5 8.8 -0.1 0.6-0.7 1.4-1.2 1.7 -9.3 4.1-18.6 8.1-28 12.1 -0.2 0.1-0.4 0-0.6 0C88.3 209.2 88 205.9 87.4 202.6zM61.8 129.7c8.6-9.3 19.3-12.3 31.5-9.3 4.2 1.1 8.1 3 12.1 4.8 1.1 0.5 1.7 1.9 2.6 2.8 0.9 1 1.7 2.2 2.8 2.8 2.8 1.5 3.7 2.2 5.2 5.4 -0.9 0.1-1.5 0.8-1.5 1.6 0 1 1.2 2.5 3.4 3.8 0.7 0.4 1.4 0.9 1.7 1.6 1.2 0.9 0.3 2.8-1.3 4 -0.7 0.4-1.8 1-1.7 1.8 0 0.9 1.2 1.5 1.9 2.2 0.3 0.3 0.8 0.4 1.4 0.7 -1.4 2.3-1.2 4.5-0.8 6.8 0.2 1.1 0.2 2.4-0.2 3.5 -2.7 7.7-8.1 13.3-14.6 17.9 -8.9 6.2-18.7 10.5-29 13.7 -3.1 1-6 0.5-8.4-1.7 -1.3-1.2-1.6-2.4-0.4-4.1 0.7-1 0.8-2.5 1.1-3.8 -0.2-0.1-0.4-0.2-0.6-0.2 1.1-0.7 2.3-1.2 3.3-2 0.9-0.7 1.9-1.4 2.6-2.3 2.4-2.9 1.8-5.9-1.7-7.2 -3.2-1.3-6.7-1.9-10.1-2.8 -0.4-0.1-0.9-0.1-1.2-0.2 0.8-2.3 1.5-4.5 2.4-7.1 0.5 0 1.6 0 2.7 0 1.2 0 2.5 0.3 3.7 0.2 1.6-0.1 2.6-1.1 2.8-2.8 0.1-1.7-0.7-2.7-2.3-3.2 -2.8-0.8-4.6 0.6-4.9 3.6 -2.3 0.5-4.6 1-6.9 1.4 -1.6 0.3-3-0.3-3.8-1.7 -0.5-0.9-0.9-2.1-0.9-3.1C52.3 146.5 54.8 137.2 61.8 129.7zM71.7 176.6c-1 4.6-7.6 7.5-10.8 4.7C63.9 178.2 67.7 177.3 71.7 176.6zM56.6 171c3.1-0.9 11.5 1 14.8 3.5C66.7 176.3 59.8 174.6 56.6 171z"/>
  <path class="st2" d="M124.3 362.7c-3.8-21.2-7.6-42.3-11.3-63.5 -2.4-14-2.6-28.3-2.9-42.7 0.6 0.2 1.2 0.3 1.7 0.5 13.7 5 27.8 7.2 42.4 5.7 2.6-0.3 5.2-0.7 7.8-1 5.8-0.7 8.9 1.7 9 7.5 0.7 36.3 10.9 70.4 22.9 104.1C181.1 374.1 150.3 373.4 124.3 362.7z"/>
  <path class="st2" d="M173.8 241.6c-0.2 1-0.7 1.4-1.7 1.4 -5.2 0-10.3 0-15.5 0 -0.3 0-0.6 0-0.8-0.1 -5-2.6-10.5-3.1-15.8-4 -4.4-0.7-8.7-1.7-12.4-4.2 -3.2 4.4-0.7 11.2 5.4 11.9 1.7 0.2 3.4 0 5.1 0.3 1.9 0.4 3.7 1.1 5.4 1.9 0.6 0.3 1.1 1.6 1 2.3 -0.1 0.5-1.3 1.1-2 1.1 -3.8 0.1-7.6 0.5-11.3 0 -6.9-0.9-13.7-2.4-20.9-3.8 0.6-4.8 1-9 1.6-13.3 1-6.6 2.5-13 5.3-19.1 2.3-5 5.5-9.2 9.8-12.5 7.7-5.8 16.1-10.3 25.1-14.2 1.3 4.7 2.5 9.2 3.8 13.6 0.8 2.5 1.7 5.1 2.8 7.5 1.7 3.8 3.6 4.9 7.6 3.8 2.9-0.8 5.9-1.9 8.4-3.6 12.6-8 20.2-19.5 22.5-34.3 0.3-1.9 0.3-3.8 0.4-5.9 5.4-1.3 10.9-2.6 16.4-3.8 0.1 0.2 0.2 0.4 0.2 0.6 -0.1 0.2-0.2 0.4-0.3 0.5 -11.6 8.6-19.6 20-25.5 32.9C182.4 213.9 176.7 227.3 173.8 241.6z"/>
  <path class="st1" d="M154.4 260.9c-4.7 0.7-9.5 0.7-14.2 0.7 -8.4-0.2-16.3-2.6-24.1-5.3 -8.8-3-17.5-6.2-26.3-9.3 -1.3-0.5-2.7-1-3.1-2.7 8.7 2.3 17.2 4.8 25.8 6.7 6.6 1.5 13.4 2.7 20.2 3.5 3.6 0.4 7.4-0.1 11.1-0.5 1.8-0.2 3.6-1 3.9-3.2 0.2-1.9-1.5-4.1-3.8-4.6 -1.9-0.4-3.9-0.4-5.8-0.6 -1.9-0.2-3.8-0.2-5.6-0.5 -1.7-0.3-2.9-1.4-3.3-2.9 1.9-0.7 3.6-1.4 5.4-2 0.2-0.1 0.5 0 0.8 0 5.1 0.9 10.3 1.7 15.4 2.7 1.5 0.3 3 0.9 4.4 1.5 3.1 1.5 4.9 4 5.6 7.4C161.6 256.5 159.4 260.2 154.4 260.9z"/>
  <path class="st1" d="M125 127.3c-0.1-1.3 0.7-2.1 2.2-2.5 2-0.5 3.3 0.3 3.8 1.9C129.1 127 127.1 127.1 125 127.3z"/>
  <path class="st1" d="M201.8 110.2c-1.2 4.6-9.2 6.9-13.9 4C191 111.3 196.3 109.8 201.8 110.2z"/>
  <path class="st1" d="M183.9 103.5c7.3-0.4 14.8 0.9 17.1 4.5C194.8 108.4 189.2 107.2 183.9 103.5z"/>
  <path class="st1" d="M276.2 86.7c-2.5-4.1-0.4-9.6 4.1-10.8C279.8 79.8 278.3 83.2 276.2 86.7z"/>
  <path class="st1" d="M171.3 260.5c-2.8-0.6-5.5-1.2-7.9-1.7 0-2.6 0.4-5.1-0.1-7.3 -0.6-2.3-2.1-4.5-3.3-6.5 4.2 0 8.5 0 13 0C172.4 249.9 171.9 255.2 171.3 260.5z"/>
  <path class="st1" d="M128.7 239.6c-0.2 0-0.3-0.8-0.5-1.3 0.4-0.1 0.8-0.4 1.1-0.3 0.9 0.3 1.8 0.7 2.6 1 0 0.3 0 0.6-0.1 0.9C130.9 239.8 129.8 239.8 128.7 239.6z"/>
  <path class="st2" d="M78.9 217.3c-6.1 3-12.2 6.1-18.3 9.3 -2 1.1-3.8 2.6-5.8 3.9C42.1 177.4 29.3 124.1 16.6 70.8c3.4 0.1 6.9-0.1 10.1-2.5 0.8 2.2 1.6 4.2 2.3 6.2 8 20.6 15.9 41.1 23.9 61.7 0.6 1.6 0.8 3.2 0.4 4.9 -1.2 4.9-2.3 9.9-1.9 15.1 0.1 0.6 0.1 1.3 0.3 1.9 0.9 4 2.4 5.2 6.6 5.1 0.4 0 0.9 0 1.4 0 0.4 3.9-1.4 5.6-6 6.1 2.1 4.3 5.8 6.3 10.7 7.6 -1.4 0.7-2.5 1.1-3.4 1.7 -0.9 0.7-1.6 1.7-2.4 2.6 1 0.8 1.9 1.6 3 2.3 0.6 0.3 1.4 0.3 2.1 0.4 1.8 0.3 2.4 1.5 1.3 3.1 -1.9 3-1.7 4.5 1.1 6.8 2.2 1.8 4.8 2.3 7.5 1.8 0.6-0.1 1.1-0.2 1.8-0.4 2 5.4 4 10.6 6 15.9C83.1 215.4 83 215.3 78.9 217.3z"/>
  <path class="st0" d="M137 106.6c0.6-0.1 7.4-4 14.3-4.5 6.1-0.5 13.3-0.1 14.1 1.3 1.2 0.6 1.5-2.1 1.4-2.8 -1-0.8-7.7-2.4-15-2.6 -10.5-0.2-13.6 1.6-13.6 1.6S136.4 106.7 137 106.6z"/>
  <path class="st0" d="M138.1 110.6c6.4 6.6 20.7 4.1 24.7-2.8C157.7 105.7 143.6 104.3 138.1 110.6zM140.1 111.1c0.5-0.9 1.5-1.6 2.8-2.1 0 0 0 0 0 0.1 -0.5 1.3 1.1 3.3 2.2 4.3C142.2 112.9 140.1 112 140.1 111.1zM159.9 109.5c-2.3 2.8-6.6 3.9-10.6 4 2.1-0.6 3.3-4 3.6-5.8C155.9 107.9 158.6 108.5 159.9 109.5z"/>
  <path class="st0" d="M219 61.7c3-1.9 6-3.8 9.1-5.7 6-3.6 12.3-6.4 19.5-5.5 0.1 0 0.3 0.1 0.4 0 0.5-0.3 1.2-0.5 1.3-0.9 0.1-0.4-0.2-1.3-0.5-1.5 -1.3-0.6-2.7-1.4-4.1-1.5 -4.1-0.1-8.3-0.5-12.2 0.2 -8.1 1.6-16 3.9-24.6 6 1.8 2.8 3.2 5.4 5 7.8C214.7 63.3 216.4 63.4 219 61.7z"/>
  <path class="st0" d="M218.8 69.8c7.5 5.7 23 4.3 31.1-2.9C241.9 59.9 222.9 61.8 218.8 69.8zM220.6 70.1c0-0.2-0.1-0.5-0.1-0.7 1.2-0.7 2.5-1.4 3.7-2.1 0.6 1.4 1.1 2.5 1.7 3.9C224 70.8 222.3 70.5 220.6 70.1zM230.2 68.9c-0.4 0-0.8-0.6-1.2-0.9 0.5-0.5 0.8-1.1 1.4-1.3 0.4-0.1 1 0.5 2 1.1C231.3 68.3 230.8 68.8 230.2 68.9zM238.2 64.6c3 0.7 6.1 1.4 9.3 2.1 0 0.2 0 0.4-0.1 0.6 -3.6 2.5-7.7 3.3-11.9 3.9C236.4 69.2 237.2 67.2 238.2 64.6z"/>
  <path class="st0" d="M90.7 143.1c2.1-0.9 4.2-1.8 6.3-2.7 2.9-1.2 5.7-1.4 8.3 1 1.6-1.3 2-2.1 1.6-3.8 -0.8-3-2.9-4.5-6.8-4 -5.7 0.7-11.4 1.8-17.5 2.8 0.5 1.6 0.7 3.1 1.3 4.3C85.6 144 87.3 144.5 90.7 143.1z"/>
  <path class="st0" d="M87.9 148.1c3.6 6.1 15.3 6.4 18.8-0.8C102 143.8 93.7 144.1 87.9 148.1zM92.7 150.8c-1-0.6-1.7-1.1-3-1.9 1.3-0.6 2-0.9 3-1.3C92.7 148.6 92.7 149.6 92.7 150.8zM100.1 146.9c1.6 0.2 3.4 0.4 5.6 0.6 -1.8 2.4-3.6 3.7-6 4C99.9 150 100 148.7 100.1 146.9z"/>
  <path class="st1" d="M10.1 57.7c-1.2 1-2.4 0.4-3.2-0.6C3.8 53 1.8 48.4 1.8 43.2c0-3.7 2.3-5.8 6.4-5.3 5.7 0.8 11.4 2.1 17 3.5 2.1 0.5 4.2 1.7 6 3.1 2.5 1.9 3.6 4.6 2.6 7.8 -1 3-1.9 6-3.3 8.7 -1.8 3.5-4.3 3.4-6.4 0 -0.3-0.4-0.5-0.9-0.8-1.4 -1.4-3.1-3.3-5.4-7.1-5 -0.7 0.1-1.4-0.2-2.1-0.3 -2-0.4-3.1-1.7-3.3-3.9 0.9 0.5 1.6 1 2.4 1.3 0.4 0.2 1.2 0.4 1.4 0.2 1.5-1.5 2.7-0.6 4.1 0.1 1.8 0.9 3.7 0.8 5.3-0.5 1.5-1.2 1.8-2.9 1.2-4.6 -0.3-0.9-1.1-2-2-2.4 -4-1.9-8.4-2.5-12.8-1.7 -4 0.7-5.3 5-2.8 8.6 0.7 1.1 1.7 1.9 2.5 3C10.9 55.5 11.4 56.7 10.1 57.7z"/>
  <path class="st1" d="M10.6 61.5c-0.1-0.3 0.2-0.8 0.4-1.2 0.7-1.2 1.4-2.4 2.4-4.1 5-0.7 10.2 3.5 10.5 9 0 0.5-0.4 1-0.8 1.4 -2.2 1.8-4.6 2-7.2 1C13.1 66.4 11.3 64.4 10.6 61.5z"/>
  <path class="st1" d="M22.5 50.3c-0.8-0.1-1.7 0.1-2.3-0.3 -1.6-0.9-3.1-1.9-4.6-2.9 -3-2-4.3-1.9-7.1 0.3 0.3-0.5 0.6-1 1-1.4 2.8-2.8 10.9-1.9 12.9 1.5C22.7 48.3 22.4 49.4 22.5 50.3z"/>
  <path class="st2" d="M300.8 330.8c-30.7 23.3-54.3 35.2-101.6 39.1 -3.2-8.9-9.4-27-9.4-27.3 -1.5-5-6.4-21.4-6.5-21.7 -3.3-12.7-6.1-25.6-7.8-38.7 0.7 1-1-7-1.2-11.1 -0.1-2.2 0-4.4 0-6.9 6.5 1.4 12.5 2.7 18.5 3.8 11.8 2.1 23.7 4.3 35.6 6 10.8 1.6 21.7 2.8 32.6 3.8 10.1 0.9 20.3 1.2 30.5-0.2 9.6-1.4 17.7-5.7 22.5-14.5 4-7.3 7.9-14.8 11.1-22.5 9-21.6 17.7-43.3 26.2-65.1 2-5.1 2.7-10.8 3.9-16.2 0.3-1.2 0-2.4 0.3-3.7 1.1 2.5 2.2 5.1 3.3 7.6 0.8 1.8 1.5 3.6 2.3 5.4 0.9 6.6 1.4 13.3 1.7 20.2C364.4 241.4 346.2 296.4 300.8 330.8z"/>
  <path class="st2" d="M41.9 294.4c1.4-9.9 2.9-19.8 4.3-29.7 1-6.5 2.3-13 4.1-19.3 2.3-8 7.2-14.2 14.6-18.1 7.2-3.8 14.6-7.2 22.1-10.8 0.6 3.9 1 7.5 1.6 11.1 0.7 4.5 2.6 5.7 6.8 3.6 4.2-2.1 8-4.8 12-7.2 0.9-0.5 1.7-1.2 2.3-1.7 -1 8.1-1.9 16.4-2.9 24.8 -2.1-0.6-4.3-1.3-6.6-1.9 -4.7-1.3-9.4-2.5-14.1-3.9 -1.7-0.5-2.1 0.5-1.9 1.7 0.4 1.9 1.1 3.6 3.3 4.4 6 2.2 12 4.6 18.1 6.9 1 0.4 1.4 0.8 1.4 1.9 -0.3 20.1 1.5 40 4.3 59.8 2 14.1 4.3 28.1 6.9 42C87 344.8 60.5 321.9 41.9 294.4z"/>
  <path class="st2" d="M328.3 187.8c-6.3 1.1-12-0.3-16.9-4.7 -6.1-5.4-10-12.2-11.7-20.1 -1.6-7.1 1.1-12.6 6.5-17.1 5.1-4.2 11.1-6.1 17.5-7 2.3-0.3 4.7-0.4 7-0.6 10.8 0 18.5 6.9 20.1 18C353.1 172 343.9 185 328.3 187.8z"/>
  <path class="st2" d="M300.4 250.6c-3.5-1.1-7.2-1.5-10.9-2 -3.4-0.4-6.8-0.3-10.2-0.5 -0.8 0-1.6-0.2-3-0.5 5.4-29 12-57.5 18.5-86.1 3.9 7.9 8.7 15 13.8 22 2.6 3.6 5.7 7 10.5 7.5 2.3 0.2 4.9 0 7.1-0.8 6.2-2.3 12.3-4.9 18.4-7.4 -0.6 2-1.3 4.2-2 6.4 -7.1 21.7-15.8 42.8-26.3 63.1 -3 5.7-6.2 11.3-11.4 15.5 -0.2 0.2-0.5 0.4-1.2 0.9 0.4-1.2 0.7-1.9 0.9-2.6 0.5-2 1.1-4 1.4-6.1C306.6 255.4 304.8 252 300.4 250.6z"/>
  <path class="st2" d="M277.8 266.2c-1.3-1.8-2.2-4.1-2.7-6.3 -0.7-3.1 0.5-5.1 3.5-6.4 4.3-2 8.8-2.1 13.4-1.1 2.4 0.5 4.8 1.2 7 2.2 3.7 1.7 5 5.5 3.8 9.4 -1.7 5.2-6.7 8.9-11.7 8.7C285.8 272.3 281.1 270.6 277.8 266.2z"/>
  <path class="st2" d="M175.9 245.9c0.1-0.5 1-1.2 1.5-1.1 10 0.3 19.9 0.7 29.9 1.2 9.6 0.5 19.1 1.1 28.7 1.8 10.6 0.8 21.2 1.7 31.7 2.6 1.9 0.2 3.9 0.4 6.1 0.6 -0.2 1.7-0.5 3.3-0.6 4.9 -0.1 2.3-0.3 4.7-0.1 7 0.2 3.1 1.6 5.7 4.4 7.4 2.1 1.3 4.2 2.7 6.8 4.4 -4.6 0-8.8 0.1-13 0 -20.6-0.5-41-3.4-61.3-6.7 -11.7-1.9-23.4-3.8-35.4-5.7C174.7 256.6 174.4 251.2 175.9 245.9z"/>
  <path class="st2" d="M191.3 223c0.4 0.3 1.2 0.4 1.8 0.3 4.3-1.2 8.6-2.5 12.9-3.8 0.6-0.2 1.1-0.3 1.9-0.5 -0.3 7.5-0.6 14.9-0.8 22.2 0.2 0.1 0.3 0.2 0.5 0.2 5-4.1 10-8.2 15.3-12.4 3.4 5.4 6.6 10.5 10.1 16.1 -19-0.8-37.6-1.6-56.4-2.4 0.4-1.5 0.8-3.1 1.3-4.7 3.3-11.4 7.4-22.6 12.8-33.2 0.7-1.4 1.6-2.3 3.3-2.5 2.8-0.3 5.6-1 9-1.6 -3.6 6.4-6.8 12.2-10.1 18.1 -0.5 0.9-1 1.8-1.4 2.8C191.2 221.9 191.1 222.8 191.3 223z"/>
  <path class="st2" d="M242.8 230.7c5.3 5.1 10.4 10 16.1 15.4 0.6-7.4 1.2-14.3 1.8-21.2 4.2 4.3 8.4 8.7 13.1 13.5 1.4-7.8 2.7-14.9 4-22.2 1.7 0.5 1.5 1.7 1.3 2.9 -0.9 5.5-1.9 11-2.8 16.5 -0.6 3.5-1.3 7-1.8 10.6 -0.2 1.2-0.5 1.7-1.8 1.6 -7.7-0.5-15.3-0.9-23-1.4 -4-0.3-7.9-0.7-12.3-1.1C239.3 240.2 241.1 235.4 242.8 230.7z"/>
  <path class="st3" d="M224.2 169.8c1.4-0.1 1.3 1.2 1.3 1.9 0 0.7-0.4 1.8-0.9 1.9 -1.8 0.4-3.7 0.5-5.6 0.7 -0.1-1.3-0.2-2.3-0.4-3.8C220.6 170.3 222.4 170 224.2 169.8z"/>
  <path class="st3" d="M218.8 168.2c1.8-1 3.6-2.1 5.4-3.1 1 2.9 1 2.9-1.6 3.4 -1.2 0.2-2.4 0.2-3.6 0.3C218.9 168.6 218.8 168.4 218.8 168.2z"/>
  <path class="st3" d="M219.9 175.9c1.9-0.6 4-0.9 6-0.8 0.4 0 0.7 2.5 1.1 4.1 -2.6 0.2-4.8 0.4-7.5 0.6C219.6 178.2 219.4 176.1 219.9 175.9z"/>
  <path class="st3" d="M226.3 180.5c0.3 0 0.8 0.5 0.9 0.8 0.4 1.3 0.6 2.6 1 4 -2.2 0.2-3.9 0.3-5.7 0.5 -1.3 0.2-1.9-0.4-1.9-1.7 0-1-0.2-1.9-0.4-3.1C222.2 180.9 224.2 180.7 226.3 180.5z"/>
  <path class="st3" d="M229.2 201.5c0.2-0.8 2-1.4 3.2-1.8 0.3-0.1 1.3 0.8 1.5 1.4 2.1 5.1 2.6 4.1-2.3 7 -0.9 0.5-1.8 1-3.1 1.7C228.8 206.7 228.7 204 229.2 201.5z"/>
  <path class="st3" d="M228.2 186.9c0.3 1.2 0.7 3 1.1 4 -2.6 0-5 0-7.6 0 -0.1-1-0.3-2-0.5-3.4C223.6 187.3 225.8 187.1 228.2 186.9z"/>
  <path class="st3" d="M228.7 192.3c0.6 0 1.2 1 1.8 1.6 -0.1 0.3-0.1 0.5-0.2 0.8 -2.3 0.5-4.7 1-7.3 1.5 -0.3-1.2-0.6-2.3-0.9-3.6C224.4 192.4 226.6 192.2 228.7 192.3z"/>
  <path class="st3" d="M232.7 197.9c-1.4 0.5-2.3 0.9-3.3 1 -1.8 0.3-2.3 1.3-2.3 3 0 1.7-0.1 3.3-0.2 5 -0.3 0.1-0.5 0.1-0.8 0.2 -1.1-3.1-2.1-6.2-3.3-9.5C226.3 197 229.3 195.2 232.7 197.9z"/>
  <path class="st0" d="M230.6 203.9c-0.1 0.4 0.7 1.3 1.2 1.3 0.6 0 1.2-0.6 2.3-1.2 -1-0.8-1.6-1.5-2.1-1.5C231.5 202.5 230.7 203.4 230.6 203.9z"/>
  <path class="st3" d="M230.6 210.1c2.3-1.3 4.4-2.5 6.7-3.7 -0.7-2.2-1.4-4.4-2-6.5 1.8-0.6 2.8-0.1 3.6 1.3 1.2 2.3 2.6 4.4 3.9 6.6C239.8 210.8 233.7 211.9 230.6 210.1z"/>
  <path class="st3" d="M247.5 197.6c1.9-0.8 3.4-1.5 5.3-2.3 1 1.6 2.1 3.3 3.3 5.2 -1.6 1.1-3 2-4.6 3.1C250.2 201.6 248.9 199.7 247.5 197.6z"/>
  <path class="st3" d="M249.1 204.6c-1.4 0.9-2.8 1.7-4.5 2.7 -1.7-2.6-3.4-5-5.3-7.8 2-0.3 3.7-0.6 5.3-0.7 0.3 0 0.8 0.3 1 0.6C246.8 201.1 247.9 202.8 249.1 204.6z"/>
  <path class="st3" d="M254.8 194.3c1.5-0.8 2.9-1.6 4.3-2.3 0.3-0.2 1.2 0.1 1.4 0.5 0.8 1.1 1.5 2.2 2.3 3.5 -1.6 1.2-3.2 2.2-4.9 3.4C256.8 197.7 255.9 196.1 254.8 194.3z"/>
  <path class="st3" d="M261.5 190.4c1.4-1 2.7-2 4.1-3.1 1.1 1.6 2.1 3.1 3.2 4.7 -1.4 1-2.7 1.9-4.2 2.9C263.5 193.4 262.6 192 261.5 190.4z"/>
  <path class="st3" d="M267.1 186.3c1.4-0.9 2.8-1.7 4.4-2.7 1 1.6 1.9 3.1 2.9 4.6 -0.1 0.2-0.1 0.3-0.2 0.4C270.4 191.9 269.4 191.6 267.1 186.3z"/>
  <path class="st3" d="M273.1 183.4c-0.5-1-0.2-1.4 2.3-2.7 1.1 1.5 2.1 3 3.3 4.7 -1.1 0.8-2 1.5-3.1 2.3C274.8 186.2 273.9 184.9 273.1 183.4z"/>
  <path class="st3" d="M279.6 175.5c0 1.3 0.2 2.3 0 3.3 -0.5 2.1 0.6 2.5 2.2 2.5 0.3 0 0.6 0.1 0.9 0.1 0.2 0.2 0.3 0.4 0.4 0.6 -1 1-2 2-3 2.9C276 181.2 275.9 179.3 279.6 175.5z"/>
  <path class="st3" d="M287 163.4c1.1 0.1 2.2 0.5 3.8 0.9 -0.6 1.2-1.1 2.8-1.5 2.7 -1.4-0.1-2.7-0.6-4-1.2 -0.2-0.1-0.3-1.2-0.1-1.6C285.6 163.8 286.4 163.4 287 163.4z"/>
  <path class="st3" d="M285.2 168c1.2 0 2.5 0.4 3.7 0.8 0.3 0.1 0.7 1.2 0.5 1.4 -0.6 0.7-1.4 1.2-2 1.7 -1.2-0.3-2-0.4-2.6-0.7 -0.5-0.3-1.3-1.2-1.1-1.6C283.8 168.9 284.6 168 285.2 168z"/>
  <path class="st3" d="M280.8 177.7c0-1.1 0.5-2.1 1.8-2 1.4 0 2.2 0.8 2.4 2.6 -0.6 0.5-1.1 1.3-1.7 1.4C282 179.8 280.9 179.2 280.8 177.7z"/>
  <path class="st3" d="M281.8 173.7c0.5-2.2 2.6-1.6 6.3-0.1 -0.5 0.9-0.9 1.7-1.1 2.1C285 175 283.4 174.4 281.8 173.7z"/>
  <path class="st3" d="M286.6 147.9c1-0.2 2.1-0.3 3.1-0.4 0 1 0 1.6 0 2.5 -1 0-1.8 0.1-2.9 0 -0.3 0-0.6-0.6-0.7-1C286.1 148.6 286.3 148 286.6 147.9z"/>
  <path class="st3" d="M286.3 145.4c0.5-0.3 0.9-0.7 1.4-0.9 0.7-0.2 1.4-0.2 2.3-0.3 0.2 0.6 0.3 1.3 0.6 2.1 -1.1 0-2 0.1-2.9 0C287.2 146.2 286.8 145.7 286.3 145.4z"/>
  <path class="st3" d="M287 151.3c0.9-0.2 1.7 0.1 2.7 0.1 0 0.9 0 1.6 0 2.4 -1 0-1.7 0.1-2.7-0.1 -0.4-0.1-0.9-0.8-0.8-1.2C286.2 152.1 286.5 151.4 287 151.3z"/>
  <path class="st3" d="M286.4 155.4c1.1 0 2.2 0 3.2 0 0 0.9 0 1.7 0 2.7 -3 0.1-4.1-0.5-3.6-2.6C286.3 155.4 286.3 155.4 286.4 155.4z"/>
  <path class="st3" d="M286 159.5c4-0.7 4.7-0.3 4.5 2.8C286.8 162.9 285.7 162.2 286 159.5z"/>
  <path class="st2" d="M292.6 157.2c0.5-3.7 0.8-7.3 1.5-11 0.5-2.6 2-4.1 4.8-4.6 4.3-0.8 8.6-1.9 13-2.8 -7.8 4.6-14.7 10.1-18.6 18.6C293.1 157.3 292.8 157.3 292.6 157.2z"/>
  <path class="st3" d="M13 196.3c1.4-23 6.5-45.5 14.9-66.4 3.2 13.1 6.3 26.1 9.4 39.2 4.7 20 8.9 40.2 13.4 60.2 0.7 3.3 1.2 6.4-0.2 9.9 -5.5 13.7-7.7 28.3-10.2 42.7 -0.4 2.6-0.9 5.2-1.3 7.8C20.7 261.3 11 228.3 13 196.3z"/>
  <path class="st3" d="M137.2 192c-3.9-1.1-7.6-6.1-8-10.7 -0.4-4.1 0.9-8 2.4-11.7 0.2-0.5 1.4-0.8 2-0.7 3.8 0.7 7.6 3.1 10.5 6.6C135 179.6 133 184.7 137.2 192z"/>
  <path class="st3" d="M139.4 183.9c1.3-2.6 3.6-3.2 6.2-3.3 1.1 0 1.9 0.4 2.3 1.6 1.9 4.7 1.9 4.7-2.6 6.9 -1.7 0.8-3.4 1.6-5.2 2.5C138.3 189 138.2 186.5 139.4 183.9z"/>
  <path class="st3" d="M128.7 196.4c-2.2 0.7-4.1 1.3-6.1 2 0-2 0-3.8 0-5.8C124.7 193.9 126.6 195 128.7 196.4z"/>
  <path class="st3" d="M197.5 155.4c0-4.3 0-8.6-0.1-12.9 6.2-1.7 10.1-5.9 10.4-11.5 1.8 0.2 3.6 0.6 5.3 1 4.2 1.2 6.7 4.4 7.6 8.4 1.2 5.2 1.9 10.5 2.8 15.7 0.2 1 0.2 2.1 0.4 3.1 0.3 2.5-1.4 4.6-4 4.3 -6.6-0.7-12.7 1.4-19 2.9 -1.1 0.3-2.1 0.6-3.5 1C197.6 163.3 197.6 159.4 197.5 155.4z"/>
  <path class="st3" d="M186.4 21c-1.1 1.8-1.9 3.7-2.4 6 -2.3 9.6-4.9 19.1-7.2 28.7 -0.6 2.5-0.5 2.3-1 5.2 -6.5-2.7-24-5.3-30.6-5.3 -6.7 0-25.2 9.3-26.9 11.6 -3.1 4.1-7.8 17.4-2.1 29.9 -2.6 4.2-4.4 9.2-5.3 11.4 -2-1.2-7.2-3-9.6-3.5 -6.1-1.1-12.1-2.3-18.3-2.7 -7.6-0.5-14 2.1-17.6 9.4 -2.8 5.5-5.4 11.1-8.1 16.7 -0.7 1.5-1.2 3.1-2 5 -0.4-1-0.7-1.5-0.9-2.1 -3.8-9.7-7.6-19.4-11.3-29.1 -0.2-0.5-0.4-1-0.6-1.6C71.9 52.2 121.8 18.8 186.4 21z"/>
  <path class="st3" d="M279.7 85.7c0 2 0 3.5 0 5C278.7 90.2 278.7 90 279.7 85.7z"/>
  <path class="st0" d="M207.9 52.9c8.6-2.1 16.5-4.4 24.6-6 3.9-0.8 8.2-0.4 12.2-0.2 1.4 0 2.8 0.8 4.1 1.5 0.3 0.2 0.6 1.1 0.5 1.5 -0.1 0.4-0.8 0.7-1.3 0.9 -0.1 0.1-0.3 0-0.4 0 -7.3-0.9-13.5 1.8-19.5 5.5 -3.1 1.9-6.1 3.8-9.1 5.7 -2.7 1.7-4.4 1.5-6.2-1C211.1 58.3 209.6 55.7 207.9 52.9z"/>
  <path class="st0" d="M294.1 61.4c0-0.6 0.9-1.2 1.7-2.2 0.9 1 1.4 1.6 1.8 2.3 -0.7 0.5-1.4 1.3-2.1 1.4C295.1 63 294.1 62 294.1 61.4z"/>
  <path class="st3" d="M305.3 73.1c-2.4 5.1-6.6 8-12.5 8.6 -1-3.4-3.2-5.7-6.4-7.3 3.5-2.1 5.4-4 1.5-8.6 0.4-0.6 1.1-1.1 1.3-1.8 0.4-1.2 1-2.9 0.5-3.6 -1.7-2.2-0.8-4.1-0.1-6.2 -0.4 3.8 1 7 3.8 9.5 2 1.8 4.1 1.6 5.4-0.3 1.1-1.6 1-3.1-0.4-4.4 -1.3-1.3-3.2-1.5-4.6-0.4 -0.3 0.2-0.5 0.5-0.9 0.8 -0.2-2.7 2.6-5 5.6-4.2 2 0.5 4.2 1.6 5.4 3.2C307.3 62.8 307.7 68 305.3 73.1z"/>
  <path class="st3" d="M284.7 75.8c2-0.6 5.9 2.7 6.3 6.3 0.5 4.2-2.3 7.7-6.3 8.4C284.7 85.6 284.7 80.7 284.7 75.8z"/>
  <path class="st3" d="M286.8 67.4c0.7 0.8 1.7 2.3 1.4 2.8 -0.7 1.2-2.1 2-3.2 3 -0.2-0.1-0.3-0.3-0.5-0.4 -0.2-4.6-0.5-9.2-0.7-14.3 1 0.2 1.9 0.3 2.7 0.6 2.2 0.9 2.4 2.4 0.6 3.9C285 64.8 285.1 65.4 286.8 67.4z"/>
  <path class="st3" d="M358.5 153.7c-2.6-4.7-5.2-9.4-7.9-13.9 -3.8-6.2-9.6-9.1-16.8-8.5 -4.7 0.3-9.5 0.9-14.1 1.8 -10.6 2.1-21.2 4.6-31.9 6.9 -0.1-0.8-0.2-1.6-0.3-2.4 -0.7-9.1-1.4-18.2-2-27.3 -0.4-5.3-0.6-10.7-0.8-16 0-0.6 0.5-1.6 0.9-1.7 3-0.9 5-3 6.2-5.8 0.5-1.2 1.3-1.7 2.5-2 4.5-1.1 8.1-3.4 11-7 2.6-3.2 4.2-6.8 4.2-10.8C334.3 89.2 351.1 118.7 358.5 153.7z"/>
</svg>
