<svg xmlns="http://www.w3.org/2000/svg" xmlns:xlink="http://www.w3.org/1999/xlink" version="1.1" id="Layer_1" x="0" y="0" viewBox="0 0 134.1 94.6" xml:space="preserve" enable-background="new 0 0 134.1 94.6">
  <style type="text/css">
    
	.st0{opacity:0.23;}
	.st1{fill:#435400;}
	.st2{fill:#6B9B29;}
	.st3{fill:#578D18;}

  </style>
  <g class="st0">
    <path class="st1" d="M31.5 94.4c-0.8 0-1.6 0-2.4 0C29.5 94.6 30.8 94.5 31.5 94.4z"/>
  </g>
  <path class="st2" d="M58.8 94.2V68.8v-5.3V19.7c-3.5 0.1-6.9 0.2-10.2 0.2 -5 0-10.1 0-15.1 0 -1.1 0-3.9-0.5-4.4 0.4 -0.3 0.5 0 2.1 0 2.7 0 1.6 0 3.3 0 5 0 4.9 0 9.7 0 14.6 0 6.8 0 13.6 0 20.4 0 1.9 0 3.9 0 5.9 -1.7 0-3.4 0-5.1 0 -0.5 0-1.8-0.2-2.2 0 -0.5 0.3-0.2 0.2-0.3 1 -0.6 5.3 0 11 0 16.3 0 1.3-0.7 7.7 0.2 8.4 0.3 0.2 1.7 0 2 0 1.3 0 2.7 0 4 0 0.5 0 1 0 1.5 0 0.8 0 1.6 0 2.4 0 0.2-0.1 0.4-0.1 0.5-0.1 0.7 0 12.3 0 27.2 0C59 94.4 58.9 94.3 58.8 94.2z"/>
  <path class="st3" d="M53 24.2c-0.4-0.6 0.1-0.3-1.1-0.4 -0.3-0.1-2.3-0.2-2.5 0 -0.5 0.5-0.2 4.5 0 5.2 0.3 1.1-0.2 0.5 0.8 0.7 0.8 0.2 1.9 0 2.7 0C53 28.4 53.6 25.3 53 24.2z"/>
  <path class="st3" d="M53 33.6c-0.4-0.6 0.1-0.3-1.1-0.4 -0.3-0.1-2.3-0.2-2.5 0 -0.5 0.5-0.2 4.5 0 5.2 0.3 1.1-0.2 0.5 0.8 0.7 0.8 0.2 1.9 0 2.7 0C53 37.8 53.6 34.6 53 33.6z"/>
  <path class="st3" d="M45.7 24.2c-0.4-0.6 0.1-0.3-1.1-0.4 -0.3-0.1-2.3-0.2-2.5 0 -0.5 0.5-0.2 4.5 0 5.2 0.3 1.1-0.2 0.5 0.8 0.7 0.8 0.2 1.9 0 2.7 0C45.7 28.4 46.3 25.3 45.7 24.2z"/>
  <path class="st3" d="M45.7 33.6c-0.4-0.6 0.1-0.3-1.1-0.4 -0.3-0.1-2.3-0.2-2.5 0 -0.5 0.5-0.2 4.5 0 5.2 0.3 1.1-0.2 0.5 0.8 0.7 0.8 0.2 1.9 0 2.7 0C45.7 37.8 46.3 34.6 45.7 33.6z"/>
  <path class="st3" d="M38.4 24.2c-0.4-0.6 0.1-0.3-1.1-0.4 -0.3-0.1-2.3-0.2-2.5 0 -0.5 0.5-0.2 4.5 0 5.2 0.3 1.1-0.2 0.5 0.8 0.7 0.8 0.2 1.9 0 2.7 0C38.4 28.4 39.1 25.3 38.4 24.2z"/>
  <path class="st3" d="M38.4 33.6c-0.4-0.6 0.1-0.3-1.1-0.4 -0.3-0.1-2.3-0.2-2.5 0 -0.5 0.5-0.2 4.5 0 5.2 0.3 1.1-0.2 0.5 0.8 0.7 0.8 0.2 1.9 0 2.7 0C38.4 37.8 39.1 34.6 38.4 33.6z"/>
  <path class="st2" d="M126.1 76.2c0-1 0-2 0-3 0-0.6 0.5-4 0-4.4 -0.2-0.2-0.8 0-1.1 0 -7.1-0.7-14.6 0-21.7 0 -3.1 0-6.2 0-9.3 0 0-1.5 0-3.1 0-4.6 0-10.4 0-20.8 0-31.2 0-9.5 0-19 0-28.5 0-0.6 0.5-3.9 0-4.4 -0.4-0.4-2.9 0-3.4 0 -2.5 0-5 0-7.5 0 -6 0-12 0-18 0 -1.2 0-5.8-0.6-6.3 0.3 -0.3 0.5 0 1.9 0 2.4 0 1.4 0 2.8 0 4.2 0 4.5 0 8 0 12.6v0.1c6.4-0.2 12.9-0.3 19.3 0.2 1.6 0.1 1.1 0.6 1.1 2.3 0 3.6 0 7.3 0 10.9 0 10.8 0 22.4 0 30.9 0 1.8 0 3.5 0 4.9 0 4.4 0 7.2 0 7.4h14.9c0 5.7 0 11.4 0 17 0 0.4 0 0.8 0 1.2 17 0 30.9 0 31.7 0h0.3l8 0.1V76.1L126.1 76.2 126.1 76.2z"/>
  <path class="st3" d="M90.8 5.4c-0.4-0.6 0.1-0.3-1.1-0.4 -0.3-0.1-2.3-0.2-2.5 0 -0.5 0.5-0.2 4.5 0 5.2 0.3 1.1-0.2 0.5 0.8 0.7 0.8 0.2 1.9 0 2.7 0C90.8 9.6 91.4 6.5 90.8 5.4z"/>
  <path class="st3" d="M90.8 14.8c-0.4-0.6 0.1-0.3-1.1-0.4 -0.3-0.1-2.3-0.2-2.5 0 -0.5 0.5-0.2 4.5 0 5.2 0.3 1.1-0.2 0.5 0.8 0.7 0.8 0.2 1.9 0 2.7 0C90.8 19.1 91.4 15.8 90.8 14.8z"/>
  <path class="st3" d="M90.8 24.2c-0.4-0.6 0.1-0.3-1.1-0.4 -0.3-0.1-2.3-0.2-2.5 0 -0.5 0.5-0.2 4.5 0 5.2 0.3 1.1-0.2 0.5 0.8 0.7 0.8 0.2 1.9 0 2.7 0C90.8 28.4 91.4 25.3 90.8 24.2z"/>
  <path class="st3" d="M90.8 33.6c-0.4-0.6 0.1-0.3-1.1-0.4 -0.3-0.1-2.3-0.2-2.5 0 -0.5 0.5-0.2 4.5 0 5.2 0.3 1.1-0.2 0.5 0.8 0.7 0.8 0.2 1.9 0 2.7 0C90.8 37.8 91.4 34.6 90.8 33.6z"/>
  <path class="st3" d="M90.8 43c-0.4-0.6 0.1-0.3-1.1-0.4 -0.3-0.1-2.3-0.2-2.5 0 -0.5 0.5-0.2 4.5 0 5.2 0.3 1.1-0.2 0.5 0.8 0.7 0.8 0.2 1.9 0 2.7 0C90.8 47.2 91.4 44 90.8 43z"/>
  <path class="st3" d="M79.2 76.2c0-0.2 0-2.9 0-7.4 0-8.4 0-22.6 0-35.7 0-3.6 0-7.3 0-10.9 0-1.7 0.5-2.2-1.1-2.3 -6.4-0.4-12.8-0.3-19.3-0.2v49.1 25.4c0.1 0.1 0.2 0.2 0.3 0.2 2 0 4.2 0 6.4 0 9.3 0 19.4 0 28.6 0 0-0.4 0-0.8 0-1.2 0-5.7 0-11.4 0-17L79.2 76.2 79.2 76.2zM75.2 90.2c0 1.3 0 2.6 0 3.9 -1.4 0-2.8 0-4.3 0 -1.6 0-1.6 0.4-1.9-0.7 -0.5-1.5 0-3.8 0-5.4 0-0.6-0.4-3.3 0-3.6 0.5-0.5 3.6 0 4.3 0 1.5 0 1.6-0.4 1.9 0.7C75.5 86.5 75.2 88.6 75.2 90.2z"/>
  <path class="st3" d="M36 19.1c1.6 0 8.7 1.1 9.8 0 0.3-0.4 0.3-8.7 0-9.1 -0.6-0.6-9.6-0.2-9.8 0C35 11.1 36 17.4 36 19.1z"/>
  <path class="st3" d="M40.9 4.8c2.5 1.9 4.9 3.7 7.4 5.7 -4.9 0-9.8 0-14.7 0C36 8.4 38.4 6.6 40.9 4.8z"/>
  <path class="st2" d="M2.3 85.6c-0.1-0.2-0.1-0.4-0.1-0.6 0-2.4 1.8-4.4 4.2-4.6 0.3-2.5 2.5-4.5 5-4.5 2.4 0 4.5 1.7 5 4 0.6-0.3 1.2-0.4 1.8-0.4 2.2 0 3.9 1.5 4.5 3.5 0.2-0.1 0.4-0.1 0.6-0.1 3.3 0 5.9 2.6 5.9 5.9 0 3.3-2.6 5.9-5.9 5.9H4.9c-2.7 0-4.9-2.2-4.9-4.9C-0.1 88 0.9 86.4 2.3 85.6z"/>
  <path class="st2" d="M75.2 90.2c0 1.3 0 2.9 0 4.3 -1.4 0-2.8 0-4.3 0 -1.6 0-1.6 0.4-1.9-0.7 -0.5-1.5 0-4.2 0-5.7 0-0.6-0.4-3.3 0-3.6 0.5-0.5 3.6 0 4.3 0 1.5 0 1.6-0.4 1.9 0.7C75.5 86.5 75.2 88.6 75.2 90.2z"/>
</svg>
