<svg id="Layer_1" xmlns="http://www.w3.org/2000/svg" viewBox="0 0 415 328.6"><style>.st0{fill:#3b2d00}.st1{fill:#e3d9b2}.st2{fill:#e6650d}.st3{fill:#b18335}.st4{fill:#0089c9}.st5{fill:#d5ac5c}.st6{fill:#ffd36d}.st7{fill:#fab940}.st8{fill:#dace98}.st9{fill:#f19100}</style><path class="st0" d="M137 327.6l129.7 1-63.5-98.1zM71.3 285.5L0 177.2h116.8zM343.6 285.5L415 177.2H298.2z"/><path class="st1" d="M209 14.2C139.1 10.6 94.2 68.9 90.3 132.1c-1.3 21 4.9 42.7 16.5 61.6 38.8-19.2 198.5-81.1 216.2-89.6-10.7-52.2-52.6-86.7-114-89.9z"/><path class="st2" d="M156 166.5c.4-3.2.7-6 1.1-8.9.7-4.4 1.7-8.7 3.6-12.8 1.5-3.3 3.7-6.2 6.6-8.4 5.2-3.9 10.8-6.9 16.8-9.5.9 3.1 1.7 6.2 2.5 9.1.5 1.7 1.1 3.4 1.9 5 1.1 2.5 2.4 3.3 5.1 2.5 1.9-.5 4-1.3 5.6-2.4 8.4-5.4 13.5-13.1 15.1-23 .2-1.3.2-2.5.3-4 3.6-.9 7.3-1.7 11-2.5.1.1.1.3.1.4-.1.1-.1.3-.2.3-7.8 5.8-13.1 13.4-17.1 22-4.1 8.8-7.8 17.8-9.8 27.4 0 .7-1.8 14.7-1.7 18.6.5 23.6 6.9 45.8 14.7 67.8-1.3.1-2.5.1-3.8.2-14.9.7-29.3-1.8-42.4-6.8-2.5-13.7-4.9-27.3-7.3-41.1-1.6-9.4-1.7-19-1.9-28.6.1.2-.2-5.3-.2-5.3z"/><path class="st3" d="M204.7 63.8c1.6.1 1.9.2 1.9 1.7.1 1.5-.6 2.5-1.9 2.6h-1.3c1.7 3.3 4.8 4.2 7.8 5.4-.3 0-.6.1-.9.1-5.1-.5-9.1 1.5-12.3 5.4-3 3.7-4.6 8-5.8 12.5-.3 1-.5 2-.8 3-1.3 6.4-5.2 10.7-11.3 12.8-3.2 1.1-6.6 1.7-10 2.3-2.2.4-4.4-.1-6-1.8-.7-.8-1.3-1.9-1.6-3-.4-1.4.5-2.6 1.9-3 1.9-.5 3.6-1.3 4.9-2.9 1.6-2.1 1.5-4-.7-5.4-1.5-.9-3.3-1.3-5-1.9-.7-.2-1.3-.2-2.1-.3-.1-1.1-.1-2.2-.3-3.6 1.2.1 2.5.2 3.7.3 1 .1 2 .4 2.9.4 1.7 0 2.7-1.1 2.7-2.5-.1-1.9-1.5-3.3-3.3-3.3-1.6 0-2.6 1.1-2.7 2.7v1.1c-1.8.2-3.6.5-5.3.7-2.7.3-4-.8-4.1-3.6-.1-4 .9-7.7 2.4-11.3 2.2-5.4 5.4-10.3 10.1-13.9 1.7-1.3 3.6-2.2 5.4-3.2.4-.2 1.2-.1 1.6.1 6.5 4.5 13.7 7.2 21.6 8.1 3 .4 5.8.4 8.5.5z"/><path class="st4" d="M202.8 151.5c3.6-10 13.2-27 13.2-27s62.6-29.2 65.4-30.5c3.3-.8 28-6 27.5-4 9.2 7.5 11.4 14.7 11.5 14.3.7 1.7 1.5 3.4 2.2 5.1l1.5 3.6c.6 4.4.9 8.9 1.1 13.5 1.1 35.3-11.1 72.1-41.5 95.2-20.6 15.6-37.9 24.9-69.6 27.5-.2.8-8-25-11.9-39.7-8.2-32.6-3-48 .6-58z"/><path class="st5" d="M272 93v1.8c-13.1 3.1-25.7 7.7-38.2 13.1-.5-2.8-.8-5.5-1.3-8.1-.5-2.4-1.1-4.8-2.1-7.1-1.5-3.8-3.9-5.2-8.6-6 .5-.2.8-.3 1.1-.4 11.3-3.3 22.3-7.2 32.6-13.1 5.9-3.3 9.1-6 13.3-11.2 1.3.1 1.7.7 1.7 2 .5 9.7 1.1 19.3 1.5 29z"/><path class="st5" d="M270.4 47c.1 1.3-.3 2.3-1.5 2.9-3.4 1.9-4.2 3.8-3.5 7.6.4 1.9 0 3.6-1.1 5.2-3.4 5.1-8.1 8.6-13.5 11.3-3.8 1.9-7.6 3.6-11.5 5.3-.1-.1-.1-.2-.2-.3 6-5 9.6-11.5 12.1-18.8 1.5-4.4 3.5-8.4 6.4-12.1 2.1-2.7 4.8-4.3 8.2-4.7 2.7-.3 4.5 1.1 4.6 3.6z"/><path class="st5" d="M202.2 36.2c1.5-5.4 5.6-9 10.2-11.9 3.8-2.3 8-4.1 11.9-6.3 1.7-.9 2.6-.7 4 .5 5.2 4.6 11.3 7 18 8 3.3.5 6.6 1.2 9.8 2.1 5 1.5 9.1 4.2 11.9 8.8l.9 1.5c.1.2.2.5.3.9-.6.2-1.1.5-1.7.6-6.4 1.3-10.5 5.4-13.3 10.9-1.9 3.9-3.4 7.9-5 11.9-2.7 6.7-7 12.1-13.1 16.1-5.1 3.4-10.7 5.5-16.7 6.6-2.1.4-4.2.3-6.2-.7-2.5-1.1-2.9-3-1.6-5.4.9-1.6 2.1-2.1 3.6-2.9 1.3-.7 2.6-1.7 3.6-2.8 1.3-1.5.9-2.9-.9-3.8-3-1.5-6.3-2-9.6-2.2-.4 0-.9-.1-1.3-.1.7-2.7.7-2.7-.7-5.8 1.8.2 3.4.3 5 .5 1.4.1 2.7.4 4.2.4 2.3-.1 3.7-1.7 3.4-4-.2-1.8-2.1-2.9-4.4-2.4-2.3.5-3.3 2.1-2.7 4.2.1.3.1.5.3.9-3.3-.9-6.6-.6-9.8 0-2.3.4-3.6-.7-3.5-3 .4-7.6 1.3-15.3 3.4-22.6z"/><path class="st5" d="M213.2 61c-.4-1.1-.3-1.9.6-2.5.9-.7 2.5-.8 3.4-.2.9.5 1.1 1.3.8 2.5-1.6-1-3.2-1.4-4.8.2z"/><path class="st5" d="M217 61.6c-.4.4-.9.7-1.4 1.3-.6-.5-1-.9-1.5-1.2.5-.3.9-.8 1.4-.9.6 0 1.1.5 1.5.8z"/><path class="st3" d="M169.1 97c-1 3.3-5.4 5-7.7 2.8 2.4-1.9 4.9-2.3 7.7-2.8zM160 92.5c3.5-.9 7.6.4 9.1 2.9-3.7.4-6.5-.1-9.1-2.9zM169.4 86.8l-1.2 1.2c-.5-.5-.9-.8-1.3-1.1.4-.3.8-.9 1.3-.9.3-.1.8.5 1.2.8zM211.5 113.4c-8.6 3.3-18.8 7.6-27.8 11-1.3-6.1-4.5-10.7-10.7-12.9 3.3-1.1 8-3.1 11-4.2 6.6-2.5 13.2-5 18.9-9.2 2.5-1.9 4.8-4 7.2-6.1.9-.7 1.5-1.3 2.5-.7 0 3.5.1 7 0 10.4-.1 3.4-.1 6.9-.3 10.3 0 .6-.4 1.3-.8 1.4z"/><path class="st3" d="M211.9 78.8c-2.1 1.4-2.1 3.8-1.9 5 .2 1.2 1.1 2.5 2.4 3-1.1 2.1-6.5 6.8-8 8-4.7 3.8-10.1 6.5-15.7 8.8-.1 0-.1 0-.3-.1.1-.1.1-.3.1-.3 2.9-3.3 4.1-7.3 5.4-11.4 1.1-3.3 2.4-6.6 4-9.8.8-1.6 2.2-2.9 3.5-4.2 1.2-1.2 2.8-1.9 4.6-1.9.9 3.1 3.3 2.6 5.9 2.9z"/><path class="st6" d="M126.3 106.8c.5-.3.9-.8 1.4-.8.3 0 .9.7.9 1 0 .3-.6.7-1.1 1.3-.5-.6-.8-1.1-1.2-1.5zM140.7 135.8c-.5-2.6-1.6-4.8-4.6-5.9 1.5-.7 2.7-1.3 4-1.9 3-1.5 6.1-2.9 9-4.4 4-2.1 7.5-4.7 10.5-8.6 0 2.1-.1 3.8 0 5.5.1 2.1.5 4.2 2 6 .2.2.3.5.3.8-.1 1.9-.1 4-.3 5.9-.1.4-.5.9-.8 1.1-6.2 2.7-12.5 5.4-18.8 8.1-.1.1-.3 0-.4 0-.3-2.2-.5-4.4-.9-6.6z"/><path class="st6" d="M123.6 87c5.8-6.2 12.9-8.2 21.1-6.2 2.8.7 5.4 2 8.1 3.2.7.3 1.1 1.3 1.7 1.9.6.7 1.1 1.5 1.9 1.9 1.9 1 2.5 1.5 3.5 3.6-.6.1-1 .5-1 1.1 0 .7.8 1.7 2.3 2.5.5.3.9.6 1.1 1.1.8.6.2 1.9-.9 2.7-.5.3-1.2.7-1.1 1.2 0 .6.8 1 1.3 1.5.2.2.5.3.9.5-.9 1.5-.8 3-.5 4.6.1.7.1 1.6-.1 2.3-1.8 5.2-5.4 8.9-9.8 12-6 4.2-12.5 7-19.4 9.2-2.1.7-4 .3-5.6-1.1-.9-.8-1.1-1.6-.3-2.7.5-.7.5-1.7.7-2.5-.1-.1-.3-.1-.4-.1.7-.5 1.5-.8 2.2-1.3.6-.5 1.3-.9 1.7-1.5 1.6-1.9 1.2-4-1.1-4.8-2.1-.9-4.5-1.3-6.8-1.9-.3-.1-.6-.1-.8-.1l1.6-4.8h1.8c.8 0 1.7.2 2.5.1 1.1-.1 1.7-.7 1.9-1.9.1-1.1-.5-1.8-1.5-2.1-1.9-.5-3.1.4-3.3 2.4-1.5.3-3.1.7-4.6.9-1.1.2-2-.2-2.5-1.1-.3-.6-.6-1.4-.6-2.1-.4-7.3 1.3-13.5 6-18.5z"/><path class="st6" d="M130.2 118.4c-.7 3.1-5.1 5-7.2 3.1 2-2.1 4.5-2.7 7.2-3.1zM120.1 114.6c2.1-.6 7.7.7 9.9 2.3-3.1 1.3-7.8.1-9.9-2.3z"/><path class="st3" d="M167.4 83.7c-1 .3-1.5.8-1.5 1.7 1.4-.1 2.7-.2 4-.4-.3-1.1-1.2-1.7-2.5-1.3z"/><path class="st5" d="M217.4 73.9c-.8 3.1-6.2 4.6-9.3 2.7 2-2 5.6-3 9.3-2.7zM205.4 69.4c4.9-.3 9.9.6 11.5 3-4.2.3-8-.5-11.5-3zM267.2 58.1c-1.7-2.7-.3-6.4 2.7-7.2-.3 2.6-1.3 4.9-2.7 7.2zM168.4 160.6c-.1 0-.2-.5-.3-.9.3-.1.5-.3.7-.2.6.2 1.2.5 1.7.7 0 .2 0 .4-.1.6-.5-.1-1.3-.1-2-.2z"/><path class="st0" d="M174 71.5c.4-.1 5-2.7 9.6-3 4.1-.3 8.9-.1 9.4.9.8.4 1-1.4.9-1.9-.7-.5-5.2-1.6-10-1.7-7-.1-9.1 1.1-9.1 1.1s-1.2 4.6-.8 4.6z"/><path class="st0" d="M174.7 74.2c4.3 4.4 13.9 2.7 16.5-1.9-3.4-1.4-12.8-2.4-16.5 1.9zm1.3.3c.3-.6 1-1.1 1.9-1.4v.1c-.3.9.7 2.2 1.5 2.9-2-.4-3.4-1-3.4-1.6zm13.3-1.1c-1.5 1.9-4.4 2.6-7.1 2.7 1.4-.4 2.2-2.7 2.4-3.9 2 .1 3.8.6 4.7 1.2zM228.9 41.4c2-1.3 4-2.5 6.1-3.8 4-2.4 8.2-4.3 13.1-3.7.1 0 .2.1.3 0 .3-.2.8-.3.9-.6.1-.3-.1-.9-.3-1-.9-.4-1.8-.9-2.7-1-2.7-.1-5.6-.3-8.2.1-5.4 1.1-10.7 2.6-16.5 4 1.2 1.9 2.1 3.6 3.3 5.2 1.1 1.9 2.2 1.9 4 .8zM228.7 46.8c5 3.8 15.4 2.9 20.8-1.9-5.3-4.7-18-3.4-20.8 1.9zm1.3.2c0-.1-.1-.3-.1-.5.8-.5 1.7-.9 2.5-1.4.4.9.7 1.7 1.1 2.6-1.3-.2-2.4-.4-3.5-.7zm6.4-.8c-.3 0-.5-.4-.8-.6.3-.3.5-.7.9-.9.3-.1.7.3 1.3.7-.7.4-1 .8-1.4.8zm5.3-2.9c2 .5 4.1.9 6.2 1.4 0 .1 0 .3-.1.4-2.4 1.7-5.2 2.2-8 2.6.7-1.3 1.3-2.6 1.9-4.4zM142.9 95.9l4.2-1.8c1.9-.8 3.8-.9 5.6.7 1.1-.9 1.3-1.4 1.1-2.5-.5-2-1.9-3-4.6-2.7-3.8.5-7.6 1.2-11.7 1.9.3 1.1.5 2.1.9 2.9 1.1 2.1 2.3 2.5 4.5 1.5zM141.1 99.3c2.4 4.1 10.2 4.3 12.6-.5-3.2-2.4-8.8-2.2-12.6.5zm3.2 1.8c-.7-.4-1.1-.7-2-1.3.9-.4 1.3-.6 2-.9v2.2zm4.9-2.6c1.1.1 2.3.3 3.8.4-1.2 1.6-2.4 2.5-4 2.7.1-1 .2-1.9.2-3.1z"/><path class="st6" d="M88.9 38.7c-.8.7-1.6.3-2.1-.4-2.1-2.7-3.4-5.8-3.4-9.3 0-2.5 1.5-3.9 4.3-3.6 3.8.5 7.6 1.4 11.4 2.3 1.4.3 2.8 1.1 4 2.1 1.7 1.3 2.4 3.1 1.7 5.2-.7 2-1.3 4-2.2 5.8-1.2 2.3-2.9 2.3-4.3 0-.2-.3-.3-.6-.5-.9-.9-2.1-2.2-3.6-4.8-3.3-.5.1-.9-.1-1.4-.2-1.3-.3-2.1-1.1-2.2-2.6.6.3 1.1.7 1.6.9.3.1.8.3.9.1 1-1 1.8-.4 2.7.1 1.2.6 2.5.5 3.6-.3 1-.8 1.2-1.9.8-3.1-.2-.6-.7-1.3-1.3-1.6-2.7-1.3-5.6-1.7-8.6-1.1-2.7.5-3.6 3.3-1.9 5.8.5.7 1.1 1.3 1.7 2 .6.6.9 1.5 0 2.1z"/><path class="st6" d="M89.3 41.3c-.1-.2.1-.5.3-.8.5-.8.9-1.6 1.6-2.7 3.3-.5 6.8 2.3 7 6 0 .3-.3.7-.5.9-1.5 1.2-3.1 1.3-4.8.7-1.9-.9-3.1-2.2-3.6-4.1zM97.3 33.8c-.5-.1-1.1.1-1.5-.2-1.1-.6-2.1-1.3-3.1-1.9-2-1.3-2.9-1.3-4.8.2.2-.3.4-.7.7-.9 1.9-1.9 7.3-1.3 8.6 1 .2.4 0 1.2.1 1.8z"/><path class="st7" d="M203.8 233.3l8.1 3.8"/><path class="st8" d="M232.4 113.8c.9-.1.9.8.9 1.3s-.3 1.2-.6 1.3c-1.2.3-2.5.3-3.8.5-.1-.9-.1-1.5-.3-2.5 1.4-.3 2.6-.5 3.8-.6zM228.7 112.7l3.6-2.1c.7 1.9.7 1.9-1.1 2.3-.8.1-1.6.1-2.4.2 0-.1-.1-.2-.1-.4zM229.5 117.9c1.3-.4 2.7-.6 4-.5.3 0 .5 1.7.7 2.7-1.7.1-3.2.3-5 .4.1-1.1 0-2.5.3-2.6zM233.8 121c.2 0 .5.3.6.5.3.9.4 1.7.7 2.7-1.5.1-2.6.2-3.8.3-.9.1-1.3-.3-1.3-1.1 0-.7-.1-1.3-.3-2.1 1.3-.1 2.7-.2 4.1-.3zM235.7 135c.1-.5 1.3-.9 2.1-1.2.2-.1.9.5 1 .9 1.4 3.4 1.7 2.7-1.5 4.7-.6.3-1.2.7-2.1 1.1.2-2 .2-3.8.5-5.5zM235 125.3c.2.8.5 2 .7 2.7h-5.1c-.1-.7-.2-1.3-.3-2.3 1.7-.2 3.1-.3 4.7-.4zM235.4 128.9c.4 0 .8.7 1.2 1.1-.1.2-.1.3-.1.5-1.5.3-3.1.7-4.9 1-.2-.8-.4-1.5-.6-2.4 1.5-.1 3-.3 4.4-.2z"/><path class="st8" d="M238.1 132.6c-.9.3-1.5.6-2.2.7-1.2.2-1.5.9-1.5 2s-.1 2.2-.1 3.3c-.2.1-.3.1-.5.1-.7-2.1-1.4-4.2-2.2-6.4 2.2-.3 4.2-1.5 6.5.3z"/><path class="st0" d="M236.7 136.7c-.1.3.5.9.8.9.4 0 .8-.4 1.5-.8-.7-.5-1.1-1-1.4-1-.3-.1-.9.5-.9.9z"/><path class="st8" d="M236.7 140.8c1.5-.9 2.9-1.7 4.5-2.5-.5-1.5-.9-2.9-1.3-4.4 1.2-.4 1.9-.1 2.4.9.8 1.5 1.7 2.9 2.6 4.4-2.1 2.1-6.2 2.8-8.2 1.6zM248 132.4c1.3-.5 2.3-1 3.6-1.5.7 1.1 1.4 2.2 2.2 3.5-1.1.7-2 1.3-3.1 2.1-.9-1.4-1.8-2.7-2.7-4.1zM249 137.1c-.9.6-1.9 1.1-3 1.8-1.1-1.7-2.3-3.3-3.6-5.2 1.3-.2 2.5-.4 3.6-.5.2 0 .5.2.7.4.8 1.2 1.5 2.3 2.3 3.5zM252.9 130.2c1-.5 1.9-1.1 2.9-1.5.2-.1.8.1.9.3.5.7 1 1.5 1.5 2.3-1.1.8-2.1 1.5-3.3 2.3-.7-1.1-1.3-2.2-2-3.4zM257.4 127.6c.9-.7 1.8-1.3 2.7-2.1.7 1.1 1.4 2.1 2.1 3.1-.9.7-1.8 1.3-2.8 1.9-.7-.9-1.3-1.8-2-2.9zM261.1 124.9c.9-.6 1.9-1.1 2.9-1.8.7 1.1 1.3 2.1 1.9 3.1-.1.1-.1.2-.1.3-2.5 2.1-3.2 1.9-4.7-1.6zM265.1 122.9c-.3-.7-.1-.9 1.5-1.8.7 1 1.4 2 2.2 3.1-.7.5-1.3 1-2.1 1.5-.4-.9-1-1.8-1.6-2.8zM269.5 117.6c0 .9.1 1.5 0 2.2-.3 1.4.4 1.7 1.5 1.7.2 0 .4.1.6.1.1.1.2.3.3.4-.7.7-1.3 1.3-2 1.9-2.8-2.4-2.9-3.7-.4-6.3zM274.4 109.5c.7.1 1.5.3 2.5.6-.4.8-.7 1.9-1 1.8-.9-.1-1.8-.4-2.7-.8-.1-.1-.2-.8-.1-1.1.4-.2.9-.5 1.3-.5zM273.2 112.6c.8 0 1.7.3 2.5.5.2.1.5.8.3.9-.4.5-.9.8-1.3 1.1-.8-.2-1.3-.3-1.7-.5-.3-.2-.9-.8-.7-1.1 0-.3.5-.9.9-.9z"/><path class="st8" d="M270.3 119.1c0-.7.3-1.4 1.2-1.3.9 0 1.5.5 1.6 1.7-.4.3-.7.9-1.1.9-.9.1-1.7-.3-1.7-1.3zM271 116.4c.3-1.5 1.7-1.1 4.2-.1-.3.6-.6 1.1-.7 1.4-1.4-.4-2.5-.8-3.5-1.3zM274.2 99.1l2.1-.3v1.7c-.7 0-1.2.1-1.9 0-.2 0-.4-.4-.5-.7-.1-.2.1-.6.3-.7zM274 97.5c.3-.2.6-.5.9-.6.5-.1.9-.1 1.5-.2.1.4.2.9.4 1.4-.7 0-1.3.1-1.9 0-.3-.1-.6-.4-.9-.6zM274.4 101.4c.6-.1 1.1.1 1.8.1v1.6c-.7 0-1.1.1-1.8-.1-.3-.1-.6-.5-.5-.8 0-.2.2-.7.5-.8zM274 104.2h2.1v1.8c-2 .1-2.7-.3-2.4-1.7l.3-.1zM273.8 106.9c2.7-.5 3.1-.2 3 1.9-2.5.4-3.2-.1-3-1.9zM168.4 131.6c-1.5.5-2.7.9-4.1 1.3V129c1.4 1 2.7 1.7 4.1 2.6zM269.5 57.5v3.3c-.6-.3-.6-.4 0-3.3z"/><path class="st0" d="M221.4 35.5c5.8-1.4 11.1-2.9 16.5-4 2.6-.5 5.5-.3 8.2-.1.9 0 1.9.5 2.7 1 .2.1.4.7.3 1s-.5.5-.9.6c-.1.1-.2 0-.3 0-4.9-.6-9 1.2-13.1 3.7-2.1 1.3-4.1 2.5-6.1 3.8-1.8 1.1-2.9 1-4.2-.7-.9-1.7-1.9-3.4-3.1-5.3zM279.2 41.2c0-.4.6-.8 1.1-1.5.6.7.9 1.1 1.2 1.5-.5.3-.9.9-1.4.9-.2.2-.9-.5-.9-.9z"/><path class="st8" d="M286.7 49c-1.6 3.4-4.4 5.4-8.4 5.8-.7-2.3-2.1-3.8-4.3-4.9 2.3-1.4 3.6-2.7 1-5.8.3-.4.7-.7.9-1.2.3-.8.7-1.9.3-2.4-1.1-1.5-.5-2.7-.1-4.2-.3 2.5.7 4.7 2.5 6.4 1.3 1.2 2.7 1.1 3.6-.2.7-1.1.7-2.1-.3-2.9-.9-.9-2.1-1-3.1-.3-.2.1-.3.3-.6.5-.1-1.8 1.7-3.3 3.8-2.8 1.3.3 2.8 1.1 3.6 2.1 2.4 3 2.7 6.5 1.1 9.9z"/><path class="st8" d="M272.9 50.8c1.3-.4 4 1.8 4.2 4.2.3 2.8-1.5 5.2-4.2 5.6v-9.8zM274.3 45.2c.5.5 1.1 1.5.9 1.9-.5.8-1.4 1.3-2.1 2l-.3-.3c-.1-3.1-.3-6.2-.5-9.6.7.1 1.3.2 1.8.4 1.5.6 1.6 1.6.4 2.6-1.4 1.3-1.3 1.7-.2 3z"/><path class="st5" d="M272.4 98.9l.3 3c.1 8.1-3.7 14.3-9.4 19.6-4.2 3.8-8.9 7-14.4 8.8-2.3.7-4.6 1.1-7 .5-1.8-.5-3.1-1.5-3.7-3.2-.9-3.3-1.7-6.6-2.5-10-.5-2.1-.7-4.3-1.2-6.4-.2-.9.1-1.2.9-1.6 11.3-5.3 23-9.6 35.4-11.8 1-.3 1.5.1 1.6 1.1z"/><path class="st3" d="M210.1 125.1c-2.9 6.5-7.4 11.5-13.7 14.8-3.9 2.1-5.6 1.5-6.9-2.6-1.1-3.5-1.8-7.1-2.7-10.7-.1-.3.2-.9.5-1.1 7.7-4 15.7-7.4 24-10h.4c.3 3.5-.2 6.6-1.6 9.6z"/><path class="st6" d="M147.1 152.8c-2.7 1.5-4.4.5-4.8-2.6-.2-1.5-.4-3.1-.5-4.7 0-.4.3-1 .7-1.2 6.2-2.7 12.3-5.3 18.5-7.9.1-.1.3-.1.9-.2-.3.6-.3 1.1-.6 1.3-2 2.3-3.2 5-4.2 7.9-.2.5-.5 1.1-.9 1.4-3.1 2.1-6 4.3-9.1 6z"/><path class="st5" d="M185.6 174.8c-3.1.5-6.4.5-9.5.5-5.6-.1-10.9-1.7-16.1-3.6-5.9-2-11.7-4.2-17.6-6.2-.9-.3-1.8-.7-2.1-1.8 5.8 1.5 11.5 3.2 17.3 4.5 4.4 1 9 1.8 13.5 2.3 2.4.3 5-.1 7.4-.3 1.2-.1 2.4-.7 2.6-2.1.1-1.3-1-2.7-2.5-3.1-1.3-.3-2.6-.3-3.9-.4-1.3-.1-2.5-.1-3.8-.3-1.1-.2-1.9-.9-2.2-1.9 1.3-.5 2.4-.9 3.6-1.3.1-.1.3 0 .5 0 3.4.6 6.9 1.1 10.3 1.8 1 .2 2 .6 2.9 1 2.1 1 3.3 2.7 3.8 5 .6 3-.8 5.5-4.2 5.9zM196.9 174.6c-1.9-.4-3.7-.8-5.3-1.1 0-1.7.3-3.4-.1-4.9-.4-1.5-1.4-3-2.2-4.4h8.7c-.3 3.3-.7 6.8-1.1 10.4z"/><path class="st0" d="M328.1 126.3C327 90.6 312.8 61.2 288.8 41c-1.3-3.4-4.3-5.9-8.1-6.8l-1.2-.3c-.9-.7-1.9-1.3-2.9-1.9.5-3.8-.3-7.2-2.5-10.4-4.4-6.6-9.8-12.5-15.7-17.8-3.3-3-7.4-4.3-12.1-3.6-4.5.7-9 1.3-13.5 2.2-6.2 1.2-12.4 2.9-18.2 5.5-2.2 1-4.2 2.2-5.8 3.8-.3 0-.7-.1-1.1-.1-44.2-2.2-78.2 19.8-98.5 52.2-2.4-6.2-4.8-12.5-7.1-18.7-.1-.4-.1-1.1.1-1.3 1.7-2.3 2.9-4.9 3.6-7.7 1.1-4.8-.4-7.6-5-9.2-4.2-1.5-8.6-2.1-12.9-2.5-3.7-.3-5.8 1.9-5.6 5.4.2 3.9 1.7 7.2 4.4 10 .7.7 1.1 1.5 1.6 2.3.9 1.7 1.7 3.4 2.5 5.1.1.3.3.7.3 1 1.1 4.4 2.3 8.8 3.4 13.1 1.7 7 3.4 13.9 5.1 20.8C93 97.5 89 114.3 87.9 131.6c-3.7 59.2 51.4 121.5 119.9 119.9 31.4-.7 54.9-10.4 77.7-27.6 31.3-23.6 43.8-61.4 42.6-97.6zm-5.8-23.3c-1.7-3.1-3.5-6.3-5.3-9.3-2.5-4.2-6.4-6.1-11.3-5.7-3.1.2-6.4.6-9.4 1.2-7.1 1.4-14.2 3.1-21.4 4.6-.1-.5-.1-1.1-.2-1.6-.5-6.1-.9-12.2-1.3-18.3-.3-3.6-.4-7.2-.5-10.7 0-.4.3-1.1.6-1.1 2-.6 3.3-2 4.2-3.9.3-.8.9-1.1 1.7-1.3 3-.7 5.4-2.3 7.4-4.7 1.7-2.1 2.8-4.6 2.8-7.2 16.5 14.8 27.8 34.6 32.7 58zm-38.9 64.9c-2.3-.7-4.8-1-7.3-1.3-2.3-.3-4.6-.2-6.8-.3-.5 0-1.1-.1-2-.3 3.6-19.4 8-38.5 12.4-57.7 2.6 5.3 5.8 10 9.2 14.7 1.7 2.4 3.8 4.7 7 5 1.5.1 3.3 0 4.8-.5 4.2-1.5 8.2-3.3 12.3-5-.4 1.3-.9 2.8-1.3 4.3-4.8 14.5-10.6 28.7-17.6 42.3-2 3.8-4.2 7.6-7.6 10.4-.1.1-.3.3-.8.6.3-.8.5-1.3.6-1.7.3-1.3.7-2.7.9-4.1.4-3.1-.8-5.4-3.8-6.4zm-91.8.6c-.4-1.5-1.4-3-2.2-4.4h8.7c-.4 3.3-.7 6.9-1.1 10.4-1.9-.4-3.7-.8-5.3-1.1-.1-1.8.2-3.4-.1-4.9zm-13.1-3.6c-1.3-.3-2.6-.3-3.9-.4-1.3-.1-2.5-.1-3.8-.3-1.1-.2-1.9-.9-2.2-1.9 1.3-.5 2.4-.9 3.6-1.3.1-.1.3 0 .5 0 3.4.6 6.9 1.1 10.3 1.8 1 .2 2 .6 2.9 1 2.1 1 3.3 2.7 3.8 5 .7 3.3-.8 5.8-4.1 6.3-3.1.5-6.4.5-9.5.5-5.6-.1-10.9-1.7-16.1-3.6-5.9-2-11.7-4.2-17.6-6.2-.9-.3-1.8-.7-2.1-1.8 5.8 1.5 11.5 3.2 17.3 4.5 4.4 1 9 1.8 13.5 2.3 2.4.3 5-.1 7.4-.3 1.2-.1 2.4-.7 2.6-2.1.1-1.7-1.1-3.1-2.6-3.5zm-10.1-4.3c-.1 0-.2-.5-.3-.9.3-.1.5-.3.7-.2.6.2 1.2.5 1.7.7 0 .2 0 .4-.1.6-.5-.1-1.3-.1-2-.2zm29 2.2H187c-.2 0-.4 0-.5-.1-3.3-1.7-7-2.1-10.6-2.7-2.9-.5-5.8-1.1-8.3-2.8-2.1 2.9-.5 7.5 3.6 8 1.1.1 2.3 0 3.4.2 1.3.3 2.5.7 3.6 1.3.4.2.7 1.1.7 1.5-.1.3-.9.7-1.3.7-2.5.1-5.1.3-7.6 0-4.6-.6-9.2-1.6-14-2.5.4-3.2.7-6 1.1-8.9.7-4.4 1.7-8.7 3.6-12.8 1.5-3.3 3.7-6.2 6.6-8.4 5.2-3.9 10.8-6.9 16.8-9.5.9 3.1 1.7 6.2 2.5 9.1.5 1.7 1.1 3.4 1.9 5 1.1 2.5 2.4 3.3 5.1 2.5 1.9-.5 4-1.3 5.6-2.4 8.4-5.4 13.5-13.1 15.1-23 .2-1.3.2-2.5.3-4 3.6-.9 7.3-1.7 11-2.5.1.1.1.3.1.4-.1.1-.1.3-.2.3-7.8 5.8-13.1 13.4-17.1 22-4.1 8.8-7.8 17.8-9.8 27.4-.1 1-.5 1.2-1.2 1.2zm90.2-119.7c.3 1.9.1 4-.9 6-1.6 3.4-4.4 5.4-8.4 5.8-.7-2.3-2.1-3.8-4.3-4.9 2.3-1.4 3.6-2.7 1-5.8.3-.4.7-.7.9-1.2.3-.8.7-1.9.3-2.4-1.1-1.5-.5-2.7-.1-4.2-.3 2.5.7 4.7 2.5 6.4 1.3 1.2 2.7 1.1 3.6-.2.7-1.1.7-2.1-.3-2.9-.9-.9-2.1-1-3.1-.3-.2.1-.3.3-.6.5-.1-1.1.6-2.1 1.6-2.6 2.8 1.8 5.4 3.7 7.8 5.8zm-13.4 56l2.1-.3v1.7c-.7 0-1.2.1-1.9 0-.2 0-.4-.4-.5-.7-.1-.2.1-.6.3-.7zm-.2-1.6c.3-.2.6-.5.9-.6.5-.1.9-.1 1.5-.2.1.4.2.9.4 1.4-.7 0-1.3.1-1.9 0-.3-.1-.6-.4-.9-.6zm.4 3.9c.6-.1 1.1.1 1.8.1v1.6c-.7 0-1.1.1-1.8-.1-.3-.1-.6-.5-.5-.8 0-.2.2-.7.5-.8zm-.4 2.8h2.1v1.8c-2 .1-2.7-.3-2.4-1.7l.3-.1zm-.2 2.7c2.7-.5 3.1-.2 3 1.9-2.5.4-3.2-.1-3-1.9zm.6 2.6c.7.1 1.5.3 2.5.6-.4.8-.7 1.9-1 1.8-.9-.1-1.8-.4-2.7-.8-.1-.1-.2-.8-.1-1.1.4-.2.9-.5 1.3-.5zm-1.2 3.1c.8 0 1.7.3 2.5.5.2.1.5.8.3.9-.4.5-.9.8-1.3 1.1-.8-.2-1.3-.3-1.7-.5-.3-.2-.9-.8-.7-1.1 0-.3.5-.9.9-.9zm-62.9 36.9c.3.2.8.3 1.2.2 2.9-.8 5.8-1.7 8.6-2.5.4-.1.7-.2 1.3-.3-.2 5-.4 10-.5 14.9.1.1.2.1.3.1 3.3-2.7 6.7-5.5 10.2-8.3 2.3 3.6 4.4 7 6.8 10.8-12.7-.5-25.2-1.1-37.8-1.6.3-1 .5-2.1.9-3.1 2.2-7.6 5-15.1 8.6-22.2.5-.9 1.1-1.5 2.2-1.7 1.9-.2 3.8-.7 6-1.1-2.4 4.3-4.6 8.2-6.8 12.1-.3.6-.7 1.2-.9 1.9-.1 0-.2.6-.1.8zm4.2-45.3c0-2.9 0-5.8-.1-8.6 4.2-1.1 6.8-4 7-7.7 1.2.1 2.4.4 3.6.7 2.8.8 4.5 2.9 5.1 5.6.8 3.5 1.3 7 1.9 10.5.1.7.1 1.4.3 2.1.2 1.7-.9 3.1-2.7 2.9-4.4-.5-8.5.9-12.7 1.9-.7.2-1.4.4-2.3.7-.1-2.8-.1-5.5-.1-8.1zm52.7-46.1c-1.7-2.7-.3-6.4 2.7-7.2-.3 2.6-1.3 4.9-2.7 7.2zm2.3-.6v3.3c-.6-.3-.6-.4 0-3.3zm-.6-7.6c-3.4 1.9-4.2 3.8-3.5 7.6.4 1.9 0 3.6-1.1 5.2-3.4 5.1-8.1 8.6-13.5 11.3-3.8 1.9-7.6 3.6-11.5 5.3-.1-.1-.1-.2-.2-.3 6-5 9.6-11.5 12.1-18.8 1.5-4.4 3.5-8.4 6.4-12.1 2.1-2.7 4.8-4.3 8.2-4.7 2.5-.3 4.4 1.1 4.5 3.6.2 1.2-.2 2.2-1.4 2.9zm-13.4 23.4c5.9-3.3 9.1-6 13.3-11.2 1.3.1 1.7.7 1.7 2 .5 9.6.9 19.3 1.5 28.9v1.8c-13.1 3.1-25.7 7.7-38.2 13.1-.5-2.8-.8-5.5-1.3-8.1-.5-2.4-1.1-4.8-2.1-7.1-1.5-3.8-3.9-5.2-8.6-6 .5-.2.8-.3 1.1-.4 11.3-3.3 22.4-7.2 32.6-13zm18.8-28.1c.5.5 1.1 1.5.9 1.9-.5.8-1.4 1.3-2.1 2l-.3-.3c-.1-3.1-.3-6.2-.5-9.6.7.1 1.3.2 1.8.4 1.5.6 1.6 1.6.4 2.6-1.4 1.3-1.3 1.7-.2 3zm-1.9 53.7l.3 3c.1 8.1-3.7 14.3-9.4 19.6-4.2 3.8-8.9 7-14.4 8.8-2.3.7-4.6 1.1-7 .5-1.8-.5-3.1-1.5-3.7-3.2-.9-3.3-1.7-6.6-2.5-10-.5-2.1-.7-4.3-1.2-6.4-.2-.9.1-1.2.9-1.6 11.3-5.3 23-9.6 35.4-11.8 1-.3 1.5.1 1.6 1.1zM248 132.4c1.3-.5 2.3-1 3.6-1.5.7 1.1 1.4 2.2 2.2 3.5-1.1.7-2 1.3-3.1 2.1-.9-1.4-1.8-2.7-2.7-4.1zm1 4.7c-.9.6-1.9 1.1-3 1.8-1.1-1.7-2.3-3.3-3.6-5.2 1.3-.2 2.5-.4 3.6-.5.2 0 .5.2.7.4.8 1.2 1.5 2.3 2.3 3.5zm3.9-6.9c1-.5 1.9-1.1 2.9-1.5.2-.1.8.1.9.3.5.7 1 1.5 1.5 2.3-1.1.8-2.1 1.5-3.3 2.3-.7-1.1-1.3-2.2-2-3.4zm4.5-2.6c.9-.7 1.8-1.3 2.7-2.1.7 1.1 1.4 2.1 2.1 3.1-.9.7-1.8 1.3-2.8 1.9-.7-.9-1.3-1.8-2-2.9zm3.7-2.7c.9-.6 1.9-1.1 2.9-1.8.7 1.1 1.3 2.1 1.9 3.1-.1.1-.1.2-.1.3-2.5 2.1-3.2 1.9-4.7-1.6zm4-2c-.3-.7-.1-.9 1.5-1.8.7 1 1.4 2 2.2 3.1-.7.5-1.3 1-2.1 1.5-.4-.9-1-1.8-1.6-2.8zm-32.7-9.1c.9-.1.9.8.9 1.3s-.3 1.2-.6 1.3c-1.2.3-2.5.3-3.8.5-.1-.9-.1-1.5-.3-2.5 1.4-.3 2.6-.5 3.8-.6zm-3.7-1.1l3.6-2.1c.7 1.9.7 1.9-1.1 2.3-.8.1-1.6.1-2.4.2 0-.1-.1-.2-.1-.4zm.8 5.2c1.3-.4 2.7-.6 4-.5.3 0 .5 1.7.7 2.7-1.7.1-3.2.3-5 .4.1-1.1 0-2.5.3-2.6zm4.3 3.1c.2 0 .5.3.6.5.3.9.4 1.7.7 2.7-1.5.1-2.6.2-3.8.3-.9.1-1.3-.3-1.3-1.1 0-.7-.1-1.3-.3-2.1 1.3-.1 2.7-.2 4.1-.3zm1.2 4.3c.2.8.5 2 .7 2.7h-5.1c-.1-.7-.2-1.3-.3-2.3 1.7-.2 3.1-.3 4.7-.4zm.4 3.6c.4 0 .8.7 1.2 1.1-.1.2-.1.3-.1.5-1.5.3-3.1.7-4.9 1-.2-.8-.4-1.5-.6-2.4 1.5-.1 3-.3 4.4-.2zm2.7 3.7c-.9.3-1.5.6-2.2.7-1.2.2-1.5.9-1.5 2s-.1 2.2-.1 3.3c-.2.1-.3.1-.5.1-.7-2.1-1.4-4.2-2.2-6.4 2.2-.3 4.2-1.5 6.5.3zm-2.4 2.4c.1-.5 1.3-.9 2.1-1.2.2-.1.9.5 1 .9 1.4 3.4 1.7 2.7-1.5 4.7-.6.3-1.2.7-2.1 1.1.2-2 .2-3.8.5-5.5zm1 5.8c1.5-.9 2.9-1.7 4.5-2.5-.5-1.5-.9-2.9-1.3-4.4 1.2-.4 1.9-.1 2.4.9.8 1.5 1.7 2.9 2.6 4.4-2.1 2.1-6.2 2.8-8.2 1.6zm8.1 13.8c3.6 3.4 7 6.7 10.8 10.3.4-5 .8-9.6 1.2-14.2 2.8 2.9 5.6 5.8 8.8 9 .9-5.2 1.8-10 2.7-14.9 1.1.3 1 1.1.9 1.9-.6 3.7-1.3 7.4-1.9 11.1-.4 2.3-.9 4.7-1.2 7.1-.1.8-.3 1.1-1.2 1.1-5.2-.3-10.2-.6-15.4-.9-2.7-.2-5.3-.5-8.2-.7 1.2-3.4 2.4-6.6 3.5-9.8zm24.7-37c0 .9.1 1.5 0 2.2-.3 1.4.4 1.7 1.5 1.7.2 0 .4.1.6.1.1.1.2.3.3.4-.7.7-1.3 1.3-2 1.9-2.8-2.4-2.9-3.7-.4-6.3zm.8 1.5c0-.7.3-1.4 1.2-1.3.9 0 1.5.5 1.6 1.7-.4.3-.7.9-1.1.9-.9.1-1.7-.3-1.7-1.3zm.7-2.7c.3-1.5 1.7-1.1 4.2-.1-.3.6-.6 1.1-.7 1.4-1.4-.4-2.5-.8-3.5-1.3zm1.9-65.6c1.3-.4 4 1.8 4.2 4.2.3 2.8-1.5 5.2-4.2 5.6v-9.8zm6.3-9.6c0-.4.6-.8 1.1-1.5.6.7.9 1.1 1.2 1.5-.5.3-.9.9-1.4.9-.2.2-.9-.5-.9-.9zm-66.8-16.9c3.8-2.3 8-4.1 11.9-6.3 1.7-.9 2.6-.7 4 .5 5.2 4.6 11.3 7 18 8 3.3.5 6.6 1.2 9.8 2.1 5 1.5 9.1 4.2 11.9 8.8l.9 1.5c.1.2.2.5.3.9-.6.2-1.1.5-1.7.6-6.4 1.3-10.5 5.4-13.3 10.9-1.9 3.9-3.4 7.9-5 11.9-2.7 6.7-7 12.1-13.1 16.1-5.1 3.4-10.7 5.5-16.7 6.6-2.1.4-4.2.3-6.2-.7-2.5-1.1-2.9-3-1.6-5.4.9-1.6 2.1-2.1 3.6-2.9 1.3-.7 2.6-1.7 3.6-2.8 1.3-1.5.9-2.9-.9-3.8-3-1.5-6.3-2-9.6-2.2-.4 0-.9-.1-1.3-.1.7-2.7.7-2.7-.7-5.8 1.8.2 3.4.3 5 .5 1.4.1 2.7.4 4.2.4 2.3-.1 3.7-1.7 3.4-4-.2-1.8-2.1-2.9-4.4-2.4-2.3.5-3.3 2.1-2.7 4.2.1.3.1.5.3.9-3.3-.9-6.6-.6-9.8 0-2.3.4-3.6-.7-3.5-3 .3-7.7 1.2-15.3 3.3-22.8 1.7-5.2 5.7-8.9 10.3-11.7zm-.9 89.1c-8.6 3.3-18.8 7.6-27.8 11-1.3-6.1-4.5-10.7-10.7-12.9 3.3-1.1 8-3.1 11-4.2 6.6-2.5 13.2-5 18.9-9.2 2.5-1.9 4.8-4 7.2-6.1.9-.7 1.5-1.3 2.5-.7 0 3.5.1 7 0 10.4-.1 3.4-.1 6.9-.3 10.3 0 .6-.4 1.3-.8 1.4zm-1.4 11.7c-2.9 6.5-7.4 11.5-13.7 14.8-3.9 2.1-5.6 1.5-6.9-2.6-1.1-3.5-1.8-7.1-2.7-10.7-.1-.3.2-.9.5-1.1 7.7-4 15.7-7.4 24-10h.4c.3 3.5-.2 6.6-1.6 9.6zm-36 3.6c-2.6-.7-5.1-4.1-5.4-7.2-.3-2.7.6-5.4 1.6-7.8.1-.3.9-.5 1.3-.5 2.5.5 5.1 2.1 7 4.4-6 2.8-7.3 6.2-4.5 11.1zm1.5-5.4c.9-1.7 2.4-2.1 4.2-2.2.7 0 1.3.3 1.5 1.1 1.3 3.1 1.3 3.1-1.7 4.6-1.1.5-2.3 1.1-3.5 1.7-1.3-1.8-1.3-3.5-.5-5.2zm41.8-49.4c-.8 3.1-6.2 4.6-9.3 2.7 2-2 5.6-3 9.3-2.7zm-12-4.5c4.9-.3 9.9.6 11.5 3-4.2.3-8-.5-11.5-3zm6.5 9.4c-2.1 1.4-2.1 3.8-1.9 5 .2 1.2 1.1 2.5 2.3 3-1.1 2.1-6.5 6.8-8 8-4.7 3.8-10.1 6.5-15.7 8.8-.1 0-.1 0-.3-.1.1-.1.1-.3.1-.3 2.9-3.3 4.1-7.3 5.4-11.4 1.1-3.3 2.4-6.6 4-9.8.8-1.6 2.2-2.9 3.5-4.2 1.2-1.2 2.8-1.9 4.6-1.9 1 3.1 3.4 2.6 6 2.9zm1.3-17.8c-.4-1.1-.3-1.9.6-2.5.9-.7 2.5-.8 3.4-.2.9.5 1.1 1.3.8 2.5-1.6-1-3.2-1.4-4.8.2zm3.8.6c-.4.4-.9.7-1.4 1.3-.6-.5-1-.9-1.5-1.2.5-.3.9-.8 1.4-.9.6 0 1.1.5 1.5.8zm-12.3 2.2c1.6.1 1.9.2 1.9 1.7.1 1.5-.6 2.5-1.9 2.6h-1.3c1.7 3.3 4.8 4.2 7.8 5.4-.3 0-.6.1-.9.1-5.1-.5-9.1 1.5-12.3 5.4-3 3.7-4.6 8-5.8 12.5-.3 1-.5 2-.8 3-1.3 6.4-5.2 10.7-11.3 12.8-3.2 1.1-6.6 1.7-10 2.3-2.2.4-4.4-.1-6-1.8-.7-.8-1.3-1.9-1.6-3-.4-1.4.5-2.6 1.9-3 1.9-.5 3.6-1.3 4.9-2.9 1.6-2.1 1.5-4-.7-5.4-1.5-.9-3.3-1.3-5-1.9-.7-.2-1.3-.2-2.1-.3-.1-1.1-.1-2.2-.3-3.6 1.2.1 2.5.2 3.7.3 1 .1 2 .4 2.9.4 1.7 0 2.7-1.1 2.7-2.5-.1-1.9-1.5-3.3-3.3-3.3-1.6 0-2.6 1.1-2.7 2.7v1.1c-1.8.2-3.6.5-5.3.7-2.7.3-4-.8-4.1-3.6-.1-4 .9-7.7 2.4-11.3 2.2-5.4 5.4-10.3 10.1-13.9 1.7-1.3 3.6-2.2 5.4-3.2.4-.2 1.2-.1 1.6.1 6.5 4.5 13.7 7.2 21.6 8.1 3 .4 5.8.4 8.5.5zm-36.3 67.8c-1.5.5-2.7.9-4.1 1.3V129c1.4 1 2.7 1.7 4.1 2.6zm.7-34.6c-1 3.3-5.4 5-7.7 2.8 2.4-1.9 4.9-2.3 7.7-2.8zm-9.1-4.5c3.5-.9 7.6.4 9.1 2.9-3.7.4-6.5-.1-9.1-2.9zm5.9-7.2c-.1-.9.5-1.4 1.5-1.7 1.3-.3 2.2.2 2.5 1.3-1.2.2-2.6.3-4 .4zm3.5 1.5l-1.2 1.2c-.5-.5-.9-.8-1.3-1.1.4-.3.8-.9 1.3-.9.3-.1.8.5 1.2.8zm-13 .9c1.9 1 2.5 1.5 3.5 3.6-.6.1-1 .5-1 1.1 0 .7.8 1.7 2.3 2.5.5.3.9.6 1.1 1.1.8.6.2 1.9-.9 2.7-.5.3-1.2.7-1.1 1.2 0 .6.8 1 1.3 1.5.2.2.5.3.9.5-.9 1.5-.8 3-.5 4.6.1.7.1 1.6-.1 2.3-1.8 5.2-5.4 8.9-9.8 12-6 4.2-12.5 7-19.4 9.2-2.1.7-4 .3-5.6-1.1-.9-.8-1.1-1.6-.3-2.7.5-.7.5-1.7.7-2.5-.1-.1-.3-.1-.4-.1.7-.5 1.5-.8 2.2-1.3.6-.5 1.3-.9 1.7-1.5 1.6-1.9 1.2-4-1.1-4.8-2.1-.9-4.5-1.3-6.8-1.9-.3-.1-.6-.1-.8-.1l1.6-4.8h1.8c.8 0 1.7.2 2.5.1 1.1-.1 1.7-.7 1.9-1.9.1-1.1-.5-1.8-1.5-2.1-1.9-.5-3.1.4-3.3 2.4-1.5.3-3.1.7-4.6.9-1.1.2-2-.2-2.5-1.1-.3-.6-.6-1.4-.6-2.1-.2-6.8 1.5-13 6.2-18.1 5.8-6.2 12.9-8.2 21.1-6.2 2.8.7 5.4 2 8.1 3.2.7.3 1.1 1.3 1.7 1.9.4.3 1 1.1 1.7 1.5zm-26.2 30.7c-.7 3.1-5.1 5-7.2 3.1 2-2.1 4.5-2.7 7.2-3.1zm-10.1-3.8c2.1-.6 7.7.7 9.9 2.3-3.1 1.3-7.8.1-9.9-2.3zm6.2-7.8c.5-.3.9-.8 1.3-.8.3 0 .9.7.9 1 0 .3-.6.7-1.1 1.3-.4-.6-.7-1.1-1.1-1.5zm9.2 24.1c2.3.5 3.2 2 3.8 4 .7 2.5 1.1 5 .7 7.7-1.5-3.9-3-7.7-4.5-11.7zm.5-.9c1.5-.7 2.7-1.3 4-1.9 3-1.5 6.1-2.9 9-4.4 4-2.1 7.5-4.7 10.5-8.6 0 2.1-.1 3.8 0 5.5.1 2.1.5 4.2 2 6 .2.2.3.5.3.8-.1 1.9-.1 4-.3 5.9-.1.4-.5.9-.8 1.1-6.2 2.7-12.5 5.4-18.8 8.1-.1.1-.3 0-.4 0-.3-2.2-.5-4.4-.9-6.6-.4-2.7-1.5-4.9-4.6-5.9zm6.5 14.3c6.2-2.7 12.3-5.3 18.5-7.9.1-.1.3-.1.9-.2-.3.6-.3 1.1-.6 1.3-2 2.3-3.2 5-4.2 7.9-.2.5-.5 1.1-.9 1.4-2.9 2-5.9 4.2-9 6-2.7 1.5-4.4.5-4.8-2.6-.2-1.5-.4-3.1-.5-4.7-.1-.4.2-1.1.6-1.2zm57.5 20.5c.1-.3.7-.8 1-.7 6.7.2 13.3.5 20 .8 6.4.3 12.8.7 19.2 1.2 7.1.5 14.2 1.1 21.2 1.7 1.3.1 2.6.3 4.1.4-.1 1.1-.3 2.2-.4 3.3-.1 1.5-.2 3.1-.1 4.7.1 2.1 1.1 3.8 2.9 5 1.4.9 2.8 1.8 4.6 2.9-3.1 0-5.9.1-8.7 0-13.8-.3-27.5-2.3-41.1-4.5-7.8-1.3-15.7-2.5-23.7-3.8.2-3.8 0-7.5 1-11zm68.3 13.6c-.9-1.2-1.5-2.7-1.8-4.2-.5-2.1.3-3.4 2.3-4.3 2.9-1.3 5.9-1.4 9-.7 1.6.3 3.2.8 4.7 1.5 2.5 1.1 3.3 3.7 2.5 6.3-1.1 3.5-4.5 6-7.8 5.8-3.6-.3-6.7-1.5-8.9-4.4zm9.9-73c.3-2.5.5-4.9 1-7.4.3-1.7 1.3-2.7 3.2-3.1 2.9-.5 5.8-1.3 8.7-1.9-5.2 3.1-9.8 6.8-12.5 12.5-.1-.1-.3-.1-.4-.1zm23.9 20.5c-4.2.7-8-.2-11.3-3.1-4.1-3.6-6.7-8.2-7.8-13.5-1.1-4.8.7-8.4 4.4-11.5 3.4-2.8 7.4-4.1 11.7-4.7 1.5-.2 3.1-.3 4.7-.4 7.2 0 12.4 4.6 13.5 12.1 1.4 10.5-4.8 19.2-15.2 21.1zM207 14.1c-.7 1.2-1.3 2.5-1.6 4-1.5 6.4-3.3 12.8-4.8 19.2-.4 1.7-.3 1.5-.7 3.5-4.4-1.8-16.1-3.6-20.5-3.6-4.5 0-16.9 6.2-18 7.8-2.1 2.7-5.2 11.7-1.4 20-1.7 2.8-2.9 6.2-3.6 7.6-1.3-.8-4.8-2-6.4-2.3-4.1-.7-8.1-1.5-12.3-1.8-5.1-.3-9.4 1.4-11.8 6.3-1.9 3.7-3.6 7.4-5.4 11.2-.5 1-.8 2.1-1.3 3.3-.3-.7-.5-1-.6-1.4-2.5-6.5-5.1-13-7.6-19.5-.1-.3-.3-.7-.4-1.1C130.3 35 163.8 12.7 207 14.1zM88.9 38.7c-.8.7-1.6.3-2.1-.4-2.1-2.7-3.4-5.8-3.4-9.3 0-2.5 1.5-3.9 4.3-3.6 3.8.5 7.6 1.4 11.4 2.3 1.4.3 2.8 1.1 4 2.1 1.7 1.3 2.4 3.1 1.7 5.2-.7 2-1.3 4-2.2 5.8-1.2 2.3-2.9 2.3-4.3 0-.2-.3-.3-.6-.5-.9-.9-2.1-2.2-3.6-4.8-3.3-.5.1-.9-.1-1.4-.2-1.3-.3-2.1-1.1-2.2-2.6.6.3 1.1.7 1.6.9.3.1.8.3.9.1 1-1 1.8-.4 2.7.1 1.2.6 2.5.5 3.6-.3 1-.8 1.2-1.9.8-3.1-.2-.6-.7-1.3-1.3-1.6-2.7-1.3-5.6-1.7-8.6-1.1-2.7.5-3.6 3.3-1.9 5.8.5.7 1.1 1.3 1.7 2 .6.6.9 1.5 0 2.1zm8.4-4.9c-.5-.1-1.1.1-1.5-.2-1.1-.6-2.1-1.3-3.1-1.9-2-1.3-2.9-1.3-4.8.2.2-.3.4-.7.7-.9 1.9-1.9 7.3-1.3 8.6 1 .2.4 0 1.2.1 1.8zm-8 7.5c-.1-.2.1-.5.3-.8.5-.8.9-1.6 1.6-2.7 3.3-.5 6.8 2.3 7 6 0 .3-.3.7-.5.9-1.5 1.2-3.1 1.3-4.8.7-1.9-.9-3.1-2.2-3.6-4.1zm28.3 50c.4 1.1.5 2.1.3 3.3-.8 3.3-1.5 6.6-1.3 10.1.1.4.1.9.2 1.3.6 2.7 1.6 3.5 4.4 3.4h.9c.3 2.6-.9 3.8-4 4.1 1.4 2.9 3.9 4.2 7.2 5.1-.9.5-1.7.7-2.3 1.1-.6.5-1.1 1.1-1.6 1.7.7.5 1.3 1.1 2 1.5.4.2.9.2 1.4.3 1.2.2 1.6 1 .9 2.1-1.3 2-1.1 3 .7 4.6 1.5 1.2 3.2 1.5 5 1.2.4-.1.7-.1 1.2-.3 1.3 3.6 2.7 7.1 4 10.7 1.1 2.8 1 2.7-1.7 4.2-4.1 2-8.2 4.1-12.3 6.2-1.3.7-2.5 1.7-3.9 2.6-5.5-23.5-23-96.5-25.5-107.1 2.3.1 4.6-.1 6.8-1.7.5 1.5 1.1 2.8 1.5 4.2 2.2 5.4 13.4 34.2 16.1 41.4zm-26.7 40.3c.9-15.4 4.4-30.5 10-44.5 2.1 8.8 4.2 17.5 6.3 26.3 3.1 13.4 6 26.9 9 40.3.5 2.2.8 4.3-.1 6.6-3.7 9.2-5.2 19-6.8 28.6-.3 1.7-.6 3.5-.9 5.2-12.4-19-18.8-41.1-17.5-62.5zm19.3 65.7c.9-6.6 1.9-13.3 2.9-19.9.7-4.4 1.5-8.7 2.7-12.9 1.5-5.4 4.8-9.5 9.8-12.1 4.8-2.5 9.8-4.8 14.8-7.2.4 2.6.7 5 1.1 7.4.5 3 1.7 3.8 4.6 2.4 2.8-1.4 5.4-3.2 8-4.8.6-.3 1.1-.8 1.5-1.1-.7 5.4-1.3 11-1.9 16.6-1.4-.4-2.9-.9-4.4-1.3-3.1-.9-6.3-1.7-9.4-2.6-1.1-.3-1.4.3-1.3 1.1.3 1.3.7 2.4 2.2 2.9 4 1.5 8 3.1 12.1 4.6.7.3.9.5.9 1.3-.2 13.5 1 26.8 2.9 40.1 1.3 9.4 2.9 18.8 4.6 28.1-20.8-8.9-38.6-24.2-51.1-42.6zm97.4 51.1c-14.9.7-29.3-1.8-42.4-6.8-2.5-13.7-4.9-27.3-7.3-41.1-1.6-9.4-1.7-19-1.9-28.6.4.1.8.2 1.1.3 9.2 3.3 18.6 4.8 28.4 3.8 1.7-.2 3.5-.5 5.2-.7 3.9-.5 6 1.1 6 5 .5 23.6 6.9 45.8 14.7 67.8-1.3.2-2.5.2-3.8.3zm76.1-26.7c-20.6 15.6-36.4 23.6-68.1 26.2-2.1-6-6.3-18.1-6.3-18.3-1-3.3-4.3-14.3-4.4-14.5-2.2-8.5-4.1-17.1-5.2-25.9.5.7-.7-4.7-.8-7.4-.1-1.5 0-2.9 0-4.6 4.4.9 8.4 1.8 12.4 2.5 7.9 1.4 15.9 2.9 23.8 4 7.2 1.1 14.5 1.9 21.8 2.5 6.8.6 13.6.8 20.4-.1 6.4-.9 11.9-3.8 15.1-9.7 2.7-4.9 5.3-9.9 7.4-15.1 6-14.5 11.9-29 17.6-43.6 1.3-3.4 1.8-7.2 2.6-10.9.2-.8 0-1.6.2-2.5.7 1.7 1.5 3.4 2.2 5.1l1.5 3.6c.6 4.4.9 8.9 1.1 13.5 1.3 35.3-10.9 72.1-41.3 95.2z"/><path class="st9" d="M110.2 197.3c.9-6.6 1.9-13.3 2.9-19.9.7-4.4 1.5-8.7 2.7-12.9 1.5-5.4 4.8-9.5 9.8-12.1 4.8-2.5 9.8-4.8 14.8-7.2.4 2.6.7 5 1.1 7.4.5 3 1.7 3.8 4.6 2.4 2.8-1.4 5.4-3.2 8-4.8.6-.3 1.1-.8 1.5-1.1-.7 5.4-1.3 11-1.9 16.6-1.4-.4-2.9-.9-4.4-1.3-3.1-.9-6.3-1.7-9.4-2.6-1.1-.3-1.4.3-1.3 1.1.3 1.3.7 2.4 2.2 2.9 4 1.5 8 3.1 12.1 4.6.7.3.9.5.9 1.3-.2 13.5 1 26.8 2.9 40.1 1.3 9.4 2.9 18.8 4.6 28.1-20.8-8.9-38.6-24.2-51.1-42.6zM117.6 91.3c.4 1.1.5 2.1.3 3.3-.8 3.3-1.5 6.6-1.3 10.1.1.4.1.9.2 1.3.6 2.7 1.6 3.5 4.4 3.4h.9c.3 2.6-.9 3.8-4 4.1 1.4 2.9 3.9 4.2 7.2 5.1-.9.5-1.7.7-2.3 1.1-.6.5-1.1 1.1-1.6 1.7.7.5 1.3 1.1 2 1.5.4.2.9.2 1.4.3 1.2.2 1.6 1 .9 2.1-1.3 2-1.1 3 .7 4.6 1.5 1.2 3.2 1.5 5 1.2.4-.1.7-.1 1.2-.3 1.3 3.6 2.7 7.1 4 10.7 1.1 2.8 1 2.7-1.7 4.2-4.1 2-8.2 4.1-12.3 6.2-1.3.7-2.5 1.7-3.9 2.6-5.5-23.5-23-96.5-25.5-107.1 2.3.1 4.6-.1 6.8-1.7.5 1.5 1.1 2.8 1.5 4.2 2.2 5.4 13.4 34.2 16.1 41.4z"/></svg>