<svg xmlns="http://www.w3.org/2000/svg" xmlns:xlink="http://www.w3.org/1999/xlink" version="1.1" id="Layer_1" x="0" y="0" viewBox="0 0 367.2 375.5" xml:space="preserve" enable-background="new 0 0 367.2 375.5">
  <style type="text/css">
    
	.st0{fill:#E3D9B2;}
	.st1{fill:#E6650D;}
	.st2{fill:#B18335;}
	.st3{fill:#0089C9;}
	.st4{fill:#D5AC5C;}
	.st5{fill:#FFD36D;}
	.st6{fill:#FAB940;}
	.st7{fill:#3B2D00;}
	.st8{fill:#DACE98;}
	.st9{fill:#F19100;}

  </style>
  <path class="st0" d="M189.3 21.2C85 15.8 18 102.8 12.1 197.2c-1.9 31.4 7.3 63.7 24.7 91.9 57.9-28.7 296.3-121 322.7-133.7C343.5 77.4 281 25.9 189.3 21.2z"/>
  <path class="st1" d="M110.2 248.5c0.6-4.8 1-9 1.6-13.3 1-6.6 2.5-13 5.3-19.1 2.3-5 5.5-9.2 9.8-12.5 7.7-5.8 16.1-10.3 25.1-14.2 1.3 4.7 2.5 9.2 3.8 13.6 0.8 2.5 1.7 5.1 2.8 7.5 1.7 3.8 3.6 4.9 7.6 3.8 2.9-0.8 5.9-1.9 8.4-3.6 12.6-8 20.2-19.5 22.5-34.3 0.3-1.9 0.3-3.8 0.4-5.9 5.4-1.3 10.9-2.6 16.4-3.8 0.1 0.2 0.2 0.4 0.2 0.6 -0.1 0.2-0.2 0.4-0.3 0.5 -11.6 8.6-19.6 20-25.5 32.9 -6.1 13.2-11.7 26.6-14.7 40.9 0 1.1-2.7 21.9-2.6 27.7 0.7 35.2 10.3 68.4 21.9 101.2 -1.9 0.1-3.8 0.2-5.7 0.3 -22.3 1.1-43.7-2.7-63.3-10.2 -3.7-20.4-7.3-40.8-10.9-61.3 -2.4-14-2.6-28.3-2.9-42.7C110.7 256.8 110.2 248.5 110.2 248.5z"/>
  <path class="st2" d="M182.9 95.2c2.4 0.1 2.8 0.3 2.9 2.5 0.1 2.2-0.9 3.7-2.9 3.9 -0.6 0-1.1 0-2 0 2.6 4.9 7.2 6.2 11.7 8 -0.4 0-0.9 0.2-1.3 0.1 -7.6-0.8-13.6 2.3-18.3 8.1 -4.5 5.5-6.8 11.9-8.6 18.7 -0.4 1.5-0.8 3-1.2 4.5 -1.9 9.6-7.8 16-16.9 19.1 -4.8 1.7-9.9 2.6-15 3.5 -3.3 0.6-6.6-0.1-9-2.7 -1.1-1.2-2-2.9-2.4-4.5 -0.6-2.1 0.8-3.9 2.9-4.5 2.8-0.8 5.4-1.9 7.3-4.3 2.4-3.1 2.2-5.9-1.1-8 -2.2-1.4-4.9-2-7.4-2.9 -1-0.3-2-0.3-3.1-0.5 -0.1-1.7-0.2-3.3-0.4-5.4 1.8 0.2 3.7 0.3 5.5 0.5 1.5 0.2 3 0.6 4.4 0.6 2.6 0 4.1-1.7 4-3.8 -0.1-2.8-2.3-5-5-4.9 -2.4 0-3.9 1.6-4 4.1 0 0.6 0 1.3 0 1.7 -2.7 0.3-5.3 0.7-7.9 1 -4.1 0.5-6-1.2-6.1-5.3 -0.2-5.9 1.4-11.5 3.6-16.9 3.3-8.1 8-15.4 15.1-20.8 2.5-1.9 5.3-3.3 8-4.8 0.6-0.3 1.8-0.2 2.4 0.2 9.7 6.7 20.5 10.7 32.2 12.1C174.7 95.1 178.8 95.1 182.9 95.2z"/>
  <path class="st3" d="M180 226.1c5.3-15 19.7-40.3 19.7-40.3s93.4-43.6 97.7-45.6c5-1.2 41.8-9 41-6 13.8 11.2 17 22 17.1 21.3 1.1 2.5 2.2 5.1 3.3 7.6 0.8 1.8 1.5 3.6 2.3 5.4 0.9 6.6 1.4 13.3 1.7 20.2 1.7 52.7-16.5 107.7-61.9 142.1 -30.7 23.3-56.6 37.1-103.9 41 -0.3 1.2-12-37.3-17.7-59.3C167 264.1 174.7 241.1 180 226.1z"/>
  <path class="st4" d="M283.4 138.8c0 0.8 0 1.7 0 2.7 -19.5 4.7-38.3 11.5-57.1 19.6 -0.7-4.2-1.2-8.2-2-12.1 -0.8-3.6-1.6-7.2-3.1-10.6 -2.3-5.6-5.8-7.8-12.8-8.9 0.8-0.3 1.2-0.5 1.6-0.6 16.8-5 33.3-10.8 48.6-19.5 8.8-5 13.6-9 19.8-16.7 1.9 0.1 2.5 1 2.6 3C281.9 110 282.7 124.4 283.4 138.8z"/>
  <path class="st4" d="M281 70.1c0.1 1.9-0.5 3.4-2.3 4.4 -5.1 2.9-6.3 5.6-5.2 11.3 0.6 2.9 0 5.3-1.6 7.8 -5.1 7.6-12.1 12.8-20.1 16.9 -5.6 2.9-11.4 5.3-17.1 7.9 -0.1-0.2-0.2-0.3-0.3-0.5 8.9-7.5 14.4-17.2 18.1-28 2.2-6.5 5.2-12.6 9.5-18 3.1-4 7.1-6.4 12.2-7C278.1 64.4 280.8 66.5 281 70.1z"/>
  <path class="st4" d="M179.2 54c2.3-8 8.3-13.5 15.2-17.7 5.7-3.4 12-6.1 17.8-9.4 2.5-1.4 3.9-1.1 5.9 0.8 7.7 6.8 16.9 10.4 26.9 12 4.9 0.8 9.9 1.8 14.7 3.2 7.4 2.2 13.6 6.3 17.7 13.1 0.4 0.7 0.9 1.5 1.3 2.2 0.2 0.3 0.3 0.7 0.5 1.3 -0.9 0.3-1.7 0.7-2.6 0.9 -9.5 2-15.7 8-19.8 16.3 -2.8 5.8-5.1 11.8-7.5 17.8 -4.1 10-10.5 18.1-19.5 24.1 -7.6 5.1-16 8.2-24.9 9.9 -3.1 0.6-6.2 0.4-9.2-1 -3.7-1.7-4.3-4.5-2.4-8 1.3-2.4 3.2-3.2 5.3-4.4 1.9-1.1 3.9-2.5 5.3-4.2 2-2.3 1.4-4.3-1.3-5.6 -4.5-2.2-9.4-3-14.4-3.3 -0.6 0-1.3-0.1-1.9-0.2 1-4.1 1-4.1-1.1-8.7 2.7 0.3 5.1 0.5 7.5 0.8 2.1 0.2 4.1 0.6 6.2 0.6 3.4-0.1 5.5-2.6 5.1-6 -0.3-2.7-3.2-4.3-6.5-3.6 -3.4 0.7-4.9 3.1-4 6.3 0.1 0.4 0.2 0.7 0.4 1.3 -5-1.4-9.8-0.9-14.6 0 -3.5 0.6-5.3-1-5.2-4.5C174.7 76.4 176.1 65 179.2 54z"/>
  <path class="st4" d="M195.6 91c-0.6-1.6-0.4-2.8 0.9-3.8 1.4-1.1 3.7-1.2 5.1-0.3 1.3 0.8 1.7 1.9 1.2 3.7C200.4 89.2 198 88.7 195.6 91z"/>
  <path class="st4" d="M201.3 91.9c-0.6 0.6-1.3 1.1-2.1 1.9 -0.9-0.8-1.5-1.3-2.2-1.8 0.7-0.5 1.4-1.2 2.1-1.3C199.9 90.8 200.6 91.5 201.3 91.9z"/>
  <path class="st2" d="M129.8 144.8c-1.5 5-8 7.4-11.5 4.2C121.8 146.1 125.5 145.5 129.8 144.8z"/>
  <path class="st2" d="M116.2 138.1c5.2-1.4 11.4 0.6 13.6 4.4C124.2 143 120.1 142.3 116.2 138.1z"/>
  <path class="st2" d="M130.2 129.5c-0.5 0.5-1 1.1-1.8 1.8 -0.8-0.7-1.4-1.2-1.9-1.7 0.6-0.5 1.2-1.3 1.9-1.3C128.9 128.2 129.6 129.1 130.2 129.5z"/>
  <path class="st2" d="M193.1 169.3c-12.8 5-28.1 11.4-41.5 16.4 -2-9.1-6.7-15.9-15.9-19.3 5-1.7 12-4.6 16.4-6.3 9.8-3.8 19.7-7.4 28.2-13.7 3.7-2.8 7.2-5.9 10.7-9.1 1.3-1.1 2.3-1.9 3.7-1 0 5.2 0.1 10.4 0 15.6 -0.1 5.1-0.2 10.3-0.4 15.4C194.2 168.1 193.6 169.1 193.1 169.3z"/>
  <path class="st2" d="M193.6 117.7c-3.1 2.1-3.1 5.6-2.8 7.4s1.7 3.7 3.6 4.5c-1.7 3.1-9.7 10.1-11.9 11.9 -7 5.7-15.1 9.7-23.4 13.2 -0.1 0-0.2 0-0.4-0.1 0.1-0.2 0.1-0.4 0.2-0.5 4.4-4.9 6.1-10.9 8-17 1.6-5 3.6-9.9 5.9-14.6 1.2-2.4 3.3-4.4 5.2-6.3 1.8-1.8 4.2-2.8 6.9-2.8C186.2 117.9 189.8 117.2 193.6 117.7z"/>
  <path class="st5" d="M65.9 159.4c0.7-0.5 1.3-1.2 2.1-1.2 0.5 0 1.4 1 1.4 1.5s-0.9 1.1-1.7 2C66.9 160.7 66.4 160.1 65.9 159.4z"/>
  <path class="st5" d="M87.4 202.7c-0.7-3.9-2.4-7.2-6.9-8.8 2.2-1.1 4.1-2 6-2.9 4.5-2.2 9.1-4.3 13.5-6.6 5.9-3.1 11.2-7 15.7-12.8 0 3.1-0.1 5.6 0 8.2 0.2 3.2 0.8 6.3 3 8.9 0.3 0.3 0.4 0.8 0.4 1.2 -0.1 2.9-0.2 5.9-0.5 8.8 -0.1 0.6-0.7 1.4-1.2 1.7 -9.3 4.1-18.6 8.1-28 12.1 -0.2 0.1-0.4 0-0.6 0C88.3 209.3 88 206 87.4 202.7z"/>
  <path class="st5" d="M61.8 129.8c8.6-9.3 19.3-12.3 31.5-9.3 4.2 1.1 8.1 3 12.1 4.8 1.1 0.5 1.7 1.9 2.6 2.8 0.9 1 1.7 2.2 2.8 2.8 2.8 1.5 3.7 2.2 5.2 5.4 -0.9 0.1-1.5 0.8-1.5 1.6 0 1 1.2 2.5 3.4 3.8 0.7 0.4 1.4 0.9 1.7 1.6 1.2 0.9 0.3 2.8-1.3 4 -0.7 0.4-1.8 1-1.7 1.8 0 0.9 1.2 1.5 1.9 2.2 0.3 0.3 0.8 0.4 1.4 0.7 -1.4 2.3-1.2 4.5-0.8 6.8 0.2 1.1 0.2 2.4-0.2 3.5 -2.7 7.7-8.1 13.3-14.6 17.9 -8.9 6.2-18.7 10.5-29 13.7 -3.1 1-6 0.5-8.4-1.7 -1.3-1.2-1.6-2.4-0.4-4.1 0.7-1 0.8-2.5 1.1-3.8 -0.2-0.1-0.4-0.2-0.6-0.2 1.1-0.7 2.3-1.2 3.3-2 0.9-0.7 1.9-1.4 2.6-2.3 2.4-2.9 1.8-5.9-1.7-7.2 -3.2-1.3-6.7-1.9-10.1-2.8 -0.4-0.1-0.9-0.1-1.2-0.2 0.8-2.3 1.5-4.5 2.4-7.1 0.5 0 1.6 0 2.7 0 1.2 0 2.5 0.3 3.7 0.2 1.6-0.1 2.6-1.1 2.8-2.8 0.1-1.7-0.7-2.7-2.3-3.2 -2.8-0.8-4.6 0.6-4.9 3.6 -2.3 0.5-4.6 1-6.9 1.4 -1.6 0.3-3-0.3-3.8-1.7 -0.5-0.9-0.9-2.1-0.9-3.1C52.3 146.6 54.8 137.3 61.8 129.8z"/>
  <path class="st5" d="M71.7 176.7c-1 4.6-7.6 7.5-10.8 4.7C63.9 178.3 67.7 177.4 71.7 176.7z"/>
  <path class="st5" d="M56.6 171.1c3.1-0.9 11.5 1 14.8 3.5C66.7 176.4 59.8 174.7 56.6 171.1z"/>
  <path class="st2" d="M127.2 124.9c-1.5 0.4-2.3 1.2-2.2 2.5 2.1-0.2 4.1-0.3 6-0.6C130.5 125.2 129.2 124.4 127.2 124.9z"/>
  <path class="st4" d="M201.8 110.3c-1.2 4.6-9.2 6.9-13.9 4C191 111.4 196.3 109.9 201.8 110.3z"/>
  <path class="st4" d="M183.9 103.6c7.3-0.4 14.8 0.9 17.1 4.5C194.8 108.5 189.2 107.3 183.9 103.6z"/>
  <path class="st4" d="M276.2 86.8c-2.5-4.1-0.4-9.6 4.1-10.8C279.8 79.9 278.3 83.3 276.2 86.8z"/>
  <path class="st4" d="M128.7 239.7c-0.2 0-0.3-0.8-0.5-1.3 0.4-0.1 0.8-0.4 1.1-0.3 0.9 0.3 1.8 0.7 2.6 1 0 0.3 0 0.6-0.1 0.9C130.9 239.9 129.8 239.9 128.7 239.7z"/>
  <path class="st6" d="M72.5 220.6"/>
  <path class="st7" d="M137 106.7c0.6-0.1 7.4-4 14.3-4.5 6.1-0.5 13.3-0.1 14.1 1.3 1.2 0.6 1.5-2.1 1.4-2.8 -1-0.8-7.7-2.4-15-2.6 -10.5-0.2-13.6 1.6-13.6 1.6S136.4 106.8 137 106.7z"/>
  <path class="st7" d="M138.1 110.7c6.4 6.6 20.7 4.1 24.7-2.8C157.7 105.8 143.6 104.4 138.1 110.7zM140.1 111.2c0.5-0.9 1.5-1.6 2.8-2.1 0 0 0 0 0 0.1 -0.5 1.3 1.1 3.3 2.2 4.3C142.2 113 140.1 112.1 140.1 111.2zM159.9 109.6c-2.3 2.8-6.6 3.9-10.6 4 2.1-0.6 3.3-4 3.6-5.8C155.9 108 158.6 108.6 159.9 109.6z"/>
  <path class="st7" d="M219 61.8c3-1.9 6-3.8 9.1-5.7 6-3.6 12.3-6.4 19.5-5.5 0.1 0 0.3 0.1 0.4 0 0.5-0.3 1.2-0.5 1.3-0.9s-0.2-1.3-0.5-1.5c-1.3-0.6-2.7-1.4-4.1-1.5 -4.1-0.1-8.3-0.5-12.2 0.2 -8.1 1.6-16 3.9-24.6 6 1.8 2.8 3.2 5.4 5 7.8C214.7 63.4 216.4 63.5 219 61.8z"/>
  <path class="st7" d="M218.8 69.9c7.5 5.7 23 4.3 31.1-2.9C241.9 60 222.9 61.9 218.8 69.9zM220.6 70.2c0-0.2-0.1-0.5-0.1-0.7 1.2-0.7 2.5-1.4 3.7-2.1 0.6 1.4 1.1 2.5 1.7 3.9C224 70.9 222.3 70.6 220.6 70.2zM230.2 69c-0.4 0-0.8-0.6-1.2-0.9 0.5-0.5 0.8-1.1 1.4-1.3 0.4-0.1 1 0.5 2 1.1C231.3 68.4 230.8 68.9 230.2 69zM238.2 64.7c3 0.7 6.1 1.4 9.3 2.1 0 0.2 0 0.4-0.1 0.6 -3.6 2.5-7.7 3.3-11.9 3.9C236.4 69.3 237.2 67.3 238.2 64.7z"/>
  <path class="st7" d="M90.7 143.2c2.1-0.9 4.2-1.8 6.3-2.7 2.9-1.2 5.7-1.4 8.3 1 1.6-1.3 2-2.1 1.6-3.8 -0.8-3-2.9-4.5-6.8-4 -5.7 0.7-11.4 1.8-17.5 2.8 0.5 1.6 0.7 3.1 1.3 4.3C85.6 144.1 87.3 144.6 90.7 143.2z"/>
  <path class="st7" d="M87.9 148.2c3.6 6.1 15.3 6.4 18.8-0.8C102 143.9 93.7 144.2 87.9 148.2zM92.7 150.9c-1-0.6-1.7-1.1-3-1.9 1.3-0.6 2-0.9 3-1.3C92.7 148.7 92.7 149.7 92.7 150.9zM100.1 147c1.6 0.2 3.4 0.4 5.6 0.6 -1.8 2.4-3.6 3.7-6 4C99.9 150.1 100 148.8 100.1 147z"/>
  <path class="st5" d="M10.1 57.8c-1.2 1-2.4 0.4-3.2-0.6 -3.1-4.1-5.1-8.7-5.1-13.9 0-3.7 2.3-5.8 6.4-5.3 5.7 0.8 11.4 2.1 17 3.5 2.1 0.5 4.2 1.7 6 3.1 2.5 1.9 3.6 4.6 2.6 7.8 -1 3-1.9 6-3.3 8.7 -1.8 3.5-4.3 3.4-6.4 0 -0.3-0.4-0.5-0.9-0.8-1.4 -1.4-3.1-3.3-5.4-7.1-5 -0.7 0.1-1.4-0.2-2.1-0.3 -2-0.4-3.1-1.7-3.3-3.9 0.9 0.5 1.6 1 2.4 1.3 0.4 0.2 1.2 0.4 1.4 0.2 1.5-1.5 2.7-0.6 4.1 0.1 1.8 0.9 3.7 0.8 5.3-0.5 1.5-1.2 1.8-2.9 1.2-4.6 -0.3-0.9-1.1-2-2-2.4 -4-1.9-8.4-2.5-12.8-1.7 -4 0.7-5.3 5-2.8 8.6 0.7 1.1 1.7 1.9 2.5 3C10.9 55.6 11.4 56.8 10.1 57.8z"/>
  <path class="st5" d="M10.6 61.6c-0.1-0.3 0.2-0.8 0.4-1.2 0.7-1.2 1.4-2.4 2.4-4.1 5-0.7 10.2 3.5 10.5 9 0 0.5-0.4 1-0.8 1.4 -2.2 1.8-4.6 2-7.2 1C13.1 66.5 11.3 64.5 10.6 61.6z"/>
  <path class="st5" d="M22.5 50.4c-0.8-0.1-1.7 0.1-2.3-0.3 -1.6-0.9-3.1-1.9-4.6-2.9 -3-2-4.3-1.9-7.1 0.3 0.3-0.5 0.6-1 1-1.4 2.8-2.8 10.9-1.9 12.9 1.5C22.7 48.4 22.4 49.5 22.5 50.4z"/>
  <path class="st6" d="M181.5 348.2l12.1 5.6"/>
  <path class="st8" d="M224.2 169.9c1.4-0.1 1.3 1.2 1.3 1.9s-0.4 1.8-0.9 1.9c-1.8 0.4-3.7 0.5-5.6 0.7 -0.1-1.3-0.2-2.3-0.4-3.8C220.6 170.4 222.4 170.1 224.2 169.9z"/>
  <path class="st8" d="M218.8 168.3c1.8-1 3.6-2.1 5.4-3.1 1 2.9 1 2.9-1.6 3.4 -1.2 0.2-2.4 0.2-3.6 0.3C218.9 168.7 218.8 168.5 218.8 168.3z"/>
  <path class="st8" d="M219.9 176c1.9-0.6 4-0.9 6-0.8 0.4 0 0.7 2.5 1.1 4.1 -2.6 0.2-4.8 0.4-7.5 0.6C219.6 178.3 219.4 176.2 219.9 176z"/>
  <path class="st8" d="M226.3 180.6c0.3 0 0.8 0.5 0.9 0.8 0.4 1.3 0.6 2.6 1 4 -2.2 0.2-3.9 0.3-5.7 0.5 -1.3 0.2-1.9-0.4-1.9-1.7 0-1-0.2-1.9-0.4-3.1C222.2 181 224.2 180.8 226.3 180.6z"/>
  <path class="st8" d="M229.2 201.6c0.2-0.8 2-1.4 3.2-1.8 0.3-0.1 1.3 0.8 1.5 1.4 2.1 5.1 2.6 4.1-2.3 7 -0.9 0.5-1.8 1-3.1 1.7C228.8 206.8 228.7 204.1 229.2 201.6z"/>
  <path class="st8" d="M228.2 187c0.3 1.2 0.7 3 1.1 4 -2.6 0-5 0-7.6 0 -0.1-1-0.3-2-0.5-3.4C223.6 187.4 225.8 187.2 228.2 187z"/>
  <path class="st8" d="M228.7 192.4c0.6 0 1.2 1 1.8 1.6 -0.1 0.3-0.1 0.5-0.2 0.8 -2.3 0.5-4.7 1-7.3 1.5 -0.3-1.2-0.6-2.3-0.9-3.6C224.4 192.5 226.6 192.3 228.7 192.4z"/>
  <path class="st8" d="M232.7 198c-1.4 0.5-2.3 0.9-3.3 1 -1.8 0.3-2.3 1.3-2.3 3s-0.1 3.3-0.2 5c-0.3 0.1-0.5 0.1-0.8 0.2 -1.1-3.1-2.1-6.2-3.3-9.5C226.3 197.1 229.3 195.3 232.7 198z"/>
  <path class="st7" d="M230.6 204c-0.1 0.4 0.7 1.3 1.2 1.3 0.6 0 1.2-0.6 2.3-1.2 -1-0.8-1.6-1.5-2.1-1.5S230.7 203.5 230.6 204z"/>
  <path class="st8" d="M230.6 210.2c2.3-1.3 4.4-2.5 6.7-3.7 -0.7-2.2-1.4-4.4-2-6.5 1.8-0.6 2.8-0.1 3.6 1.3 1.2 2.3 2.6 4.4 3.9 6.6C239.8 210.9 233.7 212 230.6 210.2z"/>
  <path class="st8" d="M247.5 197.7c1.9-0.8 3.4-1.5 5.3-2.3 1 1.6 2.1 3.3 3.3 5.2 -1.6 1.1-3 2-4.6 3.1C250.2 201.7 248.9 199.8 247.5 197.7z"/>
  <path class="st8" d="M249.1 204.7c-1.4 0.9-2.8 1.7-4.5 2.7 -1.7-2.6-3.4-5-5.3-7.8 2-0.3 3.7-0.6 5.3-0.7 0.3 0 0.8 0.3 1 0.6C246.8 201.2 247.9 202.9 249.1 204.7z"/>
  <path class="st8" d="M254.8 194.4c1.5-0.8 2.9-1.6 4.3-2.3 0.3-0.2 1.2 0.1 1.4 0.5 0.8 1.1 1.5 2.2 2.3 3.5 -1.6 1.2-3.2 2.2-4.9 3.4C256.8 197.8 255.9 196.2 254.8 194.4z"/>
  <path class="st8" d="M261.5 190.5c1.4-1 2.7-2 4.1-3.1 1.1 1.6 2.1 3.1 3.2 4.7 -1.4 1-2.7 1.9-4.2 2.9C263.5 193.5 262.6 192.1 261.5 190.5z"/>
  <path class="st8" d="M267.1 186.4c1.4-0.9 2.8-1.7 4.4-2.7 1 1.6 1.9 3.1 2.9 4.6 -0.1 0.2-0.1 0.3-0.2 0.4C270.4 192 269.4 191.7 267.1 186.4z"/>
  <path class="st8" d="M273.1 183.5c-0.5-1-0.2-1.4 2.3-2.7 1.1 1.5 2.1 3 3.3 4.7 -1.1 0.8-2 1.5-3.1 2.3C274.8 186.3 273.9 185 273.1 183.5z"/>
  <path class="st8" d="M279.6 175.6c0 1.3 0.2 2.3 0 3.3 -0.5 2.1 0.6 2.5 2.2 2.5 0.3 0 0.6 0.1 0.9 0.1 0.2 0.2 0.3 0.4 0.4 0.6 -1 1-2 2-3 2.9C276 181.3 275.9 179.4 279.6 175.6z"/>
  <path class="st8" d="M287 163.5c1.1 0.1 2.2 0.5 3.8 0.9 -0.6 1.2-1.1 2.8-1.5 2.7 -1.4-0.1-2.7-0.6-4-1.2 -0.2-0.1-0.3-1.2-0.1-1.6C285.6 163.9 286.4 163.5 287 163.5z"/>
  <path class="st8" d="M285.2 168.1c1.2 0 2.5 0.4 3.7 0.8 0.3 0.1 0.7 1.2 0.5 1.4 -0.6 0.7-1.4 1.2-2 1.7 -1.2-0.3-2-0.4-2.6-0.7 -0.5-0.3-1.3-1.2-1.1-1.6C283.8 169 284.6 168.1 285.2 168.1z"/>
  <path class="st8" d="M280.8 177.8c0-1.1 0.5-2.1 1.8-2 1.4 0 2.2 0.8 2.4 2.6 -0.6 0.5-1.1 1.3-1.7 1.4C282 179.9 280.9 179.3 280.8 177.8z"/>
  <path class="st8" d="M281.8 173.8c0.5-2.2 2.6-1.6 6.3-0.1 -0.5 0.9-0.9 1.7-1.1 2.1C285 175.1 283.4 174.5 281.8 173.8z"/>
  <path class="st8" d="M286.6 148c1-0.2 2.1-0.3 3.1-0.4 0 1 0 1.6 0 2.5 -1 0-1.8 0.1-2.9 0 -0.3 0-0.6-0.6-0.7-1C286.1 148.7 286.3 148.1 286.6 148z"/>
  <path class="st8" d="M286.3 145.5c0.5-0.3 0.9-0.7 1.4-0.9 0.7-0.2 1.4-0.2 2.3-0.3 0.2 0.6 0.3 1.3 0.6 2.1 -1.1 0-2 0.1-2.9 0C287.2 146.3 286.8 145.8 286.3 145.5z"/>
  <path class="st8" d="M287 151.4c0.9-0.2 1.7 0.1 2.7 0.1 0 0.9 0 1.6 0 2.4 -1 0-1.7 0.1-2.7-0.1 -0.4-0.1-0.9-0.8-0.8-1.2C286.2 152.2 286.5 151.5 287 151.4z"/>
  <path class="st8" d="M286.4 155.5c1.1 0 2.2 0 3.2 0 0 0.9 0 1.7 0 2.7 -3 0.1-4.1-0.5-3.6-2.6C286.3 155.5 286.3 155.5 286.4 155.5z"/>
  <path class="st8" d="M286 159.6c4-0.7 4.7-0.3 4.5 2.8C286.8 163 285.7 162.3 286 159.6z"/>
  <path class="st8" d="M128.7 196.5c-2.2 0.7-4.1 1.3-6.1 2 0-2 0-3.8 0-5.8C124.7 194 126.6 195.1 128.7 196.5z"/>
  <path class="st8" d="M279.7 85.8c0 2 0 3.5 0 5C278.7 90.3 278.7 90.1 279.7 85.8z"/>
  <path class="st7" d="M207.9 53c8.6-2.1 16.5-4.4 24.6-6 3.9-0.8 8.2-0.4 12.2-0.2 1.4 0 2.8 0.8 4.1 1.5 0.3 0.2 0.6 1.1 0.5 1.5s-0.8 0.7-1.3 0.9c-0.1 0.1-0.3 0-0.4 0 -7.3-0.9-13.5 1.8-19.5 5.5 -3.1 1.9-6.1 3.8-9.1 5.7 -2.7 1.7-4.4 1.5-6.2-1C211.1 58.4 209.6 55.8 207.9 53z"/>
  <path class="st7" d="M294.1 61.5c0-0.6 0.9-1.2 1.7-2.2 0.9 1 1.4 1.6 1.8 2.3 -0.7 0.5-1.4 1.3-2.1 1.4C295.1 63.1 294.1 62.1 294.1 61.5z"/>
  <path class="st8" d="M305.3 73.2c-2.4 5.1-6.6 8-12.5 8.6 -1-3.4-3.2-5.7-6.4-7.3 3.5-2.1 5.4-4 1.5-8.6 0.4-0.6 1.1-1.1 1.3-1.8 0.4-1.2 1-2.9 0.5-3.6 -1.7-2.2-0.8-4.1-0.1-6.2 -0.4 3.8 1 7 3.8 9.5 2 1.8 4.1 1.6 5.4-0.3 1.1-1.6 1-3.1-0.4-4.4 -1.3-1.3-3.2-1.5-4.6-0.4 -0.3 0.2-0.5 0.5-0.9 0.8 -0.2-2.7 2.6-5 5.6-4.2 2 0.5 4.2 1.6 5.4 3.2C307.3 62.9 307.7 68.1 305.3 73.2z"/>
  <path class="st8" d="M284.7 75.9c2-0.6 5.9 2.7 6.3 6.3 0.5 4.2-2.3 7.7-6.3 8.4C284.7 85.7 284.7 80.8 284.7 75.9z"/>
  <path class="st8" d="M286.8 67.5c0.7 0.8 1.7 2.3 1.4 2.8 -0.7 1.2-2.1 2-3.2 3 -0.2-0.1-0.3-0.3-0.5-0.4 -0.2-4.6-0.5-9.2-0.7-14.3 1 0.2 1.9 0.3 2.7 0.6 2.2 0.9 2.4 2.4 0.6 3.9C285 64.9 285.1 65.5 286.8 67.5z"/>
  <path class="st4" d="M284 147.6c0.2 1.5 0.3 3 0.5 4.5 0.2 12.1-5.5 21.4-14.1 29.2 -6.3 5.7-13.3 10.5-21.5 13.1 -3.4 1.1-6.8 1.6-10.4 0.7 -2.7-0.7-4.7-2.2-5.5-4.8 -1.4-4.9-2.6-9.9-3.8-14.9 -0.7-3.2-1.1-6.4-1.8-9.6 -0.3-1.3 0.1-1.8 1.3-2.4 16.9-7.9 34.3-14.4 52.8-17.6C283.1 145.6 283.8 146.1 284 147.6z"/>
  <path class="st2" d="M191 186.8c-4.3 9.7-11 17.1-20.4 22.1 -5.8 3.1-8.3 2.3-10.3-3.9 -1.7-5.2-2.7-10.6-4-15.9 -0.1-0.5 0.3-1.4 0.8-1.7 11.5-5.9 23.4-11.1 35.8-14.9 0.1 0 0.3 0 0.6 0C193.8 177.6 193 182.3 191 186.8z"/>
  <path class="st5" d="M96.9 228.1c-4.1 2.3-6.5 0.7-7.1-3.9 -0.3-2.3-0.6-4.6-0.8-7 0-0.6 0.5-1.5 1-1.8 9.2-4 18.4-7.9 27.6-11.8 0.2-0.1 0.5-0.1 1.4-0.3 -0.4 0.9-0.5 1.6-0.9 2 -3 3.5-4.8 7.5-6.3 11.8 -0.3 0.8-0.7 1.6-1.3 2.1C105.9 222.3 101.6 225.5 96.9 228.1z"/>
  <path class="st4" d="M154.4 261c-4.7 0.7-9.5 0.7-14.2 0.7 -8.4-0.2-16.3-2.6-24.1-5.3 -8.8-3-17.5-6.2-26.3-9.3 -1.3-0.5-2.7-1-3.1-2.7 8.7 2.3 17.2 4.8 25.8 6.7 6.6 1.5 13.4 2.7 20.2 3.5 3.6 0.4 7.4-0.1 11.1-0.5 1.8-0.2 3.6-1 3.9-3.2 0.2-1.9-1.5-4.1-3.8-4.6 -1.9-0.4-3.9-0.4-5.8-0.6 -1.9-0.2-3.8-0.2-5.6-0.5 -1.7-0.3-2.9-1.4-3.3-2.9 1.9-0.7 3.6-1.4 5.4-2 0.2-0.1 0.5 0 0.8 0 5.1 0.9 10.3 1.7 15.4 2.7 1.5 0.3 3 0.9 4.4 1.5 3.1 1.5 4.9 4 5.6 7.4C161.6 256.6 159.4 260.3 154.4 261z"/>
  <path class="st4" d="M171.3 260.6c-2.8-0.6-5.5-1.2-7.9-1.7 0-2.6 0.4-5.1-0.1-7.3 -0.6-2.3-2.1-4.5-3.3-6.5 4.2 0 8.5 0 13 0C172.4 250 171.9 255.3 171.3 260.6z"/>
  <path class="st7" d="M367.1 188.6c-1.7-53.3-22.8-97.3-58.6-127.4 -2-5.1-6.4-8.8-12.1-10.2 -0.6-0.1-1.2-0.3-1.8-0.4 -1.4-1-2.8-1.9-4.3-2.8 0.8-5.6-0.5-10.8-3.7-15.6C280 22.3 272 13.5 263.1 5.6c-5-4.5-11.1-6.4-18-5.3 -6.7 1.1-13.5 2-20.2 3.3 -9.3 1.8-18.5 4.4-27.2 8.2 -3.3 1.5-6.2 3.3-8.6 5.6 -0.5 0-1-0.1-1.6-0.1C121.5 14 70.8 46.8 40.4 95.2c-3.6-9.3-7.1-18.6-10.6-27.9 -0.2-0.6-0.2-1.6 0.1-2 2.5-3.5 4.3-7.3 5.3-11.5 1.7-7.1-0.6-11.4-7.5-13.8 -6.3-2.2-12.8-3.2-19.3-3.7 -5.5-0.4-8.7 2.8-8.4 8.1 0.3 5.8 2.6 10.7 6.6 14.9 1 1 1.7 2.2 2.4 3.5 1.3 2.5 2.6 5.1 3.8 7.6 0.2 0.5 0.4 1 0.5 1.5 1.7 6.5 3.5 13.1 5.1 19.6 2.5 10.4 5.1 20.8 7.6 31.1 -9.9 22.9-15.8 48.1-17.4 73.8 -5.5 88.4 76.7 181.4 179 179 46.9-1.1 82-15.5 116-41.2C350.2 299 368.9 242.6 367.1 188.6zM358.5 153.8c-2.6-4.7-5.2-9.4-7.9-13.9 -3.8-6.2-9.6-9.1-16.8-8.5 -4.7 0.3-9.5 0.9-14.1 1.8 -10.6 2.1-21.2 4.6-31.9 6.9 -0.1-0.8-0.2-1.6-0.3-2.4 -0.7-9.1-1.4-18.2-2-27.3 -0.4-5.3-0.6-10.7-0.8-16 0-0.6 0.5-1.6 0.9-1.7 3-0.9 5-3 6.2-5.8 0.5-1.2 1.3-1.7 2.5-2 4.5-1.1 8.1-3.4 11-7 2.6-3.2 4.2-6.8 4.2-10.8C334.3 89.3 351.1 118.8 358.5 153.8zM300.4 250.7c-3.5-1.1-7.2-1.5-10.9-2 -3.4-0.4-6.8-0.3-10.2-0.5 -0.8 0-1.6-0.2-3-0.5 5.4-29 12-57.5 18.5-86.1 3.9 7.9 8.7 15 13.8 22 2.6 3.6 5.7 7 10.5 7.5 2.3 0.2 4.9 0 7.1-0.8 6.2-2.3 12.3-4.9 18.4-7.4 -0.6 2-1.3 4.2-2 6.4 -7.1 21.7-15.8 42.8-26.3 63.1 -3 5.7-6.2 11.3-11.4 15.5 -0.2 0.2-0.5 0.4-1.2 0.9 0.4-1.2 0.7-1.9 0.9-2.6 0.5-2 1.1-4 1.4-6.1C306.6 255.5 304.8 252.1 300.4 250.7zM163.3 251.5c-0.6-2.3-2.1-4.5-3.3-6.5 4.2 0 8.5 0 13 0 -0.6 5-1.1 10.3-1.7 15.6 -2.8-0.6-5.5-1.2-7.9-1.7C163.4 256.2 163.8 253.8 163.3 251.5zM143.8 246.2c-1.9-0.4-3.9-0.4-5.8-0.6 -1.9-0.2-3.8-0.2-5.6-0.5 -1.7-0.3-2.9-1.4-3.3-2.9 1.9-0.7 3.6-1.4 5.4-2 0.2-0.1 0.5 0 0.8 0 5.1 0.9 10.3 1.7 15.4 2.7 1.5 0.3 3 0.9 4.4 1.5 3.1 1.5 4.9 4 5.6 7.4 1 4.9-1.2 8.6-6.1 9.4 -4.7 0.7-9.5 0.7-14.2 0.7 -8.4-0.2-16.3-2.6-24.1-5.3 -8.8-3-17.5-6.2-26.3-9.3 -1.3-0.5-2.7-1-3.1-2.7 8.7 2.3 17.2 4.8 25.8 6.7 6.6 1.5 13.4 2.7 20.2 3.5 3.6 0.4 7.4-0.1 11.1-0.5 1.8-0.2 3.6-1 3.9-3.2C147.8 248.9 146.1 246.7 143.8 246.2zM128.7 239.7c-0.2 0-0.3-0.8-0.5-1.3 0.4-0.1 0.8-0.4 1.1-0.3 0.9 0.3 1.8 0.7 2.6 1 0 0.3 0 0.6-0.1 0.9C130.9 239.9 129.8 239.9 128.7 239.7zM172 243.1c-5.2 0-10.3 0-15.5 0 -0.3 0-0.6 0-0.8-0.1 -5-2.6-10.5-3.1-15.8-4 -4.4-0.7-8.7-1.7-12.4-4.2 -3.2 4.4-0.7 11.2 5.4 11.9 1.7 0.2 3.4 0 5.1 0.3 1.9 0.4 3.7 1.1 5.4 1.9 0.6 0.3 1.1 1.6 1 2.3 -0.1 0.5-1.3 1.1-2 1.1 -3.8 0.1-7.6 0.5-11.3 0 -6.9-0.9-13.7-2.4-20.9-3.8 0.6-4.8 1-9 1.6-13.3 1-6.6 2.5-13 5.3-19.1 2.3-5 5.5-9.2 9.8-12.5 7.7-5.8 16.1-10.3 25.1-14.2 1.3 4.7 2.5 9.2 3.8 13.6 0.8 2.5 1.7 5.1 2.8 7.5 1.7 3.8 3.6 4.9 7.6 3.8 2.9-0.8 5.9-1.9 8.4-3.6 12.6-8 20.2-19.5 22.5-34.3 0.3-1.9 0.3-3.8 0.4-5.9 5.4-1.3 10.9-2.6 16.4-3.8 0.1 0.2 0.2 0.4 0.2 0.6 -0.1 0.2-0.2 0.4-0.3 0.5 -11.6 8.6-19.6 20-25.5 32.9 -6.1 13.2-11.7 26.6-14.7 40.9C173.6 242.7 173.1 243.1 172 243.1zM306.6 64.3c0.5 2.9 0.1 5.9-1.3 8.9 -2.4 5.1-6.6 8-12.5 8.6 -1-3.4-3.2-5.7-6.4-7.3 3.5-2.1 5.4-4 1.5-8.6 0.4-0.6 1.1-1.1 1.3-1.8 0.4-1.2 1-2.9 0.5-3.6 -1.7-2.2-0.8-4.1-0.1-6.2 -0.4 3.8 1 7 3.8 9.5 2 1.8 4.1 1.6 5.4-0.3 1.1-1.6 1-3.1-0.4-4.4 -1.3-1.3-3.2-1.5-4.6-0.4 -0.3 0.2-0.5 0.5-0.9 0.8 -0.1-1.7 0.9-3.2 2.4-3.9C299.2 58.3 303 61.2 306.6 64.3zM286.6 148c1-0.2 2.1-0.3 3.1-0.4 0 1 0 1.6 0 2.5 -1 0-1.8 0.1-2.9 0 -0.3 0-0.6-0.6-0.7-1C286.1 148.7 286.3 148.1 286.6 148zM286.3 145.5c0.5-0.3 0.9-0.7 1.4-0.9 0.7-0.2 1.4-0.2 2.3-0.3 0.2 0.6 0.3 1.3 0.6 2.1 -1.1 0-2 0.1-2.9 0C287.2 146.3 286.8 145.8 286.3 145.5zM287 151.4c0.9-0.2 1.7 0.1 2.7 0.1 0 0.9 0 1.6 0 2.4 -1 0-1.7 0.1-2.7-0.1 -0.4-0.1-0.9-0.8-0.8-1.2C286.2 152.2 286.5 151.5 287 151.4zM286.4 155.5c1.1 0 2.2 0 3.2 0 0 0.9 0 1.7 0 2.7 -3 0.1-4.1-0.5-3.6-2.6C286.3 155.5 286.3 155.5 286.4 155.5zM286 159.6c4-0.7 4.7-0.3 4.5 2.8C286.8 163 285.7 162.3 286 159.6zM287 163.5c1.1 0.1 2.2 0.5 3.8 0.9 -0.6 1.2-1.1 2.8-1.5 2.7 -1.4-0.1-2.7-0.6-4-1.2 -0.2-0.1-0.3-1.2-0.1-1.6C285.6 163.9 286.4 163.5 287 163.5zM285.2 168.1c1.2 0 2.5 0.4 3.7 0.8 0.3 0.1 0.7 1.2 0.5 1.4 -0.6 0.7-1.4 1.2-2 1.7 -1.2-0.3-2-0.4-2.6-0.7 -0.5-0.3-1.3-1.2-1.1-1.6C283.8 169 284.6 168.1 285.2 168.1zM191.3 223.1c0.4 0.3 1.2 0.4 1.8 0.3 4.3-1.2 8.6-2.5 12.9-3.8 0.6-0.2 1.1-0.3 1.9-0.5 -0.3 7.5-0.6 14.9-0.8 22.2 0.2 0.1 0.3 0.2 0.5 0.2 5-4.1 10-8.2 15.3-12.4 3.4 5.4 6.6 10.5 10.1 16.1 -19-0.8-37.6-1.6-56.4-2.4 0.4-1.5 0.8-3.1 1.3-4.7 3.3-11.4 7.4-22.6 12.8-33.2 0.7-1.4 1.6-2.3 3.3-2.5 2.8-0.3 5.6-1 9-1.6 -3.6 6.4-6.8 12.2-10.1 18.1 -0.5 0.9-1 1.8-1.4 2.8C191.2 222 191.1 222.9 191.3 223.1zM197.5 155.5c0-4.3 0-8.6-0.1-12.9 6.2-1.7 10.1-5.9 10.4-11.5 1.8 0.2 3.6 0.6 5.3 1 4.2 1.2 6.7 4.4 7.6 8.4 1.2 5.2 1.9 10.5 2.8 15.7 0.2 1 0.2 2.1 0.4 3.1 0.3 2.5-1.4 4.6-4 4.3 -6.6-0.7-12.7 1.4-19 2.9 -1.1 0.3-2.1 0.6-3.5 1C197.6 163.4 197.6 159.5 197.5 155.5zM276.2 86.8c-2.5-4.1-0.4-9.6 4.1-10.8C279.8 79.9 278.3 83.3 276.2 86.8zM279.7 85.8c0 2 0 3.5 0 5C278.7 90.3 278.7 90.1 279.7 85.8zM278.7 74.5c-5.1 2.9-6.3 5.6-5.2 11.3 0.6 2.9 0 5.3-1.6 7.8 -5.1 7.6-12.1 12.8-20.1 16.9 -5.6 2.9-11.4 5.3-17.1 7.9 -0.1-0.2-0.2-0.3-0.3-0.5 8.9-7.5 14.4-17.2 18.1-28 2.2-6.5 5.2-12.6 9.5-18 3.1-4 7.1-6.4 12.2-7 3.8-0.5 6.5 1.6 6.7 5.3C281.1 72 280.5 73.5 278.7 74.5zM258.8 109.4c8.8-5 13.6-9 19.8-16.7 1.9 0.1 2.5 1 2.6 3 0.7 14.4 1.4 28.8 2.2 43.1 0 0.8 0 1.7 0 2.7 -19.5 4.7-38.3 11.5-57.1 19.6 -0.7-4.2-1.2-8.2-2-12.1 -0.8-3.6-1.6-7.2-3.1-10.6 -2.3-5.6-5.8-7.8-12.8-8.9 0.8-0.3 1.2-0.5 1.6-0.6C227 123.9 243.5 118.1 258.8 109.4zM286.8 67.5c0.7 0.8 1.7 2.3 1.4 2.8 -0.7 1.2-2.1 2-3.2 3 -0.2-0.1-0.3-0.3-0.5-0.4 -0.2-4.6-0.5-9.2-0.7-14.3 1 0.2 1.9 0.3 2.7 0.6 2.2 0.9 2.4 2.4 0.6 3.9C285 64.9 285.1 65.5 286.8 67.5zM284 147.6c0.2 1.5 0.3 3 0.5 4.5 0.2 12.1-5.5 21.4-14.1 29.2 -6.3 5.7-13.3 10.5-21.5 13.1 -3.4 1.1-6.8 1.6-10.4 0.7 -2.7-0.7-4.7-2.2-5.5-4.8 -1.4-4.9-2.6-9.9-3.8-14.9 -0.7-3.2-1.1-6.4-1.8-9.6 -0.3-1.3 0.1-1.8 1.3-2.4 16.9-7.9 34.3-14.4 52.8-17.6C283.1 145.6 283.8 146.1 284 147.6zM247.5 197.7c1.9-0.8 3.4-1.5 5.3-2.3 1 1.6 2.1 3.3 3.3 5.2 -1.6 1.1-3 2-4.6 3.1C250.2 201.7 248.9 199.8 247.5 197.7zM249.1 204.7c-1.4 0.9-2.8 1.7-4.5 2.7 -1.7-2.6-3.4-5-5.3-7.8 2-0.3 3.7-0.6 5.3-0.7 0.3 0 0.8 0.3 1 0.6C246.8 201.2 247.9 202.9 249.1 204.7zM254.8 194.4c1.5-0.8 2.9-1.6 4.3-2.3 0.3-0.2 1.2 0.1 1.4 0.5 0.8 1.1 1.5 2.2 2.3 3.5 -1.6 1.2-3.2 2.2-4.9 3.4C256.8 197.8 255.9 196.2 254.8 194.4zM261.5 190.5c1.4-1 2.7-2 4.1-3.1 1.1 1.6 2.1 3.1 3.2 4.7 -1.4 1-2.7 1.9-4.2 2.9C263.5 193.5 262.6 192.1 261.5 190.5zM267.1 186.4c1.4-0.9 2.8-1.7 4.4-2.7 1 1.6 1.9 3.1 2.9 4.6 -0.1 0.2-0.1 0.3-0.2 0.4C270.4 192 269.4 191.7 267.1 186.4zM273.1 183.5c-0.5-1-0.2-1.4 2.3-2.7 1.1 1.5 2.1 3 3.3 4.7 -1.1 0.8-2 1.5-3.1 2.3C274.8 186.3 273.9 185 273.1 183.5zM224.2 169.9c1.4-0.1 1.3 1.2 1.3 1.9s-0.4 1.8-0.9 1.9c-1.8 0.4-3.7 0.5-5.6 0.7 -0.1-1.3-0.2-2.3-0.4-3.8C220.6 170.4 222.4 170.1 224.2 169.9zM218.8 168.3c1.8-1 3.6-2.1 5.4-3.1 1 2.9 1 2.9-1.6 3.4 -1.2 0.2-2.4 0.2-3.6 0.3C218.9 168.7 218.8 168.5 218.8 168.3zM219.9 176c1.9-0.6 4-0.9 6-0.8 0.4 0 0.7 2.5 1.1 4.1 -2.6 0.2-4.8 0.4-7.5 0.6C219.6 178.3 219.4 176.2 219.9 176zM226.3 180.6c0.3 0 0.8 0.5 0.9 0.8 0.4 1.3 0.6 2.6 1 4 -2.2 0.2-3.9 0.3-5.7 0.5 -1.3 0.2-1.9-0.4-1.9-1.7 0-1-0.2-1.9-0.4-3.1C222.2 181 224.2 180.8 226.3 180.6zM228.2 187c0.3 1.2 0.7 3 1.1 4 -2.6 0-5 0-7.6 0 -0.1-1-0.3-2-0.5-3.4C223.6 187.4 225.8 187.2 228.2 187zM228.7 192.4c0.6 0 1.2 1 1.8 1.6 -0.1 0.3-0.1 0.5-0.2 0.8 -2.3 0.5-4.7 1-7.3 1.5 -0.3-1.2-0.6-2.3-0.9-3.6C224.4 192.5 226.6 192.3 228.7 192.4zM232.7 198c-1.4 0.5-2.3 0.9-3.3 1 -1.8 0.3-2.3 1.3-2.3 3s-0.1 3.3-0.2 5c-0.3 0.1-0.5 0.1-0.8 0.2 -1.1-3.1-2.1-6.2-3.3-9.5C226.3 197.1 229.3 195.3 232.7 198zM229.2 201.6c0.2-0.8 2-1.4 3.2-1.8 0.3-0.1 1.3 0.8 1.5 1.4 2.1 5.1 2.6 4.1-2.3 7 -0.9 0.5-1.8 1-3.1 1.7C228.8 206.8 228.7 204.1 229.2 201.6zM230.6 210.2c2.3-1.3 4.4-2.5 6.7-3.7 -0.7-2.2-1.4-4.4-2-6.5 1.8-0.6 2.8-0.1 3.6 1.3 1.2 2.3 2.6 4.4 3.9 6.6C239.8 210.9 233.7 212 230.6 210.2zM242.8 230.8c5.3 5.1 10.4 10 16.1 15.4 0.6-7.4 1.2-14.3 1.8-21.2 4.2 4.3 8.4 8.7 13.1 13.5 1.4-7.8 2.7-14.9 4-22.2 1.7 0.5 1.5 1.7 1.3 2.9 -0.9 5.5-1.9 11-2.8 16.5 -0.6 3.5-1.3 7-1.8 10.6 -0.2 1.2-0.5 1.7-1.8 1.6 -7.7-0.5-15.3-0.9-23-1.4 -4-0.3-7.9-0.7-12.3-1.1C239.3 240.3 241.1 235.5 242.8 230.8zM279.6 175.6c0 1.3 0.2 2.3 0 3.3 -0.5 2.1 0.6 2.5 2.2 2.5 0.3 0 0.6 0.1 0.9 0.1 0.2 0.2 0.3 0.4 0.4 0.6 -1 1-2 2-3 2.9C276 181.3 275.9 179.4 279.6 175.6zM280.8 177.8c0-1.1 0.5-2.1 1.8-2 1.4 0 2.2 0.8 2.4 2.6 -0.6 0.5-1.1 1.3-1.7 1.4C282 179.9 280.9 179.3 280.8 177.8zM281.8 173.8c0.5-2.2 2.6-1.6 6.3-0.1 -0.5 0.9-0.9 1.7-1.1 2.1C285 175.1 283.4 174.5 281.8 173.8zM284.7 75.9c2-0.6 5.9 2.7 6.3 6.3 0.5 4.2-2.3 7.7-6.3 8.4C284.7 85.7 284.7 80.8 284.7 75.9zM294.1 61.5c0-0.6 0.9-1.2 1.7-2.2 0.9 1 1.3 1.6 1.8 2.3 -0.7 0.5-1.4 1.3-2.1 1.4C295.1 63.1 294.1 62.1 294.1 61.5zM194.4 36.3c5.7-3.4 12-6.1 17.8-9.4 2.5-1.4 3.9-1.1 5.9 0.8 7.7 6.8 16.9 10.4 26.9 12 4.9 0.8 9.9 1.8 14.7 3.2 7.4 2.2 13.6 6.3 17.7 13.1 0.4 0.7 0.9 1.5 1.3 2.2 0.2 0.3 0.3 0.7 0.5 1.3 -0.9 0.3-1.7 0.7-2.6 0.9 -9.5 2-15.7 8-19.8 16.3 -2.8 5.8-5.1 11.8-7.5 17.8 -4.1 10-10.5 18.1-19.5 24.1 -7.6 5.1-16 8.2-24.9 9.9 -3.1 0.6-6.2 0.4-9.2-1 -3.7-1.7-4.3-4.5-2.4-8 1.3-2.4 3.2-3.2 5.3-4.4 1.9-1.1 3.9-2.5 5.3-4.2 2-2.3 1.4-4.3-1.3-5.6 -4.5-2.2-9.4-3-14.4-3.3 -0.6 0-1.3-0.1-1.9-0.2 1-4.1 1-4.1-1.1-8.7 2.7 0.3 5.1 0.5 7.5 0.8 2.1 0.2 4.1 0.6 6.2 0.6 3.4-0.1 5.5-2.6 5.1-6 -0.3-2.7-3.2-4.3-6.5-3.6 -3.4 0.7-4.9 3.1-4 6.3 0.1 0.4 0.2 0.7 0.4 1.3 -5-1.4-9.8-0.9-14.6 0 -3.5 0.6-5.3-1-5.2-4.5 0.5-11.5 1.8-22.9 5-34C181.5 45.9 187.5 40.4 194.4 36.3zM193.1 169.3c-12.8 5-28.1 11.4-41.5 16.4 -2-9.1-6.7-15.9-15.9-19.3 5-1.7 12-4.6 16.4-6.3 9.8-3.8 19.7-7.4 28.2-13.7 3.7-2.8 7.2-5.9 10.7-9.1 1.3-1.1 2.3-1.9 3.7-1 0 5.2 0.1 10.4 0 15.6 -0.1 5.1-0.2 10.3-0.4 15.4C194.2 168.1 193.6 169.1 193.1 169.3zM191 186.8c-4.3 9.7-11 17.1-20.4 22.1 -5.8 3.1-8.3 2.3-10.3-3.9 -1.7-5.2-2.7-10.6-4-15.9 -0.1-0.5 0.3-1.4 0.8-1.7 11.5-5.9 23.4-11.1 35.8-14.9 0.1 0 0.3 0 0.6 0C193.8 177.6 193 182.3 191 186.8zM137.2 192.1c-3.9-1.1-7.6-6.1-8-10.7 -0.4-4.1 0.9-8 2.4-11.7 0.2-0.5 1.4-0.8 2-0.7 3.8 0.7 7.6 3.1 10.5 6.6C135 179.7 133 184.8 137.2 192.1zM139.4 184c1.3-2.6 3.6-3.2 6.2-3.3 1.1 0 1.9 0.4 2.3 1.6 1.9 4.7 1.9 4.7-2.6 6.9 -1.7 0.8-3.4 1.6-5.2 2.5C138.3 189.1 138.2 186.6 139.4 184zM201.8 110.3c-1.2 4.6-9.2 6.9-13.9 4C191 111.4 196.3 109.9 201.8 110.3zM183.9 103.6c7.3-0.4 14.8 0.9 17.1 4.5C194.8 108.5 189.2 107.3 183.9 103.6zM193.6 117.7c-3.1 2.1-3.1 5.6-2.8 7.4s1.7 3.7 3.5 4.5c-1.7 3.1-9.7 10.1-11.9 11.9 -7 5.7-15.1 9.7-23.4 13.2 -0.1 0-0.2 0-0.4-0.1 0.1-0.2 0.1-0.4 0.2-0.5 4.4-4.9 6.1-10.9 8-17 1.6-5 3.6-9.9 5.9-14.6 1.2-2.4 3.3-4.4 5.2-6.3 1.8-1.8 4.2-2.8 6.9-2.8C186.2 117.9 189.8 117.2 193.6 117.7zM195.6 91c-0.6-1.6-0.4-2.8 0.9-3.8 1.4-1.1 3.7-1.2 5.1-0.3 1.3 0.8 1.7 1.9 1.2 3.7C200.4 89.2 198 88.7 195.6 91zM201.3 91.9c-0.6 0.6-1.3 1.1-2.1 1.9 -0.9-0.8-1.5-1.3-2.2-1.8 0.7-0.5 1.4-1.2 2.1-1.3C199.9 90.8 200.6 91.5 201.3 91.9zM182.9 95.2c2.4 0.1 2.8 0.3 2.9 2.5 0.1 2.2-0.9 3.7-2.9 3.9 -0.6 0-1.1 0-2 0 2.6 4.9 7.2 6.2 11.7 8 -0.4 0-0.9 0.2-1.3 0.1 -7.6-0.8-13.6 2.3-18.3 8.1 -4.5 5.5-6.8 11.9-8.6 18.7 -0.4 1.5-0.8 3-1.2 4.5 -1.9 9.6-7.8 16-16.9 19.1 -4.8 1.7-9.9 2.6-15 3.5 -3.3 0.6-6.6-0.1-9-2.7 -1.1-1.2-2-2.9-2.4-4.5 -0.6-2.1 0.8-3.9 2.9-4.5 2.8-0.8 5.4-1.9 7.3-4.3 2.4-3.1 2.2-5.9-1.1-8 -2.2-1.4-4.9-2-7.4-2.9 -1-0.3-2-0.3-3.1-0.5 -0.1-1.7-0.2-3.3-0.4-5.4 1.8 0.2 3.7 0.3 5.5 0.5 1.5 0.2 3 0.6 4.4 0.6 2.6 0 4.1-1.7 4-3.8 -0.1-2.8-2.3-5-5-4.9 -2.4 0-3.9 1.6-4 4.1 0 0.6 0 1.3 0 1.7 -2.7 0.3-5.3 0.7-7.9 1 -4.1 0.5-6-1.2-6.1-5.3 -0.2-5.9 1.4-11.5 3.6-16.9 3.3-8.1 8-15.4 15.1-20.8 2.5-1.9 5.3-3.3 8-4.8 0.6-0.3 1.8-0.2 2.4 0.2 9.7 6.7 20.5 10.7 32.2 12.1C174.7 95.1 178.8 95.1 182.9 95.2zM128.7 196.5c-2.2 0.7-4.1 1.3-6.1 2 0-2 0-3.8 0-5.8C124.7 194 126.6 195.1 128.7 196.5zM129.8 144.8c-1.5 5-8 7.4-11.5 4.2C121.8 146.1 125.5 145.5 129.8 144.8zM116.2 138.1c5.2-1.4 11.4 0.6 13.6 4.4C124.2 143 120.1 142.3 116.2 138.1zM125 127.4c-0.1-1.3 0.7-2.1 2.2-2.5 2-0.5 3.3 0.3 3.8 1.9C129.1 127.1 127.1 127.2 125 127.4zM130.2 129.5c-0.5 0.5-1 1.1-1.8 1.8 -0.8-0.7-1.4-1.2-1.9-1.7 0.6-0.5 1.2-1.3 1.9-1.3C128.9 128.2 129.6 129.1 130.2 129.5zM110.8 130.9c2.8 1.5 3.7 2.2 5.2 5.4 -0.9 0.1-1.5 0.8-1.5 1.6 0 1 1.2 2.5 3.4 3.8 0.7 0.4 1.4 0.9 1.7 1.6 1.2 0.9 0.3 2.8-1.3 4 -0.7 0.4-1.8 1-1.7 1.8 0 0.9 1.2 1.5 1.9 2.2 0.3 0.3 0.8 0.4 1.4 0.7 -1.4 2.3-1.2 4.5-0.8 6.8 0.2 1.1 0.2 2.4-0.2 3.5 -2.7 7.7-8.1 13.3-14.6 17.9 -8.9 6.2-18.7 10.5-29 13.7 -3.1 1-6 0.5-8.4-1.7 -1.3-1.2-1.6-2.4-0.4-4.1 0.7-1 0.8-2.5 1.1-3.8 -0.2-0.1-0.4-0.2-0.6-0.2 1.1-0.7 2.3-1.2 3.3-2 0.9-0.7 1.9-1.4 2.6-2.3 2.4-2.9 1.8-5.9-1.7-7.2 -3.2-1.3-6.7-1.9-10.1-2.8 -0.4-0.1-0.9-0.1-1.2-0.2 0.8-2.3 1.5-4.5 2.4-7.1 0.5 0 1.6 0 2.7 0 1.2 0 2.5 0.3 3.7 0.2 1.6-0.1 2.6-1.1 2.8-2.8 0.1-1.7-0.7-2.7-2.3-3.2 -2.8-0.8-4.6 0.6-4.9 3.6 -2.3 0.5-4.6 1-6.9 1.4 -1.6 0.3-3-0.3-3.8-1.7 -0.5-0.9-0.9-2.1-0.9-3.1 -0.3-10.1 2.3-19.4 9.3-27 8.6-9.3 19.3-12.3 31.5-9.3 4.2 1.1 8.1 3 12.1 4.8 1.1 0.5 1.7 1.9 2.6 2.8C108.9 129.1 109.7 130.3 110.8 130.9zM71.7 176.7c-1 4.6-7.6 7.5-10.8 4.7C63.9 178.3 67.7 177.4 71.7 176.7zM56.6 171.1c3.1-0.9 11.5 1 14.8 3.5C66.7 176.4 59.8 174.7 56.6 171.1zM65.9 159.4c0.7-0.5 1.3-1.2 2-1.2 0.5 0 1.4 1 1.4 1.5s-0.9 1.1-1.7 2C66.9 160.7 66.4 160.1 65.9 159.4zM79.6 195.4c3.4 0.8 4.8 3 5.6 5.9 1.1 3.7 1.6 7.5 1 11.5C84.1 207.1 81.9 201.4 79.6 195.4zM80.4 194c2.2-1.1 4.1-2 6-2.9 4.5-2.2 9.1-4.3 13.5-6.6 5.9-3.1 11.2-7 15.7-12.8 0 3.1-0.1 5.6 0 8.2 0.2 3.2 0.8 6.3 3 8.9 0.3 0.3 0.4 0.8 0.4 1.2 -0.1 2.9-0.2 5.9-0.5 8.8 -0.1 0.6-0.7 1.4-1.2 1.7 -9.3 4.1-18.6 8.1-28 12.1 -0.2 0.1-0.4 0-0.6 0 -0.4-3.3-0.7-6.6-1.4-9.9C86.6 198.9 85 195.5 80.4 194zM90 215.4c9.2-4 18.4-7.9 27.6-11.8 0.2-0.1 0.5-0.1 1.4-0.3 -0.4 0.9-0.5 1.6-0.9 2 -3 3.5-4.8 7.5-6.3 11.8 -0.3 0.8-0.7 1.6-1.3 2.1 -4.4 3-8.8 6.2-13.5 8.9 -4.1 2.3-6.5 0.7-7.1-3.9 -0.3-2.3-0.6-4.6-0.8-7C89 216.6 89.5 215.6 90 215.4zM175.9 246c0.1-0.5 1-1.2 1.5-1.1 10 0.3 19.9 0.7 29.9 1.2 9.6 0.5 19.1 1.1 28.7 1.8 10.6 0.8 21.2 1.7 31.7 2.6 1.9 0.2 3.9 0.4 6.1 0.6 -0.2 1.7-0.5 3.3-0.6 4.9 -0.1 2.3-0.3 4.7-0.1 7 0.2 3.1 1.6 5.7 4.4 7.4 2.1 1.3 4.2 2.7 6.8 4.4 -4.6 0-8.8 0.1-13 0 -20.6-0.5-41-3.4-61.3-6.7 -11.7-1.9-23.4-3.8-35.4-5.7C174.7 256.7 174.4 251.3 175.9 246zM277.8 266.3c-1.3-1.8-2.2-4.1-2.7-6.3 -0.7-3.1 0.5-5.1 3.5-6.4 4.3-2 8.8-2.1 13.4-1.1 2.4 0.5 4.8 1.2 7 2.2 3.7 1.7 5 5.5 3.8 9.4 -1.7 5.2-6.7 8.9-11.7 8.7C285.8 272.4 281.1 270.7 277.8 266.3zM292.6 157.3c0.5-3.7 0.8-7.3 1.5-11 0.5-2.6 2-4.1 4.8-4.6 4.3-0.8 8.6-1.9 13-2.8 -7.8 4.6-14.7 10.1-18.6 18.6C293.1 157.4 292.8 157.4 292.6 157.3zM328.3 187.9c-6.3 1.1-12-0.3-16.9-4.7 -6.1-5.4-10-12.2-11.7-20.1 -1.6-7.1 1.1-12.6 6.5-17.1 5.1-4.2 11.1-6.1 17.5-7 2.3-0.3 4.7-0.4 7-0.6 10.8 0 18.5 6.9 20.1 18C353.1 172.1 343.9 185.1 328.3 187.9zM186.4 21.1c-1.1 1.8-1.9 3.7-2.4 6 -2.3 9.6-4.9 19.1-7.2 28.7 -0.6 2.5-0.5 2.3-1 5.2 -6.5-2.7-24-5.3-30.6-5.3 -6.7 0-25.2 9.3-26.9 11.6 -3.1 4.1-7.8 17.4-2.1 29.9 -2.6 4.2-4.4 9.2-5.3 11.4 -2-1.2-7.2-3-9.6-3.5 -6.1-1.1-12.1-2.3-18.3-2.7 -7.6-0.5-14 2.1-17.6 9.4 -2.8 5.5-5.4 11.1-8.1 16.7 -0.7 1.5-1.2 3.1-2 5 -0.4-1-0.7-1.5-0.9-2.1 -3.8-9.7-7.6-19.4-11.3-29.1 -0.2-0.5-0.4-1-0.6-1.6C71.9 52.3 121.8 18.9 186.4 21.1zM10.1 57.8c-1.2 1-2.4 0.4-3.2-0.6 -3.1-4.1-5.1-8.7-5.1-13.9 0-3.7 2.3-5.8 6.4-5.3 5.7 0.8 11.4 2.1 17 3.5 2.1 0.5 4.2 1.7 6 3.1 2.5 1.9 3.6 4.6 2.6 7.8 -1 3-1.9 6-3.3 8.7 -1.8 3.5-4.3 3.4-6.4 0 -0.3-0.4-0.5-0.9-0.8-1.4 -1.4-3.1-3.3-5.4-7.1-5 -0.7 0.1-1.4-0.2-2.1-0.3 -2-0.4-3.1-1.7-3.3-3.9 0.9 0.5 1.6 1 2.4 1.3 0.4 0.2 1.2 0.4 1.4 0.2 1.5-1.5 2.7-0.6 4.1 0.1 1.8 0.9 3.7 0.8 5.3-0.5 1.5-1.2 1.8-2.9 1.2-4.6 -0.3-0.9-1.1-2-2-2.4 -4-1.9-8.4-2.5-12.8-1.7 -4 0.7-5.3 5-2.8 8.6 0.7 1.1 1.7 1.9 2.5 3C10.9 55.6 11.4 56.8 10.1 57.8zM22.5 50.4c-0.8-0.1-1.7 0.1-2.3-0.3 -1.6-0.9-3.1-1.9-4.6-2.9 -3-2-4.3-1.9-7.1 0.3 0.3-0.5 0.6-1 1-1.4 2.8-2.8 10.9-1.9 12.9 1.5C22.7 48.4 22.4 49.5 22.5 50.4zM10.6 61.6c-0.1-0.3 0.2-0.8 0.4-1.2 0.7-1.2 1.4-2.4 2.4-4.1 5-0.7 10.2 3.5 10.5 9 0 0.5-0.4 1-0.8 1.4 -2.2 1.8-4.6 2-7.2 1C13.1 66.5 11.3 64.5 10.6 61.6zM52.9 136.3c0.6 1.6 0.8 3.2 0.4 4.9 -1.2 4.9-2.3 9.9-1.9 15.1 0.1 0.6 0.1 1.3 0.3 1.9 0.9 4 2.4 5.2 6.6 5.1 0.4 0 0.9 0 1.4 0 0.4 3.9-1.4 5.6-6 6.1 2.1 4.3 5.8 6.3 10.7 7.6 -1.4 0.7-2.5 1.1-3.4 1.7 -0.9 0.7-1.6 1.7-2.4 2.6 1 0.8 1.9 1.6 3 2.3 0.6 0.3 1.4 0.3 2.1 0.4 1.8 0.3 2.4 1.5 1.3 3.1 -1.9 3-1.7 4.5 1.1 6.8 2.2 1.8 4.8 2.3 7.5 1.8 0.6-0.1 1.1-0.2 1.8-0.4 2 5.4 4 10.6 6 15.9 1.6 4.2 1.5 4.1-2.6 6.2 -6.1 3-12.2 6.1-18.3 9.3 -2 1.1-3.8 2.6-5.8 3.9 -8.4-35-34.5-144-38.3-159.8 3.4 0.1 6.9-0.1 10.1-2.5 0.8 2.2 1.6 4.2 2.3 6.2C32.1 82.6 48.8 125.6 52.9 136.3zM13 196.4c1.4-23 6.5-45.5 14.9-66.4 3.2 13.1 6.3 26.1 9.4 39.2 4.7 20 8.9 40.2 13.4 60.2 0.7 3.3 1.2 6.4-0.2 9.9C45 253 42.8 267.6 40.3 282c-0.4 2.6-0.9 5.2-1.3 7.8C20.7 261.4 11 228.4 13 196.4zM41.9 294.5c1.4-9.9 2.9-19.8 4.3-29.7 1-6.5 2.3-13 4.1-19.3 2.3-8 7.2-14.2 14.6-18.1 7.2-3.8 14.6-7.2 22.1-10.8 0.6 3.9 1 7.5 1.6 11.1 0.7 4.5 2.6 5.7 6.8 3.6 4.2-2.1 8-4.8 12-7.2 0.9-0.5 1.7-1.2 2.3-1.7 -1 8.1-1.9 16.4-2.9 24.8 -2.1-0.6-4.3-1.3-6.6-1.9 -4.7-1.3-9.4-2.5-14.1-3.9 -1.7-0.5-2.1 0.5-1.9 1.7 0.4 1.9 1.1 3.6 3.3 4.4 6 2.2 12 4.6 18.1 6.9 1 0.4 1.4 0.8 1.4 1.9 -0.3 20.1 1.5 40 4.3 59.8 2 14.1 4.3 28.1 6.9 42C87 344.9 60.5 322 41.9 294.5zM187.2 370.8c-22.3 1.1-43.7-2.7-63.3-10.2 -3.7-20.4-7.3-40.8-10.9-61.3 -2.4-14-2.6-28.3-2.9-42.7 0.6 0.2 1.2 0.3 1.7 0.5 13.7 5 27.8 7.2 42.4 5.7 2.6-0.3 5.2-0.7 7.8-1 5.8-0.7 8.9 1.7 9 7.5 0.7 35.2 10.3 68.4 21.9 101.2C191 370.6 189.1 370.7 187.2 370.8zM300.8 330.9c-30.7 23.3-54.3 35.2-101.6 39.1 -3.2-8.9-9.4-27-9.4-27.3 -1.5-5-6.4-21.4-6.5-21.7 -3.3-12.7-6.1-25.6-7.8-38.7 0.7 1-1-7-1.2-11.1 -0.1-2.2 0-4.4 0-6.9 6.5 1.4 12.5 2.7 18.5 3.8 11.8 2.1 23.7 4.3 35.6 6 10.8 1.6 21.7 2.8 32.6 3.8 10.1 0.9 20.3 1.2 30.5-0.2 9.6-1.4 17.7-5.7 22.5-14.5 4-7.3 7.9-14.8 11.1-22.5 9-21.6 17.7-43.3 26.2-65.1 2-5.1 2.7-10.8 3.9-16.2 0.3-1.2 0-2.4 0.3-3.7 1.1 2.5 2.2 5.1 3.3 7.6 0.8 1.8 1.5 3.6 2.3 5.4 0.9 6.6 1.4 13.3 1.7 20.2C364.4 241.5 346.2 296.5 300.8 330.9z"/>
  <path class="st9" d="M41.9 294.5c1.4-9.9 2.9-19.8 4.3-29.7 1-6.5 2.3-13 4.1-19.3 2.3-8 7.2-14.2 14.6-18.1 7.2-3.8 14.6-7.2 22.1-10.8 0.6 3.9 1 7.5 1.6 11.1 0.7 4.5 2.6 5.7 6.8 3.6 4.2-2.1 8-4.8 12-7.2 0.9-0.5 1.7-1.2 2.3-1.7 -1 8.1-1.9 16.4-2.9 24.8 -2.1-0.6-4.3-1.3-6.6-1.9 -4.7-1.3-9.4-2.5-14.1-3.9 -1.7-0.5-2.1 0.5-1.9 1.7 0.4 1.9 1.1 3.6 3.3 4.4 6 2.2 12 4.6 18.1 6.9 1 0.4 1.4 0.8 1.4 1.9 -0.3 20.1 1.5 40 4.3 59.8 2 14.1 4.3 28.1 6.9 42C87 344.9 60.5 322 41.9 294.5z"/>
  <path class="st9" d="M52.9 136.3c0.6 1.6 0.8 3.2 0.4 4.9 -1.2 4.9-2.3 9.9-1.9 15.1 0.1 0.6 0.1 1.3 0.3 1.9 0.9 4 2.4 5.2 6.6 5.1 0.4 0 0.9 0 1.4 0 0.4 3.9-1.4 5.6-6 6.1 2.1 4.3 5.8 6.3 10.7 7.6 -1.4 0.7-2.5 1.1-3.4 1.7 -0.9 0.7-1.6 1.7-2.4 2.6 1 0.8 1.9 1.6 3 2.3 0.6 0.3 1.4 0.3 2.1 0.4 1.8 0.3 2.4 1.5 1.3 3.1 -1.9 3-1.7 4.5 1.1 6.8 2.2 1.8 4.8 2.3 7.5 1.8 0.6-0.1 1.1-0.2 1.8-0.4 2 5.4 4 10.6 6 15.9 1.6 4.2 1.5 4.1-2.6 6.2 -6.1 3-12.2 6.1-18.3 9.3 -2 1.1-3.8 2.6-5.8 3.9 -8.4-35-34.5-144-38.3-159.8 3.4 0.1 6.9-0.1 10.1-2.5 0.8 2.2 1.6 4.2 2.3 6.2C32.1 82.6 48.8 125.6 52.9 136.3z"/>
</svg>
