<svg xmlns="http://www.w3.org/2000/svg" xmlns:xlink="http://www.w3.org/1999/xlink" version="1.1" id="Layer_1" x="0" y="0" viewBox="0 0 2849.4 896.3" xml:space="preserve" enable-background="new 0 0 2849.4 896.3">
  <style type="text/css">
    
	.st0{fill:#CAD9DF;}
	.st1{fill:#B8C9CD;}
	.st2{fill:#407F00;}
	.st3{fill:#6B9B29;}
	.st4{fill:#4E880C;}
	.st5{fill:#5D9215;}
	.st6{fill:#578D18;}
	.st7{opacity:0.23;}
	.st8{fill:#435400;}

  </style>
  <rect class="st0" width="2849.4" height="893.1"/>
  <polygon class="st1" points="983.3 260.8 785.3 206.8 701.3 223.3 576.8 173.8 521.3 206.8 347.3 173.8 258.9 235.3 "/>
  <polygon class="st2" points="2849.4 329.3 0 220.7 0 506.4 2849.4 423.2 "/>
  <polygon class="st3" points="2849.4 414.9 0 503.4 0 771.2 2849.4 771 "/>
  <path class="st1" d="M660.5 141.7c-0.1-0.4-0.1-0.9-0.1-1.3 0-5.5 4.2-10.1 9.5-10.7 0.7-5.8 5.7-10.4 11.7-10.4 5.6 0 10.3 3.9 11.5 9.1 1.3-0.6 2.8-0.9 4.3-0.9 5 0 9.1 3.4 10.3 8 0.4 0 0.9-0.1 1.3-0.1 7.5 0 13.5 6 13.5 13.5 0 7.5-6.1 13.5-13.5 13.5h-42.4c-6.2 0-11.3-5.1-11.3-11.3C655.2 147.2 657.3 143.7 660.5 141.7z"/>
  <path class="st3" d="M1680.6 433.1c0-0.4-0.1-0.7-0.1-1.1 0-4.6 3.5-8.4 8-9 0.6-4.9 4.7-8.7 9.8-8.7 4.7 0 8.6 3.3 9.6 7.7 1.1-0.5 2.3-0.8 3.6-0.8 4.2 0 7.6 2.9 8.6 6.7 0.4 0 0.7-0.1 1.1-0.1 6.3 0 11.3 5 11.3 11.3 0 6.3-5.1 11.3-11.3 11.3h-35.4c-5.2 0-9.5-4.2-9.5-9.4C1676.2 437.7 1678 434.8 1680.6 433.1z"/>
  <path class="st4" d="M2255.9 662.8c-7.6-7.6-15.1-15.5-22.9-22.9 -3.6-3.4-6.6-1.7-8.9 0.8 -6.7 7.4-14 14.2-21.5 20.5 -2.2 1.9-2.6 1.6-5.8 1.6 -5.9 0-11.7 0-17.6 0 -15.6 0-31.2 0-46.8 0 -3.2 0-10.6-1.4-13.5 0 -1.7 0.8-1.1 1.4-1.1 4 0 26.8 0 48.2 0 75 0 2.7-0.5 2.3 1.3 3 3.2 1.3 9.8 0 13.2 0 15.6 0 31.1 0 46.7 0 7.3 0 14.5 0 21.8 0 3.3 0 9.6 1.3 12.8 0 2.2-0.9 1.3-3.1 1.3-6.1 0-7.7 0-9.9 0-17.6 0-2.4-1.3-11.1 0.3-12.6 0.8-0.7 6.5 0 7.4 0 4.1 0 8.2 0 12.3 0 6 0 6-1 6 4.8 0 7.3 0 9.2 0 16.5 0 3.4 0 6.7 0 10.1 0 0.8-0.5 4.3 0 4.8 0.7 0.7 6.4 0 7.3 0 14.3 0 28.7 0 43 0 13.9 0 27.7 0 41.6 0 1.3 0 4.4 0.5 5.1-0.4 1.2-1.5 0-9.3 0-11.1 0-15.3 0-25.2 0-40.6 0-6.9 0-13.7 0-20.6 0-1.4 1-8.3 0-9.4 -0.8-0.8-6.5 0-7.6 0 -6.9 0-13.8 0-20.7 0 -15 0-30.1 0-45.1 0C2261.5 662.8 2258.7 662.8 2255.9 662.8zM2149.1 703.7c-3.3 0-6.7 0-10 0 -3.4 0-2.6 0.5-3-2.3 -0.6-3.6 0-7.7 0-11.4 0-1-0.8-7.1 0-7.8 1.2-1 7.9 0 9.4 0 3.4 0 2.9-0.7 3.6 1.9C2150.5 690 2149.1 697.6 2149.1 703.7zM2179.4 703.7c-3.3 0-6.7 0-10 0 -3.4 0-2.6 0.5-3-2.3 -0.6-3.6 0-7.7 0-11.4 0-1-0.8-7.1 0-7.8 1.2-1 7.9 0 9.4 0 3.4 0 2.9-0.7 3.6 1.9C2180.7 690 2179.4 697.6 2179.4 703.7zM2291 703.7c-3.3 0-6.7 0-10 0 -3.4 0-2.6 0.5-3-2.3 -0.6-3.6 0-7.7 0-11.4 0-1-0.8-7.1 0-7.8 1.2-1 7.9 0 9.4 0 3.4 0 2.9-0.7 3.6 1.9C2292.4 690 2291 697.6 2291 703.7zM2321.3 703.7c-3.3 0-6.7 0-10 0 -3.4 0-2.6 0.5-3-2.3 -0.6-3.6 0-7.7 0-11.4 0-1-0.8-7.1 0-7.8 1.2-1 7.9 0 9.4 0 3.4 0 2.9-0.7 3.6 1.9C2322.6 690 2321.3 697.6 2321.3 703.7zM2227.9 687.8c-8.6 0-15.5-7-15.5-15.5 0-8.6 7-15.5 15.5-15.5s15.5 7 15.5 15.5C2243.5 680.8 2236.5 687.8 2227.9 687.8zM2234.5 681.7l-9.2-8.7 -0.3-12.3h2.9l-0.3 11.3 8.1 8.5L2234.5 681.7z"/>
  <path class="st4" d="M2305.9 602.8c-8.5 0-17.1 0-25.6 0 -7.2 0-14.4 0-21.7 0 -2.6 0-5.7 0.6-7.8-0.6 -2.1-1.2-4.1-4.1-5.8-5.8 -3-3-6-6-9-9 -4.1-4.1-6.5-5.1-6.3-10.7 0.1-3.6-0.3-7.6 0.3-11.2 0.5-3-0.5-1.7 2.2-2.3 3.4-0.7 15.3 2 17.1-0.5 1-1.4 0.5-10 0-11.8 -0.7-2.5-0.6-1.8-3.9-1.8 -6.4 0-12.8-0.1-19.2-0.1 0.2 7.4 0.4 14.7 0.5 22.1 0.1 2.6 1.1 7.2 0.2 9.7 -0.6 1.6-2.4 2.9-3.7 4.2 -3.2 3.2-6.4 6.4-9.6 9.6 -2.1 2.1-5.1 6.5-7.8 7.8 -3.1 1.5-9 0.4-12.5 0.4 -9.6 0-19.2 0-28.8 0 -6.8 0-11.5-0.8-18.2 0.3 -3 0.5-7 1.8-9.4 4 -6 5.7-12.1 10-18.1 15.6 -8.9 8.3-17.2 17.4-26.7 25 -5.6 4.4 2.5 8.2 9.5 7.8 15.4-0.8 30.9 0 46.3 0 12.9 0 25.9 0 38.8 0 2.6 0 6.5 0.8 9 0 1.9-0.6 3.5-2.9 5-4.4 5-5 10-10 15-15 2.4-2.4 4.8-4.8 7.3-7.3 1-1 3.2-4.2 4.6-4.6 2.1-0.6 3.8 2.4 5.7 4.3 5.1 5.1 10.2 10.2 15.2 15.2 4.6 4.6 8.6 11.8 15.4 11.8 11 0 22 0 33 0 22 0 39-2.7 60.8 0 9.1 1.1 8.9-4.8 4.6-9.8 -12.1-14.1-27.3-23.8-40.6-36.8C2317.2 604.4 2309 602.8 2305.9 602.8z"/>
  <path class="st3" d="M912.5 384.2c2-1.3 9.2 0 11.6 0 15.5 0 31 0 46.5 0 14.3 0 28.7 0 43 0 2 0 5.5-0.7 7.3 0 4.4 1.7 9.2 8.1 12.7 11.2 -40.7 0-81.4 0-122.1 0C911.6 392.3 910.4 385.6 912.5 384.2zM794.6 384.2c-22.7 0-45.5 0-68.2 0 -12.4 0-24.8 0-37.3 0 -1.7 0-4.1-0.4-5.6 0.1 -3.8 1.4-8.5 8.2-11.5 11.1 23.3 0 46.6 0 69.9 0 14 0 28 0 42 0 2 0 8.2 1.1 10 0C795.8 394.1 794.6 387.1 794.6 384.2zM873.7 349.7c-2-12.8-10.6-22.4-21-22.4s-19.1 9.6-21 22.4h-6.7v19.7l27.6-6.5 28.2 6.7v-19.8H873.7zM870.8 300.3h-15.9v0.4h-2.2l0.7 27h1.8l0.5-16.4h15.1V300.3zM907.1 436.3c0-11 0-22 0-33 0-6 2-16.1 0-21.8 -1.1-3.3-2.1-2.5-6.5-3.6 -9.4-2.2-18.8-4.4-28.3-6.7 -6-1.4-13.4-4.6-19.6-4.6 -4.4 0-9.6 2.1-13.8 3.2 -9.5 2.3-19 4.5-28.5 6.8 -2.5 0.6-10.7 1.2-12.1 3.2 -1.6 2.2 0 11.4 0 14 0 9.1 0 18.1 0 27.2 0 17.8 0 35.7 0 53.5 0 2.2-0.6 5.7 0.7 6.8 2.1 1.6 12.1 0 14.7 0 31.1 0 62.3 0 93.4 0C907.1 466.3 907.1 451.3 907.1 436.3zM895.2 447.1c0 3.5 1.9 13.5 0 16.3 -0.7 1-10.3 2.7-12.1 1.1 -1.3-1.2-2-50.4 0-53.8 1.5-2.4 8.6-1.1 12.1-1.1C895.2 422.1 895.2 434.6 895.2 447.1zM871.5 447.1c0 3.5 1.9 13.5 0 16.3 -0.7 1-10.3 2.7-12.1 1.1 -1.3-1.2 0-11.1 0-12.7 0-7.7 0-15.4 0-23.1 0-3.7-2-14.6 0-17.9 1.5-2.4 8.6-1.1 12.1-1.1C871.5 422.1 871.5 434.6 871.5 447.1zM847.8 447.1c0 3.5 1.9 13.5 0 16.3 -0.7 1-10.3 2.7-12.1 1.1 -1.3-1.2-2-50.4 0-53.8 1.5-2.4 8.6-1.1 12.1-1.1C847.8 422.1 847.8 434.6 847.8 447.1zM824.1 447.1c0 3.5 1.9 13.5 0 16.3 -0.7 1-10.3 2.7-12.1 1.1 -1.3-1.2 0-11.1 0-12.7 0-7.7 0-15.4 0-23.1 0-3.7-2-14.6 0-17.9 1.5-2.4 8.6-1.1 12.1-1.1C824.1 422.1 824.1 434.6 824.1 447.1zM931.5 424.3c-0.5 0.6-11.3 1.1-12.1 0.3 -0.8-0.8-0.7-13.7 0-14.6 1.1-1.4 9.9-0.3 12.1-0.3C931.5 412.3 933.1 422.5 931.5 424.3zM956.6 424.3c-0.5 0.6-11.3 1.1-12.1 0.3 -0.8-0.8-0.7-13.7 0-14.6 1.1-1.4 9.9-0.3 12.1-0.3C956.6 412.3 958.2 422.5 956.6 424.3zM981.7 424.3c-0.5 0.6-11.3 1.1-12.1 0.3 -0.8-0.8-0.7-13.7 0-14.6 1.1-1.4 9.9-0.3 12.1-0.3C981.7 412.3 983.3 422.5 981.7 424.3zM1008.2 424.3c-0.5 0.6-11.3 1.1-12.1 0.3 -0.8-0.8-0.7-13.7 0-14.6 1.1-1.4 9.9-0.3 12.1-0.3C1008.2 412.3 1009.8 422.5 1008.2 424.3zM1020.8 399.4c-0.1-0.2-0.2-0.4-0.3-0.5 -1.1-1.1-8.7 0-10.2 0 -7.2 0-14.4 0-21.6 0 -17.9 0-35.7 0-53.6 0 -3.9 0-21.6-2.2-23.6 0.7 -1.8 2.6 0 12.6 0 15.5 0 8.6 0 17.3 0 25.9 0 8.7 0 17.5 0 26.2 0 2.3-1.5 11.9 0 13.8 2.3 2.9 21.9 0.4 25.8 0.4 27.8 0 55.5 0 83.3 0 0-14.3 0-28.7 0-43 0-9.3 0-18.6 0-27.9 0-0.6 0.1-2 0.3-3.6h4.2l1.4-2.7h1.2v-2.6h2.7v-2.2H1020.8zM709.3 424.3c-0.5 0.6-11.3 1.1-12.1 0.3 -0.8-0.8-0.7-13.7 0-14.6 1.1-1.4 9.9-0.3 12.1-0.3C709.3 412.3 710.9 422.5 709.3 424.3zM734.4 424.3c-0.5 0.6-11.3 1.1-12.1 0.3 -0.8-0.8-0.7-13.7 0-14.6 1.1-1.4 9.9-0.3 12.1-0.3C734.4 412.3 736 422.5 734.4 424.3zM759.5 424.3c-0.5 0.6-11.3 1.1-12.1 0.3 -0.8-0.8-0.7-13.7 0-14.6 1.1-1.4 9.9-0.3 12.1-0.3C759.5 412.3 761.1 422.5 759.5 424.3zM784.6 424.3c-0.5 0.6-11.3 1.1-12.1 0.3 -0.8-0.8-0.7-13.7 0-14.6 1.1-1.4 9.9-0.3 12.1-0.3C784.6 412.3 786.2 422.5 784.6 424.3zM794.1 398.9c-1.1-1.1-8.7 0-10.2 0 -7.2 0-14.4 0-21.6 0 -17.9 0-35.7 0-53.6 0 -3.9 0-21.4-2.1-23.5 0.7h-9.3v2.2h2.7v2.6h2.6v2.7h3.2c0.2 3.2 0.7 6.5 0.7 8.1 0 8.6 0 17.3 0 25.9 0 8.7 0 17.5 0 26.2 0 2.3-1.5 11.9 0 13.8 2.3 2.9 21.9 0.4 25.8 0.4 27.8 0 55.5 0 83.3 0 0-14.3 0-28.7 0-43 0-9.3 0-18.6 0-27.9C794.2 408.8 795.4 400.2 794.1 398.9z"/>
  <path class="st2" d="M911 484.6c-36 0-72 0-108.1 0 -5.5 0-9.6 1.4-7.8-4.6 1-3.2-0.9-1.3 1.8-2.1 2.1-0.7 6.7 0 8.9 0 21.7 0 43.3 0 65 0 10.8 0 21.5 0 32.3 0C911.8 477.9 911 477.1 911 484.6z"/>
  <path class="st2" d="M926.8 495.8c-45.3 0-90.6 0-135.9 0 -2.5 0-7.4 0.8-9.7 0 -2.5-0.8-2.3-0.5-1.9-4 0.5-3.6-0.7-2.1 2.6-2.8 2.9-0.6 7 0 10 0 27.2 0 54.4 0 81.7 0 13.9 0 27.8 0 41.7 0 2.5 0 7.8-0.9 10.1 0C928.1 490.1 926.8 492.8 926.8 495.8z"/>
  <path class="st2" d="M944.7 507c-55.8 0-111.6 0-167.4 0 -4 0-8.8 0.6-12.7 0 -3.8-0.5-3.2 0.8-3.2-3.4 0-4.1-0.7-2.9 2.9-3.4 3.9-0.6 8.5 0 12.4 0 33.4 0 66.7 0 100.1 0 17.3 0 34.6 0 52 0 3.8 0 9.8-0.9 13.4 0 0.5 0.1 2.1-0.3 2.4 0C945.6 501 944.7 505.7 944.7 507z"/>
  <path class="st3" d="M1840.1 405.7c0 6.7 0 13.3 0 20 0 5 0 9.9 0 14.9 0 1.8 1 7.5 0 9 -1.5 2.3-15.9 0.6-19.1 0.6 -1.2 0-7.5 0.8-8.3 0 -1.2-1.3 0-9.5 0-11.3 0-1.5 0.6-4.3 0-5.7 -0.8-1.9 0.6-0.5-1.3-1.3 -1.1-0.5-10.9-0.8-11.8 0 -1.1 1.1-0.1 8.1-0.1 9.7 0 1.5 0.8 7.7-0.2 8.6 -1.1 1-7.5 0-8.9 0 -5 0-10.1 0-15.1 0 -2.7 0-8.6 1.1-11.1 0 -1.7-0.8-1.1-2-1.1-4.5 0-4.8 0-9.7 0-14.5 0-2.9 0.8-3.8-1.4-4.5 -3.3-1.1-8.9 0-12.3 0 -3.2 0-9.7-1.3-12.6 0 -1.9 0.8-1.1 2.3-1.1 5 0 4.8 0 9.6 0 14.5 0 4 0.7 4.1-3.4 4.1 -2.1 0-6.9 0.9-7.8-0.7 -0.9-1.6 0-6.5 0-8.3 0-4.8 0-9.6 0-14.4 0-4.9 0-9.8 0-14.6 0-2-1-7.3 0-9.1 1.3-2.3 12.8-0.8 15.9-0.8 4.9 0 9.8 0 14.7 0 2.3 0 5.4 0.6 7.6 0 5.2-1.3 10.9-6 15.5-8.5 7.8-4.3 15.7-8.7 23.5-13 1.4-0.8 1.8-1.2 3-0.9 2.2 0.5 5.3 3.9 7.1 5.3 7.7 5.7 15.4 11.4 23.1 17.1C1836.8 403.3 1838.5 404.5 1840.1 405.7zM1789.2 410.9c-2.1 0-10.6-1.3-12 0 -0.6 0.6-0.7 9.4-0.1 10.1 0.5 0.5 10.8 0.5 11.6 0C1790.1 420 1789.2 413.1 1789.2 410.9zM1831.9 410.9c-2.1 0-10.6-1.3-12 0 -0.6 0.6-0.7 9.4-0.1 10.1 0.5 0.5 10.8 0.5 11.6 0C1832.9 420 1831.9 413.1 1831.9 410.9z"/>
  <path class="st3" d="M1844.6 400.6c-11-7.7-21.9-15.8-32.8-23.7 -2.5-1.8-6.1-5.8-9-5.2 -3.2 0.6-7.1 4-9.9 5.5 -2.4 1.3-4.7 2.6-7.1 4 0-1.2 0.7-5.7 0-6.5 -0.5-0.5-3.6-0.3-4.5-0.2 -2.9 0.3-1.9-0.6-2.4 1.9 -0.5 2.2 0.4 4.7 0 6.9 -0.5 2.7-1.6 3.1-4.3 3.4 -4 0.5-8.6 0-12.7 0 -5.3 0-10.6 0-15.9 0 -2 0-5.2-0.6-7.2 0 -3.3 1.1-6.8 4.6-9.7 6.6 -2.9 2-5.9 4-8.8 6 10.3 0 20.6 0 30.9 0 3.1 0 7.5 0.8 10.6 0 2.2-0.6 4.8-2.7 6.8-3.8 10.6-5.9 21.2-11.9 31.8-17.8 2.6-1.4 2.4-1.9 4.6-0.9 4.4 1.9 8.8 6.4 12.7 9.2 6 4.3 12 8.7 18 13 1.8 1.3 3.5 2.8 5.4 3.8C1843.1 403.8 1847.8 402.9 1844.6 400.6 1843.5 399.8 1846.8 402.1 1844.6 400.6z"/>
  <path class="st3" d="M1670.7 386.9c0.3-0.9 0.4-1.9 0.4-3 0-4.6-2.9-8.6-7.1-10.1 -1.3-5.9-6.5-10.3-12.7-10.6 -1.8-3.9-5.7-6.5-10.2-6.5 -3.1 0-5.8 1.2-7.9 3.2 -1.5-0.6-3-0.9-4.7-0.9 -7.1 0-12.8 5.7-12.8 12.8 0 0.3 0 0.6 0 1 -4.7 2.1-8 6.9-8 12.4 0 2.2 0.5 4.2 1.4 6 -3.2 2.8-5.2 6.9-5.2 11.5 0 8.4 6.8 15.1 15.1 15.1 2.5 0 4.8-0.6 6.9-1.6 2 2.7 5 4.7 8.4 5.4V455h11.2v-35.7c1.2-0.8 2.2-1.8 3.1-3 2.1 1.2 4.6 1.8 7.2 1.8 6.8 0 12.6-4.5 14.5-10.7 4-1.7 6.8-5.7 6.8-10.4C1677 392.6 1674.4 388.8 1670.7 386.9z"/>
  <path class="st2" d="M1862.7 259.3c0.1-0.5 0.2-1 0.2-1.6 0-2.5-1.6-4.6-3.8-5.4 -0.7-3.1-3.5-5.5-6.8-5.6 -1-2.1-3-3.5-5.5-3.5 -1.6 0-3.1 0.7-4.2 1.7 -0.8-0.3-1.6-0.5-2.5-0.5 -3.8 0-6.9 3.1-6.9 6.9 0 0.2 0 0.3 0 0.5 -2.5 1.1-4.3 3.7-4.3 6.6 0 1.2 0.3 2.2 0.7 3.2 -1.7 1.5-2.8 3.7-2.8 6.1 0 4.5 3.6 8.1 8.1 8.1 1.3 0 2.6-0.3 3.7-0.9 1.1 1.5 2.7 2.5 4.5 2.9v17.8h6v-19.1c0.6-0.4 1.2-1 1.6-1.6 1.1 0.6 2.4 1 3.8 1 3.6 0 6.7-2.4 7.7-5.7 2.1-0.9 3.7-3.1 3.7-5.5C1866.1 262.4 1864.7 260.3 1862.7 259.3z"/>
  <path class="st2" d="M1810.7 265.4c0.1-0.4 0.2-0.8 0.2-1.2 0-1.9-1.2-3.6-2.9-4.2 -0.6-2.4-2.7-4.3-5.3-4.4 -0.7-1.6-2.4-2.7-4.3-2.7 -1.3 0-2.4 0.5-3.3 1.3 -0.6-0.2-1.3-0.4-2-0.4 -2.9 0-5.3 2.4-5.3 5.3 0 0.1 0 0.3 0 0.4 -2 0.9-3.3 2.9-3.3 5.2 0 0.9 0.2 1.7 0.6 2.5 -1.3 1.2-2.2 2.9-2.2 4.8 0 3.5 2.8 6.3 6.3 6.3 1 0 2-0.2 2.9-0.7 0.8 1.1 2.1 2 3.5 2.3v13.9h4.6v-14.8c0.5-0.3 0.9-0.8 1.3-1.2 0.9 0.5 1.9 0.8 3 0.8 2.8 0 5.2-1.9 6-4.4 1.7-0.7 2.8-2.4 2.8-4.3C1813.3 267.8 1812.3 266.2 1810.7 265.4z"/>
  <path class="st5" d="M735.2 671.7h81v55.5h-81V671.7zM1983.1 608.7v141h93.6v-141H1983.1zM1814.3 640.8h162v105h-162v12h-247.5v-6h-252v-20.1h-73.5v8.1h-161.8v0.6H884.9V624.3h194.7v12h132.6v-45.6h15.7v-8.6h30v8.6h12.3v-41.3h3.3v41.3h58.6v54.6h234.6v-120h31.6c-0.2-4.1-1.8-15.6-0.5-19.6 -1.7 0-3.5 0-5.2 0 5.8-4.4 11.5-8.8 17.3-13.3 5.8 4.4 11.5 8.8 17.3 13.3 -1.8 0-3.7 0-5.5 0 0.5 3.8 0.5 16.5-0.1 19.6h192.7V640.8z"/>
  <rect x="760" y="679.4" class="st3" width="11.1" height="17.5"/>
  <rect x="781.3" y="679.4" class="st3" width="11.1" height="17.5"/>
  <rect x="1050.2" y="634.4" class="st3" width="11.1" height="17.5"/>
  <rect x="1220.7" y="603.3" class="st3" width="14.4" height="15"/>
  <rect x="1245.2" y="603.3" class="st3" width="14.4" height="15"/>
  <rect x="1269.6" y="603.3" class="st3" width="14.4" height="15"/>
  <rect x="1294" y="603.3" class="st3" width="14.4" height="15"/>
  <rect x="1580.8" y="541.1" class="st3" width="14.4" height="20.8"/>
  <rect x="1580.8" y="573.1" class="st3" width="14.4" height="20.8"/>
  <rect x="1649.2" y="541.1" class="st3" width="14.4" height="20.8"/>
  <rect x="1649.2" y="573.1" class="st3" width="14.4" height="20.8"/>
  <rect x="1674" y="541.1" class="st3" width="14.4" height="20.8"/>
  <rect x="1674" y="573.1" class="st3" width="14.4" height="20.8"/>
  <rect x="1649.2" y="605.7" class="st3" width="14.4" height="20.8"/>
  <rect x="1649.2" y="637.7" class="st3" width="14.4" height="20.8"/>
  <rect x="1674" y="605.7" class="st3" width="14.4" height="20.8"/>
  <rect x="1674" y="637.7" class="st3" width="14.4" height="20.8"/>
  <rect x="1220.7" y="627.7" class="st3" width="14.4" height="15"/>
  <rect x="1245.2" y="627.7" class="st3" width="14.4" height="15"/>
  <rect x="1269.6" y="627.7" class="st3" width="14.4" height="15"/>
  <rect x="1294" y="627.7" class="st3" width="14.4" height="15"/>
  <rect x="1050.2" y="661.9" class="st3" width="11.1" height="17.5"/>
  <rect x="1050.2" y="689.4" class="st3" width="11.1" height="17.5"/>
  <rect x="2057.9" y="627.4" class="st3" width="11.1" height="17.5"/>
  <rect x="2057.9" y="654.9" class="st3" width="11.1" height="17.5"/>
  <rect x="2057.9" y="682.4" class="st3" width="11.1" height="17.5"/>
  <path class="st6" d="M2525 701c-3.4 5.6-36.1-18.2-40.3-20.7 -5.2-3.2-12.8-10.1-18.8-11.5 -3.2-0.7-5 1.2-8.2 3.1 -15.9 9.2-31.9 18.4-47.8 27.7 -1.2 0.7-2.9 2.2-4.3 2.5 -5.3 1.2-5.7-3.3-2.4-6.1 3.1-2.6 7.7-4.4 11.2-6.5 1.8-1.1 7-2.9 8.2-4.7 1.2-1.9 0.2-10.6-0.1-12.8 -0.2-1.4-0.8-2.8-0.9-3.1 0 0-2-3.4-0.9-4.6 1.2-1.2 10.2-0.1 11.9 0 1.5 0.1 2.9-0.4 3.6 0.5 1.1 1.4 0.2 4.5-1.7 4.1 0 3 0.1 5.9 0.1 8.9 8.5-4.9 16.9-10.3 25.6-14.8 6.3-3.3 10.2 1.2 15.9 4.6 10.5 6.4 21 12.8 31.5 19.2C2510.5 688.3 2528 696.1 2525 701 2524.1 702.5 2525.9 699.4 2525 701zM2464.5 671c-11.9 6.9-23.9 13.8-35.8 20.8 -3.6 2.1-12.5 5.1-14.8 8.6 -1.6 2.3-0.4 9-0.4 11.9 0 9.1 0 18.2 0 27.3 0 1.9-1.4 12.3 0.1 13.6 0.8 0.7 5.1 0 6.1 0 4.3 0 8.7 0 13 0 4.2 0 8.4 0 12.6 0 2.2 0 8.1 1.1 10 0 2.5-1.4 1.1-10.2 1.1-13.6 0-3.4-1.8-16.1 0.5-18.2 1.2-1.1 9.3 0 10.9 0 4.2 0 3.1-0.7 4 2.2 0.9 3 0 7.5 0 10.6 0 4.6 0 9.1 0 13.7 0 6.5 0.3 5.3 6.8 5.3 8.8 0 17.5 0 26.3 0 1.5 0 6.4 0.8 7.8 0 1.4-0.8 0.3 0 0.9-2 1.9-6.3 0-16.2 0-22.7 0-7.9 1.7-18.1 0-25.8 -0.9-3.8-4.5-4.7-8.2-6.9C2491.7 687.5 2478.1 679.3 2464.5 671zM2498.6 710.4c-2.5 0-12.8 1.6-14.5 0 -0.5-0.5-0.7-13.8 0-14.5 0.8-0.8 13.9-0.5 14.5 0C2500.2 697.5 2498.6 707.9 2498.6 710.4zM2470.7 710.4c-2.5 0-12.8 1.6-14.5 0 -0.5-0.5-0.7-13.8 0-14.5 0.8-0.8 13.9-0.5 14.5 0C2472.3 697.5 2470.7 707.9 2470.7 710.4zM2442.8 710.4c-2.5 0-12.8 1.6-14.5 0 -0.5-0.5-0.7-13.8 0-14.5 0.8-0.8 13.9-0.5 14.5 0C2444.4 697.5 2442.8 707.9 2442.8 710.4zM2498.6 735.9c-2.5 0-12.8 1.6-14.5 0 -0.5-0.5-0.7-13.8 0-14.5 0.8-0.8 13.9-0.5 14.5 0C2500.2 723 2498.6 733.4 2498.6 735.9zM2442.8 735.9c-2.5 0-12.8 1.6-14.5 0 -0.5-0.5-0.7-13.8 0-14.5 0.8-0.8 13.9-0.5 14.5 0C2444.4 723 2442.8 733.4 2442.8 735.9z"/>
  <path class="st4" d="M2046.5 719.5c0-5.1 0-10.1 0-15.2 0-4.4 2.2-15.8 0-19.5 -2.1-3.6-13-1.7-17.9-1.7 -24.9 0-49.8 0-74.6 0 -1 0-5.8-0.7-6.7 0 -2.2 1.8 2 10.8-0.1 13 -0.4 0.5-5.3 1-5.9 0.4 -1.1-1.1 0.7-5.7 0-7.1 -1.5-2.9 0.6-0.5-2.7-1.8 -2.8-1.1-8.3 0-11.2 0 -5.5 0-11 0-16.5 0 -14.1 0-28.1 0-42.2 0 -10.8 0-21.6 0-32.5 0 -1.7 0-3.1 0-4.2 0.1v-31.2h-3.7v-48.2c0-4.5-6.4-8.1-9.8-8.5 0-1.5 0-4 0-4h-7.1v3.9c-3.5 0.4-8.6 3.4-9.6 8.1v7.3h-5.4v14.2h-5.3v-39c0-2.6-1.9-5.4-5.5-5.4h-25.2c-3.6 0-5.5 3-5.5 5.2v3.7h-2v4.2c-3.6 0.4-8.7 3.5-9.6 8.2v15.9h-10.8c-2.5 0-5.3 2.3-5.3 5.3v51.4h3.5v-51.4c0-1 1.2-1.8 1.8-1.8h10.8v53.2h-31.2l-1.3 0 -1.4 73.6 107.3 0.1c0 0.1 0 0.3 0 0.4 0 1.6-1.1 8.1 0 9.5 0.9 1.1 1.2 0.3 3.1 0.7 7.7 1.9 18.4 0 26.4 0 15.4 0 30.8 0 46.2 0 41.9 0 83.9 0 125.8 0 9.1 0 18.6 0 27.7 0C2045.8 763.2 2047.5 718.2 2046.5 719.5zM1799.9 618.6h1.9v10.6h-1.9V618.6zM1799.9 632.8h1.9V647h-1.9V632.8zM1758.4 590.1c0-0.2 0.4-1.7 1.9-1.7h25.2c1.6 0 2 1.2 2 1.8v42.5h8.9V647h-14.2v-14.2h-12.5v-1.3h0v-24.8c0-4.5-6.4-8.1-9.8-8.5 0-1.1 0-2.1 0-4.3h-1.5V590.1zM1789.5 677.5l-15.5 0.3v-17h-4.3v-26.3h10.7v14.2h16v8h-6.9V677.5zM1799.9 656.8v-8h1.9v8H1799.9z"/>
  <polygon class="st4" points="2025.6 493.5 2014 493.5 2005.6 680.5 2035.5 680.5 "/>
  <polygon class="st4" points="1987.7 466.5 1973.6 466.5 1962.5 680.5 1998.7 680.5 "/>
  <path class="st4" d="M951.5 589.2v-57.3c0 0-5.6-3.6-4.2 0.9 2 6.3 1.4 36.3 1 40 -0.3 3.7-1.3 16.4-1.3 16.4H951.5z"/>
  <path class="st4" d="M942.2 589.2v-38.5c0 0-6.4-2.4-4.8 0.6 2.3 4.3 1.5 24.4 1.2 26.9 -0.4 2.5-1.5 11-1.5 11H942.2z"/>
  <path class="st4" d="M879 732.4c0-22.7 0-45.5 0-68.2 0-16.2 0-32.4 0-48.6 0-5.6 0-11.1 0-16.7 0-2-1-7.3 0-9.1 1.6-2.8 11-1.2 14.7-1.2 16.8 0 33.7 0 50.5 0 11.4 0 22.8-0.2 34.3-0.5v146.1L879 732.4zM959.1 602.9c-1.2-2.1 0.1-1.1-3.6-1.5 -0.9-0.1-7.7-0.8-8.4 0 -1.5 1.6-0.6 15.1 0 17.4 0.9 3.5-0.8 1.6 2.9 2.5 2.7 0.7 6.3 0 9.1 0C959.1 617.1 961 606.4 959.1 602.9zM959.1 634.3c-1.2-2.1 0.1-1.1-3.6-1.5 -0.9-0.1-7.7-0.8-8.4 0 -1.5 1.6-0.6 15.1 0 17.4 0.9 3.5-0.8 1.6 2.9 2.5 2.7 0.7 6.3 0 9.1 0C959.1 648.5 961 637.8 959.1 634.3zM934.8 602.9c-1.2-2.1 0.1-1.1-3.6-1.5 -0.9-0.1-7.7-0.8-8.4 0 -1.5 1.6-0.6 15.1 0 17.4 0.9 3.5-0.8 1.6 2.9 2.5 2.7 0.7 6.3 0 9.1 0C934.8 617.1 936.8 606.4 934.8 602.9zM934.8 634.3c-1.2-2.1 0.1-1.1-3.6-1.5 -0.9-0.1-7.7-0.8-8.4 0 -1.5 1.6-0.6 15.1 0 17.4 0.9 3.5-0.8 1.6 2.9 2.5 2.7 0.7 6.3 0 9.1 0C934.8 648.5 936.8 637.8 934.8 634.3zM910.5 602.9c-1.2-2.1 0.1-1.1-3.6-1.5 -0.9-0.1-7.7-0.8-8.4 0 -1.5 1.6-0.6 15.1 0 17.4 0.9 3.5-0.8 1.6 2.9 2.5 2.7 0.7 6.3 0 9.1 0C910.5 617.1 912.5 606.4 910.5 602.9zM910.5 634.3c-1.2-2.1 0.1-1.1-3.6-1.5 -0.9-0.1-7.7-0.8-8.4 0 -1.5 1.6-0.6 15.1 0 17.4 0.9 3.5-0.8 1.6 2.9 2.5 2.7 0.7 6.3 0 9.1 0C910.5 648.5 912.5 637.8 910.5 634.3zM959.1 667.2c-1.2-2.1 0.1-1.1-3.6-1.5 -0.9-0.1-7.7-0.8-8.4 0 -1.5 1.6-0.6 15.1 0 17.4 0.9 3.5-0.8 1.6 2.9 2.5 2.7 0.7 6.3 0 9.1 0C959.1 681.4 961 670.8 959.1 667.2zM959.1 717c0-4.2 2-14.9 0-18.4 -1.2-2.1 0.1-1.1-3.6-1.5 -0.9-0.1-7.7-0.8-8.4 0 -1.5 1.6-0.6 15.1 0 17.4 0.9 3.5-0.8 1.6 2.9 2.5M934.8 667.2c-1.2-2.1 0.1-1.1-3.6-1.5 -0.9-0.1-7.7-0.8-8.4 0 -1.5 1.6-0.6 15.1 0 17.4 0.9 3.5-0.8 1.6 2.9 2.5 2.7 0.7 6.3 0 9.1 0C934.8 681.4 936.8 670.8 934.8 667.2zM934.8 698.6c-1.2-2.1 0.1-1.1-3.6-1.5 -0.9-0.1-7.7-0.8-8.4 0 -1.5 1.6-0.6 15.1 0 17.4 0.9 3.5-0.8 1.6 2.9 2.5 2.7 0.7 6.3 0 9.1 0C934.8 712.8 936.8 702.1 934.8 698.6zM910.5 667.2c-1.2-2.1 0.1-1.1-3.6-1.5 -0.9-0.1-7.7-0.8-8.4 0 -1.5 1.6-0.6 15.1 0 17.4 0.9 3.5-0.8 1.6 2.9 2.5 2.7 0.7 6.3 0 9.1 0C910.5 681.4 912.5 670.8 910.5 667.2zM910.5 698.6c-1.2-2.1 0.1-1.1-3.6-1.5 -0.9-0.1-7.7-0.8-8.4 0 -1.5 1.6-0.6 15.1 0 17.4 0.9 3.5-0.8 1.6 2.9 2.5 2.7 0.7 6.3 0 9.1 0C910.5 712.8 912.5 702.1 910.5 698.6z"/>
  <path class="st4" d="M880.3 574.6c0 12.2 0 24.3 0 36.5 0 43.7 0 94.6 0 122.6 -3.9 0-7.9 0-11.8 0 0.2-5.2 1.9-21.8 0-25.1 -1.2-2.1 0.1-1.1-3.6-1.5 -0.9-0.1-7.7-0.8-8.4 0 -1.5 1.6-0.6 22.6 0 24.8 0.2 0.9 0.3 1.5 0.3 1.8 -14.8 0-29.6 0-44.4 0V566.6c11.8-0.2 23.7-0.5 35.5-0.4v-7.5H871v8.1c1.9 0.1 3.8 0.2 5.6 0.3C882 567.4 880.3 569 880.3 574.6zM832.1 579.4c-0.2-0.8-0.9-1.3-2.5-1.5 -0.9-0.1-4.9-0.8-5.7 0 -1.5 1.6-0.6 15.1 0 17.4 0.9 3.5-0.8 1.6 2.9 2.5 2.7 0.7 2.5 0 5.3 0C832.1 593.6 834.1 582.9 832.1 579.4zM832.1 609.7c-0.2-0.8-0.9-1.3-2.5-1.5 -0.9-0.1-4.9-0.8-5.7 0 -1.5 1.6-0.6 15.1 0 17.4 0.9 3.5-0.8 1.6 2.9 2.5 2.7 0.7 2.5 0 5.3 0C832.1 623.9 834.1 613.2 832.1 609.7zM832.1 640.1c-0.2-0.8-0.9-1.3-2.5-1.5 -0.9-0.1-4.9-0.8-5.7 0 -1.5 1.6-0.6 15.1 0 17.4 0.9 3.5-0.8 1.6 2.9 2.5 2.7 0.7 2.5 0 5.3 0C832.1 654.3 834.1 643.6 832.1 640.1z"/>
  <path class="st4" d="M1365.5 739c0-20.6 0-41.1 0-61.7 0-14.7 0-29.3 0-44 0-5 0-10 0-15.1 0-1.8-0.9-6.6 0-8.2 1.4-2.6 139.9-1.1 143.3-1.1 15.2 0 30.5 0 45.7 0 10.3 0 20.7-0.2 76-0.4v132.1L1365.5 739zM1517.9 622c-1.1-1.9 0.1-1-3.3-1.3 -0.8-0.1-6.9-0.7-7.6 0 -1.4 1.4-0.5 13.7 0 15.7 0.8 3.2-0.7 1.4 2.6 2.3 2.4 0.6 5.7 0 8.3 0C1517.9 634.8 1519.7 625.2 1517.9 622zM1517.9 650.3c-1.1-1.9 0.1-1-3.3-1.3 -0.8-0.1-6.9-0.7-7.6 0 -1.4 1.4-0.5 13.7 0 15.7 0.8 3.2-0.7 1.4 2.6 2.3 2.4 0.6 5.7 0 8.3 0C1517.9 663.2 1519.7 653.5 1517.9 650.3zM1496 622c-1.1-1.9 0.1-1-3.3-1.3 -0.8-0.1-6.9-0.7-7.6 0 -1.4 1.4-0.5 13.7 0 15.7 0.8 3.2-0.7 1.4 2.6 2.3 2.4 0.6 5.7 0 8.3 0C1496 634.8 1497.8 625.2 1496 622zM1496 650.3c-1.1-1.9 0.1-1-3.3-1.3 -0.8-0.1-6.9-0.7-7.6 0 -1.4 1.4-0.5 13.7 0 15.7 0.8 3.2-0.7 1.4 2.6 2.3 2.4 0.6 5.7 0 8.3 0C1496 663.2 1497.8 653.5 1496 650.3zM1474 622c-1.1-1.9 0.1-1-3.3-1.3 -0.8-0.1-6.9-0.7-7.6 0 -1.4 1.4-0.5 13.7 0 15.7 0.8 3.2-0.7 1.4 2.6 2.3 2.4 0.6 5.7 0 8.3 0C1474 634.8 1475.8 625.2 1474 622zM1474 650.3c-1.1-1.9 0.1-1-3.3-1.3 -0.8-0.1-6.9-0.7-7.6 0 -1.4 1.4-0.5 13.7 0 15.7 0.8 3.2-0.7 1.4 2.6 2.3 2.4 0.6 5.7 0 8.3 0C1474 663.2 1475.8 653.5 1474 650.3zM1517.9 680.2c-1.1-1.9 0.1-1-3.3-1.3 -0.8-0.1-6.9-0.7-7.6 0 -1.4 1.4-0.5 13.7 0 15.7 0.8 3.2-0.7 1.4 2.6 2.3 2.4 0.6 5.7 0 8.3 0C1517.9 693 1519.7 683.3 1517.9 680.2zM1496 680.2c-1.1-1.9 0.1-1-3.3-1.3 -0.8-0.1-6.9-0.7-7.6 0 -1.4 1.4-0.5 13.7 0 15.7 0.8 3.2-0.7 1.4 2.6 2.3 2.4 0.6 5.7 0 8.3 0C1496 693 1497.8 683.3 1496 680.2zM1474 680.2c-1.1-1.9 0.1-1-3.3-1.3 -0.8-0.1-6.9-0.7-7.6 0 -1.4 1.4-0.5 13.7 0 15.7 0.8 3.2-0.7 1.4 2.6 2.3 2.4 0.6 5.7 0 8.3 0C1474 693 1475.8 683.3 1474 680.2zM1612.6 622c-1.1-1.9 0.1-1-3.3-1.3 -0.8-0.1-6.9-0.7-7.6 0 -1.4 1.4-0.5 13.7 0 15.7 0.8 3.2-0.7 1.4 2.6 2.3 2.4 0.6 5.7 0 8.3 0C1612.6 634.8 1614.4 625.2 1612.6 622zM1612.6 650.3c-1.1-1.9 0.1-1-3.3-1.3 -0.8-0.1-6.9-0.7-7.6 0 -1.4 1.4-0.5 13.7 0 15.7 0.8 3.2-0.7 1.4 2.6 2.3 2.4 0.6 5.7 0 8.3 0C1612.6 663.2 1614.4 653.5 1612.6 650.3zM1590.6 622c-1.1-1.9 0.1-1-3.3-1.3 -0.8-0.1-6.9-0.7-7.6 0 -1.4 1.4-0.5 13.7 0 15.7 0.8 3.2-0.7 1.4 2.6 2.3 2.4 0.6 5.7 0 8.3 0C1590.6 634.8 1592.4 625.2 1590.6 622zM1590.6 650.3c-1.1-1.9 0.1-1-3.3-1.3 -0.8-0.1-6.9-0.7-7.6 0 -1.4 1.4-0.5 13.7 0 15.7 0.8 3.2-0.7 1.4 2.6 2.3 2.4 0.6 5.7 0 8.3 0C1590.6 663.2 1592.4 653.5 1590.6 650.3zM1612.6 680.2c-1.1-1.9 0.1-1-3.3-1.3 -0.8-0.1-6.9-0.7-7.6 0 -1.4 1.4-0.5 13.7 0 15.7 0.8 3.2-0.7 1.4 2.6 2.3 2.4 0.6 5.7 0 8.3 0C1612.6 693 1614.4 683.3 1612.6 680.2zM1590.6 680.2c-1.1-1.9 0.1-1-3.3-1.3 -0.8-0.1-6.9-0.7-7.6 0 -1.4 1.4-0.5 13.7 0 15.7 0.8 3.2-0.7 1.4 2.6 2.3 2.4 0.6 5.7 0 8.3 0C1590.6 693 1592.4 683.3 1590.6 680.2z"/>
  <path class="st4" d="M1251.6 670.7c0.3-0.9 0.4-1.9 0.4-3 0-4.6-2.9-8.6-7.1-10.1 -1.3-5.9-6.5-10.3-12.7-10.6 -1.8-3.9-5.7-6.5-10.2-6.5 -3.1 0-5.8 1.2-7.9 3.2 -1.5-0.6-3-0.9-4.7-0.9 -7.1 0-12.8 5.7-12.8 12.8 0 0.3 0 0.6 0 1 -4.7 2.1-8 6.9-8 12.4 0 2.2 0.5 4.2 1.4 6 -3.2 2.8-5.2 6.9-5.2 11.5 0 8.4 6.8 15.1 15.1 15.1 2.5 0 4.8-0.6 6.9-1.6 2 2.7 5 4.7 8.4 5.4v33.3h11.2v-35.7c1.2-0.8 2.2-1.8 3.1-3 2.1 1.2 4.6 1.8 7.2 1.8 6.8 0 12.6-4.5 14.5-10.7 4-1.7 6.8-5.7 6.8-10.4C1257.9 676.4 1255.3 672.5 1251.6 670.7z"/>
  <path class="st4" d="M428.3 632.2c19-12.2 39-24.4 58-36.5 0 8.1 0 16.3 0 24.4 0 10.2-1.4 10.1 8.9 10.1 4 0 14.1 1.7 16.2-1 1.7-2.3 0.9-10.7 1.2-13.5 3.3-39.4 6.6-78.8 9.9-118.2 0.4-5.1-0.6-24.6 3.2-27.4 2-1.5 15.2-0.6 16.2 0.8 1.5 2 0.5 9.7 0.6 12.2 2 39.6 3.9 79.1 5.9 118.7 0.2 4.8-1.6 25.3 1.9 28.3 2.2 1.9 13.1 0.2 14.2-1.3 1.5-2 0.5-9.4 0.7-11.8 2.2-39.4 4.4-78.8 6.6-118.2 0.9-16.7 1.9-33.5 2.8-50.2 0.1-2-0.7-8.6 0.6-10.2 0.8-1 15.7-1.6 17.2-0.4 3 2.5 1.6 20.6 1.8 24.6 1.1 19.7 2.2 39.3 3.3 59 1.2 21.5 2.4 42.9 3.6 64.4 0.7 12.1-1.4 28.7 2.3 40.3 1.5 4.8-1.3 2.5 4.3 3.7 3 0.6 17.9 1.4 19.5-0.7 2.3-2.9 0-17.4 0-20.9 0-10.9 0-21.7 0-32.6 0-3.2-2.3-17.6 0-20 1-1.1 5.5-0.4 7.3-0.4 18.8 0 37.7 0 56.5 0 17.6 0 36.4-2 53.9 0 2.6 0.3 4.1-0.6 5.2 0.9 1.4 1.9 0.2 10.4 0.2 12.6 0 39.6 0 79.2 0 118.7 0 8.4 0 16.9 0 25.3 0 3.3 1.4 11.5-0.2 14.5 -1.5 2.9-3.1 1.9-7.7 1.9 -66.9 0-133.7 0-200.6 0 -72.1 0-144.2 0-216.3 0 -2.5 0-14.1 1.9-16.1 0.1 -3.5-3.1-0.1-27.3-0.1-32 0-19.9 0-39.9 0-59.8 0-2.8-0.9-6.9 0.5-9 2.7-4.1 13.6-7.6 17.9-10 13.9-7.7 27.8-15.4 41.8-23.2 0 9.6-1.2 20 0 29.5 1 7.4 2.4 4.4 8.7 0.7 16.7-10.1 33.2-20.1 50.2-30.2C428.3 607.8 428.3 620 428.3 632.2zM390.3 661.5h-14v9h14V661.5zM390.3 674.5h-14v8h14V674.5zM408.3 661.5h-14v9h14V661.5zM408.3 674.5h-14v8h14V674.5zM426.3 661.5h-14v9h14V661.5zM426.3 674.5h-14v8h14V674.5zM444.3 661.5h-14v9h14V661.5zM444.3 674.5h-14v8h14V674.5zM462.3 661.5h-14v9h14V661.5zM462.3 674.5h-14v8h14V674.5z"/>
  <g class="st7">
    <path class="st8" d="M2019.6 444.2c-2.4 0-4.8 0-7.2 0C2013.5 444.9 2017.3 444.5 2019.6 444.2z"/>
  </g>
  <path class="st3" d="M2101.9 443.5v-76.6 -16.1V218.6c-10.4 0.2-20.8 0.4-31 0.4 -15.2 0-30.5 0-45.7 0 -3.4 0-11.9-1.5-13.3 1.1 -0.9 1.6 0 6.4 0 8.2 0 5 0 10 0 15.1 0 14.7 0 29.3 0 44 0 20.6 0 41.1 0 61.7 0 5.9 0 11.8 0 17.7 -5.1 0-10.3 0-15.4 0 -1.4 0-5.4-0.7-6.6 0 -1.5 0.9-0.7 0.4-1 3 -1.9 15.9 0 33.2 0 49.2 0 3.9-2.3 23.2 0.6 25.2 1 0.7 5 0 6.2 0 4 0 8.1 0 12.1 0 1.5 0 3 0 4.5 0 2.4 0 4.8 0 7.2 0 0.6-0.1 1.1-0.1 1.4-0.1 2.1 0 37.2 0 82 0C2102.5 444 2102.1 443.7 2101.9 443.5z"/>
  <path class="st6" d="M2084.3 232.1c-1.1-1.9 0.1-1-3.3-1.3 -0.8-0.1-6.9-0.7-7.6 0 -1.4 1.4-0.5 13.7 0 15.7 0.8 3.2-0.7 1.4 2.6 2.3 2.4 0.6 5.7 0 8.3 0C2084.3 244.9 2086.1 235.3 2084.3 232.1z"/>
  <path class="st6" d="M2084.3 260.4c-1.1-1.9 0.1-1-3.3-1.3 -0.8-0.1-6.9-0.7-7.6 0 -1.4 1.4-0.5 13.7 0 15.7 0.8 3.2-0.7 1.4 2.6 2.3 2.4 0.6 5.7 0 8.3 0C2084.3 273.3 2086.1 263.6 2084.3 260.4z"/>
  <path class="st6" d="M2062.4 232.1c-1.1-1.9 0.1-1-3.3-1.3 -0.8-0.1-6.9-0.7-7.6 0 -1.4 1.4-0.5 13.7 0 15.7 0.8 3.2-0.7 1.4 2.6 2.3 2.4 0.6 5.7 0 8.3 0C2062.4 244.9 2064.1 235.3 2062.4 232.1z"/>
  <path class="st6" d="M2062.4 260.4c-1.1-1.9 0.1-1-3.3-1.3 -0.8-0.1-6.9-0.7-7.6 0 -1.4 1.4-0.5 13.7 0 15.7 0.8 3.2-0.7 1.4 2.6 2.3 2.4 0.6 5.7 0 8.3 0C2062.4 273.3 2064.1 263.6 2062.4 260.4z"/>
  <path class="st6" d="M2040.4 232.1c-1.1-1.9 0.1-1-3.3-1.3 -0.8-0.1-6.9-0.7-7.6 0 -1.4 1.4-0.5 13.7 0 15.7 0.8 3.2-0.7 1.4 2.6 2.3 2.4 0.6 5.7 0 8.3 0C2040.4 244.9 2042.2 235.3 2040.4 232.1z"/>
  <path class="st6" d="M2040.4 260.4c-1.1-1.9 0.1-1-3.3-1.3 -0.8-0.1-6.9-0.7-7.6 0 -1.4 1.4-0.5 13.7 0 15.7 0.8 3.2-0.7 1.4 2.6 2.3 2.4 0.6 5.7 0 8.3 0C2040.4 273.3 2042.2 263.6 2040.4 260.4z"/>
  <path class="st3" d="M2305.1 389.1c0-3 0-6 0-9 0-1.8 1.4-12 0-13.2 -0.4-0.4-2.5 0-3.1 0 -21.5-2-44.1 0-65.6 0 -9.3 0-18.7 0-28 0 0-4.6 0-9.3 0-13.9 0-31.4 0-62.7 0-94.1 0-28.7 0-57.3 0-86 0-1.9 1.4-11.7 0-13.1 -1.1-1.1-8.8 0-10.3 0 -7.6 0-15.1 0-22.7 0 -18.2 0-36.3 0-54.5 0 -3.5 0-17.4-1.8-19 0.9 -0.8 1.4 0 5.7 0 7.2 0 4.2 0 8.5 0 12.7 0 13.6 0 24.3 0 37.9v0.2c19.4-0.4 39-0.8 58.2 0.4 4.9 0.3 3.3 1.8 3.3 6.9 0 11 0 22 0 33 0 32.6 0 67.6 0 93.1 0 5.4 0 10.4 0 14.8 0 13.3 0 21.7 0 22.2h45c0 17.2 0 34.3 0 51.5 0 1.2 0 2.4 0 3.6 51.2 0 93.4 0 95.7 0l0.9 0 24.1 0.3v-55.4H2305.1z"/>
  <path class="st6" d="M2198.5 175.4c-1.1-1.9 0.1-1-3.3-1.3 -0.8-0.1-6.9-0.7-7.6 0 -1.4 1.4-0.5 13.7 0 15.7 0.8 3.2-0.7 1.4 2.6 2.3 2.4 0.6 5.7 0 8.3 0C2198.5 188.2 2200.3 178.6 2198.5 175.4z"/>
  <path class="st6" d="M2198.5 203.7c-1.1-1.9 0.1-1-3.3-1.3 -0.8-0.1-6.9-0.7-7.6 0 -1.4 1.4-0.5 13.7 0 15.7 0.8 3.2-0.7 1.4 2.6 2.3 2.4 0.6 5.7 0 8.3 0C2198.5 216.6 2200.3 206.9 2198.5 203.7z"/>
  <path class="st6" d="M2198.5 232.1c-1.1-1.9 0.1-1-3.3-1.3 -0.8-0.1-6.9-0.7-7.6 0 -1.4 1.4-0.5 13.7 0 15.7 0.8 3.2-0.7 1.4 2.6 2.3 2.4 0.6 5.7 0 8.3 0C2198.5 244.9 2200.3 235.3 2198.5 232.1z"/>
  <path class="st6" d="M2198.5 260.4c-1.1-1.9 0.1-1-3.3-1.3 -0.8-0.1-6.9-0.7-7.6 0 -1.4 1.4-0.5 13.7 0 15.7 0.8 3.2-0.7 1.4 2.6 2.3 2.4 0.6 5.7 0 8.3 0C2198.5 273.3 2200.3 263.6 2198.5 260.4z"/>
  <path class="st6" d="M2198.5 288.8c-1.1-1.9 0.1-1-3.3-1.3 -0.8-0.1-6.9-0.7-7.6 0 -1.4 1.4-0.5 13.7 0 15.7 0.8 3.2-0.7 1.4 2.6 2.3 2.4 0.6 5.7 0 8.3 0C2198.5 301.6 2200.3 292 2198.5 288.8z"/>
  <path class="st6" d="M2163.4 389.1c0-0.5 0-8.9 0-22.2 0-25.3 0-68.3 0-107.9 0-11 0-22 0-33 0-5.1 1.6-6.6-3.3-6.9 -19.2-1.2-38.7-0.8-58.2-0.4v148.2 76.6c0.2 0.3 0.6 0.5 1 0.7 6.2 0 12.6 0 19.2 0 28.1 0 58.5 0 86.3 0 0-1.2 0-2.4 0-3.6 0-17.2 0-34.3 0-51.5H2163.4zM2151.3 431.3c0 3.9 0 7.9 0 11.8 -4.3 0-8.6 0-12.9 0 -4.7 0-4.7 1.1-5.7-2.3 -1.4-4.5 0-11.6 0-16.3 0-1.7-1.2-9.8 0-11 1.4-1.4 10.9 0 12.9 0 4.5 0 4.9-1.2 5.7 2.3C2152.5 420.3 2151.3 426.6 2151.3 431.3z"/>
  <path class="st6" d="M2033 216.6c4.9 0 26.4 3.4 29.6 0 1-1.1 1-26.4 0-27.5 -1.7-1.8-29-0.7-29.6 0C2030 192.4 2033 211.7 2033 216.6z"/>
  <path class="st6" d="M2047.9 173.4c7.4 5.7 14.8 11.1 22.3 17.1 -14.8 0-29.7 0-44.5 0C2033 184.5 2040.4 179.1 2047.9 173.4z"/>
  <path class="st3" d="M1918.1 423.1c-0.1-0.6-0.1-1.2-0.1-1.8 0-7.2 5.4-13.2 12.5-14 0.9-7.6 7.4-13.6 15.3-13.6 7.3 0 13.5 5.1 15 12 1.7-0.8 3.6-1.2 5.6-1.2 6.5 0 11.9 4.5 13.5 10.5 0.6-0.1 1.1-0.1 1.7-0.1 9.8 0 17.7 8 17.7 17.8s-7.9 17.8-17.7 17.8h-55.5c-8.2 0-14.8-6.7-14.8-14.9C1911.2 430.4 1914 425.7 1918.1 423.1z"/>
  <path class="st3" d="M2151.3 431.3c0 3.9 0 8.9 0 12.8 -4.3 0-8.6 0-12.9 0 -4.7 0-4.7 1.1-5.7-2.3 -1.4-4.5 0-12.6 0-17.3 0-1.7-1.2-9.8 0-11 1.4-1.4 10.9 0 12.9 0 4.5 0 4.9-1.2 5.7 2.3C2152.5 420.3 2151.3 426.6 2151.3 431.3z"/>
  <polygon class="st4" points="2849.4 747.6 0 719.4 0 896.3 2849.4 896.3 "/>
</svg>
