<svg xmlns="http://www.w3.org/2000/svg" xmlns:xlink="http://www.w3.org/1999/xlink" version="1.1" id="Layer_1" x="0" y="0" viewBox="0 0 1652 140.9" xml:space="preserve" enable-background="new 0 0 1652 140.9">
  <style type="text/css">
    
	.st0{fill:#CAD9DF;}
	.st1{fill:#B8C9CD;}
	.st2{fill:#407F00;}
	.st3{opacity:0.23;}
	.st4{fill:#435400;}
	.st5{fill:#6B9B29;}
	.st6{fill:#578D18;}

  </style>
  <rect class="st0" width="1652" height="140.9"/>
  <polygon class="st1" points="802.1 115 720.1 92.5 685.3 99.4 633.6 78.9 610.6 92.5 538.5 78.9 495.3 108.9 "/>
  <polygon class="st2" points="1642.8 140.9 281.2 95.6 12.4 140.9 "/>
  <path class="st1" d="M678.8 67.4c-0.1-0.2-0.1-0.4-0.1-0.5 0-2.1 1.6-3.9 3.6-4.1 0.2-2.2 2.2-4 4.5-4 2.1 0 3.9 1.5 4.4 3.5 0.5-0.2 1.1-0.4 1.6-0.4 1.9 0 3.5 1.3 3.9 3 0.2 0 0.4-0.1 0.5-0.1 2.9 0 5.2 2.3 5.2 5.2s-2.3 5.2-5.2 5.2H681c-2.4 0-4.3-1.9-4.3-4.3C676.7 69.5 677.6 68.2 678.8 67.4z"/>
  <path class="st2" d="M1160.1 109.6c0.1-0.2 0.1-0.4 0.1-0.7 0-1.2-0.7-2.1-1.7-2.5 -0.3-1.4-1.6-2.5-3.1-2.5 -0.4-0.9-1.4-1.6-2.5-1.6 -0.7 0-1.4 0.3-1.9 0.8 -0.4-0.1-0.7-0.2-1.2-0.2 -1.7 0-3.1 1.4-3.1 3.1 0 0.1 0 0.1 0 0.2 -1.2 0.5-1.9 1.7-1.9 3 0 0.6 0.1 1 0.3 1.4 -0.8 0.6-1.3 1.7-1.3 2.7 0 2 1.7 3.7 3.7 3.7 0.6 0 1.2-0.1 1.7-0.4 0.5 0.6 1.2 1.2 2 1.3v8.1h2.7v-8.7c0.3-0.2 0.6-0.4 0.7-0.7 0.5 0.3 1.1 0.4 1.7 0.4 1.7 0 3-1.1 3.5-2.6 0.9-0.4 1.7-1.4 1.7-2.5C1161.6 111 1161 110 1160.1 109.6z"/>
  <path class="st2" d="M1136.4 112.4c0.1-0.2 0.1-0.4 0.1-0.6 0-0.9-0.6-1.7-1.3-1.9 -0.3-1.1-1.2-1.9-2.4-2 -0.3-0.7-1.1-1.2-1.9-1.2 -0.6 0-1.1 0.2-1.5 0.6 -0.3-0.1-0.6-0.2-0.9-0.2 -1.3 0-2.4 1.1-2.4 2.4 0 0.1 0 0.1 0 0.2 -0.9 0.4-1.5 1.3-1.5 2.4 0 0.4 0.1 0.8 0.3 1.2 -0.6 0.6-1 1.3-1 2.2 0 1.6 1.3 2.9 2.9 2.9 0.4 0 0.9-0.1 1.3-0.3 0.4 0.5 0.9 0.9 1.6 1v6.4h2.1v-6.7c0.2-0.1 0.4-0.4 0.6-0.6 0.4 0.2 0.9 0.4 1.4 0.4 1.3 0 2.4-0.9 2.7-2 0.8-0.3 1.3-1.1 1.3-1.9C1137.6 113.5 1137.2 112.8 1136.4 112.4z"/>
  <g class="st3">
    <path class="st4" d="M1240.5 133.4c-0.8 0-1.6 0-2.4 0C1238.5 133.6 1239.8 133.5 1240.5 133.4z"/>
  </g>
  <path class="st5" d="M1267.8 133.2v-25.4 -5.3V58.7c-3.5 0.1-6.9 0.2-10.2 0.2 -5 0-10.1 0-15.1 0 -1.1 0-3.9-0.5-4.4 0.4 -0.3 0.5 0 2.1 0 2.7 0 1.6 0 3.3 0 5 0 4.9 0 9.7 0 14.6 0 6.8 0 13.6 0 20.4 0 1.9 0 3.9 0 5.9 -1.7 0-3.4 0-5.1 0 -0.5 0-1.8-0.2-2.2 0 -0.5 0.3-0.2 0.2-0.3 1 -0.6 5.3 0 11 0 16.3 0 1.3-0.7 7.7 0.2 8.4 0.3 0.2 1.7 0 2 0 1.3 0 2.7 0 4 0 0.5 0 1 0 1.5 0 0.8 0 1.6 0 2.4 0 0.2-0.1 0.4-0.1 0.5-0.1 0.7 0 12.3 0 27.2 0C1268 133.4 1267.9 133.3 1267.8 133.2z"/>
  <path class="st6" d="M1262 63.2c-0.4-0.6 0.1-0.3-1.1-0.4 -0.3-0.1-2.3-0.2-2.5 0 -0.5 0.5-0.2 4.5 0 5.2 0.3 1.1-0.2 0.5 0.8 0.7 0.8 0.2 1.9 0 2.7 0C1262 67.4 1262.6 64.3 1262 63.2z"/>
  <path class="st6" d="M1262 72.6c-0.4-0.6 0.1-0.3-1.1-0.4 -0.3-0.1-2.3-0.2-2.5 0 -0.5 0.5-0.2 4.5 0 5.2 0.3 1.1-0.2 0.5 0.8 0.7 0.8 0.2 1.9 0 2.7 0C1262 76.8 1262.6 73.6 1262 72.6z"/>
  <path class="st6" d="M1254.7 63.2c-0.4-0.6 0.1-0.3-1.1-0.4 -0.3-0.1-2.3-0.2-2.5 0 -0.5 0.5-0.2 4.5 0 5.2 0.3 1.1-0.2 0.5 0.8 0.7 0.8 0.2 1.9 0 2.7 0C1254.7 67.4 1255.3 64.3 1254.7 63.2z"/>
  <path class="st6" d="M1254.7 72.6c-0.4-0.6 0.1-0.3-1.1-0.4 -0.3-0.1-2.3-0.2-2.5 0 -0.5 0.5-0.2 4.5 0 5.2 0.3 1.1-0.2 0.5 0.8 0.7 0.8 0.2 1.9 0 2.7 0C1254.7 76.8 1255.3 73.6 1254.7 72.6z"/>
  <path class="st6" d="M1247.4 63.2c-0.4-0.6 0.1-0.3-1.1-0.4 -0.3-0.1-2.3-0.2-2.5 0 -0.5 0.5-0.2 4.5 0 5.2 0.3 1.1-0.2 0.5 0.8 0.7 0.8 0.2 1.9 0 2.7 0C1247.4 67.4 1248.1 64.3 1247.4 63.2z"/>
  <path class="st6" d="M1247.4 72.6c-0.4-0.6 0.1-0.3-1.1-0.4 -0.3-0.1-2.3-0.2-2.5 0 -0.5 0.5-0.2 4.5 0 5.2 0.3 1.1-0.2 0.5 0.8 0.7 0.8 0.2 1.9 0 2.7 0C1247.4 76.8 1248.1 73.6 1247.4 72.6z"/>
  <path class="st5" d="M1335.1 115.2c0-1 0-2 0-3 0-0.6 0.5-4 0-4.4 -0.2-0.2-0.8 0-1.1 0 -7.1-0.7-14.6 0-21.7 0 -3.1 0-6.2 0-9.3 0 0-1.5 0-3.1 0-4.6 0-10.4 0-20.8 0-31.2 0-9.5 0-19 0-28.5 0-0.6 0.5-3.9 0-4.4 -0.4-0.4-2.9 0-3.4 0 -2.5 0-5 0-7.5 0 -6 0-12 0-18 0 -1.2 0-5.8-0.6-6.3 0.3 -0.3 0.5 0 1.9 0 2.4 0 1.4 0 2.8 0 4.2 0 4.5 0 8 0 12.6v0.1c6.4-0.2 12.9-0.3 19.3 0.2 1.6 0.1 1.1 0.6 1.1 2.3 0 3.6 0 7.3 0 10.9 0 10.8 0 22.4 0 30.9 0 1.8 0 3.5 0 4.9 0 4.4 0 7.2 0 7.4h14.9c0 5.7 0 11.4 0 17 0 0.4 0 0.8 0 1.2 17 0 30.9 0 31.7 0h0.3l8 0.1v-18.5L1335.1 115.2 1335.1 115.2z"/>
  <path class="st6" d="M1299.8 44.4c-0.4-0.6 0.1-0.3-1.1-0.4 -0.3-0.1-2.3-0.2-2.5 0 -0.5 0.5-0.2 4.5 0 5.2 0.3 1.1-0.2 0.5 0.8 0.7 0.8 0.2 1.9 0 2.7 0C1299.8 48.6 1300.4 45.5 1299.8 44.4z"/>
  <path class="st6" d="M1299.8 53.8c-0.4-0.6 0.1-0.3-1.1-0.4 -0.3-0.1-2.3-0.2-2.5 0 -0.5 0.5-0.2 4.5 0 5.2 0.3 1.1-0.2 0.5 0.8 0.7 0.8 0.2 1.9 0 2.7 0C1299.8 58.1 1300.4 54.8 1299.8 53.8z"/>
  <path class="st6" d="M1299.8 63.2c-0.4-0.6 0.1-0.3-1.1-0.4 -0.3-0.1-2.3-0.2-2.5 0 -0.5 0.5-0.2 4.5 0 5.2 0.3 1.1-0.2 0.5 0.8 0.7 0.8 0.2 1.9 0 2.7 0C1299.8 67.4 1300.4 64.3 1299.8 63.2z"/>
  <path class="st6" d="M1299.8 72.6c-0.4-0.6 0.1-0.3-1.1-0.4 -0.3-0.1-2.3-0.2-2.5 0 -0.5 0.5-0.2 4.5 0 5.2 0.3 1.1-0.2 0.5 0.8 0.7 0.8 0.2 1.9 0 2.7 0C1299.8 76.8 1300.4 73.6 1299.8 72.6z"/>
  <path class="st6" d="M1299.8 82c-0.4-0.6 0.1-0.3-1.1-0.4 -0.3-0.1-2.3-0.2-2.5 0 -0.5 0.5-0.2 4.5 0 5.2 0.3 1.1-0.2 0.5 0.8 0.7 0.8 0.2 1.9 0 2.7 0C1299.8 86.2 1300.4 83 1299.8 82z"/>
  <path class="st6" d="M1288.2 115.2c0-0.2 0-2.9 0-7.4 0-8.4 0-22.6 0-35.7 0-3.6 0-7.3 0-10.9 0-1.7 0.5-2.2-1.1-2.3 -6.4-0.4-12.8-0.3-19.3-0.2v49.1 25.4c0.1 0.1 0.2 0.2 0.3 0.2 2 0 4.2 0 6.4 0 9.3 0 19.4 0 28.6 0 0-0.4 0-0.8 0-1.2 0-5.7 0-11.4 0-17H1288.2L1288.2 115.2zM1284.2 129.2c0 1.3 0 2.6 0 3.9 -1.4 0-2.8 0-4.3 0 -1.6 0-1.6 0.4-1.9-0.7 -0.5-1.5 0-3.8 0-5.4 0-0.6-0.4-3.3 0-3.6 0.5-0.5 3.6 0 4.3 0 1.5 0 1.6-0.4 1.9 0.7C1284.5 125.5 1284.2 127.6 1284.2 129.2z"/>
  <path class="st6" d="M1245 58.1c1.6 0 8.7 1.1 9.8 0 0.3-0.4 0.3-8.7 0-9.1 -0.6-0.6-9.6-0.2-9.8 0C1244 50.1 1245 56.4 1245 58.1z"/>
  <path class="st6" d="M1249.9 43.8c2.5 1.9 4.9 3.7 7.4 5.7 -4.9 0-9.8 0-14.7 0C1245 47.4 1247.4 45.6 1249.9 43.8z"/>
  <path class="st5" d="M1211.3 124.6c-0.1-0.2-0.1-0.4-0.1-0.6 0-2.4 1.8-4.4 4.2-4.6 0.3-2.5 2.5-4.5 5-4.5 2.4 0 4.5 1.7 5 4 0.6-0.3 1.2-0.4 1.8-0.4 2.2 0 3.9 1.5 4.5 3.5 0.2-0.1 0.4-0.1 0.6-0.1 3.3 0 5.9 2.6 5.9 5.9s-2.6 5.9-5.9 5.9h-18.4c-2.7 0-4.9-2.2-4.9-4.9C1208.9 127 1209.9 125.4 1211.3 124.6z"/>
  <path class="st5" d="M1284.2 129.2c0 1.3 0 2.9 0 4.3 -1.4 0-2.8 0-4.3 0 -1.6 0-1.6 0.4-1.9-0.7 -0.5-1.5 0-4.2 0-5.7 0-0.6-0.4-3.3 0-3.6 0.5-0.5 3.6 0 4.3 0 1.5 0 1.6-0.4 1.9 0.7C1284.5 125.5 1284.2 127.6 1284.2 129.2z"/>
</svg>
