<svg xmlns="http://www.w3.org/2000/svg" xmlns:xlink="http://www.w3.org/1999/xlink" version="1.1" id="Layer_1" x="0" y="0" viewBox="0 0 1652 140.9" xml:space="preserve" enable-background="new 0 0 1652 140.9">
  <style type="text/css">
    
	.st0{fill:#CAD9DF;}
	.st1{fill:#B8C9CD;}
	.st2{fill:#407F00;}

  </style>
  <rect class="st0" width="1652" height="140.9"/>
  <polygon class="st1" points="802.1 115 726.5 94.3 694.4 100.6 646.8 81.7 625.6 94.3 559.1 81.7 519.3 109.4 "/>
  <polygon class="st2" points="1642.8 140.9 281.2 95.6 12.4 140.9 "/>
  <path class="st1" d="M678.8 67.4c-0.1-0.2-0.1-0.4-0.1-0.5 0-2.1 1.6-3.9 3.6-4.1 0.2-2.2 2.2-4 4.5-4 2.1 0 3.9 1.5 4.4 3.5 0.5-0.2 1.1-0.4 1.6-0.4 1.9 0 3.5 1.3 3.9 3 0.2 0 0.4-0.1 0.5-0.1 2.9 0 5.2 2.3 5.2 5.2s-2.3 5.2-5.2 5.2h-16.2c-2.4 0-4.3-1.9-4.3-4.3C676.7 69.5 677.6 68.2 678.8 67.4z"/>
  <path class="st2" d="M1160.1 109.6c0.1-0.2 0.1-0.4 0.1-0.7 0-1.2-0.7-2.1-1.7-2.5 -0.3-1.4-1.6-2.5-3.1-2.5 -0.4-0.9-1.4-1.6-2.5-1.6 -0.7 0-1.4 0.3-1.9 0.8 -0.4-0.1-0.7-0.2-1.2-0.2 -1.7 0-3.1 1.4-3.1 3.1 0 0.1 0 0.1 0 0.2 -1.2 0.5-1.9 1.7-1.9 3 0 0.6 0.1 1 0.3 1.4 -0.8 0.6-1.3 1.7-1.3 2.7 0 2 1.7 3.7 3.7 3.7 0.6 0 1.2-0.1 1.7-0.4 0.5 0.6 1.2 1.2 2 1.3v8.1h2.7v-8.7c0.3-0.2 0.6-0.4 0.7-0.7 0.5 0.3 1.1 0.4 1.7 0.4 1.7 0 3-1.1 3.5-2.6 0.9-0.4 1.7-1.4 1.7-2.5C1161.6 111 1161 110 1160.1 109.6z"/>
  <path class="st2" d="M1136.4 112.4c0.1-0.2 0.1-0.4 0.1-0.6 0-0.9-0.6-1.7-1.3-1.9 -0.3-1.1-1.2-1.9-2.4-2 -0.3-0.7-1.1-1.2-1.9-1.2 -0.6 0-1.1 0.2-1.5 0.6 -0.3-0.1-0.6-0.2-0.9-0.2 -1.3 0-2.4 1.1-2.4 2.4 0 0.1 0 0.1 0 0.2 -0.9 0.4-1.5 1.3-1.5 2.4 0 0.4 0.1 0.8 0.3 1.2 -0.6 0.6-1 1.3-1 2.2 0 1.6 1.3 2.9 2.9 2.9 0.4 0 0.9-0.1 1.3-0.3 0.4 0.5 0.9 0.9 1.6 1v6.4h2.1v-6.7c0.2-0.1 0.4-0.4 0.6-0.6 0.4 0.2 0.9 0.4 1.4 0.4 1.3 0 2.4-0.9 2.7-2 0.8-0.3 1.3-1.1 1.3-1.9C1137.6 113.5 1137.2 112.8 1136.4 112.4z"/>
</svg>
