<svg xmlns="http://www.w3.org/2000/svg" xmlns:xlink="http://www.w3.org/1999/xlink" version="1.1" id="Layer_1" x="0" y="0" viewBox="0 0 2574 580" xml:space="preserve" enable-background="new 0 0 2574 580">
  <style type="text/css">
    
	.st0{fill:#CAD9DF;}
	.st1{fill:#B8C9CD;}
	.st2{fill:#407F00;}
	.st3{fill:#6B9B29;}
	.st4{fill:#4E880C;}
	.st5{fill:#5D9215;}
	.st6{fill:#578D18;}
	.st7{opacity:0.23;}
	.st8{fill:#435400;}

  </style>
  <rect class="st0" width="2574" height="580"/>
  <polygon class="st1" points="1010.2 174 885.5 139.9 832.6 150.3 754.1 119.1 719.2 139.9 609.6 119.1 553.9 157.9 "/>
  <polygon class="st2" points="2574 231.9 0 133.8 0 337.5 2574 264.9 "/>
  <polygon class="st3" points="2574 259.9 0 337.5 0 495.5 2574 495.4 "/>
  <path class="st1" d="M806.9 98.9c-0.1-0.3-0.1-0.6-0.1-0.8 0-3.5 2.6-6.4 6-6.7 0.4-3.7 3.6-6.6 7.4-6.6 3.5 0 6.5 2.5 7.2 5.7 0.8-0.4 1.8-0.6 2.7-0.6 3.2 0 5.7 2.1 6.5 5 0.3 0 0.6-0.1 0.8-0.1 4.7 0 8.5 3.8 8.5 8.5s-3.8 8.5-8.5 8.5h-26.7c-3.9 0-7.1-3.2-7.1-7.1C803.5 102.4 804.9 100.2 806.9 98.9z"/>
  <path class="st3" d="M1449.5 282.5c0-0.3-0.1-0.4-0.1-0.7 0-2.9 2.2-5.3 5-5.7 0.4-3.1 3-5.5 6.2-5.5 3 0 5.4 2.1 6 4.9 0.7-0.3 1.4-0.5 2.3-0.5 2.6 0 4.8 1.8 5.4 4.2 0.3 0 0.4-0.1 0.7-0.1 4 0 7.1 3.1 7.1 7.1s-3.2 7.1-7.1 7.1h-22.3c-3.3 0-6-2.6-6-5.9C1446.8 285.4 1447.9 283.6 1449.5 282.5z"/>
  <path class="st4" d="M1812 427.2c-4.8-4.8-9.5-9.8-14.4-14.4 -2.3-2.1-4.2-1.1-5.6 0.5 -4.2 4.7-8.8 8.9-13.5 12.9 -1.4 1.2-1.6 1-3.7 1 -3.7 0-7.4 0-11.1 0 -9.8 0-19.7 0-29.5 0 -2 0-6.7-0.9-8.5 0 -1.1 0.5-0.7 0.9-0.7 2.5 0 16.9 0 30.4 0 47.2 0 1.7-0.3 1.4 0.8 1.9 2 0.8 6.2 0 8.3 0 9.8 0 19.6 0 29.4 0 4.6 0 9.1 0 13.7 0 2.1 0 6 0.8 8.1 0 1.4-0.6 0.8-2 0.8-3.8 0-4.9 0-6.2 0-11.1 0-1.5-0.8-7 0.2-7.9 0.5-0.4 4.1 0 4.7 0 2.6 0 5.2 0 7.7 0 3.8 0 3.8-0.6 3.8 3 0 4.6 0 5.8 0 10.4 0 2.1 0 4.2 0 6.4 0 0.5-0.3 2.7 0 3 0.4 0.4 4 0 4.6 0 9 0 18.1 0 27.1 0 8.8 0 17.5 0 26.2 0 0.8 0 2.8 0.3 3.2-0.3 0.8-0.9 0-5.9 0-7 0-9.6 0-15.9 0-25.6 0-4.3 0-8.6 0-13 0-0.9 0.6-5.2 0-5.9 -0.5-0.5-4.1 0-4.8 0 -4.3 0-8.7 0-13 0 -9.5 0-19 0-28.4 0C1815.5 427.2 1813.7 427.2 1812 427.2zM1744.7 453c-2.1 0-4.2 0-6.3 0 -2.1 0-1.6 0.3-1.9-1.4 -0.4-2.3 0-4.9 0-7.2 0-0.6-0.5-4.5 0-4.9 0.8-0.6 5 0 5.9 0 2.1 0 1.8-0.4 2.3 1.2C1745.6 444.4 1744.7 449.1 1744.7 453zM1763.8 453c-2.1 0-4.2 0-6.3 0 -2.1 0-1.6 0.3-1.9-1.4 -0.4-2.3 0-4.9 0-7.2 0-0.6-0.5-4.5 0-4.9 0.8-0.6 5 0 5.9 0 2.1 0 1.8-0.4 2.3 1.2C1764.6 444.4 1763.8 449.1 1763.8 453zM1834.1 453c-2.1 0-4.2 0-6.3 0 -2.1 0-1.6 0.3-1.9-1.4 -0.4-2.3 0-4.9 0-7.2 0-0.6-0.5-4.5 0-4.9 0.8-0.6 5 0 5.9 0 2.1 0 1.8-0.4 2.3 1.2C1835 444.4 1834.1 449.1 1834.1 453zM1853.2 453c-2.1 0-4.2 0-6.3 0 -2.1 0-1.6 0.3-1.9-1.4 -0.4-2.3 0-4.9 0-7.2 0-0.6-0.5-4.5 0-4.9 0.8-0.6 5 0 5.9 0 2.1 0 1.8-0.4 2.3 1.2C1854 444.4 1853.2 449.1 1853.2 453zM1794.3 443c-5.4 0-9.8-4.4-9.8-9.8 0-5.4 4.4-9.8 9.8-9.8s9.8 4.4 9.8 9.8C1804.2 438.6 1799.8 443 1794.3 443zM1798.5 439.1l-5.8-5.5 -0.2-7.7h1.8l-0.2 7.1 5.1 5.4L1798.5 439.1z"/>
  <path class="st4" d="M1843.5 389.4c-5.4 0-10.8 0-16.1 0 -4.5 0-9.1 0-13.7 0 -1.6 0-3.6 0.4-4.9-0.4 -1.3-0.8-2.6-2.6-3.7-3.7 -1.9-1.9-3.8-3.8-5.7-5.7 -2.6-2.6-4.1-3.2-4-6.7 0.1-2.3-0.2-4.8 0.2-7.1 0.3-1.9-0.3-1.1 1.4-1.4 2.1-0.4 9.6 1.3 10.8-0.3 0.6-0.9 0.3-6.3 0-7.4 -0.4-1.6-0.4-1.1-2.5-1.1 -4 0-8.1-0.1-12.1-0.1 0.1 4.7 0.3 9.3 0.3 13.9 0.1 1.6 0.7 4.5 0.1 6.1 -0.4 1-1.5 1.8-2.3 2.6 -2 2-4 4-6 6 -1.3 1.3-3.2 4.1-4.9 4.9 -2 0.9-5.7 0.3-7.9 0.3 -6 0-12.1 0-18.1 0 -4.3 0-7.2-0.5-11.5 0.2 -1.9 0.3-4.4 1.1-5.9 2.5 -3.8 3.6-7.6 6.3-11.4 9.8 -5.6 5.2-10.8 11-16.8 15.8 -3.5 2.8 1.6 5.2 6 4.9 9.7-0.5 19.5 0 29.2 0 8.1 0 16.3 0 24.4 0 1.6 0 4.1 0.5 5.7 0 1.2-0.4 2.2-1.8 3.1-2.8 3.2-3.1 6.3-6.3 9.5-9.5 1.5-1.5 3-3 4.6-4.6 0.6-0.6 2-2.6 2.9-2.9 1.3-0.4 2.4 1.5 3.6 2.7 3.2 3.2 6.4 6.4 9.6 9.6 2.9 2.9 5.4 7.4 9.7 7.4 6.9 0 13.9 0 20.8 0 13.9 0 24.6-1.7 38.3 0 5.7 0.7 5.6-3 2.9-6.2 -7.6-8.9-17.2-15-25.6-23.2C1850.6 390.4 1845.4 389.4 1843.5 389.4z"/>
  <path class="st3" d="M965.6 251.7c1.3-0.8 5.8 0 7.3 0 9.8 0 19.5 0 29.3 0 9 0 18.1 0 27.1 0 1.3 0 3.5-0.4 4.6 0 2.8 1.1 5.8 5.1 8 7.1 -25.6 0-51.3 0-76.9 0C965.1 256.8 964.3 252.6 965.6 251.7zM891.4 251.7c-14.3 0-28.7 0-43 0 -7.8 0-15.6 0-23.5 0 -1.1 0-2.6-0.3-3.5 0.1 -2.4 0.9-5.4 5.2-7.2 7 14.7 0 29.4 0 44 0 8.8 0 17.6 0 26.5 0 1.3 0 5.2 0.7 6.3 0C892.1 257.9 891.4 253.5 891.4 251.7zM941.2 230c-1.3-8.1-6.7-14.1-13.2-14.1s-12 6-13.2 14.1h-4.2v12.4l17.4-4.1 17.8 4.2V230L941.2 230 941.2 230zM939.4 198.8h-10v0.3H928l0.4 17h1.1l0.3-10.3h9.5L939.4 198.8 939.4 198.8zM962.2 284.5c0-6.9 0-13.9 0-20.8 0-3.8 1.3-10.1 0-13.7 -0.7-2.1-1.3-1.6-4.1-2.3 -5.9-1.4-11.8-2.8-17.8-4.2 -3.8-0.9-8.4-2.9-12.3-2.9 -2.8 0-6 1.3-8.7 2 -6 1.4-12 2.8-18 4.3 -1.6 0.4-6.7 0.8-7.6 2 -1 1.4 0 7.2 0 8.8 0 5.7 0 11.4 0 17.1 0 11.2 0 22.5 0 33.7 0 1.4-0.4 3.6 0.4 4.3 1.3 1 7.6 0 9.3 0 19.6 0 39.2 0 58.8 0C962.2 303.4 962.2 294 962.2 284.5zM954.7 291.3c0 2.2 1.2 8.5 0 10.3 -0.4 0.6-6.5 1.7-7.6 0.7 -0.8-0.8-1.3-31.8 0-33.9 0.9-1.5 5.4-0.7 7.6-0.7C954.7 275.6 954.7 283.5 954.7 291.3zM939.8 291.3c0 2.2 1.2 8.5 0 10.3 -0.4 0.6-6.5 1.7-7.6 0.7 -0.8-0.8 0-7 0-8 0-4.9 0-9.7 0-14.6 0-2.3-1.3-9.2 0-11.3 0.9-1.5 5.4-0.7 7.6-0.7C939.8 275.6 939.8 283.5 939.8 291.3zM924.9 291.3c0 2.2 1.2 8.5 0 10.3 -0.4 0.6-6.5 1.7-7.6 0.7 -0.8-0.8-1.3-31.8 0-33.9 0.9-1.5 5.4-0.7 7.6-0.7C924.9 275.6 924.9 283.5 924.9 291.3zM909.9 291.3c0 2.2 1.2 8.5 0 10.3 -0.4 0.6-6.5 1.7-7.6 0.7 -0.8-0.8 0-7 0-8 0-4.9 0-9.7 0-14.6 0-2.3-1.3-9.2 0-11.3 0.9-1.5 5.4-0.7 7.6-0.7C909.9 275.6 909.9 283.5 909.9 291.3zM977.6 277c-0.3 0.4-7.1 0.7-7.6 0.2 -0.5-0.5-0.4-8.6 0-9.2 0.7-0.9 6.2-0.2 7.6-0.2C977.6 269.4 978.6 275.8 977.6 277zM993.4 277c-0.3 0.4-7.1 0.7-7.6 0.2 -0.5-0.5-0.4-8.6 0-9.2 0.7-0.9 6.2-0.2 7.6-0.2C993.4 269.4 994.4 275.8 993.4 277zM1009.2 277c-0.3 0.4-7.1 0.7-7.6 0.2 -0.5-0.5-0.4-8.6 0-9.2 0.7-0.9 6.2-0.2 7.6-0.2C1009.2 269.4 1010.2 275.8 1009.2 277zM1025.9 277c-0.3 0.4-7.1 0.7-7.6 0.2 -0.5-0.5-0.4-8.6 0-9.2 0.7-0.9 6.2-0.2 7.6-0.2C1025.9 269.4 1026.9 275.8 1025.9 277zM1033.9 261.3c-0.1-0.1-0.1-0.3-0.2-0.3 -0.7-0.7-5.5 0-6.4 0 -4.5 0-9.1 0-13.6 0 -11.3 0-22.5 0-33.8 0 -2.5 0-13.6-1.4-14.9 0.4 -1.1 1.6 0 7.9 0 9.8 0 5.4 0 10.9 0 16.3 0 5.5 0 11 0 16.5 0 1.4-0.9 7.5 0 8.7 1.4 1.8 13.8 0.3 16.3 0.3 17.5 0 35 0 52.5 0 0-9 0-18.1 0-27.1 0-5.9 0-11.7 0-17.6 0-0.4 0.1-1.3 0.2-2.3h2.6l0.9-1.7h0.8v-1.6h1.7v-1.4L1033.9 261.3 1033.9 261.3zM837.6 277c-0.3 0.4-7.1 0.7-7.6 0.2 -0.5-0.5-0.4-8.6 0-9.2 0.7-0.9 6.2-0.2 7.6-0.2C837.6 269.4 838.6 275.8 837.6 277zM853.4 277c-0.3 0.4-7.1 0.7-7.6 0.2 -0.5-0.5-0.4-8.6 0-9.2 0.7-0.9 6.2-0.2 7.6-0.2C853.4 269.4 854.4 275.8 853.4 277zM869.2 277c-0.3 0.4-7.1 0.7-7.6 0.2 -0.5-0.5-0.4-8.6 0-9.2 0.7-0.9 6.2-0.2 7.6-0.2C869.2 269.4 870.3 275.8 869.2 277zM885.1 277c-0.3 0.4-7.1 0.7-7.6 0.2 -0.5-0.5-0.4-8.6 0-9.2 0.7-0.9 6.2-0.2 7.6-0.2C885.1 269.4 886.1 275.8 885.1 277zM891 261c-0.7-0.7-5.5 0-6.4 0 -4.5 0-9.1 0-13.6 0 -11.3 0-22.5 0-33.8 0 -2.5 0-13.5-1.3-14.8 0.4h-5.9v1.4h1.7v1.6h1.6v1.7h2c0.1 2 0.4 4.1 0.4 5.1 0 5.4 0 10.9 0 16.3 0 5.5 0 11 0 16.5 0 1.4-0.9 7.5 0 8.7 1.4 1.8 13.8 0.3 16.3 0.3 17.5 0 35 0 52.5 0 0-9 0-18.1 0-27.1 0-5.9 0-11.7 0-17.6C891.1 267.2 891.9 261.8 891 261z"/>
  <path class="st2" d="M964.7 315c-22.7 0-45.4 0-68.1 0 -3.5 0-6 0.9-4.9-2.9 0.6-2-0.6-0.8 1.1-1.3 1.3-0.4 4.2 0 5.6 0 13.7 0 27.3 0 41 0 6.8 0 13.5 0 20.3 0C965.2 310.7 964.7 310.2 964.7 315z"/>
  <path class="st2" d="M974.6 322c-28.5 0-57.1 0-85.6 0 -1.6 0-4.7 0.5-6.1 0 -1.6-0.5-1.4-0.3-1.2-2.5 0.3-2.3-0.4-1.3 1.6-1.8 1.8-0.4 4.4 0 6.3 0 17.1 0 34.3 0 51.5 0 8.8 0 17.5 0 26.3 0 1.6 0 4.9-0.6 6.4 0C975.5 318.4 974.6 320.1 974.6 322z"/>
  <path class="st2" d="M985.9 329.1c-35.2 0-70.3 0-105.5 0 -2.5 0-5.5 0.4-8 0 -2.4-0.3-2 0.5-2-2.1 0-2.6-0.4-1.8 1.8-2.1 2.5-0.4 5.4 0 7.8 0 21 0 42 0 63.1 0 10.9 0 21.8 0 32.8 0 2.4 0 6.2-0.6 8.4 0 0.3 0.1 1.3-0.2 1.5 0C986.5 325.3 985.9 328.2 985.9 329.1z"/>
  <path class="st3" d="M1550 265.2c0 4.2 0 8.4 0 12.6 0 3.1 0 6.2 0 9.4 0 1.1 0.6 4.7 0 5.7 -0.9 1.4-10 0.4-12 0.4 -0.8 0-4.7 0.5-5.2 0 -0.8-0.8 0-6 0-7.1 0-0.9 0.4-2.7 0-3.6 -0.5-1.2 0.4-0.3-0.8-0.8 -0.7-0.3-6.9-0.5-7.4 0 -0.7 0.7-0.1 5.1-0.1 6.1 0 0.9 0.5 4.9-0.1 5.4 -0.7 0.6-4.7 0-5.6 0 -3.2 0-6.4 0-9.5 0 -1.7 0-5.4 0.7-7 0 -1.1-0.5-0.7-1.3-0.7-2.8 0-3 0-6.1 0-9.1 0-1.8 0.5-2.4-0.9-2.8 -2.1-0.7-5.6 0-7.7 0 -2 0-6.1-0.8-7.9 0 -1.2 0.5-0.7 1.4-0.7 3.1 0 3 0 6 0 9.1 0 2.5 0.4 2.6-2.1 2.6 -1.3 0-4.3 0.6-4.9-0.4 -0.6-1 0-4.1 0-5.2 0-3 0-6 0-9.1 0-3.1 0-6.2 0-9.2 0-1.3-0.6-4.6 0-5.7 0.8-1.4 8.1-0.5 10-0.5 3.1 0 6.2 0 9.3 0 1.4 0 3.4 0.4 4.8 0 3.3-0.8 6.9-3.8 9.8-5.4 4.9-2.7 9.9-5.5 14.8-8.2 0.9-0.5 1.1-0.8 1.9-0.6 1.4 0.3 3.3 2.5 4.5 3.3 4.9 3.6 9.7 7.2 14.6 10.8C1547.9 263.7 1549 264.5 1550 265.2zM1518 268.5c-1.3 0-6.7-0.8-7.6 0 -0.4 0.4-0.4 5.9-0.1 6.4 0.3 0.3 6.8 0.3 7.3 0C1518.5 274.3 1518 269.9 1518 268.5zM1544.9 268.5c-1.3 0-6.7-0.8-7.6 0 -0.4 0.4-0.4 5.9-0.1 6.4 0.3 0.3 6.8 0.3 7.3 0C1545.5 274.3 1544.9 269.9 1544.9 268.5z"/>
  <path class="st3" d="M1552.9 262c-6.9-4.9-13.8-10-20.7-14.9 -1.6-1.1-3.8-3.7-5.7-3.3 -2 0.4-4.5 2.5-6.2 3.5 -1.5 0.8-3 1.6-4.5 2.5 0-0.8 0.4-3.6 0-4.1 -0.3-0.3-2.3-0.2-2.8-0.1 -1.8 0.2-1.2-0.4-1.5 1.2 -0.3 1.4 0.3 3 0 4.3 -0.3 1.7-1 2-2.7 2.1 -2.5 0.3-5.4 0-8 0 -3.3 0-6.7 0-10 0 -1.3 0-3.3-0.4-4.5 0 -2.1 0.7-4.3 2.9-6.1 4.2 -1.8 1.3-3.7 2.5-5.5 3.8 6.5 0 13 0 19.5 0 2 0 4.7 0.5 6.7 0 1.4-0.4 3-1.7 4.3-2.4 6.7-3.7 13.4-7.5 20-11.2 1.6-0.9 1.5-1.2 2.9-0.6 2.8 1.2 5.5 4 8 5.8 3.8 2.7 7.6 5.5 11.3 8.2 1.1 0.8 2.2 1.8 3.4 2.4C1551.9 264 1554.9 263.5 1552.9 262 1552.2 261.5 1554.2 263 1552.9 262z"/>
  <path class="st3" d="M1443.3 253.4c0.2-0.6 0.3-1.2 0.3-1.9 0-2.9-1.8-5.4-4.5-6.4 -0.8-3.7-4.1-6.5-8-6.7 -1.1-2.5-3.6-4.1-6.4-4.1 -2 0-3.7 0.8-5 2 -0.9-0.4-1.9-0.6-3-0.6 -4.5 0-8.1 3.6-8.1 8.1 0 0.2 0 0.4 0 0.6 -3 1.3-5 4.3-5 7.8 0 1.4 0.3 2.6 0.9 3.8 -2 1.8-3.3 4.3-3.3 7.2 0 5.3 4.3 9.5 9.5 9.5 1.6 0 3-0.4 4.3-1 1.3 1.7 3.1 3 5.3 3.4v21h7.1v-22.5c0.8-0.5 1.4-1.1 2-1.9 1.3 0.8 2.9 1.1 4.5 1.1 4.3 0 7.9-2.8 9.1-6.7 2.5-1.1 4.3-3.6 4.3-6.6C1447.3 257 1445.6 254.6 1443.3 253.4z"/>
  <path class="st2" d="M1564.3 173c0.1-0.3 0.1-0.6 0.1-1 0-1.6-1-2.9-2.4-3.4 -0.4-2-2.2-3.5-4.3-3.5 -0.6-1.3-1.9-2.2-3.5-2.2 -1 0-2 0.4-2.6 1.1 -0.5-0.2-1-0.3-1.6-0.3 -2.4 0-4.3 2-4.3 4.3 0 0.1 0 0.2 0 0.3 -1.6 0.7-2.7 2.3-2.7 4.2 0 0.8 0.2 1.4 0.4 2 -1.1 0.9-1.8 2.3-1.8 3.8 0 2.8 2.3 5.1 5.1 5.1 0.8 0 1.6-0.2 2.3-0.6 0.7 0.9 1.7 1.6 2.8 1.8v11.2h3.8v-12c0.4-0.3 0.8-0.6 1-1 0.7 0.4 1.5 0.6 2.4 0.6 2.3 0 4.2-1.5 4.9-3.6 1.3-0.6 2.3-2 2.3-3.5C1566.4 175 1565.5 173.6 1564.3 173z"/>
  <path class="st2" d="M1531.5 176.9c0.1-0.3 0.1-0.5 0.1-0.8 0-1.2-0.8-2.3-1.8-2.6 -0.4-1.5-1.7-2.7-3.3-2.8 -0.4-1-1.5-1.7-2.7-1.7 -0.8 0-1.5 0.3-2.1 0.8 -0.4-0.1-0.8-0.3-1.3-0.3 -1.8 0-3.3 1.5-3.3 3.3 0 0.1 0 0.2 0 0.3 -1.3 0.6-2.1 1.8-2.1 3.3 0 0.6 0.1 1.1 0.4 1.6 -0.8 0.8-1.4 1.8-1.4 3 0 2.2 1.8 4 4 4 0.6 0 1.3-0.1 1.8-0.4 0.5 0.7 1.3 1.3 2.2 1.4v8.8h2.9v-9.3c0.3-0.2 0.6-0.5 0.8-0.8 0.6 0.3 1.2 0.5 1.9 0.5 1.8 0 3.3-1.2 3.8-2.8 1.1-0.4 1.8-1.5 1.8-2.7C1533.1 178.4 1532.5 177.4 1531.5 176.9z"/>
  <path class="st5" d="M853.9 432.8h51v35h-51V432.8zM1640.1 393.1V482h59v-88.8H1640.1zM1533.8 413.4h102.1v66.1h-102.1v7.6h-155.9v-3.8h-158.8v-12.7h-46.3v5.1h-101.9v0.4H948.3V403h122.7v7.6h83.5v-28.7h9.9v-5.4h18.9v5.4h7.7v-26h2.1v26h36.9v34.4h147.8v-75.6h19.9c-0.1-2.6-1.1-9.8-0.3-12.3 -1.1 0-2.2 0-3.3 0 3.7-2.8 7.2-5.5 10.9-8.4 3.7 2.8 7.2 5.5 10.9 8.4 -1.1 0-2.3 0-3.5 0 0.3 2.4 0.3 10.4-0.1 12.3h121.4V413.4z"/>
  <rect x="869.6" y="437.7" class="st3" width="7" height="11"/>
  <rect x="883" y="437.7" class="st3" width="7" height="11"/>
  <rect x="1052.4" y="409.3" class="st3" width="7" height="11"/>
  <rect x="1159.8" y="389.7" class="st3" width="9.1" height="9.4"/>
  <rect x="1175.2" y="389.7" class="st3" width="9.1" height="9.4"/>
  <rect x="1190.6" y="389.7" class="st3" width="9.1" height="9.4"/>
  <rect x="1206" y="389.7" class="st3" width="9.1" height="9.4"/>
  <rect x="1386.7" y="350.5" class="st3" width="9.1" height="13.1"/>
  <rect x="1386.7" y="370.7" class="st3" width="9.1" height="13.1"/>
  <rect x="1429.8" y="350.5" class="st3" width="9.1" height="13.1"/>
  <rect x="1429.8" y="370.7" class="st3" width="9.1" height="13.1"/>
  <rect x="1445.4" y="350.5" class="st3" width="9.1" height="13.1"/>
  <rect x="1445.4" y="370.7" class="st3" width="9.1" height="13.1"/>
  <rect x="1429.8" y="391.2" class="st3" width="9.1" height="13.1"/>
  <rect x="1429.8" y="411.4" class="st3" width="9.1" height="13.1"/>
  <rect x="1445.4" y="391.2" class="st3" width="9.1" height="13.1"/>
  <rect x="1445.4" y="411.4" class="st3" width="9.1" height="13.1"/>
  <rect x="1159.8" y="405.1" class="st3" width="9.1" height="9.4"/>
  <rect x="1175.2" y="405.1" class="st3" width="9.1" height="9.4"/>
  <rect x="1190.6" y="405.1" class="st3" width="9.1" height="9.4"/>
  <rect x="1206" y="405.1" class="st3" width="9.1" height="9.4"/>
  <rect x="1052.4" y="426.7" class="st3" width="7" height="11"/>
  <rect x="1052.4" y="444" class="st3" width="7" height="11"/>
  <rect x="1687.2" y="404.9" class="st3" width="7" height="11"/>
  <rect x="1687.2" y="422.2" class="st3" width="7" height="11"/>
  <rect x="1687.2" y="439.6" class="st3" width="7" height="11"/>
  <path class="st6" d="M1981.5 451.3c-2.1 3.5-22.7-11.5-25.4-13 -3.3-2-8.1-6.4-11.8-7.2 -2-0.4-3.2 0.8-5.2 2 -10 5.8-20.1 11.6-30.1 17.5 -0.8 0.4-1.8 1.4-2.7 1.6 -3.3 0.8-3.6-2.1-1.5-3.8 2-1.6 4.9-2.8 7.1-4.1 1.1-0.7 4.4-1.8 5.2-3 0.8-1.2 0.1-6.7-0.1-8.1 -0.1-0.9-0.5-1.8-0.6-2 0 0-1.3-2.1-0.6-2.9 0.8-0.8 6.4-0.1 7.5 0 0.9 0.1 1.8-0.3 2.3 0.3 0.7 0.9 0.1 2.8-1.1 2.6 0 1.9 0.1 3.7 0.1 5.6 5.4-3.1 10.6-6.5 16.1-9.3 4-2.1 6.4 0.8 10 2.9 6.6 4 13.2 8.1 19.8 12.1C1972.4 443.3 1983.4 448.2 1981.5 451.3 1980.9 452.2 1982.1 450.3 1981.5 451.3zM1943.4 432.4c-7.5 4.3-15.1 8.7-22.6 13.1 -2.3 1.3-7.9 3.2-9.3 5.4 -1 1.4-0.3 5.7-0.3 7.5 0 5.7 0 11.5 0 17.2 0 1.2-0.9 7.7 0.1 8.6 0.5 0.4 3.2 0 3.8 0 2.7 0 5.5 0 8.2 0 2.6 0 5.3 0 7.9 0 1.4 0 5.1 0.7 6.3 0 1.6-0.9 0.7-6.4 0.7-8.6 0-2.1-1.1-10.1 0.3-11.5 0.8-0.7 5.9 0 6.9 0 2.6 0 2-0.4 2.5 1.4 0.6 1.9 0 4.7 0 6.7 0 2.9 0 5.7 0 8.6 0 4.1 0.2 3.3 4.3 3.3 5.5 0 11 0 16.6 0 0.9 0 4 0.5 4.9 0 0.9-0.5 0.2 0 0.6-1.3 1.2-4 0-10.2 0-14.3 0-5 1.1-11.4 0-16.3 -0.6-2.4-2.8-3-5.2-4.3C1960.5 442.8 1952 437.6 1943.4 432.4zM1964.9 457.2c-1.6 0-8.1 1-9.1 0 -0.3-0.3-0.4-8.7 0-9.1 0.5-0.5 8.8-0.3 9.1 0C1965.9 449.1 1964.9 455.6 1964.9 457.2zM1947.3 457.2c-1.6 0-8.1 1-9.1 0 -0.3-0.3-0.4-8.7 0-9.1 0.5-0.5 8.8-0.3 9.1 0C1948.3 449.1 1947.3 455.6 1947.3 457.2zM1929.7 457.2c-1.6 0-8.1 1-9.1 0 -0.3-0.3-0.4-8.7 0-9.1 0.5-0.5 8.8-0.3 9.1 0C1930.7 449.1 1929.7 455.6 1929.7 457.2zM1964.9 473.3c-1.6 0-8.1 1-9.1 0 -0.3-0.3-0.4-8.7 0-9.1 0.5-0.5 8.8-0.3 9.1 0C1965.9 465.1 1964.9 471.7 1964.9 473.3zM1929.7 473.3c-1.6 0-8.1 1-9.1 0 -0.3-0.3-0.4-8.7 0-9.1 0.5-0.5 8.8-0.3 9.1 0C1930.7 465.1 1929.7 471.7 1929.7 473.3z"/>
  <path class="st4" d="M1680.1 462.9c0-3.2 0-6.4 0-9.6 0-2.8 1.4-10 0-12.3 -1.3-2.3-8.2-1.1-11.3-1.1 -15.7 0-31.4 0-47 0 -0.6 0-3.7-0.4-4.2 0 -1.4 1.1 1.3 6.8-0.1 8.2 -0.3 0.3-3.3 0.6-3.7 0.3 -0.7-0.7 0.4-3.6 0-4.5 -0.9-1.8 0.4-0.3-1.7-1.1 -1.8-0.7-5.2 0-7.1 0 -3.5 0-6.9 0-10.4 0 -8.9 0-17.7 0-26.6 0 -6.8 0-13.6 0-20.5 0 -1.1 0-2 0-2.6 0.1v-19.7h-2.3v-30.4c0-2.8-4-5.1-6.2-5.4 0-0.9 0-2.5 0-2.5h-4.5v2.5c-2.2 0.3-5.4 2.1-6 5.1v4.6h-3.4v8.9h-3.3v-24.6c0-1.6-1.2-3.4-3.5-3.4h-15.9c-2.3 0-3.5 1.9-3.5 3.3v2.3h-1.3v2.6c-2.3 0.3-5.5 2.2-6 5.2v10h-6.8c-1.6 0-3.3 1.4-3.3 3.3v32.4h2.2v-32.4c0-0.6 0.8-1.1 1.1-1.1h6.8v33.5h-19.7 -0.8l-0.9 46.4 67.6 0.1c0 0.1 0 0.2 0 0.3 0 1-0.7 5.1 0 6 0.6 0.7 0.8 0.2 2 0.4 4.9 1.2 11.6 0 16.6 0 9.7 0 19.4 0 29.1 0 26.4 0 52.9 0 79.3 0 5.7 0 11.7 0 17.5 0C1679.6 490.5 1680.7 462.1 1680.1 462.9zM1524.7 399.4h1.2v6.7h-1.2V399.4zM1524.7 408.3h1.2v8.9h-1.2V408.3zM1498.6 381.4c0-0.1 0.3-1.1 1.2-1.1h15.9c1 0 1.3 0.8 1.3 1.1v26.8h5.6v9h-8.9v-8.9h-7.9v-0.8l0 0v-15.6c0-2.8-4-5.1-6.2-5.4 0-0.7 0-1.3 0-2.7h-0.9V381.4zM1518.1 436.5l-9.8 0.2V426h-2.7v-16.6h6.7v8.9h10.1v5h-4.3L1518.1 436.5 1518.1 436.5zM1524.7 423.4v-5h1.2v5H1524.7z"/>
  <polygon class="st4" points="1666.9 320.6 1659.6 320.6 1654.3 438.4 1673.1 438.4 "/>
  <polygon class="st4" points="1643 303.5 1634.1 303.5 1627.1 438.4 1649.9 438.4 "/>
  <path class="st4" d="M990.2 380.8v-36.1c0 0-3.5-2.3-2.6 0.6 1.3 4 0.9 22.9 0.6 25.2 -0.2 2.3-0.8 10.3-0.8 10.3L990.2 380.8 990.2 380.8z"/>
  <path class="st4" d="M984.4 380.8v-24.3c0 0-4-1.5-3 0.4 1.4 2.7 0.9 15.4 0.8 16.9 -0.3 1.6-0.9 6.9-0.9 6.9H984.4z"/>
  <path class="st4" d="M944.5 471.1c0-14.3 0-28.7 0-43 0-10.2 0-20.4 0-30.6 0-3.5 0-7 0-10.5 0-1.3-0.6-4.6 0-5.7 1-1.8 6.9-0.8 9.3-0.8 10.6 0 21.2 0 31.8 0 7.2 0 14.4-0.1 21.6-0.3v92L944.5 471.1zM995 389.5c-0.8-1.3 0.1-0.7-2.3-0.9 -0.6-0.1-4.9-0.5-5.3 0 -0.9 1-0.4 9.5 0 11 0.6 2.2-0.5 1 1.8 1.6 1.7 0.4 4 0 5.7 0C995 398.4 996.2 391.7 995 389.5zM995 409.3c-0.8-1.3 0.1-0.7-2.3-0.9 -0.6-0.1-4.9-0.5-5.3 0 -0.9 1-0.4 9.5 0 11 0.6 2.2-0.5 1 1.8 1.6 1.7 0.4 4 0 5.7 0C995 418.2 996.2 411.5 995 409.3zM979.7 389.5c-0.8-1.3 0.1-0.7-2.3-0.9 -0.6-0.1-4.9-0.5-5.3 0 -0.9 1-0.4 9.5 0 11 0.6 2.2-0.5 1 1.8 1.6 1.7 0.4 4 0 5.7 0C979.7 398.4 980.9 391.7 979.7 389.5zM979.7 409.3c-0.8-1.3 0.1-0.7-2.3-0.9 -0.6-0.1-4.9-0.5-5.3 0 -0.9 1-0.4 9.5 0 11 0.6 2.2-0.5 1 1.8 1.6 1.7 0.4 4 0 5.7 0C979.7 418.2 980.9 411.5 979.7 409.3zM964.4 389.5c-0.8-1.3 0.1-0.7-2.3-0.9 -0.6-0.1-4.9-0.5-5.3 0 -0.9 1-0.4 9.5 0 11 0.6 2.2-0.5 1 1.8 1.6 1.7 0.4 4 0 5.7 0C964.4 398.4 965.6 391.7 964.4 389.5zM964.4 409.3c-0.8-1.3 0.1-0.7-2.3-0.9 -0.6-0.1-4.9-0.5-5.3 0 -0.9 1-0.4 9.5 0 11 0.6 2.2-0.5 1 1.8 1.6 1.7 0.4 4 0 5.7 0C964.4 418.2 965.6 411.5 964.4 409.3zM995 430c-0.8-1.3 0.1-0.7-2.3-0.9 -0.6-0.1-4.9-0.5-5.3 0 -0.9 1-0.4 9.5 0 11 0.6 2.2-0.5 1 1.8 1.6 1.7 0.4 4 0 5.7 0C995 438.9 996.2 432.3 995 430zM995 461.4c0-2.6 1.3-9.4 0-11.6 -0.8-1.3 0.1-0.7-2.3-0.9 -0.6-0.1-4.9-0.5-5.3 0 -0.9 1-0.4 9.5 0 11 0.6 2.2-0.5 1 1.8 1.6M979.7 430c-0.8-1.3 0.1-0.7-2.3-0.9 -0.6-0.1-4.9-0.5-5.3 0 -0.9 1-0.4 9.5 0 11 0.6 2.2-0.5 1 1.8 1.6 1.7 0.4 4 0 5.7 0C979.7 438.9 980.9 432.3 979.7 430zM979.7 449.8c-0.8-1.3 0.1-0.7-2.3-0.9 -0.6-0.1-4.9-0.5-5.3 0 -0.9 1-0.4 9.5 0 11 0.6 2.2-0.5 1 1.8 1.6 1.7 0.4 4 0 5.7 0C979.7 458.7 980.9 452 979.7 449.8zM964.4 430c-0.8-1.3 0.1-0.7-2.3-0.9 -0.6-0.1-4.9-0.5-5.3 0 -0.9 1-0.4 9.5 0 11 0.6 2.2-0.5 1 1.8 1.6 1.7 0.4 4 0 5.7 0C964.4 438.9 965.6 432.3 964.4 430zM964.4 449.8c-0.8-1.3 0.1-0.7-2.3-0.9 -0.6-0.1-4.9-0.5-5.3 0 -0.9 1-0.4 9.5 0 11 0.6 2.2-0.5 1 1.8 1.6 1.7 0.4 4 0 5.7 0C964.4 458.7 965.6 452 964.4 449.8z"/>
  <path class="st4" d="M945.4 371.7c0 7.7 0 15.3 0 23 0 27.5 0 59.6 0 77.2 -2.5 0-5 0-7.4 0 0.1-3.3 1.2-13.7 0-15.8 -0.8-1.3 0.1-0.7-2.3-0.9 -0.6-0.1-4.9-0.5-5.3 0 -0.9 1-0.4 14.2 0 15.6 0.1 0.6 0.2 0.9 0.2 1.1 -9.3 0-18.6 0-28 0V366.6c7.4-0.1 14.9-0.3 22.4-0.3v-4.7h14.6v5.1c1.2 0.1 2.4 0.1 3.5 0.2C946.4 367.1 945.4 368.1 945.4 371.7zM915 374.7c-0.1-0.5-0.6-0.8-1.6-0.9 -0.6-0.1-3.1-0.5-3.6 0 -0.9 1-0.4 9.5 0 11 0.6 2.2-0.5 1 1.8 1.6 1.7 0.4 1.6 0 3.3 0C915 383.6 916.2 376.9 915 374.7zM915 393.8c-0.1-0.5-0.6-0.8-1.6-0.9 -0.6-0.1-3.1-0.5-3.6 0 -0.9 1-0.4 9.5 0 11 0.6 2.2-0.5 1 1.8 1.6 1.7 0.4 1.6 0 3.3 0C915 402.7 916.2 396 915 393.8zM915 412.9c-0.1-0.5-0.6-0.8-1.6-0.9 -0.6-0.1-3.1-0.5-3.6 0 -0.9 1-0.4 9.5 0 11 0.6 2.2-0.5 1 1.8 1.6 1.7 0.4 1.6 0 3.3 0C915 421.9 916.2 415.1 915 412.9z"/>
  <path class="st4" d="M1251 475.2c0-13 0-25.9 0-38.9 0-9.3 0-18.5 0-27.7 0-3.1 0-6.3 0-9.5 0-1.1-0.6-4.2 0-5.2 0.9-1.6 88.1-0.7 90.3-0.7 9.6 0 19.2 0 28.8 0 6.5 0 13-0.1 47.9-0.3v83.2L1251 475.2zM1347 401.5c-0.7-1.2 0.1-0.6-2.1-0.8 -0.5-0.1-4.3-0.4-4.8 0 -0.9 0.9-0.3 8.6 0 9.9 0.5 2-0.4 0.9 1.6 1.4 1.5 0.4 3.6 0 5.2 0C1347 409.6 1348.2 403.5 1347 401.5zM1347 419.3c-0.7-1.2 0.1-0.6-2.1-0.8 -0.5-0.1-4.3-0.4-4.8 0 -0.9 0.9-0.3 8.6 0 9.9 0.5 2-0.4 0.9 1.6 1.4 1.5 0.4 3.6 0 5.2 0C1347 427.5 1348.2 421.4 1347 419.3zM1333.2 401.5c-0.7-1.2 0.1-0.6-2.1-0.8 -0.5-0.1-4.3-0.4-4.8 0 -0.9 0.9-0.3 8.6 0 9.9 0.5 2-0.4 0.9 1.6 1.4 1.5 0.4 3.6 0 5.2 0C1333.2 409.6 1334.4 403.5 1333.2 401.5zM1333.2 419.3c-0.7-1.2 0.1-0.6-2.1-0.8 -0.5-0.1-4.3-0.4-4.8 0 -0.9 0.9-0.3 8.6 0 9.9 0.5 2-0.4 0.9 1.6 1.4 1.5 0.4 3.6 0 5.2 0C1333.2 427.5 1334.4 421.4 1333.2 419.3zM1319.4 401.5c-0.7-1.2 0.1-0.6-2.1-0.8 -0.5-0.1-4.3-0.4-4.8 0 -0.9 0.9-0.3 8.6 0 9.9 0.5 2-0.4 0.9 1.6 1.4 1.5 0.4 3.6 0 5.2 0C1319.4 409.6 1320.5 403.5 1319.4 401.5zM1319.4 419.3c-0.7-1.2 0.1-0.6-2.1-0.8 -0.5-0.1-4.3-0.4-4.8 0 -0.9 0.9-0.3 8.6 0 9.9 0.5 2-0.4 0.9 1.6 1.4 1.5 0.4 3.6 0 5.2 0C1319.4 427.5 1320.5 421.4 1319.4 419.3zM1347 438.2c-0.7-1.2 0.1-0.6-2.1-0.8 -0.5-0.1-4.3-0.4-4.8 0 -0.9 0.9-0.3 8.6 0 9.9 0.5 2-0.4 0.9 1.6 1.4 1.5 0.4 3.6 0 5.2 0C1347 446.2 1348.2 440.1 1347 438.2zM1333.2 438.2c-0.7-1.2 0.1-0.6-2.1-0.8 -0.5-0.1-4.3-0.4-4.8 0 -0.9 0.9-0.3 8.6 0 9.9 0.5 2-0.4 0.9 1.6 1.4 1.5 0.4 3.6 0 5.2 0C1333.2 446.2 1334.4 440.1 1333.2 438.2zM1319.4 438.2c-0.7-1.2 0.1-0.6-2.1-0.8 -0.5-0.1-4.3-0.4-4.8 0 -0.9 0.9-0.3 8.6 0 9.9 0.5 2-0.4 0.9 1.6 1.4 1.5 0.4 3.6 0 5.2 0C1319.4 446.2 1320.5 440.1 1319.4 438.2zM1406.7 401.5c-0.7-1.2 0.1-0.6-2.1-0.8 -0.5-0.1-4.3-0.4-4.8 0 -0.9 0.9-0.3 8.6 0 9.9 0.5 2-0.4 0.9 1.6 1.4 1.5 0.4 3.6 0 5.2 0C1406.7 409.6 1407.8 403.5 1406.7 401.5zM1406.7 419.3c-0.7-1.2 0.1-0.6-2.1-0.8 -0.5-0.1-4.3-0.4-4.8 0 -0.9 0.9-0.3 8.6 0 9.9 0.5 2-0.4 0.9 1.6 1.4 1.5 0.4 3.6 0 5.2 0C1406.7 427.5 1407.8 421.4 1406.7 419.3zM1392.8 401.5c-0.7-1.2 0.1-0.6-2.1-0.8 -0.5-0.1-4.3-0.4-4.8 0 -0.9 0.9-0.3 8.6 0 9.9 0.5 2-0.4 0.9 1.6 1.4 1.5 0.4 3.6 0 5.2 0C1392.8 409.6 1394 403.5 1392.8 401.5zM1392.8 419.3c-0.7-1.2 0.1-0.6-2.1-0.8 -0.5-0.1-4.3-0.4-4.8 0 -0.9 0.9-0.3 8.6 0 9.9 0.5 2-0.4 0.9 1.6 1.4 1.5 0.4 3.6 0 5.2 0C1392.8 427.5 1394 421.4 1392.8 419.3zM1406.7 438.2c-0.7-1.2 0.1-0.6-2.1-0.8 -0.5-0.1-4.3-0.4-4.8 0 -0.9 0.9-0.3 8.6 0 9.9 0.5 2-0.4 0.9 1.6 1.4 1.5 0.4 3.6 0 5.2 0C1406.7 446.2 1407.8 440.1 1406.7 438.2zM1392.8 438.2c-0.7-1.2 0.1-0.6-2.1-0.8 -0.5-0.1-4.3-0.4-4.8 0 -0.9 0.9-0.3 8.6 0 9.9 0.5 2-0.4 0.9 1.6 1.4 1.5 0.4 3.6 0 5.2 0C1392.8 446.2 1394 440.1 1392.8 438.2z"/>
  <path class="st4" d="M1179.3 432.2c0.2-0.6 0.3-1.2 0.3-1.9 0-2.9-1.8-5.4-4.5-6.4 -0.8-3.7-4.1-6.5-8-6.7 -1.1-2.5-3.6-4.1-6.4-4.1 -2 0-3.7 0.8-5 2 -0.9-0.4-1.9-0.6-3-0.6 -4.5 0-8.1 3.6-8.1 8.1 0 0.2 0 0.4 0 0.6 -3 1.3-5 4.3-5 7.8 0 1.4 0.3 2.6 0.9 3.8 -2 1.8-3.3 4.3-3.3 7.2 0 5.3 4.3 9.5 9.5 9.5 1.6 0 3-0.4 4.3-1 1.3 1.7 3.2 3 5.3 3.4v21h7.1v-22.5c0.8-0.5 1.4-1.1 2-1.9 1.3 0.8 2.9 1.1 4.5 1.1 4.3 0 7.9-2.8 9.1-6.7 2.5-1.1 4.3-3.6 4.3-6.6C1183.2 435.8 1181.6 433.3 1179.3 432.2z"/>
  <path class="st4" d="M660.6 407.9c12-7.7 24.6-15.4 36.5-23 0 5.1 0 10.3 0 15.4 0 6.4-0.9 6.4 5.6 6.4 2.5 0 8.9 1.1 10.2-0.6 1.1-1.4 0.6-6.7 0.8-8.5 2.1-24.8 4.2-49.6 6.2-74.5 0.3-3.2-0.4-15.5 2-17.3 1.3-0.9 9.6-0.4 10.2 0.5 0.9 1.3 0.3 6.1 0.4 7.7 1.3 24.9 2.5 49.8 3.7 74.8 0.1 3-1 15.9 1.2 17.8 1.4 1.2 8.3 0.1 8.9-0.8 0.9-1.3 0.3-5.9 0.4-7.4 1.4-24.8 2.8-49.6 4.2-74.5 0.6-10.5 1.2-21.1 1.8-31.6 0.1-1.3-0.4-5.4 0.4-6.4 0.5-0.6 9.9-1 10.8-0.3 1.9 1.6 1 13 1.1 15.5 0.7 12.4 1.4 24.8 2.1 37.2 0.8 13.5 1.5 27 2.3 40.6 0.4 7.6-0.9 18.1 1.4 25.4 0.9 3-0.8 1.6 2.7 2.3 1.9 0.4 11.3 0.9 12.3-0.4 1.4-1.8 0-11 0-13.2 0-6.9 0-13.7 0-20.5 0-2-1.4-11.1 0-12.6 0.6-0.7 3.5-0.3 4.6-0.3 11.8 0 23.8 0 35.6 0 11.1 0 22.9-1.3 34 0 1.6 0.2 2.6-0.4 3.3 0.6 0.9 1.2 0.1 6.6 0.1 7.9 0 24.9 0 49.9 0 74.8 0 5.3 0 10.6 0 15.9 0 2.1 0.9 7.2-0.1 9.1 -0.9 1.8-2 1.2-4.9 1.2 -42.1 0-84.2 0-126.4 0 -45.4 0-90.8 0-136.3 0 -1.6 0-8.9 1.2-10.1 0.1 -2.2-2-0.1-17.2-0.1-20.2 0-12.5 0-25.1 0-37.7 0-1.8-0.6-4.3 0.3-5.7 1.7-2.6 8.6-4.8 11.3-6.3 8.8-4.9 17.5-9.7 26.3-14.6 0 6-0.8 12.6 0 18.6 0.6 4.7 1.5 2.8 5.5 0.4 10.5-6.4 20.9-12.7 31.6-19C660.6 392.6 660.6 400.3 660.6 407.9zM636.7 426.4h-8.8v5.7h8.8V426.4zM636.7 434.6h-8.8v5h8.8V434.6zM648 426.4h-8.8v5.7h8.8V426.4zM648 434.6h-8.8v5h8.8V434.6zM659.3 426.4h-8.8v5.7h8.8V426.4zM659.3 434.6h-8.8v5h8.8V434.6zM670.7 426.4h-8.8v5.7h8.8V426.4zM670.7 434.6h-8.8v5h8.8V434.6zM682 426.4h-8.8v5.7h8.8V426.4zM682 434.6h-8.8v5h8.8V434.6z"/>
  <g class="st7">
    <path class="st8" d="M1663.1 289.5c-1.5 0-3 0-4.5 0C1659.3 289.9 1661.7 289.7 1663.1 289.5z"/>
  </g>
  <path class="st3" d="M1715 289.1v-48.3 -10.1 -83.3c-6.6 0.1-13.1 0.3-19.5 0.3 -9.6 0-19.2 0-28.8 0 -2.1 0-7.5-0.9-8.4 0.7 -0.6 1 0 4 0 5.2 0 3.1 0 6.3 0 9.5 0 9.3 0 18.5 0 27.7 0 13 0 25.9 0 38.9 0 3.7 0 7.4 0 11.2 -3.2 0-6.5 0-9.7 0 -0.9 0-3.4-0.4-4.2 0 -0.9 0.6-0.4 0.3-0.6 1.9 -1.2 10 0 20.9 0 31 0 2.5-1.4 14.6 0.4 15.9 0.6 0.4 3.2 0 3.9 0 2.5 0 5.1 0 7.6 0 0.9 0 1.9 0 2.8 0 1.5 0 3 0 4.5 0 0.4-0.1 0.7-0.1 0.9-0.1 1.3 0 23.4 0 51.7 0C1715.3 289.4 1715.1 289.2 1715 289.1z"/>
  <path class="st6" d="M1703.9 155.9c-0.7-1.2 0.1-0.6-2.1-0.8 -0.5-0.1-4.3-0.4-4.8 0 -0.9 0.9-0.3 8.6 0 9.9 0.5 2-0.4 0.9 1.6 1.4 1.5 0.4 3.6 0 5.2 0C1703.9 163.9 1705 157.9 1703.9 155.9z"/>
  <path class="st6" d="M1703.9 173.7c-0.7-1.2 0.1-0.6-2.1-0.8 -0.5-0.1-4.3-0.4-4.8 0 -0.9 0.9-0.3 8.6 0 9.9 0.5 2-0.4 0.9 1.6 1.4 1.5 0.4 3.6 0 5.2 0C1703.9 181.8 1705 175.7 1703.9 173.7z"/>
  <path class="st6" d="M1690.1 155.9c-0.7-1.2 0.1-0.6-2.1-0.8 -0.5-0.1-4.3-0.4-4.8 0 -0.9 0.9-0.3 8.6 0 9.9 0.5 2-0.4 0.9 1.6 1.4 1.5 0.4 3.6 0 5.2 0C1690.1 163.9 1691.1 157.9 1690.1 155.9z"/>
  <path class="st6" d="M1690.1 173.7c-0.7-1.2 0.1-0.6-2.1-0.8 -0.5-0.1-4.3-0.4-4.8 0 -0.9 0.9-0.3 8.6 0 9.9 0.5 2-0.4 0.9 1.6 1.4 1.5 0.4 3.6 0 5.2 0C1690.1 181.8 1691.1 175.7 1690.1 173.7z"/>
  <path class="st6" d="M1676.2 155.9c-0.7-1.2 0.1-0.6-2.1-0.8 -0.5-0.1-4.3-0.4-4.8 0 -0.9 0.9-0.3 8.6 0 9.9 0.5 2-0.4 0.9 1.6 1.4 1.5 0.4 3.6 0 5.2 0C1676.2 163.9 1677.4 157.9 1676.2 155.9z"/>
  <path class="st6" d="M1676.2 173.7c-0.7-1.2 0.1-0.6-2.1-0.8 -0.5-0.1-4.3-0.4-4.8 0 -0.9 0.9-0.3 8.6 0 9.9 0.5 2-0.4 0.9 1.6 1.4 1.5 0.4 3.6 0 5.2 0C1676.2 181.8 1677.4 175.7 1676.2 173.7z"/>
  <path class="st3" d="M1843 254.8c0-1.9 0-3.8 0-5.7 0-1.1 0.9-7.6 0-8.3 -0.3-0.3-1.6 0-2 0 -13.5-1.3-27.8 0-41.3 0 -5.9 0-11.8 0-17.6 0 0-2.9 0-5.9 0-8.8 0-19.8 0-39.5 0-59.3 0-18.1 0-36.1 0-54.2 0-1.2 0.9-7.4 0-8.3 -0.7-0.7-5.5 0-6.5 0 -4.8 0-9.5 0-14.3 0 -11.5 0-22.9 0-34.3 0 -2.2 0-11-1.1-12 0.6 -0.5 0.9 0 3.6 0 4.5 0 2.6 0 5.4 0 8 0 8.6 0 15.3 0 23.9v0.1c12.2-0.3 24.6-0.5 36.7 0.3 3.1 0.2 2.1 1.1 2.1 4.3 0 6.9 0 13.9 0 20.8 0 20.5 0 42.6 0 58.7 0 3.4 0 6.6 0 9.3 0 8.4 0 13.7 0 14h28.3c0 10.8 0 21.6 0 32.4 0 0.8 0 1.5 0 2.3 32.3 0 58.8 0 60.3 0h0.6l15.2 0.2v-34.9L1843 254.8 1843 254.8z"/>
  <path class="st6" d="M1775.8 120.2c-0.7-1.2 0.1-0.6-2.1-0.8 -0.5-0.1-4.3-0.4-4.8 0 -0.9 0.9-0.3 8.6 0 9.9 0.5 2-0.4 0.9 1.6 1.4 1.5 0.4 3.6 0 5.2 0C1775.8 128.2 1777 122.2 1775.8 120.2z"/>
  <path class="st6" d="M1775.8 138c-0.7-1.2 0.1-0.6-2.1-0.8 -0.5-0.1-4.3-0.4-4.8 0 -0.9 0.9-0.3 8.6 0 9.9 0.5 2-0.4 0.9 1.6 1.4 1.5 0.4 3.6 0 5.2 0C1775.8 146.1 1777 140 1775.8 138z"/>
  <path class="st6" d="M1775.8 155.9c-0.7-1.2 0.1-0.6-2.1-0.8 -0.5-0.1-4.3-0.4-4.8 0 -0.9 0.9-0.3 8.6 0 9.9 0.5 2-0.4 0.9 1.6 1.4 1.5 0.4 3.6 0 5.2 0C1775.8 163.9 1777 157.9 1775.8 155.9z"/>
  <path class="st6" d="M1775.8 173.7c-0.7-1.2 0.1-0.6-2.1-0.8 -0.5-0.1-4.3-0.4-4.8 0 -0.9 0.9-0.3 8.6 0 9.9 0.5 2-0.4 0.9 1.6 1.4 1.5 0.4 3.6 0 5.2 0C1775.8 181.8 1777 175.7 1775.8 173.7z"/>
  <path class="st6" d="M1775.8 191.6c-0.7-1.2 0.1-0.6-2.1-0.8 -0.5-0.1-4.3-0.4-4.8 0 -0.9 0.9-0.3 8.6 0 9.9 0.5 2-0.4 0.9 1.6 1.4 1.5 0.4 3.6 0 5.2 0C1775.8 199.7 1777 193.6 1775.8 191.6z"/>
  <path class="st6" d="M1753.7 254.8c0-0.3 0-5.6 0-14 0-15.9 0-43 0-68 0-6.9 0-13.9 0-20.8 0-3.2 1-4.2-2.1-4.3 -12.1-0.8-24.4-0.5-36.7-0.3v93.4 48.3c0.1 0.2 0.4 0.3 0.6 0.4 3.9 0 7.9 0 12.1 0 17.7 0 36.9 0 54.4 0 0-0.8 0-1.5 0-2.3 0-10.8 0-21.6 0-32.4L1753.7 254.8 1753.7 254.8zM1746.1 281.4c0 2.5 0 5 0 7.4 -2.7 0-5.4 0-8.1 0 -3 0-3 0.7-3.6-1.4 -0.9-2.8 0-7.3 0-10.3 0-1.1-0.8-6.2 0-6.9 0.9-0.9 6.9 0 8.1 0 2.8 0 3.1-0.8 3.6 1.4C1746.8 274.4 1746.1 278.4 1746.1 281.4z"/>
  <path class="st6" d="M1671.6 146.1c3.1 0 16.6 2.1 18.6 0 0.6-0.7 0.6-16.6 0-17.3 -1.1-1.1-18.3-0.4-18.6 0C1669.7 130.9 1671.6 143 1671.6 146.1z"/>
  <path class="st6" d="M1680.9 118.9c4.7 3.6 9.3 7 14 10.8 -9.3 0-18.7 0-28 0C1671.6 125.9 1676.2 122.5 1680.9 118.9z"/>
  <path class="st3" d="M1599.2 276.2c-0.1-0.4-0.1-0.8-0.1-1.1 0-4.5 3.4-8.3 7.9-8.8 0.6-4.8 4.7-8.6 9.6-8.6 4.6 0 8.5 3.2 9.5 7.6 1.1-0.5 2.3-0.8 3.5-0.8 4.1 0 7.5 2.8 8.5 6.6 0.4-0.1 0.7-0.1 1.1-0.1 6.2 0 11.2 5 11.2 11.2 0 6.2-5 11.2-11.2 11.2h-35c-5.2 0-9.3-4.2-9.3-9.4C1594.8 280.8 1596.6 277.8 1599.2 276.2z"/>
  <path class="st3" d="M1746.1 281.4c0 2.5 0 5.6 0 8.1 -2.7 0-5.4 0-8.1 0 -3 0-3 0.7-3.6-1.4 -0.9-2.8 0-7.9 0-10.9 0-1.1-0.8-6.2 0-6.9 0.9-0.9 6.9 0 8.1 0 2.8 0 3.1-0.8 3.6 1.4C1746.8 274.4 1746.1 278.4 1746.1 281.4z"/>
  <polygon class="st4" points="2574 479.2 0 462.9 0 580 2574 580 "/>
</svg>
