<svg xmlns="http://www.w3.org/2000/svg" xmlns:xlink="http://www.w3.org/1999/xlink" version="1.1" id="Layer_1" x="0" y="0" viewBox="0 0 2574 580" xml:space="preserve" enable-background="new 0 0 2574 580">
  <style type="text/css">
    
	.st0{fill:#CAD9DF;}
	.st1{fill:#B8C9CD;}
	.st2{fill:#407F00;}
	.st3{fill:#6B9B29;}
	.st4{fill:#4E880C;}
	.st5{fill:#5D9215;}
	.st6{fill:#578D18;}
	.st7{opacity:0.23;}
	.st8{fill:#435400;}

  </style>
  <rect class="st0" width="2574" height="580"/>
  <polygon class="st1" points="1010.2 164 885.5 129.9 832.6 140.3 754.1 109.1 719.2 129.9 609.6 109.1 553.9 147.9 "/>
  <polygon class="st2" points="2574 221.9 0 123.8 0 327.5 2574 254.9 "/>
  <polygon class="st3" points="2574 249.9 0 327.5 0 485.5 2574 485.4 "/>
  <path class="st1" d="M806.9 88.9c-0.1-0.3-0.1-0.6-0.1-0.8 0-3.5 2.6-6.4 6-6.7 0.4-3.7 3.6-6.6 7.4-6.6 3.5 0 6.5 2.5 7.2 5.7 0.8-0.4 1.8-0.6 2.7-0.6 3.2 0 5.7 2.1 6.5 5 0.3 0 0.6-0.1 0.8-0.1 4.7 0 8.5 3.8 8.5 8.5s-3.8 8.5-8.5 8.5h-26.7c-3.9 0-7.1-3.2-7.1-7.1C803.5 92.4 804.9 90.2 806.9 88.9z"/>
  <path class="st3" d="M1449.5 272.5c0-0.3-0.1-0.4-0.1-0.7 0-2.9 2.2-5.3 5-5.7 0.4-3.1 3-5.5 6.2-5.5 3 0 5.4 2.1 6 4.9 0.7-0.3 1.4-0.5 2.3-0.5 2.6 0 4.8 1.8 5.4 4.2 0.3 0 0.4-0.1 0.7-0.1 4 0 7.1 3.1 7.1 7.1s-3.2 7.1-7.1 7.1h-22.3c-3.3 0-6-2.6-6-5.9C1446.8 275.4 1447.9 273.6 1449.5 272.5z"/>
  <path class="st4" d="M1812 417.2c-4.8-4.8-9.5-9.8-14.4-14.4 -2.3-2.1-4.2-1.1-5.6 0.5 -4.2 4.7-8.8 8.9-13.5 12.9 -1.4 1.2-1.6 1-3.7 1 -3.7 0-7.4 0-11.1 0 -9.8 0-19.7 0-29.5 0 -2 0-6.7-0.9-8.5 0 -1.1 0.5-0.7 0.9-0.7 2.5 0 16.9 0 30.4 0 47.2 0 1.7-0.3 1.4 0.8 1.9 2 0.8 6.2 0 8.3 0 9.8 0 19.6 0 29.4 0 4.6 0 9.1 0 13.7 0 2.1 0 6 0.8 8.1 0 1.4-0.6 0.8-2 0.8-3.8 0-4.9 0-6.2 0-11.1 0-1.5-0.8-7 0.2-7.9 0.5-0.4 4.1 0 4.7 0 2.6 0 5.2 0 7.7 0 3.8 0 3.8-0.6 3.8 3 0 4.6 0 5.8 0 10.4 0 2.1 0 4.2 0 6.4 0 0.5-0.3 2.7 0 3 0.4 0.4 4 0 4.6 0 9 0 18.1 0 27.1 0 8.8 0 17.5 0 26.2 0 0.8 0 2.8 0.3 3.2-0.3 0.8-0.9 0-5.9 0-7 0-9.6 0-15.9 0-25.6 0-4.3 0-8.6 0-13 0-0.9 0.6-5.2 0-5.9 -0.5-0.5-4.1 0-4.8 0 -4.3 0-8.7 0-13 0 -9.5 0-19 0-28.4 0C1815.5 417.2 1813.7 417.2 1812 417.2zM1744.7 443c-2.1 0-4.2 0-6.3 0 -2.1 0-1.6 0.3-1.9-1.4 -0.4-2.3 0-4.9 0-7.2 0-0.6-0.5-4.5 0-4.9 0.8-0.6 5 0 5.9 0 2.1 0 1.8-0.4 2.3 1.2C1745.6 434.4 1744.7 439.1 1744.7 443zM1763.8 443c-2.1 0-4.2 0-6.3 0 -2.1 0-1.6 0.3-1.9-1.4 -0.4-2.3 0-4.9 0-7.2 0-0.6-0.5-4.5 0-4.9 0.8-0.6 5 0 5.9 0 2.1 0 1.8-0.4 2.3 1.2C1764.6 434.4 1763.8 439.1 1763.8 443zM1834.1 443c-2.1 0-4.2 0-6.3 0 -2.1 0-1.6 0.3-1.9-1.4 -0.4-2.3 0-4.9 0-7.2 0-0.6-0.5-4.5 0-4.9 0.8-0.6 5 0 5.9 0 2.1 0 1.8-0.4 2.3 1.2C1835 434.4 1834.1 439.1 1834.1 443zM1853.2 443c-2.1 0-4.2 0-6.3 0 -2.1 0-1.6 0.3-1.9-1.4 -0.4-2.3 0-4.9 0-7.2 0-0.6-0.5-4.5 0-4.9 0.8-0.6 5 0 5.9 0 2.1 0 1.8-0.4 2.3 1.2C1854 434.4 1853.2 439.1 1853.2 443zM1794.3 433c-5.4 0-9.8-4.4-9.8-9.8 0-5.4 4.4-9.8 9.8-9.8s9.8 4.4 9.8 9.8C1804.2 428.6 1799.8 433 1794.3 433zM1798.5 429.1l-5.8-5.5 -0.2-7.7h1.8l-0.2 7.1 5.1 5.4L1798.5 429.1z"/>
  <path class="st4" d="M1843.5 379.4c-5.4 0-10.8 0-16.1 0 -4.5 0-9.1 0-13.7 0 -1.6 0-3.6 0.4-4.9-0.4 -1.3-0.8-2.6-2.6-3.7-3.7 -1.9-1.9-3.8-3.8-5.7-5.7 -2.6-2.6-4.1-3.2-4-6.7 0.1-2.3-0.2-4.8 0.2-7.1 0.3-1.9-0.3-1.1 1.4-1.4 2.1-0.4 9.6 1.3 10.8-0.3 0.6-0.9 0.3-6.3 0-7.4 -0.4-1.6-0.4-1.1-2.5-1.1 -4 0-8.1-0.1-12.1-0.1 0.1 4.7 0.3 9.3 0.3 13.9 0.1 1.6 0.7 4.5 0.1 6.1 -0.4 1-1.5 1.8-2.3 2.6 -2 2-4 4-6 6 -1.3 1.3-3.2 4.1-4.9 4.9 -2 0.9-5.7 0.3-7.9 0.3 -6 0-12.1 0-18.1 0 -4.3 0-7.2-0.5-11.5 0.2 -1.9 0.3-4.4 1.1-5.9 2.5 -3.8 3.6-7.6 6.3-11.4 9.8 -5.6 5.2-10.8 11-16.8 15.8 -3.5 2.8 1.6 5.2 6 4.9 9.7-0.5 19.5 0 29.2 0 8.1 0 16.3 0 24.4 0 1.6 0 4.1 0.5 5.7 0 1.2-0.4 2.2-1.8 3.1-2.8 3.2-3.1 6.3-6.3 9.5-9.5 1.5-1.5 3-3 4.6-4.6 0.6-0.6 2-2.6 2.9-2.9 1.3-0.4 2.4 1.5 3.6 2.7 3.2 3.2 6.4 6.4 9.6 9.6 2.9 2.9 5.4 7.4 9.7 7.4 6.9 0 13.9 0 20.8 0 13.9 0 24.6-1.7 38.3 0 5.7 0.7 5.6-3 2.9-6.2 -7.6-8.9-17.2-15-25.6-23.2C1850.6 380.4 1845.4 379.4 1843.5 379.4z"/>
  <path class="st3" d="M965.6 241.7c1.3-0.8 5.8 0 7.3 0 9.8 0 19.5 0 29.3 0 9 0 18.1 0 27.1 0 1.3 0 3.5-0.4 4.6 0 2.8 1.1 5.8 5.1 8 7.1 -25.6 0-51.3 0-76.9 0C965.1 246.8 964.3 242.6 965.6 241.7zM891.4 241.7c-14.3 0-28.7 0-43 0 -7.8 0-15.6 0-23.5 0 -1.1 0-2.6-0.3-3.5 0.1 -2.4 0.9-5.4 5.2-7.2 7 14.7 0 29.4 0 44 0 8.8 0 17.6 0 26.5 0 1.3 0 5.2 0.7 6.3 0C892.1 247.9 891.4 243.5 891.4 241.7zM941.2 220c-1.3-8.1-6.7-14.1-13.2-14.1s-12 6-13.2 14.1h-4.2v12.4l17.4-4.1 17.8 4.2V220L941.2 220 941.2 220zM939.4 188.8h-10v0.3H928l0.4 17h1.1l0.3-10.3h9.5L939.4 188.8 939.4 188.8zM962.2 274.5c0-6.9 0-13.9 0-20.8 0-3.8 1.3-10.1 0-13.7 -0.7-2.1-1.3-1.6-4.1-2.3 -5.9-1.4-11.8-2.8-17.8-4.2 -3.8-0.9-8.4-2.9-12.3-2.9 -2.8 0-6 1.3-8.7 2 -6 1.4-12 2.8-18 4.3 -1.6 0.4-6.7 0.8-7.6 2 -1 1.4 0 7.2 0 8.8 0 5.7 0 11.4 0 17.1 0 11.2 0 22.5 0 33.7 0 1.4-0.4 3.6 0.4 4.3 1.3 1 7.6 0 9.3 0 19.6 0 39.2 0 58.8 0C962.2 293.4 962.2 284 962.2 274.5zM954.7 281.3c0 2.2 1.2 8.5 0 10.3 -0.4 0.6-6.5 1.7-7.6 0.7 -0.8-0.8-1.3-31.8 0-33.9 0.9-1.5 5.4-0.7 7.6-0.7C954.7 265.6 954.7 273.5 954.7 281.3zM939.8 281.3c0 2.2 1.2 8.5 0 10.3 -0.4 0.6-6.5 1.7-7.6 0.7 -0.8-0.8 0-7 0-8 0-4.9 0-9.7 0-14.6 0-2.3-1.3-9.2 0-11.3 0.9-1.5 5.4-0.7 7.6-0.7C939.8 265.6 939.8 273.5 939.8 281.3zM924.9 281.3c0 2.2 1.2 8.5 0 10.3 -0.4 0.6-6.5 1.7-7.6 0.7 -0.8-0.8-1.3-31.8 0-33.9 0.9-1.5 5.4-0.7 7.6-0.7C924.9 265.6 924.9 273.5 924.9 281.3zM909.9 281.3c0 2.2 1.2 8.5 0 10.3 -0.4 0.6-6.5 1.7-7.6 0.7 -0.8-0.8 0-7 0-8 0-4.9 0-9.7 0-14.6 0-2.3-1.3-9.2 0-11.3 0.9-1.5 5.4-0.7 7.6-0.7C909.9 265.6 909.9 273.5 909.9 281.3zM977.6 267c-0.3 0.4-7.1 0.7-7.6 0.2 -0.5-0.5-0.4-8.6 0-9.2 0.7-0.9 6.2-0.2 7.6-0.2C977.6 259.4 978.6 265.8 977.6 267zM993.4 267c-0.3 0.4-7.1 0.7-7.6 0.2 -0.5-0.5-0.4-8.6 0-9.2 0.7-0.9 6.2-0.2 7.6-0.2C993.4 259.4 994.4 265.8 993.4 267zM1009.2 267c-0.3 0.4-7.1 0.7-7.6 0.2 -0.5-0.5-0.4-8.6 0-9.2 0.7-0.9 6.2-0.2 7.6-0.2C1009.2 259.4 1010.2 265.8 1009.2 267zM1025.9 267c-0.3 0.4-7.1 0.7-7.6 0.2 -0.5-0.5-0.4-8.6 0-9.2 0.7-0.9 6.2-0.2 7.6-0.2C1025.9 259.4 1026.9 265.8 1025.9 267zM1033.9 251.3c-0.1-0.1-0.1-0.3-0.2-0.3 -0.7-0.7-5.5 0-6.4 0 -4.5 0-9.1 0-13.6 0 -11.3 0-22.5 0-33.8 0 -2.5 0-13.6-1.4-14.9 0.4 -1.1 1.6 0 7.9 0 9.8 0 5.4 0 10.9 0 16.3 0 5.5 0 11 0 16.5 0 1.4-0.9 7.5 0 8.7 1.4 1.8 13.8 0.3 16.3 0.3 17.5 0 35 0 52.5 0 0-9 0-18.1 0-27.1 0-5.9 0-11.7 0-17.6 0-0.4 0.1-1.3 0.2-2.3h2.6l0.9-1.7h0.8v-1.6h1.7v-1.4L1033.9 251.3 1033.9 251.3zM837.6 267c-0.3 0.4-7.1 0.7-7.6 0.2 -0.5-0.5-0.4-8.6 0-9.2 0.7-0.9 6.2-0.2 7.6-0.2C837.6 259.4 838.6 265.8 837.6 267zM853.4 267c-0.3 0.4-7.1 0.7-7.6 0.2 -0.5-0.5-0.4-8.6 0-9.2 0.7-0.9 6.2-0.2 7.6-0.2C853.4 259.4 854.4 265.8 853.4 267zM869.2 267c-0.3 0.4-7.1 0.7-7.6 0.2 -0.5-0.5-0.4-8.6 0-9.2 0.7-0.9 6.2-0.2 7.6-0.2C869.2 259.4 870.3 265.8 869.2 267zM885.1 267c-0.3 0.4-7.1 0.7-7.6 0.2 -0.5-0.5-0.4-8.6 0-9.2 0.7-0.9 6.2-0.2 7.6-0.2C885.1 259.4 886.1 265.8 885.1 267zM891 251c-0.7-0.7-5.5 0-6.4 0 -4.5 0-9.1 0-13.6 0 -11.3 0-22.5 0-33.8 0 -2.5 0-13.5-1.3-14.8 0.4h-5.9v1.4h1.7v1.6h1.6v1.7h2c0.1 2 0.4 4.1 0.4 5.1 0 5.4 0 10.9 0 16.3 0 5.5 0 11 0 16.5 0 1.4-0.9 7.5 0 8.7 1.4 1.8 13.8 0.3 16.3 0.3 17.5 0 35 0 52.5 0 0-9 0-18.1 0-27.1 0-5.9 0-11.7 0-17.6C891.1 257.2 891.9 251.8 891 251z"/>
  <path class="st2" d="M964.7 305c-22.7 0-45.4 0-68.1 0 -3.5 0-6 0.9-4.9-2.9 0.6-2-0.6-0.8 1.1-1.3 1.3-0.4 4.2 0 5.6 0 13.7 0 27.3 0 41 0 6.8 0 13.5 0 20.3 0C965.2 300.7 964.7 300.2 964.7 305z"/>
  <path class="st2" d="M974.6 312c-28.5 0-57.1 0-85.6 0 -1.6 0-4.7 0.5-6.1 0 -1.6-0.5-1.4-0.3-1.2-2.5 0.3-2.3-0.4-1.3 1.6-1.8 1.8-0.4 4.4 0 6.3 0 17.1 0 34.3 0 51.5 0 8.8 0 17.5 0 26.3 0 1.6 0 4.9-0.6 6.4 0C975.5 308.4 974.6 310.1 974.6 312z"/>
  <path class="st2" d="M985.9 319.1c-35.2 0-70.3 0-105.5 0 -2.5 0-5.5 0.4-8 0 -2.4-0.3-2 0.5-2-2.1 0-2.6-0.4-1.8 1.8-2.1 2.5-0.4 5.4 0 7.8 0 21 0 42 0 63.1 0 10.9 0 21.8 0 32.8 0 2.4 0 6.2-0.6 8.4 0 0.3 0.1 1.3-0.2 1.5 0C986.5 315.3 985.9 318.2 985.9 319.1z"/>
  <path class="st3" d="M1550 255.2c0 4.2 0 8.4 0 12.6 0 3.1 0 6.2 0 9.4 0 1.1 0.6 4.7 0 5.7 -0.9 1.4-10 0.4-12 0.4 -0.8 0-4.7 0.5-5.2 0 -0.8-0.8 0-6 0-7.1 0-0.9 0.4-2.7 0-3.6 -0.5-1.2 0.4-0.3-0.8-0.8 -0.7-0.3-6.9-0.5-7.4 0 -0.7 0.7-0.1 5.1-0.1 6.1 0 0.9 0.5 4.9-0.1 5.4 -0.7 0.6-4.7 0-5.6 0 -3.2 0-6.4 0-9.5 0 -1.7 0-5.4 0.7-7 0 -1.1-0.5-0.7-1.3-0.7-2.8 0-3 0-6.1 0-9.1 0-1.8 0.5-2.4-0.9-2.8 -2.1-0.7-5.6 0-7.7 0 -2 0-6.1-0.8-7.9 0 -1.2 0.5-0.7 1.4-0.7 3.1 0 3 0 6 0 9.1 0 2.5 0.4 2.6-2.1 2.6 -1.3 0-4.3 0.6-4.9-0.4 -0.6-1 0-4.1 0-5.2 0-3 0-6 0-9.1 0-3.1 0-6.2 0-9.2 0-1.3-0.6-4.6 0-5.7 0.8-1.4 8.1-0.5 10-0.5 3.1 0 6.2 0 9.3 0 1.4 0 3.4 0.4 4.8 0 3.3-0.8 6.9-3.8 9.8-5.4 4.9-2.7 9.9-5.5 14.8-8.2 0.9-0.5 1.1-0.8 1.9-0.6 1.4 0.3 3.3 2.5 4.5 3.3 4.9 3.6 9.7 7.2 14.6 10.8C1547.9 253.7 1549 254.5 1550 255.2zM1518 258.5c-1.3 0-6.7-0.8-7.6 0 -0.4 0.4-0.4 5.9-0.1 6.4 0.3 0.3 6.8 0.3 7.3 0C1518.5 264.3 1518 259.9 1518 258.5zM1544.9 258.5c-1.3 0-6.7-0.8-7.6 0 -0.4 0.4-0.4 5.9-0.1 6.4 0.3 0.3 6.8 0.3 7.3 0C1545.5 264.3 1544.9 259.9 1544.9 258.5z"/>
  <path class="st3" d="M1552.9 252c-6.9-4.9-13.8-10-20.7-14.9 -1.6-1.1-3.8-3.7-5.7-3.3 -2 0.4-4.5 2.5-6.2 3.5 -1.5 0.8-3 1.6-4.5 2.5 0-0.8 0.4-3.6 0-4.1 -0.3-0.3-2.3-0.2-2.8-0.1 -1.8 0.2-1.2-0.4-1.5 1.2 -0.3 1.4 0.3 3 0 4.3 -0.3 1.7-1 2-2.7 2.1 -2.5 0.3-5.4 0-8 0 -3.3 0-6.7 0-10 0 -1.3 0-3.3-0.4-4.5 0 -2.1 0.7-4.3 2.9-6.1 4.2 -1.8 1.3-3.7 2.5-5.5 3.8 6.5 0 13 0 19.5 0 2 0 4.7 0.5 6.7 0 1.4-0.4 3-1.7 4.3-2.4 6.7-3.7 13.4-7.5 20-11.2 1.6-0.9 1.5-1.2 2.9-0.6 2.8 1.2 5.5 4 8 5.8 3.8 2.7 7.6 5.5 11.3 8.2 1.1 0.8 2.2 1.8 3.4 2.4C1551.9 254 1554.9 253.5 1552.9 252 1552.2 251.5 1554.2 253 1552.9 252z"/>
  <path class="st3" d="M1443.3 243.4c0.2-0.6 0.3-1.2 0.3-1.9 0-2.9-1.8-5.4-4.5-6.4 -0.8-3.7-4.1-6.5-8-6.7 -1.1-2.5-3.6-4.1-6.4-4.1 -2 0-3.7 0.8-5 2 -0.9-0.4-1.9-0.6-3-0.6 -4.5 0-8.1 3.6-8.1 8.1 0 0.2 0 0.4 0 0.6 -3 1.3-5 4.3-5 7.8 0 1.4 0.3 2.6 0.9 3.8 -2 1.8-3.3 4.3-3.3 7.2 0 5.3 4.3 9.5 9.5 9.5 1.6 0 3-0.4 4.3-1 1.3 1.7 3.1 3 5.3 3.4v21h7.1v-22.5c0.8-0.5 1.4-1.1 2-1.9 1.3 0.8 2.9 1.1 4.5 1.1 4.3 0 7.9-2.8 9.1-6.7 2.5-1.1 4.3-3.6 4.3-6.6C1447.3 247 1445.6 244.6 1443.3 243.4z"/>
  <path class="st2" d="M1564.3 163c0.1-0.3 0.1-0.6 0.1-1 0-1.6-1-2.9-2.4-3.4 -0.4-2-2.2-3.5-4.3-3.5 -0.6-1.3-1.9-2.2-3.5-2.2 -1 0-2 0.4-2.6 1.1 -0.5-0.2-1-0.3-1.6-0.3 -2.4 0-4.3 2-4.3 4.3 0 0.1 0 0.2 0 0.3 -1.6 0.7-2.7 2.3-2.7 4.2 0 0.8 0.2 1.4 0.4 2 -1.1 0.9-1.8 2.3-1.8 3.8 0 2.8 2.3 5.1 5.1 5.1 0.8 0 1.6-0.2 2.3-0.6 0.7 0.9 1.7 1.6 2.8 1.8v11.2h3.8v-12c0.4-0.3 0.8-0.6 1-1 0.7 0.4 1.5 0.6 2.4 0.6 2.3 0 4.2-1.5 4.9-3.6 1.3-0.6 2.3-2 2.3-3.5C1566.4 165 1565.5 163.6 1564.3 163z"/>
  <path class="st2" d="M1531.5 166.9c0.1-0.3 0.1-0.5 0.1-0.8 0-1.2-0.8-2.3-1.8-2.6 -0.4-1.5-1.7-2.7-3.3-2.8 -0.4-1-1.5-1.7-2.7-1.7 -0.8 0-1.5 0.3-2.1 0.8 -0.4-0.1-0.8-0.3-1.3-0.3 -1.8 0-3.3 1.5-3.3 3.3 0 0.1 0 0.2 0 0.3 -1.3 0.6-2.1 1.8-2.1 3.3 0 0.6 0.1 1.1 0.4 1.6 -0.8 0.8-1.4 1.8-1.4 3 0 2.2 1.8 4 4 4 0.6 0 1.3-0.1 1.8-0.4 0.5 0.7 1.3 1.3 2.2 1.4v8.8h2.9v-9.3c0.3-0.2 0.6-0.5 0.8-0.8 0.6 0.3 1.2 0.5 1.9 0.5 1.8 0 3.3-1.2 3.8-2.8 1.1-0.4 1.8-1.5 1.8-2.7C1533.1 168.4 1532.5 167.4 1531.5 166.9z"/>
  <path class="st5" d="M853.9 422.8h51v35h-51V422.8zM1640.1 383.1V472h59v-88.8H1640.1zM1533.8 403.4h102.1v66.1h-102.1v7.6h-155.9v-3.8h-158.8v-12.7h-46.3v5.1h-101.9v0.4H948.3V393h122.7v7.6h83.5v-28.7h9.9v-5.4h18.9v5.4h7.7v-26h2.1v26h36.9v34.4h147.8v-75.6h19.9c-0.1-2.6-1.1-9.8-0.3-12.3 -1.1 0-2.2 0-3.3 0 3.7-2.8 7.2-5.5 10.9-8.4 3.7 2.8 7.2 5.5 10.9 8.4 -1.1 0-2.3 0-3.5 0 0.3 2.4 0.3 10.4-0.1 12.3h121.4V403.4z"/>
  <rect x="869.6" y="427.7" class="st3" width="7" height="11"/>
  <rect x="883" y="427.7" class="st3" width="7" height="11"/>
  <rect x="1052.4" y="399.3" class="st3" width="7" height="11"/>
  <rect x="1159.8" y="379.7" class="st3" width="9.1" height="9.4"/>
  <rect x="1175.2" y="379.7" class="st3" width="9.1" height="9.4"/>
  <rect x="1190.6" y="379.7" class="st3" width="9.1" height="9.4"/>
  <rect x="1206" y="379.7" class="st3" width="9.1" height="9.4"/>
  <rect x="1386.7" y="340.5" class="st3" width="9.1" height="13.1"/>
  <rect x="1386.7" y="360.7" class="st3" width="9.1" height="13.1"/>
  <rect x="1429.8" y="340.5" class="st3" width="9.1" height="13.1"/>
  <rect x="1429.8" y="360.7" class="st3" width="9.1" height="13.1"/>
  <rect x="1445.4" y="340.5" class="st3" width="9.1" height="13.1"/>
  <rect x="1445.4" y="360.7" class="st3" width="9.1" height="13.1"/>
  <rect x="1429.8" y="381.2" class="st3" width="9.1" height="13.1"/>
  <rect x="1429.8" y="401.4" class="st3" width="9.1" height="13.1"/>
  <rect x="1445.4" y="381.2" class="st3" width="9.1" height="13.1"/>
  <rect x="1445.4" y="401.4" class="st3" width="9.1" height="13.1"/>
  <rect x="1159.8" y="395.1" class="st3" width="9.1" height="9.4"/>
  <rect x="1175.2" y="395.1" class="st3" width="9.1" height="9.4"/>
  <rect x="1190.6" y="395.1" class="st3" width="9.1" height="9.4"/>
  <rect x="1206" y="395.1" class="st3" width="9.1" height="9.4"/>
  <rect x="1052.4" y="416.7" class="st3" width="7" height="11"/>
  <rect x="1052.4" y="434" class="st3" width="7" height="11"/>
  <rect x="1687.2" y="394.9" class="st3" width="7" height="11"/>
  <rect x="1687.2" y="412.2" class="st3" width="7" height="11"/>
  <rect x="1687.2" y="429.6" class="st3" width="7" height="11"/>
  <path class="st6" d="M1981.5 441.3c-2.1 3.5-22.7-11.5-25.4-13 -3.3-2-8.1-6.4-11.8-7.2 -2-0.4-3.2 0.8-5.2 2 -10 5.8-20.1 11.6-30.1 17.5 -0.8 0.4-1.8 1.4-2.7 1.6 -3.3 0.8-3.6-2.1-1.5-3.8 2-1.6 4.9-2.8 7.1-4.1 1.1-0.7 4.4-1.8 5.2-3 0.8-1.2 0.1-6.7-0.1-8.1 -0.1-0.9-0.5-1.8-0.6-2 0 0-1.3-2.1-0.6-2.9 0.8-0.8 6.4-0.1 7.5 0 0.9 0.1 1.8-0.3 2.3 0.3 0.7 0.9 0.1 2.8-1.1 2.6 0 1.9 0.1 3.7 0.1 5.6 5.4-3.1 10.6-6.5 16.1-9.3 4-2.1 6.4 0.8 10 2.9 6.6 4 13.2 8.1 19.8 12.1C1972.4 433.3 1983.4 438.2 1981.5 441.3 1980.9 442.2 1982.1 440.3 1981.5 441.3zM1943.4 422.4c-7.5 4.3-15.1 8.7-22.6 13.1 -2.3 1.3-7.9 3.2-9.3 5.4 -1 1.4-0.3 5.7-0.3 7.5 0 5.7 0 11.5 0 17.2 0 1.2-0.9 7.7 0.1 8.6 0.5 0.4 3.2 0 3.8 0 2.7 0 5.5 0 8.2 0 2.6 0 5.3 0 7.9 0 1.4 0 5.1 0.7 6.3 0 1.6-0.9 0.7-6.4 0.7-8.6 0-2.1-1.1-10.1 0.3-11.5 0.8-0.7 5.9 0 6.9 0 2.6 0 2-0.4 2.5 1.4 0.6 1.9 0 4.7 0 6.7 0 2.9 0 5.7 0 8.6 0 4.1 0.2 3.3 4.3 3.3 5.5 0 11 0 16.6 0 0.9 0 4 0.5 4.9 0 0.9-0.5 0.2 0 0.6-1.3 1.2-4 0-10.2 0-14.3 0-5 1.1-11.4 0-16.3 -0.6-2.4-2.8-3-5.2-4.3C1960.5 432.8 1952 427.6 1943.4 422.4zM1964.9 447.2c-1.6 0-8.1 1-9.1 0 -0.3-0.3-0.4-8.7 0-9.1 0.5-0.5 8.8-0.3 9.1 0C1965.9 439.1 1964.9 445.6 1964.9 447.2zM1947.3 447.2c-1.6 0-8.1 1-9.1 0 -0.3-0.3-0.4-8.7 0-9.1 0.5-0.5 8.8-0.3 9.1 0C1948.3 439.1 1947.3 445.6 1947.3 447.2zM1929.7 447.2c-1.6 0-8.1 1-9.1 0 -0.3-0.3-0.4-8.7 0-9.1 0.5-0.5 8.8-0.3 9.1 0C1930.7 439.1 1929.7 445.6 1929.7 447.2zM1964.9 463.3c-1.6 0-8.1 1-9.1 0 -0.3-0.3-0.4-8.7 0-9.1 0.5-0.5 8.8-0.3 9.1 0C1965.9 455.1 1964.9 461.7 1964.9 463.3zM1929.7 463.3c-1.6 0-8.1 1-9.1 0 -0.3-0.3-0.4-8.7 0-9.1 0.5-0.5 8.8-0.3 9.1 0C1930.7 455.1 1929.7 461.7 1929.7 463.3z"/>
  <path class="st4" d="M1680.1 452.9c0-3.2 0-6.4 0-9.6 0-2.8 1.4-10 0-12.3 -1.3-2.3-8.2-1.1-11.3-1.1 -15.7 0-31.4 0-47 0 -0.6 0-3.7-0.4-4.2 0 -1.4 1.1 1.3 6.8-0.1 8.2 -0.3 0.3-3.3 0.6-3.7 0.3 -0.7-0.7 0.4-3.6 0-4.5 -0.9-1.8 0.4-0.3-1.7-1.1 -1.8-0.7-5.2 0-7.1 0 -3.5 0-6.9 0-10.4 0 -8.9 0-17.7 0-26.6 0 -6.8 0-13.6 0-20.5 0 -1.1 0-2 0-2.6 0.1v-19.7h-2.3v-30.4c0-2.8-4-5.1-6.2-5.4 0-0.9 0-2.5 0-2.5h-4.5v2.5c-2.2 0.3-5.4 2.1-6 5.1v4.6h-3.4v8.9h-3.3v-24.6c0-1.6-1.2-3.4-3.5-3.4h-15.9c-2.3 0-3.5 1.9-3.5 3.3v2.3h-1.3v2.6c-2.3 0.3-5.5 2.2-6 5.2v10h-6.8c-1.6 0-3.3 1.4-3.3 3.3v32.4h2.2v-32.4c0-0.6 0.8-1.1 1.1-1.1h6.8v33.5h-19.7 -0.8l-0.9 46.4 67.6 0.1c0 0.1 0 0.2 0 0.3 0 1-0.7 5.1 0 6 0.6 0.7 0.8 0.2 2 0.4 4.9 1.2 11.6 0 16.6 0 9.7 0 19.4 0 29.1 0 26.4 0 52.9 0 79.3 0 5.7 0 11.7 0 17.5 0C1679.6 480.5 1680.7 452.1 1680.1 452.9zM1524.7 389.4h1.2v6.7h-1.2V389.4zM1524.7 398.3h1.2v8.9h-1.2V398.3zM1498.6 371.4c0-0.1 0.3-1.1 1.2-1.1h15.9c1 0 1.3 0.8 1.3 1.1v26.8h5.6v9h-8.9v-8.9h-7.9v-0.8l0 0v-15.6c0-2.8-4-5.1-6.2-5.4 0-0.7 0-1.3 0-2.7h-0.9V371.4zM1518.1 426.5l-9.8 0.2V416h-2.7v-16.6h6.7v8.9h10.1v5h-4.3L1518.1 426.5 1518.1 426.5zM1524.7 413.4v-5h1.2v5H1524.7z"/>
  <polygon class="st4" points="1666.9 310.6 1659.6 310.6 1654.3 428.4 1673.1 428.4 "/>
  <polygon class="st4" points="1643 293.5 1634.1 293.5 1627.1 428.4 1649.9 428.4 "/>
  <path class="st4" d="M990.2 370.8v-36.1c0 0-3.5-2.3-2.6 0.6 1.3 4 0.9 22.9 0.6 25.2 -0.2 2.3-0.8 10.3-0.8 10.3L990.2 370.8 990.2 370.8z"/>
  <path class="st4" d="M984.4 370.8v-24.3c0 0-4-1.5-3 0.4 1.4 2.7 0.9 15.4 0.8 16.9 -0.3 1.6-0.9 6.9-0.9 6.9H984.4z"/>
  <path class="st4" d="M944.5 461.1c0-14.3 0-28.7 0-43 0-10.2 0-20.4 0-30.6 0-3.5 0-7 0-10.5 0-1.3-0.6-4.6 0-5.7 1-1.8 6.9-0.8 9.3-0.8 10.6 0 21.2 0 31.8 0 7.2 0 14.4-0.1 21.6-0.3v92L944.5 461.1zM995 379.5c-0.8-1.3 0.1-0.7-2.3-0.9 -0.6-0.1-4.9-0.5-5.3 0 -0.9 1-0.4 9.5 0 11 0.6 2.2-0.5 1 1.8 1.6 1.7 0.4 4 0 5.7 0C995 388.4 996.2 381.7 995 379.5zM995 399.3c-0.8-1.3 0.1-0.7-2.3-0.9 -0.6-0.1-4.9-0.5-5.3 0 -0.9 1-0.4 9.5 0 11 0.6 2.2-0.5 1 1.8 1.6 1.7 0.4 4 0 5.7 0C995 408.2 996.2 401.5 995 399.3zM979.7 379.5c-0.8-1.3 0.1-0.7-2.3-0.9 -0.6-0.1-4.9-0.5-5.3 0 -0.9 1-0.4 9.5 0 11 0.6 2.2-0.5 1 1.8 1.6 1.7 0.4 4 0 5.7 0C979.7 388.4 980.9 381.7 979.7 379.5zM979.7 399.3c-0.8-1.3 0.1-0.7-2.3-0.9 -0.6-0.1-4.9-0.5-5.3 0 -0.9 1-0.4 9.5 0 11 0.6 2.2-0.5 1 1.8 1.6 1.7 0.4 4 0 5.7 0C979.7 408.2 980.9 401.5 979.7 399.3zM964.4 379.5c-0.8-1.3 0.1-0.7-2.3-0.9 -0.6-0.1-4.9-0.5-5.3 0 -0.9 1-0.4 9.5 0 11 0.6 2.2-0.5 1 1.8 1.6 1.7 0.4 4 0 5.7 0C964.4 388.4 965.6 381.7 964.4 379.5zM964.4 399.3c-0.8-1.3 0.1-0.7-2.3-0.9 -0.6-0.1-4.9-0.5-5.3 0 -0.9 1-0.4 9.5 0 11 0.6 2.2-0.5 1 1.8 1.6 1.7 0.4 4 0 5.7 0C964.4 408.2 965.6 401.5 964.4 399.3zM995 420c-0.8-1.3 0.1-0.7-2.3-0.9 -0.6-0.1-4.9-0.5-5.3 0 -0.9 1-0.4 9.5 0 11 0.6 2.2-0.5 1 1.8 1.6 1.7 0.4 4 0 5.7 0C995 428.9 996.2 422.3 995 420zM995 451.4c0-2.6 1.3-9.4 0-11.6 -0.8-1.3 0.1-0.7-2.3-0.9 -0.6-0.1-4.9-0.5-5.3 0 -0.9 1-0.4 9.5 0 11 0.6 2.2-0.5 1 1.8 1.6M979.7 420c-0.8-1.3 0.1-0.7-2.3-0.9 -0.6-0.1-4.9-0.5-5.3 0 -0.9 1-0.4 9.5 0 11 0.6 2.2-0.5 1 1.8 1.6 1.7 0.4 4 0 5.7 0C979.7 428.9 980.9 422.3 979.7 420zM979.7 439.8c-0.8-1.3 0.1-0.7-2.3-0.9 -0.6-0.1-4.9-0.5-5.3 0 -0.9 1-0.4 9.5 0 11 0.6 2.2-0.5 1 1.8 1.6 1.7 0.4 4 0 5.7 0C979.7 448.7 980.9 442 979.7 439.8zM964.4 420c-0.8-1.3 0.1-0.7-2.3-0.9 -0.6-0.1-4.9-0.5-5.3 0 -0.9 1-0.4 9.5 0 11 0.6 2.2-0.5 1 1.8 1.6 1.7 0.4 4 0 5.7 0C964.4 428.9 965.6 422.3 964.4 420zM964.4 439.8c-0.8-1.3 0.1-0.7-2.3-0.9 -0.6-0.1-4.9-0.5-5.3 0 -0.9 1-0.4 9.5 0 11 0.6 2.2-0.5 1 1.8 1.6 1.7 0.4 4 0 5.7 0C964.4 448.7 965.6 442 964.4 439.8z"/>
  <path class="st4" d="M945.4 361.7c0 7.7 0 15.3 0 23 0 27.5 0 59.6 0 77.2 -2.5 0-5 0-7.4 0 0.1-3.3 1.2-13.7 0-15.8 -0.8-1.3 0.1-0.7-2.3-0.9 -0.6-0.1-4.9-0.5-5.3 0 -0.9 1-0.4 14.2 0 15.6 0.1 0.6 0.2 0.9 0.2 1.1 -9.3 0-18.6 0-28 0V356.6c7.4-0.1 14.9-0.3 22.4-0.3v-4.7h14.6v5.1c1.2 0.1 2.4 0.1 3.5 0.2C946.4 357.1 945.4 358.1 945.4 361.7zM915 364.7c-0.1-0.5-0.6-0.8-1.6-0.9 -0.6-0.1-3.1-0.5-3.6 0 -0.9 1-0.4 9.5 0 11 0.6 2.2-0.5 1 1.8 1.6 1.7 0.4 1.6 0 3.3 0C915 373.6 916.2 366.9 915 364.7zM915 383.8c-0.1-0.5-0.6-0.8-1.6-0.9 -0.6-0.1-3.1-0.5-3.6 0 -0.9 1-0.4 9.5 0 11 0.6 2.2-0.5 1 1.8 1.6 1.7 0.4 1.6 0 3.3 0C915 392.7 916.2 386 915 383.8zM915 402.9c-0.1-0.5-0.6-0.8-1.6-0.9 -0.6-0.1-3.1-0.5-3.6 0 -0.9 1-0.4 9.5 0 11 0.6 2.2-0.5 1 1.8 1.6 1.7 0.4 1.6 0 3.3 0C915 411.9 916.2 405.1 915 402.9z"/>
  <path class="st4" d="M1251 465.2c0-13 0-25.9 0-38.9 0-9.3 0-18.5 0-27.7 0-3.1 0-6.3 0-9.5 0-1.1-0.6-4.2 0-5.2 0.9-1.6 88.1-0.7 90.3-0.7 9.6 0 19.2 0 28.8 0 6.5 0 13-0.1 47.9-0.3v83.2L1251 465.2zM1347 391.5c-0.7-1.2 0.1-0.6-2.1-0.8 -0.5-0.1-4.3-0.4-4.8 0 -0.9 0.9-0.3 8.6 0 9.9 0.5 2-0.4 0.9 1.6 1.4 1.5 0.4 3.6 0 5.2 0C1347 399.6 1348.2 393.5 1347 391.5zM1347 409.3c-0.7-1.2 0.1-0.6-2.1-0.8 -0.5-0.1-4.3-0.4-4.8 0 -0.9 0.9-0.3 8.6 0 9.9 0.5 2-0.4 0.9 1.6 1.4 1.5 0.4 3.6 0 5.2 0C1347 417.5 1348.2 411.4 1347 409.3zM1333.2 391.5c-0.7-1.2 0.1-0.6-2.1-0.8 -0.5-0.1-4.3-0.4-4.8 0 -0.9 0.9-0.3 8.6 0 9.9 0.5 2-0.4 0.9 1.6 1.4 1.5 0.4 3.6 0 5.2 0C1333.2 399.6 1334.4 393.5 1333.2 391.5zM1333.2 409.3c-0.7-1.2 0.1-0.6-2.1-0.8 -0.5-0.1-4.3-0.4-4.8 0 -0.9 0.9-0.3 8.6 0 9.9 0.5 2-0.4 0.9 1.6 1.4 1.5 0.4 3.6 0 5.2 0C1333.2 417.5 1334.4 411.4 1333.2 409.3zM1319.4 391.5c-0.7-1.2 0.1-0.6-2.1-0.8 -0.5-0.1-4.3-0.4-4.8 0 -0.9 0.9-0.3 8.6 0 9.9 0.5 2-0.4 0.9 1.6 1.4 1.5 0.4 3.6 0 5.2 0C1319.4 399.6 1320.5 393.5 1319.4 391.5zM1319.4 409.3c-0.7-1.2 0.1-0.6-2.1-0.8 -0.5-0.1-4.3-0.4-4.8 0 -0.9 0.9-0.3 8.6 0 9.9 0.5 2-0.4 0.9 1.6 1.4 1.5 0.4 3.6 0 5.2 0C1319.4 417.5 1320.5 411.4 1319.4 409.3zM1347 428.2c-0.7-1.2 0.1-0.6-2.1-0.8 -0.5-0.1-4.3-0.4-4.8 0 -0.9 0.9-0.3 8.6 0 9.9 0.5 2-0.4 0.9 1.6 1.4 1.5 0.4 3.6 0 5.2 0C1347 436.2 1348.2 430.1 1347 428.2zM1333.2 428.2c-0.7-1.2 0.1-0.6-2.1-0.8 -0.5-0.1-4.3-0.4-4.8 0 -0.9 0.9-0.3 8.6 0 9.9 0.5 2-0.4 0.9 1.6 1.4 1.5 0.4 3.6 0 5.2 0C1333.2 436.2 1334.4 430.1 1333.2 428.2zM1319.4 428.2c-0.7-1.2 0.1-0.6-2.1-0.8 -0.5-0.1-4.3-0.4-4.8 0 -0.9 0.9-0.3 8.6 0 9.9 0.5 2-0.4 0.9 1.6 1.4 1.5 0.4 3.6 0 5.2 0C1319.4 436.2 1320.5 430.1 1319.4 428.2zM1406.7 391.5c-0.7-1.2 0.1-0.6-2.1-0.8 -0.5-0.1-4.3-0.4-4.8 0 -0.9 0.9-0.3 8.6 0 9.9 0.5 2-0.4 0.9 1.6 1.4 1.5 0.4 3.6 0 5.2 0C1406.7 399.6 1407.8 393.5 1406.7 391.5zM1406.7 409.3c-0.7-1.2 0.1-0.6-2.1-0.8 -0.5-0.1-4.3-0.4-4.8 0 -0.9 0.9-0.3 8.6 0 9.9 0.5 2-0.4 0.9 1.6 1.4 1.5 0.4 3.6 0 5.2 0C1406.7 417.5 1407.8 411.4 1406.7 409.3zM1392.8 391.5c-0.7-1.2 0.1-0.6-2.1-0.8 -0.5-0.1-4.3-0.4-4.8 0 -0.9 0.9-0.3 8.6 0 9.9 0.5 2-0.4 0.9 1.6 1.4 1.5 0.4 3.6 0 5.2 0C1392.8 399.6 1394 393.5 1392.8 391.5zM1392.8 409.3c-0.7-1.2 0.1-0.6-2.1-0.8 -0.5-0.1-4.3-0.4-4.8 0 -0.9 0.9-0.3 8.6 0 9.9 0.5 2-0.4 0.9 1.6 1.4 1.5 0.4 3.6 0 5.2 0C1392.8 417.5 1394 411.4 1392.8 409.3zM1406.7 428.2c-0.7-1.2 0.1-0.6-2.1-0.8 -0.5-0.1-4.3-0.4-4.8 0 -0.9 0.9-0.3 8.6 0 9.9 0.5 2-0.4 0.9 1.6 1.4 1.5 0.4 3.6 0 5.2 0C1406.7 436.2 1407.8 430.1 1406.7 428.2zM1392.8 428.2c-0.7-1.2 0.1-0.6-2.1-0.8 -0.5-0.1-4.3-0.4-4.8 0 -0.9 0.9-0.3 8.6 0 9.9 0.5 2-0.4 0.9 1.6 1.4 1.5 0.4 3.6 0 5.2 0C1392.8 436.2 1394 430.1 1392.8 428.2z"/>
  <path class="st4" d="M1179.3 422.2c0.2-0.6 0.3-1.2 0.3-1.9 0-2.9-1.8-5.4-4.5-6.4 -0.8-3.7-4.1-6.5-8-6.7 -1.1-2.5-3.6-4.1-6.4-4.1 -2 0-3.7 0.8-5 2 -0.9-0.4-1.9-0.6-3-0.6 -4.5 0-8.1 3.6-8.1 8.1 0 0.2 0 0.4 0 0.6 -3 1.3-5 4.3-5 7.8 0 1.4 0.3 2.6 0.9 3.8 -2 1.8-3.3 4.3-3.3 7.2 0 5.3 4.3 9.5 9.5 9.5 1.6 0 3-0.4 4.3-1 1.3 1.7 3.2 3 5.3 3.4v21h7.1v-22.5c0.8-0.5 1.4-1.1 2-1.9 1.3 0.8 2.9 1.1 4.5 1.1 4.3 0 7.9-2.8 9.1-6.7 2.5-1.1 4.3-3.6 4.3-6.6C1183.2 425.8 1181.6 423.3 1179.3 422.2z"/>
  <path class="st4" d="M660.6 397.9c12-7.7 24.6-15.4 36.5-23 0 5.1 0 10.3 0 15.4 0 6.4-0.9 6.4 5.6 6.4 2.5 0 8.9 1.1 10.2-0.6 1.1-1.4 0.6-6.7 0.8-8.5 2.1-24.8 4.2-49.6 6.2-74.5 0.3-3.2-0.4-15.5 2-17.3 1.3-0.9 9.6-0.4 10.2 0.5 0.9 1.3 0.3 6.1 0.4 7.7 1.3 24.9 2.5 49.8 3.7 74.8 0.1 3-1 15.9 1.2 17.8 1.4 1.2 8.3 0.1 8.9-0.8 0.9-1.3 0.3-5.9 0.4-7.4 1.4-24.8 2.8-49.6 4.2-74.5 0.6-10.5 1.2-21.1 1.8-31.6 0.1-1.3-0.4-5.4 0.4-6.4 0.5-0.6 9.9-1 10.8-0.3 1.9 1.6 1 13 1.1 15.5 0.7 12.4 1.4 24.8 2.1 37.2 0.8 13.5 1.5 27 2.3 40.6 0.4 7.6-0.9 18.1 1.4 25.4 0.9 3-0.8 1.6 2.7 2.3 1.9 0.4 11.3 0.9 12.3-0.4 1.4-1.8 0-11 0-13.2 0-6.9 0-13.7 0-20.5 0-2-1.4-11.1 0-12.6 0.6-0.7 3.5-0.3 4.6-0.3 11.8 0 23.8 0 35.6 0 11.1 0 22.9-1.3 34 0 1.6 0.2 2.6-0.4 3.3 0.6 0.9 1.2 0.1 6.6 0.1 7.9 0 24.9 0 49.9 0 74.8 0 5.3 0 10.6 0 15.9 0 2.1 0.9 7.2-0.1 9.1 -0.9 1.8-2 1.2-4.9 1.2 -42.1 0-84.2 0-126.4 0 -45.4 0-90.8 0-136.3 0 -1.6 0-8.9 1.2-10.1 0.1 -2.2-2-0.1-17.2-0.1-20.2 0-12.5 0-25.1 0-37.7 0-1.8-0.6-4.3 0.3-5.7 1.7-2.6 8.6-4.8 11.3-6.3 8.8-4.9 17.5-9.7 26.3-14.6 0 6-0.8 12.6 0 18.6 0.6 4.7 1.5 2.8 5.5 0.4 10.5-6.4 20.9-12.7 31.6-19C660.6 382.6 660.6 390.3 660.6 397.9zM636.7 416.4h-8.8v5.7h8.8V416.4zM636.7 424.6h-8.8v5h8.8V424.6zM648 416.4h-8.8v5.7h8.8V416.4zM648 424.6h-8.8v5h8.8V424.6zM659.3 416.4h-8.8v5.7h8.8V416.4zM659.3 424.6h-8.8v5h8.8V424.6zM670.7 416.4h-8.8v5.7h8.8V416.4zM670.7 424.6h-8.8v5h8.8V424.6zM682 416.4h-8.8v5.7h8.8V416.4zM682 424.6h-8.8v5h8.8V424.6z"/>
  <g class="st7">
    <path class="st8" d="M1663.1 279.5c-1.5 0-3 0-4.5 0C1659.3 279.9 1661.7 279.7 1663.1 279.5z"/>
  </g>
  <path class="st3" d="M1715 279.1v-48.3 -10.1 -83.3c-6.6 0.1-13.1 0.3-19.5 0.3 -9.6 0-19.2 0-28.8 0 -2.1 0-7.5-0.9-8.4 0.7 -0.6 1 0 4 0 5.2 0 3.1 0 6.3 0 9.5 0 9.3 0 18.5 0 27.7 0 13 0 25.9 0 38.9 0 3.7 0 7.4 0 11.2 -3.2 0-6.5 0-9.7 0 -0.9 0-3.4-0.4-4.2 0 -0.9 0.6-0.4 0.3-0.6 1.9 -1.2 10 0 20.9 0 31 0 2.5-1.4 14.6 0.4 15.9 0.6 0.4 3.2 0 3.9 0 2.5 0 5.1 0 7.6 0 0.9 0 1.9 0 2.8 0 1.5 0 3 0 4.5 0 0.4-0.1 0.7-0.1 0.9-0.1 1.3 0 23.4 0 51.7 0C1715.3 279.4 1715.1 279.2 1715 279.1z"/>
  <path class="st6" d="M1703.9 145.9c-0.7-1.2 0.1-0.6-2.1-0.8 -0.5-0.1-4.3-0.4-4.8 0 -0.9 0.9-0.3 8.6 0 9.9 0.5 2-0.4 0.9 1.6 1.4 1.5 0.4 3.6 0 5.2 0C1703.9 153.9 1705 147.9 1703.9 145.9z"/>
  <path class="st6" d="M1703.9 163.7c-0.7-1.2 0.1-0.6-2.1-0.8 -0.5-0.1-4.3-0.4-4.8 0 -0.9 0.9-0.3 8.6 0 9.9 0.5 2-0.4 0.9 1.6 1.4 1.5 0.4 3.6 0 5.2 0C1703.9 171.8 1705 165.7 1703.9 163.7z"/>
  <path class="st6" d="M1690.1 145.9c-0.7-1.2 0.1-0.6-2.1-0.8 -0.5-0.1-4.3-0.4-4.8 0 -0.9 0.9-0.3 8.6 0 9.9 0.5 2-0.4 0.9 1.6 1.4 1.5 0.4 3.6 0 5.2 0C1690.1 153.9 1691.1 147.9 1690.1 145.9z"/>
  <path class="st6" d="M1690.1 163.7c-0.7-1.2 0.1-0.6-2.1-0.8 -0.5-0.1-4.3-0.4-4.8 0 -0.9 0.9-0.3 8.6 0 9.9 0.5 2-0.4 0.9 1.6 1.4 1.5 0.4 3.6 0 5.2 0C1690.1 171.8 1691.1 165.7 1690.1 163.7z"/>
  <path class="st6" d="M1676.2 145.9c-0.7-1.2 0.1-0.6-2.1-0.8 -0.5-0.1-4.3-0.4-4.8 0 -0.9 0.9-0.3 8.6 0 9.9 0.5 2-0.4 0.9 1.6 1.4 1.5 0.4 3.6 0 5.2 0C1676.2 153.9 1677.4 147.9 1676.2 145.9z"/>
  <path class="st6" d="M1676.2 163.7c-0.7-1.2 0.1-0.6-2.1-0.8 -0.5-0.1-4.3-0.4-4.8 0 -0.9 0.9-0.3 8.6 0 9.9 0.5 2-0.4 0.9 1.6 1.4 1.5 0.4 3.6 0 5.2 0C1676.2 171.8 1677.4 165.7 1676.2 163.7z"/>
  <path class="st3" d="M1843 244.8c0-1.9 0-3.8 0-5.7 0-1.1 0.9-7.6 0-8.3 -0.3-0.3-1.6 0-2 0 -13.5-1.3-27.8 0-41.3 0 -5.9 0-11.8 0-17.6 0 0-2.9 0-5.9 0-8.8 0-19.8 0-39.5 0-59.3 0-18.1 0-36.1 0-54.2 0-1.2 0.9-7.4 0-8.3 -0.7-0.7-5.5 0-6.5 0 -4.8 0-9.5 0-14.3 0 -11.5 0-22.9 0-34.3 0 -2.2 0-11-1.1-12 0.6 -0.5 0.9 0 3.6 0 4.5 0 2.6 0 5.4 0 8 0 8.6 0 15.3 0 23.9v0.1c12.2-0.3 24.6-0.5 36.7 0.3 3.1 0.2 2.1 1.1 2.1 4.3 0 6.9 0 13.9 0 20.8 0 20.5 0 42.6 0 58.7 0 3.4 0 6.6 0 9.3 0 8.4 0 13.7 0 14h28.3c0 10.8 0 21.6 0 32.4 0 0.8 0 1.5 0 2.3 32.3 0 58.8 0 60.3 0h0.6l15.2 0.2v-34.9L1843 244.8 1843 244.8z"/>
  <path class="st6" d="M1775.8 110.2c-0.7-1.2 0.1-0.6-2.1-0.8 -0.5-0.1-4.3-0.4-4.8 0 -0.9 0.9-0.3 8.6 0 9.9 0.5 2-0.4 0.9 1.6 1.4 1.5 0.4 3.6 0 5.2 0C1775.8 118.2 1777 112.2 1775.8 110.2z"/>
  <path class="st6" d="M1775.8 128c-0.7-1.2 0.1-0.6-2.1-0.8 -0.5-0.1-4.3-0.4-4.8 0 -0.9 0.9-0.3 8.6 0 9.9 0.5 2-0.4 0.9 1.6 1.4 1.5 0.4 3.6 0 5.2 0C1775.8 136.1 1777 130 1775.8 128z"/>
  <path class="st6" d="M1775.8 145.9c-0.7-1.2 0.1-0.6-2.1-0.8 -0.5-0.1-4.3-0.4-4.8 0 -0.9 0.9-0.3 8.6 0 9.9 0.5 2-0.4 0.9 1.6 1.4 1.5 0.4 3.6 0 5.2 0C1775.8 153.9 1777 147.9 1775.8 145.9z"/>
  <path class="st6" d="M1775.8 163.7c-0.7-1.2 0.1-0.6-2.1-0.8 -0.5-0.1-4.3-0.4-4.8 0 -0.9 0.9-0.3 8.6 0 9.9 0.5 2-0.4 0.9 1.6 1.4 1.5 0.4 3.6 0 5.2 0C1775.8 171.8 1777 165.7 1775.8 163.7z"/>
  <path class="st6" d="M1775.8 181.6c-0.7-1.2 0.1-0.6-2.1-0.8 -0.5-0.1-4.3-0.4-4.8 0 -0.9 0.9-0.3 8.6 0 9.9 0.5 2-0.4 0.9 1.6 1.4 1.5 0.4 3.6 0 5.2 0C1775.8 189.7 1777 183.6 1775.8 181.6z"/>
  <path class="st6" d="M1753.7 244.8c0-0.3 0-5.6 0-14 0-15.9 0-43 0-68 0-6.9 0-13.9 0-20.8 0-3.2 1-4.2-2.1-4.3 -12.1-0.8-24.4-0.5-36.7-0.3v93.4 48.3c0.1 0.2 0.4 0.3 0.6 0.4 3.9 0 7.9 0 12.1 0 17.7 0 36.9 0 54.4 0 0-0.8 0-1.5 0-2.3 0-10.8 0-21.6 0-32.4L1753.7 244.8 1753.7 244.8zM1746.1 271.4c0 2.5 0 5 0 7.4 -2.7 0-5.4 0-8.1 0 -3 0-3 0.7-3.6-1.4 -0.9-2.8 0-7.3 0-10.3 0-1.1-0.8-6.2 0-6.9 0.9-0.9 6.9 0 8.1 0 2.8 0 3.1-0.8 3.6 1.4C1746.8 264.4 1746.1 268.4 1746.1 271.4z"/>
  <path class="st6" d="M1671.6 136.1c3.1 0 16.6 2.1 18.6 0 0.6-0.7 0.6-16.6 0-17.3 -1.1-1.1-18.3-0.4-18.6 0C1669.7 120.9 1671.6 133 1671.6 136.1z"/>
  <path class="st6" d="M1680.9 108.9c4.7 3.6 9.3 7 14 10.8 -9.3 0-18.7 0-28 0C1671.6 115.9 1676.2 112.5 1680.9 108.9z"/>
  <path class="st3" d="M1599.2 266.2c-0.1-0.4-0.1-0.8-0.1-1.1 0-4.5 3.4-8.3 7.9-8.8 0.6-4.8 4.7-8.6 9.6-8.6 4.6 0 8.5 3.2 9.5 7.6 1.1-0.5 2.3-0.8 3.5-0.8 4.1 0 7.5 2.8 8.5 6.6 0.4-0.1 0.7-0.1 1.1-0.1 6.2 0 11.2 5 11.2 11.2 0 6.2-5 11.2-11.2 11.2h-35c-5.2 0-9.3-4.2-9.3-9.4C1594.8 270.8 1596.6 267.8 1599.2 266.2z"/>
  <path class="st3" d="M1746.1 271.4c0 2.5 0 5.6 0 8.1 -2.7 0-5.4 0-8.1 0 -3 0-3 0.7-3.6-1.4 -0.9-2.8 0-7.9 0-10.9 0-1.1-0.8-6.2 0-6.9 0.9-0.9 6.9 0 8.1 0 2.8 0 3.1-0.8 3.6 1.4C1746.8 264.4 1746.1 268.4 1746.1 271.4z"/>
  <polygon class="st4" points="2574 470.6 0 452.9 0 580 2574 580 "/>
</svg>
